<?xml version="1.0" standalone="no"?>
<!DOCTYPE svg PUBLIC "-//W3C//DTD SVG 1.1//EN" "http://www.w3.org/Graphics/SVG/1.1/DTD/svg11.dtd" >
<svg xmlns="http://www.w3.org/2000/svg">
<defs>
  <font id="iconfont" horiz-adv-x="1000">
    <font-face font-family="iconfont"
      units-per-em="1000" ascent="1000"
      descent="0" />
    <missing-glyph horiz-adv-x="0" />
    <glyph glyph-name="add-list-check"
      unicode="&#x554A;"
      horiz-adv-x="1000" d="M104 593H562V510H104V593zM104 760H562V677H104V760zM104 427H396V344H104V427zM837 513L660 336L571 425L513 366L660 218L896 454z" />
    <glyph glyph-name="add-list"
      unicode="&#x554B;"
      horiz-adv-x="1000" d="M562 593H104V510H562V593zM562 760H104V677H562V760zM729 427V593H646V426H479V343H646V176H729V343H896V426H729zM104 343H396V426H104V343z" />
    <glyph glyph-name="add"
      unicode="&#x554C;"
      horiz-adv-x="1000" d="M468.7500000000001 208.3333333333334V468.75H208.3333333333334V531.25H468.7500000000001V791.6666666666667H531.25V531.25H791.6666666666667V468.75H531.25V208.3333333333334z" />
    <glyph glyph-name="adv"
      unicode="&#x554D;"
      horiz-adv-x="1000" d="M651 890C617 890 589.9999999999999 863 589.9999999999999 829S617 768 651 768C685 768 711.9999999999999 795 711.9999999999999 829S684 890 651 890zM651 1000C725 1000 786.9999999999999 953 811 888H926C961 888 990 861 990 829C990 796 961 770 926 770H811C786.9999999999999 705 723.9999999999999 658 651 658S514 704 490 770H74C38 770 10 796 10 829S39 888 74 888H490C514 953 577 1000 651 1000zM321 561C287 561 260 534 260 500C260 466 287 439 321 439S382 466 382 500C382 534 354 561 321 561zM321 671C395 671 457 624 481 559H926C961 559 990 532 990 500.0000000000001C990 467.0000000000001 961 441.0000000000001 926 441.0000000000001H481C457 376.0000000000001 394.0000000000001 329 321 329S185 376.0000000000001 161 441.0000000000001H74C38 441 10 467 10 500S39 559 74 559H160C184 625 247 671 321 671zM651 232C617 232 589.9999999999999 205 589.9999999999999 171.0000000000001S617 110.0000000000001 651 110.0000000000001C685 110.0000000000001 711.9999999999999 137.0000000000002 711.9999999999999 171.0000000000001S684 232 651 232zM651 342C725 342 786.9999999999999 295 811 230H926C961 230 990 203 990 171C990 138 961 111.9999999999999 926 111.9999999999999H811C786.9999999999999 46.9999999999999 723.9999999999999 -1e-13 651 -1e-13S514.9999999999999 46.9999999999999 490.9999999999999 111.9999999999999H74C39 111.9999999999999 10 138.9999999999999 10 171C10 204 38 230 74 230H490C514 296 577 342 651 342z" />
    <glyph glyph-name="airplane"
      unicode="&#x554E;"
      horiz-adv-x="1000" d="M500 53L649 0L649 91L553 170L553 398L986 258.9999999999999L986 368.9999999999999L553 631L553 947C553 976 529 1000 500 1000C470 1000 447 976 447 947L447 631L14 369L14 259L447 398L447 170L351 91L351 0L500 53z" />
    <glyph glyph-name="album"
      unicode="&#x554F;"
      horiz-adv-x="1000" d="M1000 111V889C1000 950 950 1000 889 1000H111C50 1000 0 950 0 889V111.0000000000001C0 50 50 0 111 0H888.9999999999999C950 0 1000 50 1000 111zM306 417L445 250L639 500L889 167H111L306 417z" />
    <glyph glyph-name="alert-square"
      unicode="&#x5550;"
      horiz-adv-x="1000" d="M880 1000H120C54 1000 0 946 0 880V120C0 54 54 0 120 0H880C946 0 1000 54 1000 120V880C1000 946 946 1000 880 1000zM816 214H184C154 214 130 238.0000000000001 130 268.0000000000001C130 278.0000000000001 133 289 138 297.0000000000003L454 801.0000000000002C470 826.0000000000002 503 834.0000000000002 528 819.0000000000002C535 815.0000000000002 541 808.0000000000001 546 801.0000000000002L861.9999999999999 296.0000000000003C876.9999999999999 270.0000000000003 868.9999999999999 237.0000000000003 843.9999999999999 222.0000000000002C835 217 826 214 816 214zM500 391C488 391 476 386 467 377C448.0000000000001 359 448.0000000000001 329 466 311.0000000000001C466 311.0000000000001 466 311.0000000000001 467 310.0000000000001C476 301.0000000000001 488.0000000000001 296.0000000000001 500 296.0000000000001C526 300.0000000000001 544 324 541 350.0000000000001C538 371 521 388 500 391zM500 664C467 664 450 653 450 630C450 627 451 620 452 610L468.0000000000001 449C469.0000000000001 432 477 424 492 424H512C526 424 534 432 536 449L549 610C550 617 550 624 550 630C550 653 533 664 500 664z" />
    <glyph glyph-name="anchor"
      unicode="&#x5551;"
      horiz-adv-x="1000" d="M899.5 538C878.5000000000001 545 854.5 537 841.5000000000001 519L788.5000000000001 446C771.5000000000001 423 776.5000000000001 391 800.5000000000001 374C808.5000000000001 369 816.5000000000001 365 825.5000000000001 364C797.5000000000002 265 688.5000000000001 188 552.5000000000002 172V542H724.5000000000002C753.5000000000002 542 776.5000000000002 565 776.5000000000002 594S753.5000000000002 646.0000000000001 724.5000000000002 646.0000000000001H552.5V724.0000000000001C606.5 745.0000000000001 644.5 797.0000000000001 644.5 857.0000000000001C643.5 936 579.5 1000 500.5 1000S357.5 936 357.5 857C357.5 796 395.5 744 449.5000000000001 724V646H276.5C247.5000000000001 646 224.5000000000001 623 224.5000000000001 594S247.5000000000001 542 276.5 542H448.5V171.9999999999999C312.5 187.9999999999998 203.5 264.9999999999999 175.5 363.9999999999999C184.5 364.9999999999999 192.5 367.9999999999999 200.5 373.9999999999999C223.5 391 228.5 422.9999999999999 211.5 446L158.5 518.9999999999999C145.5 536.9999999999999 121.5 545 100.5 537.9999999999999C79.5 530.9999999999999 64.5 510.9999999999999 64.5 488.9999999999999V414.9999999999999C64.5 236.9999999999999 232.5 90 447.5 68.9999999999999V51.9999999999999C447.5 22.9999999999998 470.5 -1e-13 499.5 -1e-13S551.5 22.9999999999998 551.5 51.9999999999999V68.9999999999999C767.5 90 935.5 237 935.5 415V489C935.5 511 920.5 531 899.5 538M500.5 897C522.5 897 540.5 879 540.5 857C540.5 835 522.5 817 500.5 817C478.5 817 460.5 835 460.5 857C460.5 879 478.5 897 500.5 897" />
    <glyph glyph-name="arrow-back"
      unicode="&#x5552;"
      horiz-adv-x="1000" d="M468.4999999999999 23C484.4999999999999 7 504.4999999999999 0 524.5 0S565.5 8 580.5 23C611.5 53.9999999999999 611.5 105 580.5 136L304.5 413H887.5C935.5 413 974.5 452 974.5 500S935.5 587 887.5 587H304.5L580.5 863C611.5 894 611.5 945 580.5 976C549.5 1008 499.4999999999999 1008 468.5 977L48.5 557C33.5 542 25.5 522 25.5 501S33.5 460 48.5 445z" />
    <glyph glyph-name="arrow-down"
      unicode="&#x5553;"
      horiz-adv-x="1000" d="M529.4499999999999 338.5L809.4499999999999 606.1999999999999A38 38 0 0 1 809.4499999999999 661.6999999999998A42.5 42.5 0 0 1 751.35 661.6999999999998L500.55 421.6999999999998L248.65 661.6999999999998A42.5 42.5 0 0 1 190.55 661.6999999999998A38 38 0 0 1 190.55 606.1999999999999L470.55 338.5A42.2 42.2 0 0 1 528.65 338.5z" />
    <glyph glyph-name="arrow-go"
      unicode="&#x5554;"
      horiz-adv-x="1000" d="M808.9364101783272 444L808.9364101783272 444L575.9364101783272 211C553.9364101783272 188.9999999999999 553.9364101783272 153.9999999999999 575.9364101783272 133C597.9364101783272 110 632.9364101783272 110 654.9364101783272 132L982.9364101783272 459L983.936410178327 460.0000000000001L983.936410178327 461.0000000000001C1004.936410178327 482.0000000000001 1005.9364101783272 518.0000000000001 983.936410178327 540L654.9364101783272 868C632.9364101783272 889 597.9364101783272 889 575.9364101783272 868C554.9364101783272 846 554.9364101783272 810 575.9364101783272 789L808.9364101783272 556L55.9364101783272 556C24.9364101783272 556 -0.0635898216728 531 -0.0635898216728 500C-0.0635898216728 469 24.9364101783272 444 55.9364101783272 444H808.9364101783272z" />
    <glyph glyph-name="arrow-left"
      unicode="&#x5555;"
      horiz-adv-x="1000" d="M248 454L665 19C687 -3.9999999999999 724 -6 749 16.0000000000001C750 17 750 17 752 19C775 44 775 84 752 109L379.0000000000001 499.0000000000001L752 891.0000000000001C775 916.0000000000002 775 956.0000000000002 752 981.0000000000002C730 1004.0000000000002 693 1006.0000000000002 668 984.0000000000002C666 982.0000000000002 666 982.0000000000002 665 981.0000000000002L248 545C225 519 225 481 248 454L248 454z" />
    <glyph glyph-name="arrow-right"
      unicode="&#x5556;"
      horiz-adv-x="1000" d="M752 546L335 981C313 1004 276 1006 251 984C250 983 250 983 248 981C225 956 225 916 248 891L621 501L248 109C225 84 225 44 248 19C270 -3.9999999999999 307 -6 332 16.0000000000001C334.0000000000001 18.0000000000001 334.0000000000001 18.0000000000001 335 19L752 455.0000000000001C775 481 775 519 752 546L752 546z" />
    <glyph glyph-name="arrow-up"
      unicode="&#x5557;"
      horiz-adv-x="1000" d="M454 751L19 335C-5 313 -6 275 16 251C17 250 18 248.9999999999999 19 248C44 223.9999999999999 84 223.9999999999999 109 248L499 621L891 248C916 223.9999999999999 956 223.9999999999999 981 248C1005 270 1006 308 983.9999999999998 332C983 333 981.9999999999998 334 981 335L546 751C521 775 481 775 456 751H454z" />
    <glyph glyph-name="ask"
      unicode="&#x5558;"
      horiz-adv-x="1000" d="M699.671875 184C699.671875 193.0000000000001 702.671875 195 708.671875 201.0000000000001L725.671875 218.0000000000001L742.671875 241.0000000000001C752.671875 253.0000000000001 761.6718750000002 267 768.671875 281.0000000000001V287H759.671875L730.671875 258L684.671875 212L664.671875 195L644.671875 181C625.671875 165 604.671875 153.9999999999999 581.671875 146.9999999999999C564.671875 141 546.671875 143.9999999999999 532.671875 156C524.671875 161 519.671875 170 518.671875 178.9999999999999C519.671875 186.9999999999999 521.671875 194.9999999999999 524.671875 201.9999999999999L530.671875 216C529.671875 226 529.671875 235 530.671875 245C535.671875 264 544.671875 282 556.671875 297C564.671875 309 570.671875 323 573.671875 337C576.671875 362 583.671875 386 593.671875 409C600.671875 426.0000000000001 610.671875 441.0000000000001 622.671875 455.0000000000001L639.671875 478C658.6718750000002 507 658.6718750000002 544 639.671875 573L630.671875 587C624.671875 584 621.6718750000002 587 619.671875 593L599.671875 619C595.671875 625 589.671875 630 582.671875 633L542.671875 639C510.6718750000001 640 478.6718750000001 637 447.6718750000001 630L395.6718750000001 616.0000000000001L363.671875 599L308.671875 588C294.671875 587 280.671875 583 268.671875 577L242.671875 557C231.671875 548 228.671875 533 233.671875 520C237.671875 512 243.671875 505 250.671875 500C258.671875 493 269.671875 491 279.671875 494L296.671875 500L322.671875 509C336.671875 532 365.671875 535 391.671875 541C417.671875 547 394.671875 555 402.671875 558H411.671875L449.671875 560C462.6718749999999 560 474.6718749999999 556 483.6718749999999 549V532C484.6718749999999 525 484.6718749999999 519 483.6718749999999 511.9999999999999L472.6718749999999 491.9999999999999L455.6718749999999 437C450.6718749999999 414 441.6718749999999 391 429.6718749999999 371L418.6718749999999 356.9999999999999L386.6718749999999 296.9999999999999C374.6718749999999 271 361.6718749999999 246 346.6718749999999 221.9999999999999C327.6718749999999 197.9999999999998 315.6718749999999 168.9999999999999 312.6718749999999 138.9999999999999C309.6718749999999 113.9999999999999 313.6718749999999 89.9999999999999 323.6718749999999 66.9999999999999C328.6718749999999 51 339.6718749999999 38.9999999999999 355.6718749999999 32.9999999999998C366.6718749999999 29.9999999999999 375.6718749999999 20.9999999999998 378.6718749999999 9.9999999999999L389.6718749999999 0.9999999999998H467.6718749999998C482.6718749999998 0.9999999999998 496.6718749999998 2.9999999999998 510.6718749999998 6.9999999999998C537.6718749999998 15.9999999999998 562.6718749999998 29.9999999999998 585.6718749999998 46.9999999999998L631.6718749999998 86.9999999999998C656.6718749999998 114.9999999999998 678.6718749999998 145.9999999999998 697.6718749999998 178.9999999999998L699.671875 184zM523.671875 983C510.6718749999999 980 498.6718749999999 972 492.6718749999999 960C481.6718749999999 942 477.6718749999999 921 481.6718749999999 900C483.6718749999999 881 493.6718749999999 864 510.6718749999999 854L516.671875 848C517.671875 836 514.6718749999998 824 507.6718749999999 814C497.6718749999999 805 492.6718749999999 793 493.6718749999999 780C496.6718749999999 760 489.6718749999999 739 473.6718749999999 725V719H482.6718749999999L491.6718749999999 725L548.671875 751L571.671875 760C598.671875 777 624.6718749999998 797 646.6718749999998 820C671.6718749999998 845 691.6718749999998 874 706.6718749999998 906C715.671875 927 710.671875 950 695.671875 966L655.671875 995L644.671875 1000H587.671875C576.671875 1000 565.671875 997 555.671875 991L523.671875 983z" />
    <glyph glyph-name="audio"
      unicode="&#x5559;"
      horiz-adv-x="1000" d="M889 1000H111.0000000000001C50.0000000000001 1000 1e-13 950 1e-13 889V111.0000000000001C1e-13 50 50.0000000000001 0 111.0000000000001 0H889C950 0 1000 50 1000 111V889C1000 950 950 1000 889 1000zM597 180C597 165 585 153 571 153H485.0000000000001C470.0000000000001 153 459.0000000000001 165 459.0000000000001 180V224C459.0000000000001 239 471.0000000000001 251.0000000000001 485.0000000000001 251.0000000000001H571C586 251.0000000000001 597 239 597 224V180zM847 416C847 362 812 316 764 299V258.0000000000001C764 202.0000000000002 726.0000000000002 166.0000000000001 669 166.0000000000001H612V218.0000000000001H669C702 218.0000000000001 709 233.0000000000001 709 258.0000000000001V291.0000000000001H695V569H720C727 569 734 568 741 567V609C741 708 637 795 510 795S288 699 288 609V569H306V291H280.0000000000001C210.0000000000001 291 153.0000000000001 346.9999999999999 153.0000000000001 416V443.9999999999999C153.0000000000001 497.9999999999999 188.0000000000001 543.9999999999999 236.0000000000001 561V608.9999999999999C236.0000000000001 740 362.0000000000001 846.9999999999999 510.0000000000001 846.9999999999999C658 846.9999999999999 792 740 792 608.9999999999999V546.9999999999999C826.0000000000002 524.9999999999999 848 486.9999999999999 848 443.9999999999999V416z" />
    <glyph glyph-name="avatar"
      unicode="&#x555A;"
      horiz-adv-x="1000" d="M599.5 514C689.5 553 753.5 642 753.5 747C753.5 886 639.5 1000 499.5 1000S246.5 886 246.5 747C246.5 643 310.5 553 400.5 514C181.5 468 16.5 273 16.5 41C16.5 38 16.5 35 17.5 26C17.5 11 29.5 0 44.5 0H956.5C971.5 0 983.5 17 983.5 31C983.5 33.9999999999999 983.5 36.9999999999999 983.5 41C983.5 273.9999999999999 818.5 468 599.5000000000001 513.9999999999999H599.5zM300.5 746C300.5 856 389.5 945 499.5 945C609.5 945 698.5 856 698.5 746S609.5000000000001 547 499.5000000000001 547C390.5 547 300.5 636 300.5 746zM70.5 54C77.5 285 267.5 470 499.5 470S922.5 284 929.5 54H70.5z" />
    <glyph glyph-name="back-all"
      unicode="&#x555B;"
      horiz-adv-x="1000" d="M17.9999999999999 454L434 19C455.9999999999999 -5 493.9999999999999 -6 517.9999999999999 16.0000000000001C518.9999999999999 17 519.9999999999999 18.0000000000001 520.9999999999999 19C544.9999999999998 44 544.9999999999998 84 520.9999999999999 109L147.9999999999999 499.0000000000001L520.9999999999999 891.0000000000001C544.9999999999998 916.0000000000002 544.9999999999998 956.0000000000002 520.9999999999999 981.0000000000002C498.9999999999998 1005.0000000000002 460.9999999999999 1006.0000000000002 436.9999999999999 984.0000000000002C435.9999999999999 983.0000000000002 434.9999999999999 982.0000000000002 434 981.0000000000002L17.9999999999999 546C-6.0000000000001 521 -6.0000000000001 481 17.9999999999999 456V454zM478.9999999999999 454L894.9999999999999 19C916.9999999999998 -5 954.9999999999998 -6 978.9999999999998 16.0000000000001C979.9999999999998 17 981 18.0000000000001 981.9999999999998 19C1006 44 1006 84 981.9999999999998 109L608.9999999999999 499.0000000000001L981.9999999999998 891.0000000000001C1006 916.0000000000002 1006 956.0000000000002 981.9999999999998 981.0000000000002C959.9999999999998 1005.0000000000002 921.9999999999998 1006.0000000000002 897.9999999999999 984.0000000000002C896.9999999999999 983.0000000000002 895.9999999999999 982.0000000000002 894.9999999999999 981.0000000000002L478.9999999999999 546C454.9999999999999 521 454.9999999999999 481 478.9999999999999 456V454z" />
    <glyph glyph-name="back-top"
      unicode="&#x555C;"
      horiz-adv-x="1000" d="M945 577L540 985C530 995 515 1000 501 1000S473.0000000000001 996 462 985L55 580C34 559 34 526 55 505C65 495 79 489 93 489C106 489 120 494 130 504L501 873L870 503C880 493 894 487 908 487C921 487 935 491.9999999999999 945 501.9999999999999C966 523 966 557 945 577zM488 733C459 733 435 709 435 680V52C435 23 459 -1 488 -1S541 23.0000000000001 541 52V681C541 710 517 733 488 733z" />
    <glyph glyph-name="bell-square"
      unicode="&#x555D;"
      horiz-adv-x="1000" d="M880 1000H120C54 1000 0 946 0 880V120C0 54 54 0 120 0H880C946 0 1000 54 1000 120V880C1000 946 946 1000 880 1000zM500 180C453 180 409 205 384 245H616C591 205 547 180 500 180zM729 295H271C237.0000000000001 295 210 322 209 355C209 368 213 381 221 392L263 452C279 475 287 502 287 530L287 530V605C288 724 385 820 505 819C513 819 521 818 528 818C637 805 716.9999999999999 708 716.9999999999999 599V531C716.9999999999999 529 716.9999999999999 527 716.9999999999999 525C716 497 723.9999999999999 469 739.9999999999999 446L777.9999999999998 392C797.9999999999998 365 791.9999999999999 327 764.9999999999999 307C754 299 742 295 729 295z" />
    <glyph glyph-name="bell"
      unicode="&#x555E;"
      horiz-adv-x="1000" d="M496 1000C534 1000 565 969 565 931C565 925 564 919 563 914C713.9999999999999 885 829 751 829 591V287L935 190V136L583 136C590 123 593 108.9999999999999 593 93C593 41 551 0 500 0C448 0 407 42 407 93C407 108 411 123 417 136L65 136V190L171 287V591C171 748 282 880 429.0000000000001 912C427 918 426.0000000000001 924 426.0000000000001 931C427 969 458 1000 496 1000z" />
    <glyph glyph-name="between"
      unicode="&#x555F;"
      horiz-adv-x="1000" d="M740 770L1000 500L740 230L740 450L260 450L260 230L0 500L260 770L260 550L740 550z" />
    <glyph glyph-name="bike"
      unicode="&#x5560;"
      horiz-adv-x="1000" d="M646 760C691.9999999999999 760 728.9999999999999 798 728.9999999999999 843S691.9999999999999 926 646 926S563 888 563 843S600 760 646 760zM208 490C92 490 0 398 0 281S92 73 208 73S416 165 416 281S325 490 208 490zM208 135C129 135 62 202 62 281S129 427 208 427S354 360 354 281S288 135 208 135zM450 552L550 652L583 619C637 565 708 532 795 532V615C733 615 682 640 645 677L566 756C545 773 524 781 499 781S453 773 441 756L325 640C308 623 300 602 300 582C300 557 308 536 325 524L458 407V199H541V456L450 552zM792 490C675 490 584 398 584 282S676.0000000000001 74 792 74S1000 165 1000 281S908 490 792 490zM792 135C713 135 646.0000000000001 202 646.0000000000001 281S713.0000000000001 427 792 427S938 360 938 281S871 135 792 135z" />
    <glyph glyph-name="bug"
      unicode="&#x5561;"
      horiz-adv-x="1000" d="M219.9151448188999 631C219.9151448188999 631 238.9151448189 625 281.9151448189 625H531.9151448189H718.9151448189C755.9151448189 625 781.9151448189 631 781.9151448189 631C862.9151448189 656 906.9151448189 750 906.9151448189 844C906.9151448189 863 893.9151448189 875 875.9151448189 875S844.9151448189 862 844.9151448189 844C844.9151448189 781 813.9151448189002 688 732.9151448189 688H719.9151448189C719.9151448189 688 732.9151448189 819 594.9151448189 863V969C594.9151448189 988 581.9151448189 1000 563.9151448189 1000S532.9151448189 987 532.9151448189 969V875C519.9151448189 875 513.9151448189 875 501.9151448188999 875C488.9151448188999 875 482.9151448188999 875 470.9151448188999 875V969C470.9151448188999 988 457.9151448188999 1000 439.9151448189 1000C420.9151448189 1000 408.9151448189 987 408.9151448189 969V863C270.9151448189 819 283.9151448189 688 283.9151448189 688H270.9151448189C189.9151448188999 688 158.9151448188999 782 158.9151448188999 844C158.9151448188999 863 145.9151448188999 875 127.9151448188999 875C108.9151448188999 875 96.9151448188999 862 96.9151448188999 844C94.9151448188999 756 138.9151448188999 662 219.9151448188999 631zM531.9151448189 813H593.9151448189V750H531.9151448189V813zM406.9151448189 813H468.9151448189V750H406.9151448189V813zM219.9151448188999 500C44.9151448188999 494 31.9151448188999 412 31.9151448188999 281C31.9151448188999 268 44.9151448188999 250 62.9151448188999 250C81.9151448189 250 93.9151448188999 269 93.9151448188999 281C93.9151448188999 393 93.9151448188999 431 218.9151448188999 437C218.9151448188999 437 218.9151448188999 336.9999999999999 256.9151448189 243C231.9151448189 237 212.9151448188999 230 200.9151448188999 212C156.9151448188999 174 156.9151448188999 106.0000000000001 156.9151448188999 43.0000000000001V37.0000000000002C156.9151448188999 18.0000000000001 169.9151448188999 1e-13 187.9151448188999 1e-13C206.9151448188999 1e-13 218.9151448189 19.0000000000002 218.9151448189 31.0000000000001V37C218.9151448189 87 218.9151448189 143 243.9151448189 168C249.9151448189 181 268.9151448189 187 287.9151448189 187C318.9151448189 124 381.9151448189 75 468.9151448189 62V562H218.9151448189V500H219.9151448188999zM781.9151448189 500V563H531.9151448189V63C619.9151448189 76 681.9151448189 125 712.9151448189 182C731.9151448189002 182 743.9151448189 176.0000000000001 756.9151448189002 169C781.9151448189002 144 781.9151448189002 94 781.9151448189002 38.0000000000001V32.0000000000002C781.9151448189002 13.0000000000001 794.9151448189 1.0000000000002 812.9151448189 1.0000000000002C831.9151448189002 1.0000000000002 843.9151448189 14.0000000000002 843.9151448189 32.0000000000002V38.0000000000001C843.9151448189 100.0000000000001 843.9151448189 169 799.9151448189 213.0000000000001C786.9151448189 225.0000000000001 762.9151448189 238.0000000000001 743.9151448189 244C780.9151448189 338.0000000000001 780.9151448189 432 780.9151448189 438C905.9151448189 438 905.9151448189 394 905.9151448189 282C905.9151448189 263 918.9151448189 251.0000000000001 936.9151448189 251.0000000000001S967.9151448189 264 967.9151448189 282C969.9151448189 412 956.9151448189 494 781.9151448189 500z" />
    <glyph glyph-name="bus-stop"
      unicode="&#x5562;"
      horiz-adv-x="1000" d="M382 760C382 779 365 787 341 787C330 787 323.0000000000001 786 319 785V731H341C367 732 382 744 382 760zM206 710C206 562 320 441 466 424V66H285V-1.0000000000001H714V66H534V424C680 441 794 562 794 710C794 870 662 1000 500 1000S206 870 206 710zM391 641C379 630 359 625 330 625C314 625 302 626 294 627V796C304 798 320 800 336 800C359 800 374 796 385 787C394 780 400 770 400 757C400 740 388 726 370 719V718C387 714 407 701 407 675C406 661 400 649 391 641zM569 699C569 646 539 625 498 625C460 625 431 645 431 699V800H454.9999999999999V698C454.9999999999999 660 473.9999999999999 643 497.9999999999999 643C524.9999999999999 643 542.9999999999999 660 542.9999999999999 698V800H566.9999999999999V699zM641 612C623 612 603 617 593 624L599 644C610 637 625 632 642 632C667 632 681.0000000000001 645 681.0000000000001 663C681.0000000000001 680 671.0000000000001 690 646.0000000000001 699C616.0000000000001 710 597.0000000000001 725 597.0000000000001 751C597.0000000000001 779 621.0000000000001 800 657.0000000000002 800C676.0000000000002 800 690.0000000000001 796.0000000000001 698.0000000000001 791.0000000000001L691.0000000000001 772.0000000000001C685.0000000000001 776.0000000000001 673.0000000000001 781.0000000000001 656.0000000000001 781.0000000000001C631.0000000000001 781.0000000000001 621.0000000000001 766.0000000000001 621.0000000000001 754.0000000000001C621.0000000000001 737.0000000000001 632.0000000000001 729.0000000000001 658.0000000000001 719.0000000000001C690.0000000000001 707.0000000000001 705.0000000000001 692.0000000000001 705.0000000000001 666.0000000000001C706 637 685 612 641 612zM339 700H319V636C324 635 331 635 340 635C365 635 389 643 389 667C388 690 366 700 339 700z" />
    <glyph glyph-name="bus"
      unicode="&#x5563;"
      horiz-adv-x="1000" d="M77.5000000000001 263C77.5000000000001 217 98.5000000000001 175 130.5000000000001 146V51.9999999999999C130.5000000000001 22.9999999999998 154.5000000000001 -1.0000000000001 183.5000000000001 -1.0000000000001H236.5000000000001C265.5000000000001 -1.0000000000001 289.5000000000001 23 289.5000000000001 51.9999999999999V104.9999999999999H710.5V51.9999999999999C710.5 22.9999999999998 734.5000000000002 -1.0000000000001 763.5 -1.0000000000001H816.5C845.5 -1.0000000000001 869.5 23 869.5 51.9999999999999V146C901.5 175 922.5 216.9999999999999 922.5 263V789C919.5 974 731.5 1000 498.5000000000001 1000S77.5000000000001 974 77.5000000000001 789V263zM261.5000000000001 211C217.5000000000001 211 182.5000000000001 246 182.5000000000001 290C182.5000000000001 334 217.5000000000001 369 261.5000000000001 369S340.5 334 340.5 290C340.5000000000001 246 305.5000000000001 211 261.5000000000001 211zM735.5 211C691.5 211 656.5 246 656.5 290C656.5 334 691.5 369 735.5 369C779.5000000000002 369 814.5000000000002 334 814.5000000000002 290C814.5 246 779.5 211 735.5 211zM814.5 526H182.5000000000001V789H814.5V526z" />
    <glyph glyph-name="calendar"
      unicode="&#x5564;"
      horiz-adv-x="1000" d="M852 115H148C122 115 101 136 101 162V585H900V163C899 137 878 115 852 115zM148 803H239V787C239 759 262 737 289 737C317 737 339 760 339 787V803H659V787C659 759 682 737 709 737C737 737 759 760 759 787V803H850C876 803 897 782 897 756V686H101V756C101 782 122 803 148 803zM852 904H761.0000000000001V935C761.0000000000001 963 738.0000000000001 985 711.0000000000001 985C683.0000000000001 985 661.0000000000001 962 661.0000000000001 935V904H340V935C340 963 317 985 290 985C262 985 240 962 240 935V904H149C66 904 0 837 0 756V163.0000000000001C0 81.0000000000001 66 15.0000000000001 148 15.0000000000001H852C934 15.0000000000001 1000 81.0000000000001 1000 163.0000000000001V756C1000 837 934 904 852 904zM290 517C259 517 234 492 234 461C234 430 259 405 290 405S346 430 346 461C346 492 321 517 290 517zM444 460C444 491 469 516 500 516S556 491 556 460C556 429 531 404 500 404S444 429 444 460zM710 517C679 517 654 492 654 461C654 430 679 405 710 405C741 405 766 430 766 461C767 492 742 517 710 517zM233 261C233 291.9999999999999 258 316.9999999999999 289 316.9999999999999S345 291.9999999999999 345 261C345 230 320 205 289 205S233 230 233 261zM500 317C469 317 444 292 444 261.0000000000001C444 230.0000000000001 469 205.0000000000001 500 205.0000000000001S556 230.0000000000001 556 261.0000000000001C556 292 531 317 500 317zM654 261C654 291.9999999999999 679 316.9999999999999 710 316.9999999999999C741 316.9999999999999 766 291.9999999999999 766 261C766 230 741 205 710 205C679 204 654 230 654 261z" />
    <glyph glyph-name="camera"
      unicode="&#x5565;"
      horiz-adv-x="1000" d="M870 755H789C789 827 731.0000000000001 885 659 885H341C269 885 211 827 211 755H130C58 755 0 697 0 625V245C0 173 58 115 130 115H870C942 115 1000 173 1000 245V625C1000 697 942 755 870 755zM500 205C373 205 270 308 270 435C270 562 373 665 500 665S730 562 730 435C730 308 627 205 500 205zM500 565C428 565 370 507 370 435C370 363 428 305 500 305S630 363 630 435C630 507 572 565 500 565z" />
    <glyph glyph-name="car"
      unicode="&#x5566;"
      horiz-adv-x="1000" d="M864.9999999999999 871C853.9999999999999 903 824.9999999999999 925 788.9999999999999 925H204.9999999999999C169.9999999999999 925 140.9999999999999 903 128.9999999999999 871L18.9999999999999 554V129C18.9999999999999 99 42.9999999999999 75 72.9999999999999 75H126.9999999999999C156.9999999999999 75 180.9999999999999 99 180.9999999999999 129V183.0000000000001H818.9999999999999V129C818.9999999999999 99 842.9999999999999 75 872.9999999999999 75H927C957 75 981.0000000000002 99 981.0000000000002 129V554L864.9999999999999 871zM204.9999999999999 340C160.9999999999999 340 125.9999999999999 375 125.9999999999999 419S160.9999999999999 498 204.9999999999999 498S283.9999999999999 463 283.9999999999999 419S249.9999999999999 340 204.9999999999999 340zM789.9999999999999 340C745.9999999999998 340 710.9999999999998 375 710.9999999999998 419S745.9999999999998 498 789.9999999999999 498C833.9999999999999 498 868.9999999999999 463 868.9999999999999 419S833.9999999999999 340 789.9999999999999 340zM124.9999999999999 606L203.9999999999999 845H788.9999999999999L868.9999999999999 606H124.9999999999999z" />
    <glyph glyph-name="check"
      unicode="&#x5567;"
      horiz-adv-x="1000" d="M443 223L176 490L244.0000000000001 557L443 358.0000000000001L891 806.0000000000001C799 921 658 995 500 995C224 995 0 771 0 495S224 -5 500 -5C776 -5 1000 219 1000 495C1000 578 980 656 944 725L443 223z" />
    <glyph glyph-name="checked"
      unicode="&#x5568;"
      horiz-adv-x="1000" d="M357 128L0 485L101 586L357 330L899 872L1000 771z" />
    <glyph glyph-name="clapperboard"
      unicode="&#x5569;"
      horiz-adv-x="1000" d="M799.1599321908151 919L723.1599321908152 781L852.1599321908153 818L835.1599321908152 878C829.1599321908151 897 816.1599321908151 912 799.1599321908151 919zM706.1599321908151 908L570.159932190815 869L484.159932190815 714L620.1599321908151 752L706.1599321908151 908zM467.1599321908151 839L331.1599321908152 800L245.1599321908152 645L381.1599321908152 684L467.1599321908151 839zM228.1599321908152 771L153.1599321908152 749C122.1599321908152 740 103.1599321908151 709 108.1599321908151 678L109.1599321908151 672L126.1599321908151 612L141.1599321908152 616L228.1599321908152 771zM768.1599321908151 421C783.1599321908151 421 795.1599321908151 407 795.1599321908151 390C795.1599321908151 373 783.1599321908151 359 768.1599321908151 359H267.1599321908152C252.1599321908152 359 240.1599321908152 373 240.1599321908152 390.0000000000001C240.1599321908152 407.0000000000001 252.1599321908152 421.0000000000001 267.1599321908152 421.0000000000001H768.1599321908151zM768.1599321908151 242C783.1599321908151 242 795.1599321908151 228 795.1599321908151 211.0000000000001C795.1599321908151 194 783.1599321908151 180.0000000000001 768.1599321908151 180.0000000000001H267.1599321908152C252.1599321908152 180.0000000000001 240.1599321908152 194.0000000000002 240.1599321908152 211.0000000000001C240.1599321908152 228.0000000000001 252.1599321908152 242 267.1599321908152 242H768.1599321908151zM892.1599321908151 527H139.1599321908152V138.0000000000001C139.1599321908152 108.0000000000001 160.1599321908152 82.0000000000002 189.1599321908152 76.0000000000001L195.1599321908152 75.0000000000001L201.1599321908152 75.0000000000001H830.1599321908151C862.1599321908151 75.0000000000001 889.1599321908151 99.0000000000002 892.1599321908151 131.0000000000001L892.1599321908151 137L892.1599321908151 527zM904.159932190815 908L904.159932190815 908L907.159932190815 900L935.159932190815 804C940.159932190815 786 931.159932190815 767 914.159932190815 759L909.159932190815 757L370.1599321908152 602L930.159932190815 602C949.159932190815 602 965.159932190815 588 967.159932190815 569L967.159932190815 564V137C967.159932190815 64 910.159932190815 4 837.1599321908151 -1L829.1599321908151 -1H202.1599321908152C129.1599321908152 -1 69.1599321908151 56.0000000000001 64.1599321908151 129L64.1599321908151 137V559L38.1599321908151 650C18.1599321908151 720 56.1599321908151 794 125.1599321908151 818L133.1599321908152 821L736.1599321908151 995C806.1599321908151 1015 879.1599321908151 977 904.159932190815 908z" />
    <glyph glyph-name="clock-square"
      unicode="&#x556A;"
      horiz-adv-x="1000" d="M880 1000H120C54 1000 0 946 0 880V120C0 54 54 0 120 0H880C946 0 1000 54 1000 120V880C1000 946 946 1000 880 1000zM769 231C621.0000000000001 81.9999999999999 380.0000000000001 81.9999999999999 232.0000000000001 231S83 620 232.0000000000001 768S621 917 769 768C769 768 769 768 769 768C917 620 917 379 769 231zM690 508H520V677C520 702 500 722 475 722S430 702 430 677V463C430 442 445 423 466 419H690C715 419 735 439 735 464S715 509 690 508L690 508z" />
    <glyph glyph-name="clock"
      unicode="&#x556B;"
      horiz-adv-x="1000" d="M469.5 783C500.5 783 525.5 758 525.5 727V510H743.5C774.4999999999999 510 799.4999999999999 485 799.4999999999999 454C799.4999999999999 423 774.4999999999999 398 743.5 398H470.5C466.5 398 462.5 399 458.5 399C433.5 404 413.5 427 413.5 454V727C413.5 758 438.5 783 469.5 783zM500.5 889C400.5 889 301.5 851 225.5 775C73.5 623 73.5 377 225.5 225C298.5 152 396.5 111 500.5 111C604.5 111 702.5 151 775.5 225C927.5 377 927.5 623 775.5 775C699.5 851 600.5 889 500.5 889zM146.5 854C341.5 1049 658.5 1049 853.5 854C1048.5 659 1048.5 342 853.5 147C759.5 52 634.5 0 500.5 0C366.5 0 241.5 52 146.5 147C-48.5 341 -48.5 659 146.5 854z" />
    <glyph glyph-name="close"
      unicode="&#x556C;"
      horiz-adv-x="1000" d="M635 500L972 837C1009 874 1009 935 972 972S874 1009 837 972L500 635L163 972C126 1009 65 1009 28 972S-9 874 28 837L365 500L28 163C-9 126 -9 65 28 28S126 -9 163 28L500 365L837 28C874 -9 935 -9 972 28S1009 126 972 163L635 500z" />
    <glyph glyph-name="coupon"
      unicode="&#x556D;"
      horiz-adv-x="1000" d="M335 625C335 599 347 569 361 569C375 569 388.0000000000001 594 388.0000000000001 620C388.0000000000001 646 378.0000000000001 670 364.0000000000001 670C350 670 335 651 335 625zM610 357C610 331.0000000000001 622 309 636 309C650 309 665 331.0000000000001 665 357C665 383 651 405 637 405C624 405 610 384 610 357zM500 1000L423 889L309 962L280 841H159V722L38 692L111 578L0 500L111 423L38 309L159 282V160H281L308 39L422 112L500 0L577 111L691.0000000000001 38L720 159H840V281L963 308L890 422L1000 500L889 577L962 691L841 720V841H720L691 962L577 889L500 1000zM687 720C705 707 707 682 692 662L377 270C361 250 332 244 314 257C295.0000000000001 271.0000000000001 291 306.0000000000001 308 327L623 716C637 735 669 733 687 720zM264 622C264 681 315 733 364 733C413 733 460.9999999999999 681 460.9999999999999 622C460.9999999999999 563 410 508.0000000000001 362 508.0000000000001C312 509 264 563 264 622zM541 357C541 416 590 465 639 465C688.0000000000001 465 733.0000000000001 417 733.0000000000001 358S685.0000000000001 246 636.0000000000001 246C588 246 541 297 541 357z" />
    <glyph glyph-name="day-add"
      unicode="&#x556E;"
      horiz-adv-x="1000" d="M221.5 818H124.5C106.5 818 92.5 803 92.5 786V624H910.5V786C910.5 804 895.5 818 878.5 818H781.5V789C797.4999999999999 776 807.4999999999999 756 807.4999999999999 734C807.4999999999999 695 775.4999999999999 663 736.5 663C697.4999999999999 663 665.5 695 665.5 734C665.5 756 675.5 776 691.5 789V818H312.5V789C328.5 776 338.5 756 338.5 734C338.5 695 306.5 663 267.5 663S196.5 695 196.5 734C196.5 756 206.5 776 222.5 789V818zM500.5 507C525.5 507 545.5 487 545.5 462V381H626.5C651.5 381 671.5 361 671.5 336C671.5 311 651.5 291 626.5 291H545.4999999999999V210C545.4999999999999 185 525.4999999999999 165 500.4999999999999 165C475.4999999999999 165 455.4999999999999 185 455.4999999999999 210V290H374.4999999999999C349.4999999999999 290 329.4999999999999 310 329.4999999999999 335C329.4999999999999 360 349.4999999999999 380 374.4999999999999 380H455.4999999999999V461C455.5 487 475.5 507 500.5 507zM909.5 532H91.5V149C91.5 131.0000000000001 106.5 117 123.5 117H876.5C894.4999999999999 117 908.5 132 908.5 149V532zM734.5 974C759.5 974 779.5 954 779.5 929V910H876.5000000000001C944.5 910 999.5 855 999.5 787V151C999.5 83 944.5 28 876.5000000000001 28H123.5C55.5 26 0.5 81 0.5 149V786C0.5 854 55.5 909 123.5 909H220.5V929C220.5 954 240.5 974 265.5 974S310.5 954 310.5 929V910H687.5V929C688.5 954 709.5 974 734.5 974z" />
    <glyph glyph-name="day-range"
      unicode="&#x556F;"
      horiz-adv-x="1000" d="M375.4900982962363 552H292.4900982962363V469H375.4900982962363V552zM542.4900982962363 552H459.4900982962363V469H542.4900982962363V552zM708.4900982962363 552H625.4900982962363V469H708.4900982962363V552zM792.4900982962363 843H750.4900982962363V927H667.4900982962363V844H333.4900982962363V927H250.4900982962363V844H208.4900982962362C162.4900982962362 844 125.4900982962362 806 125.4900982962362 761L125.4900982962362 178C125.4900982962362 132 162.4900982962362 95 208.4900982962362 95H791.4900982962363C837.490098296236 95 874.490098296236 132 874.490098296236 178V760C875.4900982962363 806 838.4900982962363 843 792.4900982962363 843zM792.4900982962363 177H208.4900982962362V635H791.4900982962363V177z" />
    <glyph glyph-name="day-remove"
      unicode="&#x5570;"
      horiz-adv-x="1000" d="M278 413H698V338H278V413zM850 900H800V1000H700V900H300V1000H200V900H150C95 900 51 855 51 800L50 100C50 45 95 0 150 0H850C905 0 950 45 950 100V800C950 855 905 900 850 900zM850 100H150V650H850V100z" />
    <glyph glyph-name="debug"
      unicode="&#x5571;"
      horiz-adv-x="1000" d="M219.9151448189 631C219.9151448189 631 238.9151448189 625 281.9151448189 625H531.9151448189H718.9151448189C755.9151448189 625 781.9151448189 631 781.9151448189 631C862.9151448188999 656 906.9151448189 750 906.9151448189 844C906.9151448189 863 893.9151448189 875 875.9151448189 875S844.9151448189 862 844.9151448189 844C844.9151448189 781 813.9151448189001 688 732.9151448189 688H719.9151448189C719.9151448189 688 732.9151448189 819 594.9151448189 863V969C594.9151448189 988 581.9151448189001 1000 563.9151448189 1000S532.9151448189 987 532.9151448189 969V875C519.9151448189 875 513.9151448189 875 501.9151448189 875C488.9151448189 875 482.9151448189 875 470.9151448189 875V969C470.9151448189 988 457.9151448189 1000 439.9151448189 1000C420.9151448189 1000 408.9151448189 987 408.9151448189 969V863C270.9151448189 819 283.9151448189 688 283.9151448189 688H270.9151448189C189.9151448189 688 158.9151448189 782 158.9151448189 844C158.9151448189 863 145.9151448189 875 127.9151448189 875C108.9151448189 875 96.9151448189 862 96.9151448189 844C94.9151448189 756 138.9151448189 662 219.9151448189 631zM531.9151448189 813H593.9151448189V750H531.9151448189V813zM406.9151448189 813H468.9151448189V750H406.9151448189V813zM219.9151448189 500C44.9151448189 494 31.9151448189 412 31.9151448189 281C31.9151448189 268 44.9151448189 250 62.9151448189 250C81.9151448189 250 93.9151448189 269 93.9151448189 281C93.9151448189 393 93.9151448189 431 218.9151448189 437C218.9151448189 437 218.9151448189 336.9999999999999 256.9151448189 243C231.9151448189 237 212.9151448189 230 200.9151448189 212C156.9151448189 174 156.9151448189 106.0000000000001 156.9151448189 43.0000000000001V37.0000000000002C156.9151448189 18.0000000000001 169.9151448189 1e-13 187.9151448189 1e-13C206.9151448189 1e-13 218.9151448189 19.0000000000002 218.9151448189 31.0000000000001V37C218.9151448189 87 218.9151448189 143 243.9151448189 168C249.9151448189 181 268.9151448189 187 287.9151448189 187C318.9151448189001 124 381.9151448189 75 468.9151448189 62V562H218.9151448189001V500zM781.9151448189 500V563H531.9151448189V63C619.9151448188999 76 681.9151448189 125 712.9151448188999 182C731.9151448189 182 743.9151448188998 176.0000000000001 756.9151448189 169C781.9151448189 144 781.9151448189 94 781.9151448189 38.0000000000001V32.0000000000002C781.9151448189 13.0000000000001 794.9151448188999 1.0000000000002 812.9151448188999 1.0000000000002C831.9151448189 1.0000000000002 843.9151448188998 14.0000000000002 843.9151448188998 32.0000000000002V38.0000000000001C843.9151448188998 100.0000000000001 843.9151448188998 169 799.9151448188998 213.0000000000001C786.9151448188998 225.0000000000001 762.9151448188998 238.0000000000001 743.9151448188998 244C780.9151448188999 338.0000000000001 780.9151448188999 432 780.9151448188999 438C905.9151448188998 438 905.9151448188998 394 905.9151448188998 282C905.9151448188998 263 918.9151448188998 251.0000000000001 936.9151448188998 251.0000000000001S967.9151448188998 264 967.9151448188998 282C969.9151448189 412 956.9151448189 494 781.9151448189 500z" />
    <glyph glyph-name="delete"
      unicode="&#x5572;"
      horiz-adv-x="1000" d="M175.0000000000001 126C175.0000000000001 56 233.0000000000001 0 305.0000000000001 0H695C766 0 825 57 825 126V759H175.0000000000001V126zM632 1000L698 943H897V828H103.0000000000001V943H302.0000000000001L368.0000000000001 1000H632zM619 586L698 510L579 397L698 283L619 207L500.0000000000001 321L381.0000000000001 208L302.0000000000001 283.9999999999999L421.0000000000001 397.9999999999999L301.0000000000001 511.9999999999999L380.0000000000001 587.9999999999999L500.0000000000001 473.9999999999999L619 586z" />
    <glyph glyph-name="dialog"
      unicode="&#x5573;"
      horiz-adv-x="1000" d="M500.4983323828693 892C224.4983323828693 892 0.4983323828693 723 0.4983323828693 514C0.4983323828693 394 74.4983323828693 287 190.4983323828693 218.0000000000001C174.4983323828693 149 127.4983323828693 109 127.4983323828693 109C214.4983323828693 109 273.4983323828693 135 312.4983323828693 164C370.4983323828693 146.0000000000001 433.4983323828693 137 499.4983323828693 137C775.4983323828693 137 999.4983323828694 306 999.4983323828694 515C1000.4983323828694 723 776.4983323828693 892 500.4983323828693 892zM268.4983323828693 453C233.4983323828693 453 207.4983323828693 481 207.4983323828693 514C207.4983323828693 549 235.4983323828694 575 268.4983323828694 575S329.4983323828694 547 329.4983323828694 514C331.4983323828693 481 303.4983323828693 453 268.4983323828693 453zM500.4983323828693 453C465.4983323828693 453 439.4983323828693 481 439.4983323828693 514C439.4983323828693 549 467.4983323828693 575 500.4983323828693 575C533.4983323828693 575 561.4983323828693 547 561.4983323828693 514C563.4983323828693 481 535.4983323828693 453 500.4983323828693 453zM732.4983323828693 453C697.4983323828693 453 671.4983323828694 481 671.4983323828694 514C671.4983323828694 549 699.4983323828693 575 732.4983323828693 575C765.4983323828693 575 793.4983323828693 547 793.4983323828693 514C795.4983323828693 481 767.4983323828693 453 732.4983323828693 453z" />
    <glyph glyph-name="distance"
      unicode="&#x5574;"
      horiz-adv-x="1000" d="M747 742C772 742 793 722 793 696C793 671 773 650 747 650S701 670 701 696C701 721 722 742 747 742zM747 808C682 808 630 755 630 690C630 649 691 563 747 499C803 563 864 649 864 690C865 755 812 808 747 808zM253 471C278 471 299 451 299 425C299 400 279 379 252.9999999999999 379C227.9999999999999 379 206.9999999999999 399 206.9999999999999 425C207 450 228 471 253 471zM253 537C188 537 136 484 136 420C136 379 197 293 253 229C309 292 370 378 370 420C370 484 318 537 253 537zM747 891C858 891 948 801 948 690C948 590 806 438 777.0000000000002 408C771.0000000000002 401 762.0000000000002 397 753 396C748 393.9999999999999 742.0000000000002 392 736 392C633 392 594 373 586 364.9999999999999C589 358 603 338.9999999999999 646 316C741 265 796 223 782 171C769 121 704 108.9999999999999 577 108.9999999999999C534 108.9999999999999 484 109.9999999999999 427 111.9999999999999C379 113.9999999999999 329 114.9999999999999 286 114.9999999999999C276 114.9999999999999 266 118.9999999999999 259 124.9999999999999C257 124.9999999999999 255 123.9999999999999 252 123.9999999999999C241 123.9999999999999 230 128.9999999999999 222 136.9999999999999C194 167 51.9999999999999 320 51.9999999999999 420C51.9999999999999 530 142 620 253 620S452.9999999999999 530 452.9999999999999 420C452.9999999999999 352 386.9999999999999 260 335.9999999999999 198C366.9999999999999 197 398.9999999999999 196 429.9999999999999 195C506.9999999999999 193 626 189 681.9999999999998 197C667.9999999999998 207 644.9999999999998 223 606.9999999999998 243C500.9999999999998 300 496.9999999999998 357 504.9999999999998 385C516.9999999999998 433 568.9999999999998 462 660.9999999999998 472C610 534 547 624 547 690C547 801 637 891 747 891z" />
    <glyph glyph-name="dm"
      unicode="&#x5575;"
      horiz-adv-x="1000" d="M953 980L943.9999999999998 978L660 868L340 980L40 878C28 875 20 865 20 852V46.0000000000001C20 32 32 20 47 20L56 22L341 132L661 21.0000000000001L961 123.0000000000001C973 127.0000000000002 980 136.0000000000001 980 149V954C980 968 968 980 953 980zM660 127L340 240V874L660 762L660 127L660 127z" />
    <glyph glyph-name="doc"
      unicode="&#x5576;"
      horiz-adv-x="1000" d="M852 878H148C122 878 101 857 101 831V752H900V830C899 856 878 878 852 878zM747 554C778 554 803 529 803 498C803 467 778 442 747 442H264C233 442 208 467 208 498C208 529 233 554 264 554H747zM747 339C778 339 803 314 803 283.0000000000001C803 252.0000000000003 778 227.0000000000003 747 227.0000000000003H264C233 227.0000000000003 208 252.0000000000003 208 283.0000000000001C208 314 233 339 264 339H747zM899 650H101V170C101 144 122 123 148 123H852C878 123 899 143.9999999999999 899 170V650zM852 978C934 978 1000 912 1000 830V170C1000 88 934 22 852 22H148C66 22 0 88 0 170V830C0 912 66 978 148 978H852z" />
    <glyph glyph-name="document"
      unicode="&#x5577;"
      horiz-adv-x="1000" d="M601 815C613 815 622 805 622 793V580L694 652C702 660 716.0000000000001 660 724 652C732 644 732 630 724 622L619 515C615 511 609 509 604 509C599 509 593 511 589 515L479 627C471 635 471 649 479 657C486.9999999999999 665 501 665 509 657L581 585V793C580 805 589 815 601 815zM809 585C821.0000000000001 585 830 575 830 563L830 428C830 422 828 417 824 413C820 409 815 407 809 407H393C381 407 372 417 372 429V563C372 575 382 585 393 585C405 585 414 575 414 563V450H788L788 563C788 575 797 585 809 585L809 585zM957 957H227V249H719C731.0000000000001 249 740 239 740 227V153C740 147 741 141 742 135L743 131C748.9999999999999 100 768.9999999999999 73 795 58C796 58 796 57 797 57C799 56.0000000000001 801.0000000000001 55 803 54C803.9999999999999 54 805 53.0000000000001 806 52C808.9999999999999 51.0000000000001 811 50 813.9999999999999 49C814.9999999999999 49 814.9999999999999 48.0000000000001 816 48.0000000000001C818.9999999999999 47.0000000000002 821 47.0000000000002 823.9999999999999 46.0000000000001C824.9999999999999 46.0000000000001 826 45.0000000000001 826.9999999999999 45.0000000000001C828.9999999999999 45.0000000000001 829.9999999999999 44.0000000000002 831.9999999999999 44.0000000000002C833.9999999999999 44.0000000000002 836 43.0000000000002 837.9999999999998 43.0000000000002C838.9999999999998 43.0000000000002 839.9999999999999 43.0000000000002 840.9999999999998 43.0000000000002C843.9999999999998 43.0000000000002 846.9999999999998 43.0000000000002 848.9999999999998 43.0000000000002H857.9999999999998C912.9999999999998 43.0000000000002 957.9999999999998 88.0000000000002 957.9999999999998 144.0000000000002V957zM205 206H43V153C43 92 92 43 152 43L153 43C154 43 155 43 155 43L743.9999999999999 43C743.9999999999999 43 743 43.9999999999999 743 43.9999999999999C741 46 738.9999999999999 48 737 49.9999999999999C736.0000000000001 51.9999999999999 734 52.9999999999998 733 54.9999999999999C731 56.9999999999999 730 58.9999999999999 728 60.9999999999998C727 62.9999999999998 725 64.9999999999999 723.9999999999999 65.9999999999998C721.9999999999999 67.9999999999998 721 70.9999999999998 719.9999999999999 72.9999999999998C718.9999999999999 74.9999999999999 717.9999999999998 76.9999999999999 716.9999999999999 78.9999999999998C716 80.9999999999998 714.9999999999999 83.9999999999998 712.9999999999998 85.9999999999998C711.9999999999999 87.9999999999998 710.9999999999998 89.9999999999999 709.9999999999999 91.9999999999998C708.9999999999999 94.9999999999998 707.9999999999998 96.9999999999998 706.9999999999999 99.9999999999998C706 101.9999999999998 704.9999999999999 103.9999999999998 704.9999999999999 105.9999999999997C703.9999999999999 108.9999999999997 702.9999999999998 111.9999999999996 702.9999999999998 114.9999999999998C702.9999999999998 116.9999999999998 701.9999999999999 118.9999999999998 700.9999999999998 120.9999999999997C699.9999999999999 123.9999999999997 699.9999999999999 127.9999999999997 698.9999999999998 130.9999999999997C698.9999999999998 132.9999999999997 697.9999999999998 133.9999999999997 697.9999999999998 135.9999999999997C696.9999999999999 140.9999999999997 696.9999999999999 145.9999999999997 696.9999999999999 151.9999999999996V204.9999999999996L205 206L205 206zM979 1000C990 1000 1000 990 1000 978V143C1000 63.9999999999999 936 -1.0000000000001 858 -1.0000000000001H153C153 -1.0000000000001 152 -1.0000000000001 151 -1.0000000000001C68 0 0 69 0 153V227C0 239 10 249 21 249H184V979C184 991 194 1001.0000000000002 205 1001.0000000000002H979z" />
    <glyph glyph-name="dollar"
      unicode="&#x5578;"
      horiz-adv-x="1000" d="M500 1000C224 1000 0 776 0 500S224 0 500 0S1000 224 1000 500S776 1000 500 1000M570 196V100H437V197C352 215 279 270 274 367H372C377 315 413.0000000000001 273 504.0000000000001 273C602 273 624 322 624 353C624 395 602 433 490.0000000000001 460C366.0000000000001 490 281.0000000000001 541 281.0000000000001 644C281.0000000000001 730 351.0000000000001 786 436.0000000000001 805V900H570V802C663 779 710 709 712 632H614C612 688 582 726 503.0000000000001 726C428.0000000000001 726 383.0000000000001 692 383.0000000000001 644C383.0000000000001 602 415.0000000000001 574 516.0000000000001 549C617.0000000000001 523 725 479 725 354C726 262 658 212 570 196" />
    <glyph glyph-name="double-arrow"
      unicode="&#x5579;"
      horiz-adv-x="1000" d="M475.5 981C499.5 1006 537.5 1006 561.5 981L977.5 545C989.5 533 995.5 517 995.5 500C995.5 483 988.5 467 977.5 455L562.5 19C538.5 -6 500.5 -6 476.5 19C452.5 44 452.5 84 476.5 109L850.5 501.0000000000001L476.5 891.0000000000001C451.5 916 451.5 956 475.5 981zM22.5 981C46.5 1006 84.5 1006 108.5 981L524.5 545C536.5000000000001 533 542.5 517 542.5 500C542.5 483 535.5 467 524.5 455L108.5 19C84.5 -6 46.5 -6 22.5 19C-1.5 44 -1.5 84 22.5 109L396.5 501.0000000000001L22.5 891.0000000000001C-1.5 916 -1.5 956 22.5 981z" />
    <glyph glyph-name="download"
      unicode="&#x557A;"
      horiz-adv-x="1000" d="M875 312V124H125V312H0V124C0 56 56 0 125 0H875C944 0 1000 56 1000 125V312H875zM812 562L724 650L562 489V1000H438V489L276 651L188 563L500 250L812 562z" />
    <glyph glyph-name="drone"
      unicode="&#x557B;"
      horiz-adv-x="1000" d="M315 888C313 872 298 850 263 813C263 813 263 812 263 812L272 805L336 759C350 803 342 851 315 888zM685 888C658 851 650 803 663 759L736 812C736 812 736 813 736 813C703 850 687 872 685 888zM802 947C771.0000000000001 947 741.0000000000001 937 716.0000000000001 919C732 917 754 902 791.0000000000001 867C812 871 833.0000000000001 864 849 849C864 834 871.0000000000001 812 867 791C901.0000000000002 754 917 732 919 716C961.0000000000002 773 956.0000000000002 853 905 904C877 932 840 947 802 947zM198 947C161 947 124 933 96 905C68 877 53 840 53 802C53 770 63 740 82 716C83 733 100 755 133 791C129 812 136 833 151 849C166 864 188 871 209 867C246 901 268 917 284 919C259 937 228 947 198 947zM813 737L812 737L759 664C803.0000000000001 651 851.0000000000001 659 888.0000000000001 686C872 687 850 703 813 737zM187 737C151 704 129 687 112 686C149 659 197 651 241 664L188 737C188 737 188 737 187 737zM530 529H471V470H530V529zM556 599C568 599 577 592 581 581C591 577 599 568 599 556C599 545 592 536 583 532V466C590 461 595 453 595 444C595 434 590 426 582 421C579 410 569 401 556 401C545 401 536 408 532 417H466C461 410 453.0000000000001 405 444 405C433 405 424 411 420 420C411 424 405 433 405 444C405 453 410 462 417 466V532C408.0000000000001 536 401 545 401 556C401 568 409 579 421 582C426 590 434 595 444 595C453 595 461.9999999999999 590 466 583H532C536 592 545 599 556 599zM198 343C167 343 137 333 112 315C128 313 150 298 187 263C187 263 188.0000000000001 263 188.0000000000001 263L241.0000000000001 336C227 341 213 343 198 343zM888 315C851 342 803 350 758.9999999999999 337L811.9999999999999 264C811.9999999999999 264 812.9999999999998 264 812.9999999999998 264C850 297 872 313 888 315zM753 758L643 679L591 642L579.9999999999999 642L420 642L408.9999999999999 642L247 758C246 757 246 756 245 755C244 754 243 754 242 753L321 643L358.0000000000001 591L358.0000000000001 580L358.0000000000001 419.9999999999999L358.0000000000001 408.9999999999999L242 247C243 246.0000000000001 244 246.0000000000001 245 245L247 242L409 358L420 358L580 358L591 358L643 321L681 293.9999999999999L753 241.9999999999999C753.9999999999999 242.9999999999998 753.9999999999999 243.9999999999999 755 244.9999999999999C756 245.9999999999998 757 245.9999999999998 758 246.9999999999999L748 261L642 409L642 420L642 580L642 591L758 753C757 754 756 754 755 755C754 756 754 757 753 758zM664 241C651.0000000000001 196.9999999999999 659 148.9999999999999 686.0000000000001 111.9999999999999C688.0000000000001 127.9999999999998 703.0000000000001 149.9999999999999 738.0000000000001 186.9999999999999L738.0000000000001 187.9999999999998L664 241zM337 241L264 188C264 188 264 187 264 187C298 150 314 128 316 112C342 149 350 197 337 241zM82 284C40 227 45 147 96 96C147 45 228 40 284 81.9999999999999C268 83.9999999999999 246 98.9999999999999 209 133.9999999999999C188 129.9999999999999 167 136.9999999999999 151 151.9999999999999C136 166.9999999999999 129 188.9999999999999 133 209.9999999999999C99 246 84 268 82 284zM918 284C916 268.0000000000001 901 246.0000000000001 866 209C870 188.0000000000001 863 167 848 151.0000000000001C833 136.0000000000001 811 129 790 133.0000000000001C753 99 731 83.0000000000001 715 81.0000000000001C772 39 852 44 903 95.0000000000001C956 147 960 227 918 284zM802 1000C855 1000 905 979 942 942C979 905 1000 855 1000 802C1000 749 979 699 942 662C904 624 853 604 802 604C777 604 751.0000000000001 609 727 619L696.0000000000001 575V426.0000000000001L727 382.0000000000001C800 412.0000000000001 885 396.0000000000001 942 339C1019 262 1019 136.0000000000001 942 59C903 20 853 1.0000000000001 802 1.0000000000001C751.0000000000001 1.0000000000001 700 20.0000000000001 662 59C605 116.0000000000001 589 201.0000000000001 619 274L575.0000000000001 305H425L381 274C411 201.0000000000001 395 116.0000000000001 338.0000000000001 59C299.0000000000001 20 249.0000000000001 1.0000000000001 198.0000000000001 1.0000000000001C147.0000000000001 1.0000000000001 96.0000000000001 20.0000000000001 58 59C-19 136.0000000000001 -19 262 58 339C115 396.0000000000001 200 412 273.0000000000001 382L304.0000000000001 426V575L273.0000000000001 619C249.0000000000001 609 224.0000000000001 604 198.0000000000001 604C147.0000000000001 604 96.0000000000001 624 58 662C21 699 0 749 0 802C0 855 21 905 58 942C96 979 145 1000 198 1000S301 979 338 942C395 885 411 800 381 727L425 696H573.9999999999999L617.9999999999999 727C587.9999999999999 800 603.9999999999999 885 661 942C699 979 749 1000 802 1000z" />
    <glyph glyph-name="drop"
      unicode="&#x557C;"
      horiz-adv-x="1000" d="M500 1000C500 1000 153 612 153 350C153 156 308 0 500 0S847 156 847 350C847 612 500 1000 500 1000" />
    <glyph glyph-name="duplicate"
      unicode="&#x557D;"
      horiz-adv-x="1000" d="M870 1000C904 1000 932 972 932 938V300C932 266 904 238 870 238H817C783 238 755 266 755 300C755 332 779 358 808 362V874H415C406 852 382 835 356 835C322 835 294 863 294 897V937C294 971 322 999 356 999H870V1000zM581 637H193V125H581V637zM643 763C677 763 705 735 705 701V63.0000000000001C705 29 677 1.0000000000001 643 1.0000000000001H130C96 1.0000000000001 68 29 68 63.0000000000001V699C68 733 96 761 130 761H644V763z" />
    <glyph glyph-name="earth"
      unicode="&#x557E;"
      horiz-adv-x="1000" d="M619 559L610 559L610 559L605 562C587 574 629 591 642 593C647 680 698 561 619 559zM78 471C81 456 97 457 105 444C104 430 97 417 86 405C81 425 78 446 77 468L78 471zM500 925L502 925L505 924C514 921 521 922 527 925C632 919 727 874 798.0000000000001 804C793.0000000000001 800 789 794 787.0000000000002 785C775.0000000000001 803 748.0000000000001 792 741.0000000000002 772C763.0000000000002 756 751.0000000000002 736 741.0000000000002 719C726.0000000000002 675 705.0000000000002 734 705.0000000000002 755C708.0000000000002 772 755.0000000000002 827 721.0000000000002 797C684.0000000000002 835 699.0000000000002 775 671.0000000000002 775C636.0000000000002 792 595.0000000000002 777 580.0000000000002 737C611.0000000000002 713 623.0000000000002 748 623.0000000000002 679C618.0000000000002 658 607.0000000000002 614 578.0000000000002 620C567.0000000000002 613 569.0000000000002 598 558.0000000000002 590C575.0000000000002 579 594.0000000000002 532 558.0000000000002 543C559.0000000000002 565 532.0000000000002 575 542.0000000000002 589C527.0000000000002 595 515.0000000000001 569 512.0000000000002 599C503.0000000000002 589 486.0000000000002 583 503.0000000000002 572C514.0000000000002 580 530.0000000000002 584 528.0000000000002 565C490.0000000000002 550 596.0000000000001 444.9999999999999 449.0000000000003 431.9999999999999C408.0000000000002 403.9999999999999 469.0000000000002 394.9999999999999 459.0000000000002 359.9999999999999C460.0000000000002 342.9999999999998 417.0000000000002 307.9999999999998 426.0000000000003 342.9999999999998C403.0000000000003 344.9999999999999 417.0000000000003 357.9999999999998 400.0000000000003 362.9999999999998C381.0000000000003 334.9999999999999 445.0000000000003 302.9999999999998 427.0000000000003 279.9999999999999C437.0000000000003 269.9999999999999 445.0000000000003 262.9999999999998 450.0000000000003 261.9999999999999C438.0000000000002 256.9999999999999 441.0000000000003 246.9999999999999 443.0000000000002 237.9999999999998C405.0000000000003 224.9999999999999 398.0000000000002 305.9999999999998 362.0000000000002 317.9999999999998C366.0000000000002 327.9999999999998 376.0000000000002 324.9999999999999 388.0000000000002 315.9999999999998C378.0000000000002 342.9999999999998 375.0000000000003 371.9999999999998 367.0000000000002 395.9999999999998C340.0000000000001 371.9999999999998 352.0000000000002 414.9999999999998 336.0000000000002 424.9999999999998C312.0000000000002 473.9999999999998 285.0000000000001 399.9999999999998 250.0000000000002 381.9999999999998C248.0000000000002 362.9999999999998 258.0000000000002 327.9999999999998 228.0000000000002 322.9999999999998C216.0000000000002 359.9999999999999 192.0000000000002 389.9999999999999 193.0000000000002 429.9999999999999C160.0000000000002 420.9999999999999 168.0000000000002 462.9999999999998 122.0000000000002 466.9999999999999C106.0000000000002 462.9999999999999 83.0000000000001 457.9999999999999 79.0000000000002 477.9999999999999L76.0000000000002 475.9999999999999C76.0000000000002 482.9999999999999 75.0000000000002 490.9999999999999 75.0000000000002 497.9999999999999C75.0000000000002 723.9999999999999 251.0000000000002 908.9999999999998 473.0000000000001 922.9999999999998C482.0000000000001 919.9999999999998 490.0000000000001 915.9999999999998 495.0000000000001 923.9999999999998L500 925zM526 324C543 319 562 313.0000000000001 541 298.0000000000001C542 294 542 289 542 285.0000000000001C579 289.0000000000003 595 273.0000000000001 536 273.0000000000001L541 273.0000000000001C541 271.0000000000001 540 270.0000000000001 540 268.0000000000001C549 261.0000000000001 569 269 548 249C560 234 562 209 534 234C529 219 517 224 513 239C510 241.0000000000001 505.9999999999999 243.0000000000001 500.9999999999999 239C481.9999999999999 245 460.9999999999999 287 488 283.0000000000001C502 297 520 305 526 324zM728 261C733 255 738 250 742 243.9999999999999C744 244.9999999999999 747 246 748 248.9999999999999C752 244.9999999999999 751 239.9999999999999 747 238C756.0000000000001 226 764 213.9999999999999 776.0000000000001 203.9999999999999C754 188 740.0000000000001 213.9999999999999 725.0000000000001 223.9999999999999C712.0000000000002 203.9999999999999 685.0000000000001 208.9999999999999 669.0000000000002 218.9999999999999C694.0000000000002 238.9999999999999 654.0000000000002 246.9999999999999 639.0000000000002 253.9999999999999C644.0000000000002 256.9999999999999 650.0000000000001 258.9999999999999 656.0000000000002 261C657.0000000000002 261 659.0000000000002 261.9999999999999 661.0000000000002 263C665.0000000000002 265 668.0000000000002 267 669.0000000000002 271C688 281 706 256 728 261zM693 199C705 184 706 154 715 133.0000000000001C658 100.0000000000001 593 79 523 75.0000000000001L500 74L488 74C486.9999999999999 91.0000000000001 493 106.0000000000001 527 116.0000000000001C559 112 571 198.0000000000001 599.9999999999999 158.0000000000001C627 210.0000000000001 617 186.0000000000001 655 187.0000000000002C657 156.0000000000002 629 167.0000000000002 676 142.0000000000002C693 159 673 182 693 199zM500 950C252 950 50 748 50 500C50 252 251 50 500 50C748 50 950 251 950 500C950 748 748 950 500 950zM500 1000C776 1000 1000 776 1000 500C1000 224 776 0 500 0C224 0 0 224 0 500C0 776 224 1000 500 1000z" />
    <glyph glyph-name="exclamation"
      unicode="&#x557F;"
      horiz-adv-x="375" d="M343.75 156.25C343.75 70.09375 273.65625 0 187.5 0S31.25 70.09375 31.25 156.25S101.34375 312.5 187.5 312.5S343.75 242.40625 343.75 156.25zM49.3359375 950.783203125L75.8984375 419.533203125C77.146484375 394.5859375 97.736328125 375 122.71484375 375H252.2851562500001C277.263671875 375 297.853515625 394.5859375 299.1015625000001 419.533203125L325.6640625 950.783203125C327.001953125 977.55859375 305.65625 1000 278.84765625 1000H96.15234375C69.34375 1000 47.998046875 977.55859375 49.3359375 950.783203125z" />
    <glyph glyph-name="expand"
      unicode="&#x5580;"
      horiz-adv-x="1000" d="M1000 689V944C1000 975 975 1000 944 1000H689C640 1000 615 940 650 905L710 845L154 289L94 349C60 384 0 360 0 311V56C0 25 25 0 56 0H311C360 0 385 60 350 95L290 155L846 711L906 651C940 616 1000 640 1000 689z" />
    <glyph glyph-name="facebook-circle"
      unicode="&#x5581;"
      horiz-adv-x="1000" d="M500 998C776 998 1000 774 1000 498C1000 241.9999999999999 808 31 560 1.9999999999999L560 377.9999999999999H666L680 517.9999999999999H560V595C560 640 583 645 598 645H680V784H559C418 784 397 675 397 604V518H320V378H397L397 9C170 56 0 257 0 498C0 774 224 998 500 998z" />
    <glyph glyph-name="facebook"
      unicode="&#x5582;"
      horiz-adv-x="1000" d="M722 672H574V767C574 823 602 829 621 829H722V1000H573C399 1000 373 866 373 778V672H278V499.0000000000001H373V0H574V499H705L722 672z" />
    <glyph glyph-name="faq"
      unicode="&#x5583;"
      horiz-adv-x="1000" d="M859 770C869 770 877 762 877 753S869 736 859 736H513C503 736 495 744 495 753S503 770 513 770H859zM859 666C869 666 877 658 877 649C877 639 869 632 859 632H579C569 632 561.0000000000001 640 561.0000000000001 649C561.0000000000001 659 569 666 579 666H859zM859 561C869 561 877 553 877 544C877 534 869 527 859 527H684C674 527 666.0000000000001 535 666.0000000000001 544C666.0000000000001 554 674 561 684 561H859zM918 855H445C419 855 398 834 398 808V639C399 639 399 639 400 638C405 637 410 635 414 634C418 633 423 631.0000000000001 427 630C428 630 430 629 431 629C513.9999999999999 599 577 540 603.9999999999999 467C604.9999999999999 466 604.9999999999999 464 606 463C607 460.0000000000001 608 457 608.9999999999999 455.0000000000001C609.9999999999999 452.0000000000001 611 449 611.9999999999999 445.0000000000001C611.9999999999999 444 612.9999999999999 442.0000000000001 612.9999999999999 441.0000000000001H750C756 441.0000000000001 762 438.0000000000001 765 432.0000000000001C765 431.0000000000001 803 367.0000000000001 871 341.0000000000001C853 388.0000000000001 863.9999999999999 426.0000000000001 865 428.0000000000001C867 435.0000000000001 874 440.0000000000001 882 440.0000000000001H918C943.9999999999998 440.0000000000001 965 461.0000000000001 965 487.0000000000002V808C965 834 944 855 918 855zM303 523C350 523 383 495 383 456C383 428 369 408.9999999999999 345 394.9999999999999C322 381 315 372 314 353.9999999999999C313 341.9999999999999 308 334.9999999999999 296 334.9999999999999C283 334.9999999999999 277 343.9999999999999 277 355.9999999999998V360C277 383 288 398 312 412C334 425 342 436 342 454C342 475.0000000000001 325 490.0000000000001 301 490.0000000000001C279 490.0000000000001 264 479 259 460.0000000000001C255.0000000000001 449 250.0000000000001 445.0000000000001 241 445.0000000000001C230 445.0000000000001 223 452.0000000000001 223 463C223 471 225 477 228 484C239 508 267 523 303 523zM296 305C310 305 320 295 320 282S310 259 296 259C283 259 272 269 272 282S283 305 296 305zM310 615C158 615 35 512 35 385C35 332 57 281 97 240C101 236 102 231 102 226C99 200 91 175 76 150C103 156 130 168 158 184C163 187 169 187 175 185C216 166 263 155 310 155C462 155 585 258 585 385C585 397 584 408 582 419C581 424 580 429 579 434C579 435 578 437 578 438C577 442 576 445 575.0000000000001 448C574 451 573 454 572.0000000000001 457C571.0000000000001 459 570.0000000000001 462 569.0000000000001 464C568.0000000000001 467 566.0000000000001 470 565.0000000000001 473C565.0000000000001 474 564.0000000000001 474 564.0000000000001 475C540.0000000000001 522 497.0000000000001 562 443.0000000000001 586C443.0000000000001 586 443.0000000000001 586 443.0000000000001 586C439.0000000000001 588 436.0000000000001 589 432.0000000000001 591C430.0000000000001 592 427.0000000000001 593 425.0000000000001 594C421.0000000000001 595 418.0000000000001 597 414.0000000000001 598C410.0000000000001 599 406.0000000000001 601 402 602L397 603C391 605 385 606 379.0000000000001 607C356 613 333 615 310 615zM918 890C963 890 1000 853 1000 808V487C1000 442 963 405 918 405H896C893.9999999999999 388 896 357 918.9999999999998 324C923 318.0000000000001 923 311.0000000000001 919.9999999999998 305C916.9999999999998 300 910.9999999999998 297 904.9999999999998 297C903.9999999999998 297 902.9999999999998 297 902.9999999999998 297C812.9999999999998 309 757.9999999999998 380 740.9999999999998 406H619C620 400 620 393 620 386C620 240 481 121 310 121C261 121 212 131 168 150C125 126 82 112 40 110C40 110 39 110 39 110C32 110 26 114 23 119C20 125 21 132 25 138.0000000000001C47 166.0000000000001 60 194 65 222.0000000000002C23 269 0 326 0 385C0 531 139 650 310 650C328 650 346 649 363 646V808C363 853 400 890 445 890H918z" />
    <glyph glyph-name="fax"
      unicode="&#x5584;"
      horiz-adv-x="1000" d="M866.5 317C887.5 317 904.5 334 904.5 355V641C904.5 662 887.5 679 866.5 679H132.5C111.5 679 94.4999999999999 662 94.4999999999999 641V355C94.4999999999999 334 111.4999999999999 317 132.5 317H203.5V374C203.5 375.0000000000001 203.5 376.0000000000001 203.5 377C203.5 377 203.5 378 203.5 378H195.4999999999999C169.4999999999999 378 148.5 399 148.5 425.0000000000001C148.5 451.0000000000001 169.5 472.0000000000001 195.4999999999999 472.0000000000001H802.5C828.4999999999998 472.0000000000001 849.5 451.0000000000001 849.5 425.0000000000001C849.5 399 828.5 378 802.5 378H794.5C794.5 376 795.5 373 795.5 371V317H866.5zM700.5 148V371C700.5 373 700.5 376 701.4999999999998 378H297.5C297.5 378 297.5 377 297.5 377C297.5 376 297.5 375 297.5 374V148.0000000000001C297.5 126.0000000000001 311.5 110.0000000000001 323.5 110.0000000000001H674.5C687.5 110 700.5 126 700.5 148zM300.5 890C281.5 890 264.5 873 264.5 852V774H732.5V852C732.5 873 716.5 890 696.5 890H300.5zM828.5 774H867.5C940.5 774 1000.5 714 1000.5 641V355C1000.5 282 940.5 222 867.5 222H796.5000000000002V147C796.5000000000002 74 742.5 14 675.5000000000002 14H324.5C258.5 14 203.5 74 203.5 147V222H132.5C58.4999999999999 223 -0.5000000000001 282 -0.5000000000001 355V641C-0.5000000000001 714 58.4999999999999 774 132.5 774H171.5V852C171.5 925 229.5 985 301.5 985H698.5C770.5 985 828.5 925 828.5 852V774zM695.5 571C695.5 598 717.5 620 744.5 620C771.5 620 793.5 598 793.5 571C793.5 544 771.5 522 744.5 522C717.5 522 695.5 544 695.5 571z" />
    <glyph glyph-name="file"
      unicode="&#x5585;"
      horiz-adv-x="1000" d="M331.25 260.4166666666668H666.6666666666666V322.9166666666668H331.25V260.4166666666668zM331.25 437.5H666.6666666666666V500H331.25V437.5zM229.1666666666667 83.3333333333334C212.5 83.3333333333334 197.9166666666667 89.5833333333334 185.4166666666667 102.0833333333334C172.9166666666667 114.5833333333334 166.6666666666667 129.1666666666668 166.6666666666667 145.8333333333334V854.1666666666667C166.6666666666667 870.8333333333334 172.9166666666667 885.4166666666666 185.4166666666667 897.9166666666666C197.9166666666667 910.4166666666666 212.5 916.6666666666666 229.1666666666667 916.6666666666666H606.25L833.3333333333333 689.5833333333334V147.9166666666668C833.3333333333333 131.2500000000001 827.0833333333334 116.6666666666668 814.5833333333334 104.1666666666667C802.0833333333333 89.5833333333334 787.4999999999999 83.3333333333334 770.8333333333333 83.3333333333334H229.1666666666667zM575 660.4166666666667V854.1666666666667H229.1666666666667V145.8333333333334H770.8333333333333V660.4166666666667H575zM229.1666666666667 854.1666666666667V660.4166666666667V854.1666666666667V145.8333333333334V854.1666666666667z" />
    <glyph glyph-name="flickr"
      unicode="&#x5586;"
      horiz-adv-x="1000" d="M491 500C491 364 381 255 246 255C110 255 0 364 0 500C0 636 110 745 245 745C381 745 491 636 491 500M1000 500C1000 364 890 255 755 255C619 255 510 365 510 500C510 636 620 745 755 745C890 745 1000 636 1000 500" />
    <glyph glyph-name="fork"
      unicode="&#x5587;"
      horiz-adv-x="1000" d="M806.6842240573656 964C743.6842240573656 859 670.6842240573656 754 589.6842240573656 656C483.6842240573655 787 380.6842240573655 890 338.6842240573655 916C206.6842240573655 998 -91.3157759426345 819 55.6842240573655 743C187.6842240573655 675 321.6842240573655 591 443.6842240573655 496C332.6842240573655 385 211.6842240573655 292 88.6842240573655 232C26.6842240573655 202 -74.3157759426345 163 150.6842240573655 189C282.6842240573655 204 443.6842240573656 283.0000000000001 588.6842240573656 374C688.6842240573656 280 773.6842240573656 180 833.6842240573656 75C867.6842240573657 15 913.6842240573656 -83 872.6842240573657 140C854.6842240573656 240 797.6842240573656 355 725.6842240573656 466C844.6842240573656 552 934.6842240573656 634 961.6842240573656 670C1051.6842240573656 796 892.6842240573656 1105 806.6842240573656 964" />
    <glyph glyph-name="gas"
      unicode="&#x5588;"
      horiz-adv-x="1000" d="M920 765L920 765L713 972L653.9999999999998 913L771.9999999999998 796C719.9999999999998 776 681.9999999999998 726 681.9999999999998 667C681.9999999999998 590 743.9999999999998 528 821 528C841 528 860 532 876.9999999999998 540V139C876.9999999999998 108.0000000000001 851.9999999999998 83.0000000000001 821 83.0000000000001C790 83.0000000000001 765 108.0000000000001 765 139V389C765 450.0000000000001 715 500.0000000000001 653 500.0000000000001H597V889C598 950 548 1000 485.9999999999999 1000H151C89.9999999999999 1000 39.9999999999999 950 39.9999999999999 889V0H598V417H682V139C682 62 744 0 821 0C898 0 960 62 960 139V667C960 705 945 740 920 765zM485.9999999999999 611H151V889H485.9999999999999V611zM821 611C790 611 765 636 765 667S790 723 821 723C851.9999999999998 723 876.9999999999998 698 876.9999999999998 667S851 611 821 611z" />
    <glyph glyph-name="glasses"
      unicode="&#x5589;"
      horiz-adv-x="1000" d="M998.2071067811866 356C1000.2071067811866 361 1000.2071067811866 367 999.2071067811864 373L947.2071067811864 698C946.2071067811866 712 933.2071067811864 805 865.2071067811864 858C824.2071067811864 890 772.2071067811864 902 712.2071067811864 892C691.2071067811866 889 677.2071067811864 869 680.2071067811864 848C683.2071067811863 827 703.2071067811863 813 724.2071067811864 816C763.2071067811866 822 793.2071067811866 816 817.2071067811864 798C863.2071067811863 762 870.2071067811864 691 870.2071067811864 690L898.2071067811863 518C863.2071067811863 541 821.2071067811863 555 775.2071067811864 555C675.2071067811864 555 590.2071067811864 489 561.2071067811864 398C519.2071067811864 414 480.2071067811864 414 438.2071067811864 398C410.2071067811866 488 325.2071067811866 554 225.2071067811866 554C180.2071067811866 554 138.2071067811866 540 102.2071067811865 517L129.2071067811866 686L129.2071067811866 689C129.2071067811866 690 136.2071067811865 761 181.2071067811865 796C205.2071067811865 815 235.2071067811866 821 274.2071067811866 814C295.2071067811866 811 315.2071067811866 825 318.2071067811866 846S307.2071067811865 887 286.2071067811866 890C225.2071067811866 900 174.2071067811866 888 133.2071067811865 856C65.2071067811865 803 53.2071067811865 710 51.2071067811865 696L0.2071067811865 373C-0.7928932188135 367 0.2071067811865 361 1.2071067811865 356C1.2071067811865 347 0.2071067811865 339 0.2071067811865 330C0.2071067811865 206 101.2071067811865 105 225.2071067811866 105C345.2071067811866 105 442.2071067811866 199 449.2071067811866 317C487.2071067811865 337 514.2071067811866 337 552.2071067811866 317C559.2071067811866 199 656.2071067811867 105 776.2071067811866 105C899.2071067811866 105 1000.2071067811866 206 1000.2071067811866 330C1000.2071067811866 339 999.2071067811866 347 998.2071067811866 356zM225.2071067811866 182C144.2071067811866 182 78.2071067811865 248 78.2071067811865 329C78.2071067811865 410.0000000000001 144.2071067811866 476.0000000000001 225.2071067811866 476.0000000000001S372.2071067811866 411 372.2071067811866 330C372.2071067811866 248 306.2071067811866 182 225.2071067811866 182zM775.2071067811866 182C694.2071067811866 182 628.2071067811866 248 628.2071067811866 329C628.2071067811866 410.0000000000001 694.2071067811864 476.0000000000001 775.2071067811866 476.0000000000001C856.2071067811866 476.0000000000001 922.2071067811866 410.0000000000001 922.2071067811866 329C923.2071067811866 248 857.2071067811866 182 775.2071067811866 182z" />
    <glyph glyph-name="global"
      unicode="&#x558A;"
      horiz-adv-x="1000" d="M499.5 1000C499.5 1000 497.5 1000 496.5 1000C496.5 1000 495.5 1000 495.5 1000C494.5 1000 493.5 1000 493.5 1000C220.5 996 -0.5 774 -0.5 500C-0.5 449 7.5 400 21.5 354C21.5 354 21.5 353.0000000000001 21.5 352C21.5 345 24.5 340 28.5 335C95.5 141 278.5 2 494.5 -1C495.5 -1 496.5 -1 496.5 -1C496.5 -1 497.5000000000001 -1 497.5000000000001 -1C498.5000000000001 -1 499.5000000000001 -1 500.5 -1C776.5 -1 1000.5 223.0000000000001 1000.5 499.0000000000001C999.5 776 774.5 1000 499.5 1000zM496.5 52C496.5 52 495.5 52 494.5 52C453.5 54 369.5 164 331.5 327H647.5000000000001C611.5 162 534.5 53 496.5 52zM321.5 378C315.5 416 311.5 457 311.5 500C311.5 531 313.5 560 316.5 588H660.5C663.4999999999999 559 665.5 530 665.5 500C665.5 457 661.4999999999999 417 656.4999999999999 378H321.5L321.5 378zM50.5 500C50.5 530 53.5 560 59.5 588H265.5C262.5 560 259.5 530 259.5 500C259.5 459 263.5 418 269.5 378H67.5C57.5 417 50.5 458 50.5 500zM494.5 949C494.5 949 495.5 949 496.5 949C537.5 947 622.5 824 653.5 640H324.5C359.5 821 450.5 947 494.5 949L494.5 949zM711.5 589H939.5C945.5 560 948.5 531 948.5 500.9999999999999C948.5 458.9999999999999 942.5000000000002 418 931.5 378.9999999999999H707.5C713.4999999999999 417.9999999999999 716.5 458.9999999999999 716.5 500.9999999999999C716.5 531 714.5 560 711.5 589zM925.5 640H704.5C684.5 767 638.5 876 587.5 940C746.5 909 875.5 792 925.5 640zM397.5 937C344.5 874 294.5 767 272.5 640H72.5C121.5 787 244.5 901 397.5 937zM85.5 327H279.5C303.5 218 347.5 123.0000000000001 395.5 63.0000000000001C255.5 97 140.5 197 85.5 327L85.5 327zM587.5 60C633.5 118 676.5 214 698.4999999999999 327H913.4999999999998C857.5 192 735.5 90 587.5 60z" />
    <glyph glyph-name="guide-square"
      unicode="&#x558B;"
      horiz-adv-x="1000" d="M880 1000H120C54 1000 0 946 0 880V120C0 54 54 0 120 0H880C946 0 1000 54 1000 120V880C1000 946 946 1000 880 1000zM771 742L547 179C538 161.0000000000001 512 164 507 183.0000000000001L410 386C405 396 397 405 386 410L183 506C164 511 161 537 179 546L742 770C760 780 780 760 771 742z" />
    <glyph glyph-name="hamburger"
      unicode="&#x558C;"
      horiz-adv-x="1000" d="M53.9999999999999 169H946C976 169 1000 193.0000000000001 1000 223.0000000000001C1000 253.0000000000001 976 277.0000000000003 946 277.0000000000003H53.9999999999999C23.9999999999999 277.0000000000003 -1e-13 253.0000000000001 -1e-13 223.0000000000001C-1e-13 193 23.9999999999999 169 53.9999999999999 169zM53.9999999999999 446H946C976 446 1000 470 1000 500C1000 530 976 554 946 554H53.9999999999999C23.9999999999999 554 -1e-13 530 -1e-13 500C-1e-13 470 23.9999999999999 446 53.9999999999999 446zM53.9999999999999 723H946C976 723 1000 747 1000 777C1000 807 976 831 946 831H53.9999999999999C23.9999999999999 831 -1e-13 807 -1e-13 777C-1e-13 747 23.9999999999999 723 53.9999999999999 723z" />
    <glyph glyph-name="heart-fill"
      unicode="&#x558D;"
      horiz-adv-x="1000" d="M711 886C623 886 546 842 499.9999999999999 774C453.9999999999999 841 376.9999999999999 886 288.9999999999999 886C148 886 34.9999999999999 772 34.9999999999999 632C34.9999999999999 587 46.9999999999999 544 66.9999999999999 508.0000000000001C111 430 500 114 500 114S887 428 931 504.0000000000001C953 541.0000000000001 965 585 965 631.0000000000001C965 772 851 886 711 886z" />
    <glyph glyph-name="heart-stroke"
      unicode="&#x558E;"
      horiz-adv-x="1000" d="M702.5 852C763.4999999999999 852 825.5 829 871.4999999999999 782C964.4999999999998 689 964.4999999999998 537 871.4999999999999 443L500.5 148C500.5 148 500.5 148 499.5 148C499.5 148 498.5 148 498.5 148L127.5 443C33.5 536 33.5 688 127.5 782C174.5 829 235.5 852 296.5 852C357.5 852 419.5 829 465.4999999999999 782L499.4999999999999 748L533.4999999999999 782C580.5 829 641.5 852 702.5 852M702.5 910C626.5 910 554.5 882 499.5 830C444.5 882 372.5 910 296.5 910C217.5 910 142.5 879 86.5 823C30.5 766 -0.5 692 -0.5 613S30.5 459 86.5 403C88.5 401 89.5 400 91.5 399L463.5000000000001 104C473.5000000000001 96.0000000000001 487.5000000000001 91.0000000000001 500.5000000000001 91.0000000000001C514.5000000000001 91.0000000000001 527.5000000000001 96.0000000000001 538.5 105.0000000000001L908.5 399.0000000000001C910.5000000000002 400.0000000000001 911.5 402.0000000000001 913.5 403.0000000000001C1029.5 519.0000000000001 1029.5 707.0000000000001 913.5 823.0000000000001C856.5 879 781.5 910 702.5 910" />
    <glyph glyph-name="heart"
      unicode="&#x558F;"
      horiz-adv-x="1000" d="M921.375 819L921.375 819C815.375 925 644.3749999999999 925 538.375 819L500.375 780L462.375 818C356.375 924 185.375 924 79.375 819C-26.625 713 -26.625 542 79.375 436L499.375 103.0000000000001C499.375 103.0000000000001 500.375 103.0000000000001 501.375 103.0000000000001L921.375 436.0000000000001C1026.375 541 1026.375 713 921.375 819" />
    <glyph glyph-name="home"
      unicode="&#x5590;"
      horiz-adv-x="1000" d="M561.9999999999999 954C545.9999999999999 970 523.9999999999999 980 499.9999999999999 980C475.9999999999999 980 453.9999999999999 970 437.9999999999999 954L45.9999999999999 562L45.9999999999999 562C10.9999999999999 527 10.9999999999999 472 45.9999999999999 437C60.9999999999999 422 81.9999999999999 412 104.9999999999999 411C105.9999999999999 411 106.9999999999999 411 107.9999999999999 411H122.9999999999999V123C122.9999999999999 66 168.9999999999999 18.9999999999999 226.9999999999999 18.9999999999999H379.9999999999999C394.9999999999999 18.9999999999999 407.9999999999999 31 407.9999999999999 46.9999999999999V274C407.9999999999999 300 428.9999999999999 321.0000000000001 454.9999999999999 321.0000000000001H544.9999999999999C570.9999999999999 321.0000000000001 591.9999999999999 300.0000000000001 591.9999999999999 274V48.0000000000001C591.9999999999999 33.0000000000001 603.9999999999999 20.0000000000001 619.9999999999999 20.0000000000001H773.9999999999999C831 20.0000000000001 878 66.0000000000001 878 124.0000000000002V413H892.0000000000001C916.0000000000002 413 938 423 954.0000000000002 439C989.0000000000002 474 989.0000000000002 529 954.0000000000002 564L561.9999999999999 954z" />
    <glyph glyph-name="hook"
      unicode="&#x5591;"
      horiz-adv-x="1000" d="M982 872C958 896 918 896 893 872L281 260L107 434C83 458 43 458 18 434C-6 410 -6 370 18 345L236 127C248 115 264 109 280 109C280 109 281 109 281 109C281 109 282 109 282 109C298.0000000000001 109 314 115 326 127L981.9999999999998 783C1006 808 1006 848 982 872z" />
    <glyph glyph-name="info-center"
      unicode="&#x5592;"
      horiz-adv-x="1000" d="M500 1000C224 1000 0 776 0 500S224 0 500 0S1000 224 1000 500S776 1000 500 1000zM540 848C567 859 594 866 623 857C667 844 680 816 658 777C636 739 604 710 563 690C545 681 526 674 500.9999999999999 663C510.9999999999999 691 509.9999999999999 714 522 732C531 745 521 751 514.9999999999999 760C488 797 498 831 540 848zM688 299L676 285C665 271 655 256 646 240L623 214L599 188.0000000000001C552 140.0000000000001 490 133.0000000000001 428 141.0000000000001C379 148.0000000000001 352 208.0000000000001 368 260.0000000000001C375 281.0000000000001 391 297.0000000000003 400 318.0000000000001L408 329C415 340 420 352 426 364C438.9999999999999 391.0000000000001 466.9999999999999 410.0000000000001 469.9999999999999 443L474.9999999999999 456L485.9999999999999 482C490.9999999999999 495 494.9999999999999 508.0000000000001 494.9999999999999 523C481.9999999999999 544 460.9999999999999 538 443.9999999999999 533C426 528 410 516 392.9999999999999 508.0000000000001L385.9999999999999 505.0000000000001C362.9999999999999 493.0000000000001 340.9999999999999 472.0000000000001 310.9999999999999 491.0000000000001C296.9999999999999 520 314.9999999999999 535 337.9999999999999 549C361.9999999999999 550 385.9999999999999 555 407.9999999999999 564C451.9999999999999 583 496.9999999999999 592 544.9999999999999 590L553.9999999999999 590C567.9999999999998 589 581.9999999999998 586.0000000000001 592.9999999999998 575C605.9999999999998 554 631.9999999999998 539 628.9999999999999 510.0000000000001L625.9999999999999 500.0000000000001L622.9999999999999 490.0000000000001C577.9999999999999 431.0000000000001 557.9999999999999 362 533.9999999999999 294C529.9999999999999 283.0000000000001 527.9999999999999 271.0000000000001 531.9999999999999 259C539.9999999999999 242 554.9999999999999 241.0000000000001 571.9999999999999 244C605.9999999999999 250 629.9999999999999 271.0000000000001 654.9999999999999 292C669.9999999999999 298 676.9999999999999 316.0000000000001 694.9999999999999 317C697 309 689 305 688 299z" />
    <glyph glyph-name="info"
      unicode="&#x5593;"
      horiz-adv-x="1000" d="M400 600H600V0H400V600zM400 1000H600V800H400V1000z" />
    <glyph glyph-name="instagram"
      unicode="&#x5594;"
      horiz-adv-x="1000" d="M710.5 1000H288.5C128.5 1000 -0.5 871 -0.5 711V288.0000000000001C-0.5 129 128.5 0 288.5 0H711.4999999999999C870.5 0 1000.5 129 1000.5 289V711C999.5 871 870.5 1000 710.5 1000zM907.5 281C907.5 175 821.5 88.9999999999999 715.5 88.9999999999999L715.5 88.9999999999999H282.5C177.5 90 91.5 175 91.5 281V714C91.5 820 177.5 905 283.5 905H716.4999999999999C822.4999999999998 905 907.4999999999998 819 907.4999999999998 714L907.5 281zM499.5 757C356.5 757 240.5 641 240.5 498S356.5 238 499.5 238C642.5 238 758.5 353.9999999999999 758.5 496.9999999999999C758.5 641 642.5 757 499.5 757C499.5 757 499.5 757 499.5 757zM499.5 329C406.5 329 331.5 404 331.5 497C331.5 590 406.5 665 499.5 665C592.5 665 667.5 590 667.5 497C667.5 497 667.5 497 667.5 497C667.5 405 592.5 329 499.5 329L499.5 329L499.5 329zM707.5 767A60 60 0 0 1 827.5 767A60 60 0 0 1 707.5 767" />
    <glyph glyph-name="landing"
      unicode="&#x5595;"
      horiz-adv-x="1000" d="M77.8464511547958 900L81.8464511547958 900L116.8464511547958 894C124.8464511547958 893 130.8464511547958 888 134.8464511547958 881L225.8464511547958 691L758.8464511547958 603C856.8464511547958 587 871.8464511547958 578 891.8464511547958 561C897.8464511547958 556 902.8464511547958 552 914.8464511547958 546C948.8464511547958 528.9999999999999 972.8464511547958 511.9999999999999 985.8464511547958 493.9999999999999C998.8464511547955 476.9999999999999 999.8464511547958 461.9999999999999 998.8464511547955 452.9999999999999C996.8464511547955 440.9999999999999 982.8464511547958 403.9999999999999 878.8464511547957 419.9999999999999L607.8464511547957 463.9999999999999L326.8464511547957 416.9999999999999C324.8464511547957 416.9999999999999 322.8464511547957 416.9999999999999 320.8464511547957 416.9999999999999L246.8464511547957 428.9999999999999C237.8464511547957 429.9999999999999 231.8464511547957 437.9999999999999 230.8464511547957 446C229.8464511547957 454.9999999999999 234.8464511547957 463 242.8464511547957 466L355.8464511547957 510.9999999999999L16.8464511547958 626C4.8464511547958 630 -2.1535488452042 643 0.8464511547958 655C3.8464511547958 667 15.8464511547958 675 27.8464511547958 673L27.8464511547958 673L59.8464511547958 668L53.8464511547958 875C53.8464511547958 882 56.8464511547958 889 61.8464511547958 894C66.8464511547958 899 74.8464511547958 901 81.8464511547958 900L77.8464511547958 900zM954.8464511547958 205C979.8464511547958 205 999.8464511547958 181 999.8464511547958 152C999.8464511547958 123 979.8464511547958 99 954.8464511547958 99H413.8464511547959C388.8464511547959 99 368.8464511547959 123.0000000000001 368.8464511547959 152C368.8464511547959 181.0000000000001 388.8464511547959 205 413.8464511547959 205H954.8464511547958z" />
    <glyph glyph-name="language-en"
      unicode="&#x5596;"
      horiz-adv-x="1000" d="M907.4912521565474 1000H92.4912521565476C41.4912521565475 1000 0.4912521565475 958 0.4912521565475 907V92C0.4912521565475 41.0000000000001 41.4912521565475 0 92.4912521565476 0H906.4912521565478C957.4912521565474 0 999.4912521565474 41 999.4912521565474 92V907C1000.4912521565474 958 958.4912521565474 1000 907.4912521565474 1000zM472.4912521565475 264H153.4912521565476V736H469.4912521565476V654H247.4912521565476V544H451.4912521565475V462H247.4912521565476V347H472.4912521565475V264zM847.4912521565475 264H765.4912521565475L602.4912521565475 543H599.4912521565475L603.4912521565475 487V263.9999999999999H514.4912521565475V736H596.4912521565477L761.4912521565477 447H764.4912521565475L758.4912521565477 504.0000000000001V736H847.4912521565477V264z" />
    <glyph glyph-name="language-tw"
      unicode="&#x5597;"
      horiz-adv-x="1000" d="M278.4912521565476 625H445.4912521565476V472H278.4912521565476V625zM542.4912521565475 472L708.4912521565475 472L709.4912521565475 472L709.4912521565475 625L542.4912521565475 625zM907.4912521565474 1000H92.4912521565476C41.4912521565475 1000 0.4912521565475 958 0.4912521565475 907V92C0.4912521565475 41.0000000000001 41.4912521565475 0 92.4912521565476 0H906.4912521565478C957.4912521565474 0 999.4912521565474 41 999.4912521565474 92V907C1000.4912521565474 958 958.4912521565474 1000 907.4912521565474 1000zM792.4912521565475 353H703.4912521565475V389H543.4912521565475V167V166.0000000000001H453.4912521565475V389H293.4912521565476V350H208.4912521565475V710H454.4912521565475V833H543.4912521565475V710H792.4912521565475V353z" />
    <glyph glyph-name="line"
      unicode="&#x5598;"
      horiz-adv-x="1000" d="M1000 571C1000 797 776 980 500 980S0 797 0 571C0 369 178 200 418 168C435 165 456.9999999999999 157 461.9999999999999 143.9999999999999C468 131.9999999999999 464.9999999999999 111.9999999999999 463 98C463 98 456.9999999999999 62 455.9999999999999 55C453.9999999999999 43 446 5 498.9999999999999 28C553 50 788 199 892 320L892 320C964 400 1000 481 1000 571zM304 437H205C191 437 178 449 178 464V664C178 678 190 691 205 691C219 691 232 679 232 664V490H305C319 490 332 478 332 463C331 449 319 437 304 437zM407 463C407 449 395 436 380 436C366 436 353 448 353 463V663C353 677 365 690 380 690C394 690 407 678 407 663V463zM646 463C646 452 638.9999999999999 442 628 437C626 436 622 436 620 436C612 436 604 439.9999999999999 599 446L497 586V463C497 449 485 436 470 436S443 448 443 463V663C443 674 450 684 460.9999999999999 689C463 690 467 690 470 690C478 690 486 687 491 680L593 540V663C593 677 605 690 620 690C634 690 647 678 647 663V463H646zM807 590C821.0000000000001 590 834 578 834 563C834 549 822 536 807 536H734V488H807C821.0000000000001 488 834 476 834 461S822 433.9999999999999 807 433.9999999999999H708C693.9999999999999 433.9999999999999 681 446 681 461V561V661C681 675 693 688 708 688H807C821.0000000000001 688 834 676 834 661S822 633.9999999999999 807 633.9999999999999H734V586H807V590z" />
    <glyph glyph-name="link-out"
      unicode="&#x5599;"
      horiz-adv-x="1000" d="M953 1000C978.9999999999998 1000 1000 979 1000 953V952V559C1000 533 979 512 952 512C926.0000000000002 512 905 533 905 559V838L453 386C434 367 404 368 386 386C368 405 367 434 386 453L838 905H559C533 904 511 926 511 952C511 979 532 1000 558 1000H953zM891 345C896.9999999999999 371 923 387 948.9999999999998 381C974.9999999999998 375 991 349 986 323C933 91 633 0 504 0C226 0 0 226 0 505C0 629 66 862 299 959C323 969 350 947 355 921C360 895 341 876 317 865C141 785 95 577 95 506C95 281 278 97 503 97C606 97 849 157 891 345z" />
    <glyph glyph-name="link"
      unicode="&#x559A;"
      horiz-adv-x="1000" d="M927.125 927C830.125 1024 672.125 1024 575.125 927L460.125 813C405.125 758 381.125 684 389.125 612C317.125 619 243.125 595 188.125 540L73.125 425C26.125 378 0.125 316 0.125 249C0.125 182 26.125 120 73.125 73C122.125 23.9999999999999 185.125 0 249.1250000000001 0C313.1250000000001 0 377.125 24 425.125 73L540.125 187C595.125 242 619.125 316.0000000000001 611.125 388C619.125 387 628.125 387 636.125 387C700.125 387 764.125 411 812.125 460L927.125 575C1024.125 672 1024.125 830 927.125 927M460.125 267L346.125 152C293.125 99 206.125 99 153.125 152V152C127.125 178 113.125 212 113.125 249C113.125 286.0000000000001 127.125 320 153.125 346.0000000000001L267.125 460C294.125 487 329.125 500 364.125 500C380.125 500 396.125 497 411.125 491L301.125 384C279.125 362 278.125 327 300.125 305C311.125 294 326.125 288 340.125 288C354.125 288 368.125 293 379.125 303.9999999999999L491.1249999999999 412.9999999999999C510.125 364 500.125 306 460.125 267M848.125 654L733.125 540C694.1249999999999 501 637.125 491 589.125 509L699.125 616C721.1250000000001 638 722.125 673 700.125 695C678.125 717 643.125 718 621.125 696L509.125 587C490.125 636 500.125 694 540.125 733L655.125 848C682.125 875 717.125 888 752.125 888C787.125 888 822.125 875 849.125 848C901.125 794 901.125 708 848.125 654" />
    <glyph glyph-name="list"
      unicode="&#x559B;"
      horiz-adv-x="1000" d="M216 288H1000V145H216V288zM216 569H1000V426H216V568.9999999999999zM216 859H1000V716H216V859zM0 284H143V141.0000000000001H0V284zM0 569H143V426H0V568.9999999999999zM0 859H143V716H0V859z" />
    <glyph glyph-name="live-camera"
      unicode="&#x559C;"
      horiz-adv-x="1000" d="M500 637C575 637 636 576 636 500C636 425 575 363 500 363C425 363 364 424 364 500C364 575 425 637 500 637zM275 732L339 666C298 624 273 565 273 500C273 435 298 377 339 334L275 268.0000000000001C217 327.0000000000003 182 409.0000000000001 182 500.0000000000001C182 591 218 672 275 732zM725 732C783 673 818 590 818 500C818 410 783 328 725 268L660 334C701 376.0000000000001 726 435.0000000000001 726 500.0000000000001C726 565 701 623.0000000000001 660 666.0000000000001L725 732zM147 864L211 798C137 722 91 617 91 500C91 383 137 278 211 202L147 136.0000000000001C56 229 0 358 0 500C0 642 56 771 147 864zM853 864C944 771 1000 642 1000 500C1000 358 944 229 853 136L788.9999999999999 201.9999999999999C863 277.9999999999998 908.9999999999998 382.9999999999999 908.9999999999998 499.9999999999999C908.9999999999998 616.9999999999999 863 721.9999999999998 788.9999999999999 797.9999999999999L853 864z" />
    <glyph glyph-name="locate"
      unicode="&#x559D;"
      horiz-adv-x="1000" d="M470 769C345 757 245 658 232 533L233 541L384 541V470L233 470C249 348 348 253 470.9999999999999 242L469.9999999999999 242L469.9999999999999 384H540L540 244C653 264 742 355 757 470.0000000000001L616 470.0000000000001V540L757 540C742 655 653 746 540 766L540 626H470L470 769zM495 849C684 849 839 695 839 505C839 316 685 161 495.0000000000001 161C306.0000000000001 161 151.0000000000001 315 151.0000000000001 504.9999999999999C151 694 306 849 495 849zM500 939C258 939 61 742 61 500S258 61 500 61S939 258 939 500S742 939 500 939zM500 1000C776 1000 1000 776 1000 500S776 0 500 0S0 224 0 500S224 1000 500 1000z" />
    <glyph glyph-name="location-add"
      unicode="&#x559E;"
      horiz-adv-x="1000" d="M500 1000C307 1000 150 843 150 650C150 388 500 0 500 0S850 388 850 650C850 843 693 1000 500 1000zM724 581H534V391H458.0000000000001V581H268.0000000000001V657H458.0000000000001V847H534V657H724V581z" />
    <glyph glyph-name="location-outline"
      unicode="&#x559F;"
      horiz-adv-x="1000" d="M500 720C561 720 610 671 610 610C610 549 561 500 500 500C439 500 390 549 390 610C390 671 439 720 500 720zM500 866C353 866 233 746 233 599C233 499 381 299 500 166C619 298.9999999999999 767 498.9999999999999 767 598.9999999999999C767 746 647 866 500 866zM500 1000C721 1000 901 820 901 599C901 393 583.9999999999999 58 548 21C535 8 518 0 500 0C482 0 464 7 452 21C416 58 99 393 99 599C99 820 279 1000 500 1000z" />
    <glyph glyph-name="location-remove"
      unicode="&#x55A0;"
      horiz-adv-x="1000" d="M500 1000C307 1000 150 843 150 650C150 388 500 0 500 0S850 388 850 650C850 843 693 1000 500 1000zM724 657V581H534L534 581H458.0000000000001L458.0000000000001 581H268.0000000000001V657" />
    <glyph glyph-name="location"
      unicode="&#x55A1;"
      horiz-adv-x="1000" d="M233 599C233 499 381 299 500 166C619 298.9999999999999 767 498.9999999999999 767 598.9999999999999C767 745.9999999999999 647 865.9999999999999 500 865.9999999999999S233 746 233 599zM99 599C99 820 279 1000 500 1000S901 820 901 599C901 393 583.9999999999999 58 548 21C535 8 518 0 500 0C482 0 464 7 452 21C416 58 99 393 99 599zM390 611C390 672 439 721 500 721C561 721 610 672 610 611C610 550 561 501 500 501C439 501 390 550 390 611z" />
    <glyph glyph-name="lock"
      unicode="&#x55A2;"
      horiz-adv-x="1000" d="M781 625H750V750C750 888 638 1000 500 1000S250 888 250 750V625H219C167 625 125 583 125 531V93.0000000000001C125 41.0000000000001 167 -1 219 -1H781C833 -1 875 41.0000000000001 875 93.0000000000001V531C875 583 833 625 781 625zM333 750C333 842 408 917 500 917S667 842 667 750V625H333V750zM542 303V208C542 185 523 166 500 166S458 185 458 208V303C433 317 416 343.9999999999999 416 375C416 421 453 458 498.9999999999999 458S581.9999999999999 421 581.9999999999999 375C583 344 566 318 542 303z" />
    <glyph glyph-name="logout"
      unicode="&#x55A3;"
      horiz-adv-x="1000" d="M224.0000000000001 378C208 372 190.0000000000001 375 179.0000000000001 387L12.0000000000001 554C-3.9999999999999 570 -3.9999999999999 597 12.0000000000001 613L179.0000000000001 780C191 792 209.0000000000001 795 224.0000000000001 789C240.0000000000001 782 250.0000000000001 767 250.0000000000001 750V625H417.0000000000001C440.0000000000001 625 459.0000000000001 606 459.0000000000001 583C459.0000000000001 560 440.0000000000001 541 417.0000000000001 541H250.0000000000001V416C250.0000000000001 400 240.0000000000001 385 224.0000000000001 378zM906.0000000000002 1000C907 1000 908.0000000000002 999 909 999C958.0000000000002 1003 1000 965 1000 916V166C1000 130 977 98.9999999999999 944 86.9999999999999L694 3.9999999999999C685 1 676.0000000000001 -1e-13 667 -1e-13C621 -1e-13 584 36.9999999999999 584 82.9999999999998V124.9999999999999H458.0000000000001C389.0000000000001 124.9999999999999 333.0000000000001 180.9999999999998 333.0000000000001 249.9999999999999V332.9999999999998C333.0000000000001 355.9999999999998 352 374.9999999999999 375.0000000000001 374.9999999999999S417.0000000000001 355.9999999999998 417.0000000000001 332.9999999999998V250C417.0000000000001 227 436.0000000000001 208 459.0000000000001 208H584.0000000000001V833C584.0000000000001 869 607.0000000000001 900 640.0000000000001 912L653.0000000000001 916H458.0000000000001C435.0000000000001 916 416 897 416 874V832C416 809 397 790 374 790S332 809 332 832V874C333.0000000000001 944 389.0000000000001 1000 458.0000000000001 1000H906.0000000000002z" />
    <glyph glyph-name="longarrow-right"
      unicode="&#x55A4;"
      horiz-adv-x="1000" d="M980.0039527081178 475L678.0039527081177 581C675.0039527081177 582 671.0039527081177 583 668.0039527081177 583C652.0039527081177 583 638.0039527081177 570 638.0039527081177 553V446.0000000000001H0.0039527081177V416.0000000000001H965.0039527081178L965.0039527081178 416.0000000000001H970.0039527081178C983.0039527081178 416.0000000000001 994.0039527081178 424 998.0039527081178 436.0000000000001C1004.0039527081178 452 996.0039527081178 469 980.0039527081178 475z" />
    <glyph glyph-name="magnifier"
      unicode="&#x55A5;"
      horiz-adv-x="1000" d="M991.0606244996998 50L769.0606244996998 267C844.0606244996998 345 891.0606244996998 450 891.0606244996998 565C891.0606244996998 805 691.0606244996998 1000 446.0606244996999 1000C200.0606244996997 1000 0.0606244996997 805 0.0606244996997 565C0.0606244996997 325 200.0606244996997 130 445.0606244996997 130C551.0606244996998 130 648.0606244996998 167 724.0606244996998 227L948.0606244996998 8.0000000000001C954.0606244996998 2.0000000000002 962.0606244997 -1 969.0606244996998 -1C976.0606244996998 -1 984.0606244996998 2 990.0606244996998 8.0000000000001C1003.0606244996998 20 1003.0606244996998 38 991.0606244996998 50L991.0606244996998 50zM60.0606244996997 565C60.0606244996997 773 233.0606244996997 942 446.0606244996997 942C659.0606244996998 942 832.0606244996998 773 832.0606244996998 565C832.0606244996998 358 659.0606244996998 188 446.0606244996997 188C233.0606244996997 189 60.0606244996997 358 60.0606244996997 565z" />
    <glyph glyph-name="mail"
      unicode="&#x55A6;"
      horiz-adv-x="1000" d="M500 567L100 800H900L500 567zM900 200H100V700L500 450L900 700V200zM900 900H100C45 900 0 855 0 800L0 200C0 145 45 100 100 100H900C955 100 1000 145 1000 200V800C1000 855 955 900 900 900z" />
    <glyph glyph-name="map"
      unicode="&#x55A7;"
      horiz-adv-x="1000" d="M492 536C558 610 642 723 642 780C642 863 574 930 492 930S342 862 342 780C342 723 426 610 492 536zM492 1000C614 1000 713.0000000000001 901 713.0000000000001 779C713.0000000000001 666 538.0000000000001 480 518.0000000000001 459C511.0000000000001 452 502.0000000000001 448 493.0000000000001 448C483.0000000000001 448 474.0000000000001 452 468.0000000000001 459C448.0000000000001 480 273.0000000000001 665 273.0000000000001 779C272 901 371 1000 492 1000zM492 839C521 839 545 815 545 786C545 757 521 733 492 733C463.0000000000001 733 439.0000000000001 757 439.0000000000001 786C439 815 463 839 492 839zM913 156V711L766 654V99L913 156zM975 802C986 795 992 782 992 769V128.0000000000001C992 112.0000000000002 982 97.0000000000002 967 91.0000000000001L744 4C739 1.0000000000001 733.0000000000001 0 727 0C727 0 727 0 727 0C727 0 727 0 727 0C721.0000000000001 0 715 1 710 4L500 85L293 4C287 1.0000000000001 281 -1 275 -1C275 -1 275 -1 275 -1C275 -1 275 -1 275 -1C269 -1 262 1.0000000000001 257 4L33 91C18 96.9999999999999 8 111.9999999999999 8 128V769C8 782 15 795 25 802C36 810 50 811 62 806L205 750C206 720 216 688 230 655L87 711V156L233 98.9999999999999V648C254 603 283 557 314 515V99L459 156.0000000000001V360C469 356 481 354 491.9999999999999 354C509 354 526 359 539.9999999999999 368V155L686 98V536C733 603 773.9999999999999 679 778.9999999999999 744L938 806C950 811 964 810 975 802z" />
    <glyph glyph-name="minus"
      unicode="&#x55A8;"
      horiz-adv-x="1000" d="M208.3333333333334 468.75V531.25H791.6666666666667V468.75z" />
    </font>
</defs>
</svg>
