<?xml version="1.0" encoding="utf-8"?>
<!-- Generator: Adobe Illustrator 24.0.1, SVG Export Plug-In . SVG Version: 6.00 Build 0)  -->
<svg version="1.1" id="圖層_1" xmlns="http://www.w3.org/2000/svg" xmlns:xlink="http://www.w3.org/1999/xlink" x="0px" y="0px"
	 viewBox="0 0 100 100" style="enable-background:new 0 0 100 100;" xml:space="preserve">
<style type="text/css">
	.st0{fill-rule:evenodd;clip-rule:evenodd;}
</style>
<path class="st0" d="M65.1,11c-3.4,0-6.1,2.7-6.1,6.1s2.7,6.1,6.1,6.1c3.4,0,6.1-2.7,6.1-6.1S68.4,11,65.1,11z M65.1,0
	c7.4,0,13.6,4.7,16,11.2h11.5c3.5,0,6.4,2.7,6.4,5.9c0,3.3-2.9,5.9-6.4,5.9H81.1c-2.4,6.5-8.7,11.2-16,11.2S51.4,29.6,49,23H7.4
	C3.8,23,1,20.4,1,17.1s2.9-5.9,6.4-5.9H49C51.4,4.7,57.7,0,65.1,0z M32.1,43.9c-3.4,0-6.1,2.7-6.1,6.1c0,3.4,2.7,6.1,6.1,6.1
	s6.1-2.7,6.1-6.1C38.2,46.6,35.4,43.9,32.1,43.9z M32.1,32.9c7.4,0,13.6,4.7,16,11.2h44.5c3.5,0,6.4,2.7,6.4,5.9
	c0,3.3-2.9,5.9-6.4,5.9H48.1c-2.4,6.5-8.7,11.2-16,11.2s-13.6-4.7-16-11.2H7.4C3.8,55.9,1,53.3,1,50s2.9-5.9,6.4-5.9H16
	C18.4,37.5,24.7,32.9,32.1,32.9z M65.1,76.8c-3.4,0-6.1,2.7-6.1,6.1s2.7,6.1,6.1,6.1c3.4,0,6.1-2.7,6.1-6.1S68.4,76.8,65.1,76.8z
	 M65.1,65.8c7.4,0,13.6,4.7,16,11.2h11.5c3.5,0,6.4,2.7,6.4,5.9c0,3.3-2.9,5.9-6.4,5.9H81.1c-2.4,6.5-8.7,11.2-16,11.2
	s-13.6-4.7-16-11.2H7.4c-3.5,0-6.4-2.7-6.4-5.9C1,79.6,3.8,77,7.4,77H49C51.4,70.4,57.7,65.8,65.1,65.8z"/>
</svg>
