<?xml version="1.0" encoding="utf-8"?>
<!-- Generator: Adobe Illustrator 21.0.0, SVG Export Plug-In . SVG Version: 6.00 Build 0)  -->
<svg version="1.1" id="图层_1" xmlns="http://www.w3.org/2000/svg" xmlns:xlink="http://www.w3.org/1999/xlink" x="0px" y="0px"
	 viewBox="0 0 100 100" style="enable-background:new 0 0 100 100;" xml:space="preserve">
<path d="M88,0H12C5.4,0,0,5.4,0,12v76c0,6.6,5.4,12,12,12h76c6.6,0,12-5.4,12-12V12C100,5.4,94.6,0,88,0z M81.6,78.6H18.4
	c-3,0-5.4-2.4-5.4-5.4c0-1,0.3-2.1,0.8-2.9l31.6-50.4c1.6-2.5,4.9-3.3,7.4-1.8c0.7,0.4,1.3,1.1,1.8,1.8l31.6,50.5
	c1.5,2.6,0.7,5.9-1.8,7.4C83.5,78.3,82.6,78.6,81.6,78.6z"/>
<path d="M50,60.9c-1.2,0-2.4,0.5-3.3,1.4c-1.9,1.8-1.9,4.8-0.1,6.6c0,0,0,0,0.1,0.1c0.9,0.9,2.1,1.4,3.3,1.4
	c2.6-0.4,4.4-2.8,4.1-5.4C53.8,62.9,52.1,61.2,50,60.9z"/>
<path d="M50,33.6c-3.3,0-5,1.1-5,3.4c0,0.3,0.1,1,0.2,2l1.6,16.1c0.1,1.7,0.9,2.5,2.4,2.5h2c1.4,0,2.2-0.8,2.4-2.5L54.9,39
	c0.1-0.7,0.1-1.4,0.1-2C55,34.7,53.3,33.6,50,33.6z"/>
</svg>
