<?xml version="1.0" encoding="utf-8"?>
<!-- Generator: Adobe Illustrator 24.1.3, SVG Export Plug-In . SVG Version: 6.00 Build 0)  -->
<svg version="1.1" id="圖層_1" xmlns="http://www.w3.org/2000/svg" xmlns:xlink="http://www.w3.org/1999/xlink" x="0px" y="0px"
	 viewBox="0 0 100 100" style="enable-background:new 0 0 100 100;" xml:space="preserve">
<style type="text/css">
	.st0{fill-rule:evenodd;clip-rule:evenodd;}
</style>
<path class="st0" d="M89.9,46.2c-2.1-0.7-4.5,0.1-5.8,1.9l-5.3,7.3c-1.7,2.3-1.2,5.5,1.2,7.2c0.8,0.5,1.6,0.9,2.5,1
	c-2.8,9.9-13.7,17.6-27.3,19.2v-37h17.2c2.9,0,5.2-2.3,5.2-5.2s-2.3-5.2-5.2-5.2H55.2v-7.8c5.4-2.1,9.2-7.3,9.2-13.3
	C64.3,6.4,57.9,0,50,0S35.7,6.4,35.7,14.3c0,6.1,3.8,11.3,9.2,13.3v7.8H27.6c-2.9,0-5.2,2.3-5.2,5.2s2.3,5.2,5.2,5.2h17.2v37
	c-13.6-1.6-24.5-9.3-27.3-19.2c0.9-0.1,1.7-0.4,2.5-1c2.3-1.7,2.8-4.9,1.1-7.2l-5.3-7.3c-1.3-1.8-3.7-2.6-5.8-1.9
	c-2.1,0.7-3.6,2.7-3.6,4.9v7.4c0,17.8,16.8,32.5,38.3,34.6v1.7c0,2.9,2.3,5.2,5.2,5.2s5.2-2.3,5.2-5.2v-1.7
	C76.7,91,93.5,76.3,93.5,58.5v-7.4C93.5,48.9,92,46.9,89.9,46.2 M50,10.3c2.2,0,4,1.8,4,4c0,2.2-1.8,4-4,4c-2.2,0-4-1.8-4-4
	C46,12.1,47.8,10.3,50,10.3"/>
</svg>
