<?xml version="1.0" encoding="utf-8"?>
<!-- Generator: Adobe Illustrator 27.0.0, SVG Export Plug-In . SVG Version: 6.00 Build 0)  -->
<svg version="1.1" id="圖層_1" xmlns="http://www.w3.org/2000/svg" xmlns:xlink="http://www.w3.org/1999/xlink" x="0px" y="0px"
	 viewBox="0 0 100 100" style="enable-background:new 0 0 100 100;" xml:space="preserve">
<style type="text/css">
	.st0{fill-rule:evenodd;clip-rule:evenodd;fill:#231815;}
</style>
<path class="st0" d="M80.9,55.6L80.9,55.6L57.6,78.9c-2.2,2.2-2.2,5.7,0,7.8c2.2,2.3,5.7,2.3,7.9,0.1l32.8-32.7l0.1-0.1l0-0.1
	c2.1-2.1,2.2-5.7,0-7.9L65.5,13.2c-2.2-2.1-5.7-2.1-7.9,0c-2.1,2.2-2.1,5.8,0,7.9l23.3,23.3l-75.3,0C2.5,44.4,0,46.9,0,50
	c0,3.1,2.5,5.6,5.6,5.6H80.9z"/>
</svg>
