<?xml version="1.0" encoding="utf-8"?>
<!-- Generator: Adobe Illustrator 21.0.0, SVG Export Plug-In . SVG Version: 6.00 Build 0)  -->
<svg version="1.1" id="圖層_1" xmlns="http://www.w3.org/2000/svg" xmlns:xlink="http://www.w3.org/1999/xlink" x="0px" y="0px"
	 viewBox="0 0 100 100" style="enable-background:new 0 0 100 100;" xml:space="preserve">
<style type="text/css">
	.st0{fill:#231815;}
</style>
<g>
	<path class="st0" d="M70,81.6c0-0.9,0.3-1.1,0.9-1.7l1.7-1.7l1.7-2.3c1-1.2,1.9-2.6,2.6-4v-0.6H76l-2.9,2.9l-4.6,4.6l-2,1.7l-2,1.4
		c-1.9,1.6-4,2.7-6.3,3.4c-1.7,0.6-3.5,0.3-4.9-0.9c-0.8-0.5-1.3-1.4-1.4-2.3c0.1-0.8,0.3-1.6,0.6-2.3l0.6-1.4c-0.1-1-0.1-1.9,0-2.9
		c0.5-1.9,1.4-3.7,2.6-5.2c0.8-1.2,1.4-2.6,1.7-4c0.3-2.5,1-4.9,2-7.2c0.7-1.7,1.7-3.2,2.9-4.6l1.7-2.3c1.9-2.9,1.9-6.6,0-9.5
		l-0.9-1.4c-0.6,0.3-0.9,0-1.1-0.6l-2-2.6c-0.4-0.6-1-1.1-1.7-1.4l-4-0.6c-3.2-0.1-6.4,0.2-9.5,0.9l-5.2,1.4l-3.2,1.7l-5.5,1.1
		c-1.4,0.1-2.8,0.5-4,1.1l-2.6,2c-1.1,0.9-1.4,2.4-0.9,3.7c0.4,0.8,1,1.5,1.7,2c0.8,0.7,1.9,0.9,2.9,0.6l1.7-0.6l2.6-0.9
		c1.4-2.3,4.3-2.6,6.9-3.2c2.6-0.6,0.3-1.4,1.1-1.7h0.9L45,44c1.3,0,2.5,0.4,3.4,1.1v1.7c0.1,0.7,0.1,1.3,0,2l-1.1,2l-1.7,5.5
		c-0.5,2.3-1.4,4.6-2.6,6.6l-1.1,1.4l-3.2,6c-1.2,2.6-2.5,5.1-4,7.5c-1.9,2.4-3.1,5.3-3.4,8.3c-0.3,2.5,0.1,4.9,1.1,7.2
		c0.5,1.6,1.6,2.8,3.2,3.4c1.1,0.3,2,1.2,2.3,2.3l1.1,0.9h7.8c1.5,0,2.9-0.2,4.3-0.6c2.7-0.9,5.2-2.3,7.5-4l4.6-4
		c2.5-2.8,4.7-5.9,6.6-9.2L70,81.6z"/>
	<path class="st0" d="M52.4,1.7C51.1,2,49.9,2.8,49.3,4c-1.1,1.8-1.5,3.9-1.1,6c0.2,1.9,1.2,3.6,2.9,4.6l0.6,0.6
		c0.1,1.2-0.2,2.4-0.9,3.4c-1,0.9-1.5,2.1-1.4,3.4c0.3,2-0.4,4.1-2,5.5v0.6h0.9l0.9-0.6l5.7-2.6l2.3-0.9c2.7-1.7,5.3-3.7,7.5-6
		c2.5-2.5,4.5-5.4,6-8.6c0.9-2.1,0.4-4.4-1.1-6l-4-2.9L64.5,0h-5.7c-1.1,0-2.2,0.3-3.2,0.9L52.4,1.7z"/>
</g>
</svg>
