<?xml version="1.0" encoding="utf-8"?>
<!-- Generator: Adobe Illustrator 27.0.0, SVG Export Plug-In . SVG Version: 6.00 Build 0)  -->
<svg version="1.1" id="圖層_1" xmlns="http://www.w3.org/2000/svg" xmlns:xlink="http://www.w3.org/1999/xlink" x="0px" y="0px"
	 viewBox="0 0 100 100" style="enable-background:new 0 0 100 100;" xml:space="preserve">
<style type="text/css">
	.st0{fill-rule:evenodd;clip-rule:evenodd;fill:#767676;}
</style>
<path class="st0" d="M88.9,0H11.1C5,0,0,5,0,11.1v77.8C0,95,5,100,11.1,100h77.8c6.1,0,11.1-5,11.1-11.1V11.1C100,5,95,0,88.9,0z
	 M59.7,82c0,1.5-1.2,2.7-2.6,2.7h-8.6c-1.5,0-2.6-1.2-2.6-2.7v-4.4c0-1.5,1.2-2.7,2.6-2.7h8.6c1.5,0,2.6,1.2,2.6,2.7V82z M84.7,58.4
	c0,5.4-3.5,10-8.3,11.7v4.1c0,5.6-3.8,9.2-9.5,9.2h-5.7v-5.2h5.7c3.3,0,4-1.5,4-4v-3.3h-1.4V43.1H72c0.7,0,1.4,0.1,2.1,0.2v-4.2
	c0-9.9-10.4-18.6-23.1-18.6s-22.2,9.6-22.2,18.6v4h1.8v27.8H28c-7,0-12.7-5.6-12.7-12.5v-2.8c0-5.4,3.5-10,8.3-11.7v-4.8
	c0-13.1,12.6-23.8,27.4-23.8c14.8,0,28.2,10.7,28.2,23.8v6.2c3.4,2.2,5.6,6,5.6,10.3V58.4z"/>
</svg>
