<?xml version="1.0" encoding="utf-8"?>
<!-- Generator: Adobe Illustrator 27.0.0, SVG Export Plug-In . SVG Version: 6.00 Build 0)  -->
<svg version="1.1" id="圖層_1" xmlns="http://www.w3.org/2000/svg" xmlns:xlink="http://www.w3.org/1999/xlink" x="0px" y="0px"
	 viewBox="0 0 100 100" style="enable-background:new 0 0 100 100;" xml:space="preserve">
<style type="text/css">
	.st0{fill:#231815;}
</style>
<path class="st0" d="M60,48.6c9-3.9,15.4-12.8,15.4-23.3C75.4,11.4,64,0,50,0S24.7,11.4,24.7,25.3c0,10.4,6.4,19.4,15.4,23.3
	C18.2,53.2,1.7,72.7,1.7,95.9c0,0.3,0,0.6,0.1,1.5c0,1.5,1.2,2.6,2.7,2.6h91.2c1.5,0,2.7-1.7,2.7-3.1c0-0.3,0-0.6,0-1
	c0-23.3-16.5-42.7-38.4-47.3H60z M30.1,25.4c0-11,8.9-19.9,19.9-19.9c11,0,19.9,8.9,19.9,19.9s-8.9,19.9-19.9,19.9
	C39.1,45.3,30.1,36.4,30.1,25.4z M7.1,94.6C7.8,71.5,26.8,53,50,53S92.3,71.6,93,94.6H7.1z"/>
</svg>
