<?xml version="1.0" encoding="utf-8"?>
<!-- Generator: Adobe Illustrator 24.0.1, SVG Export Plug-In . SVG Version: 6.00 Build 0)  -->
<svg version="1.1" id="圖層_1" xmlns="http://www.w3.org/2000/svg" xmlns:xlink="http://www.w3.org/1999/xlink" x="0px" y="0px"
	 viewBox="0 0 100 100" style="enable-background:new 0 0 100 100;" xml:space="preserve">
<style type="text/css">
	.st0{fill:#231815;}
</style>
<g id="註解">
	<path class="st0" d="M1.8,54.6l41.6,43.5c2.2,2.4,6,2.5,8.4,0.3c0.1-0.1,0.2-0.2,0.3-0.3c2.4-2.5,2.4-6.5,0-9l-37.3-39l37.3-39.2
		c2.4-2.5,2.4-6.5,0-9c-2.2-2.4-6-2.5-8.4-0.3c-0.1,0.1-0.2,0.2-0.3,0.3L1.8,45.4c-2.4,2.5-2.4,6.5,0,9V54.6z"/>
</g>
<g id="註解_1_">
	<path class="st0" d="M47.9,54.6l41.6,43.5c2.2,2.4,6,2.5,8.4,0.3c0.1-0.1,0.2-0.2,0.3-0.3c2.4-2.5,2.4-6.5,0-9l-37.3-39l37.3-39.2
		c2.4-2.5,2.4-6.5,0-9c-2.2-2.4-6-2.5-8.4-0.3c-0.1,0.1-0.2,0.2-0.3,0.3L47.9,45.4c-2.4,2.5-2.4,6.5,0,9V54.6z"/>
</g>
</svg>
