<?xml version="1.0" encoding="utf-8"?>
<!-- Generator: Adobe Illustrator 21.0.0, SVG Export Plug-In . SVG Version: 6.00 Build 0)  -->
<svg version="1.1" id="图层_1" xmlns="http://www.w3.org/2000/svg" xmlns:xlink="http://www.w3.org/1999/xlink" x="0px" y="0px"
	 viewBox="0 0 100 100" style="enable-background:new 0 0 100 100;" xml:space="preserve">
<path d="M88,0H12C5.4,0,0,5.4,0,12v76c0,6.6,5.4,12,12,12h76c6.6,0,12-5.4,12-12V12C100,5.4,94.6,0,88,0z M50,82
	c-4.7,0-9.1-2.5-11.6-6.5h23.2C59.1,79.5,54.7,82,50,82z M72.9,70.5H27.1c-3.4,0-6.1-2.7-6.2-6c0-1.3,0.4-2.6,1.2-3.7l4.2-6
	c1.6-2.3,2.4-5,2.4-7.8l0,0v-7.5c0.1-11.9,9.8-21.5,21.8-21.4c0.8,0,1.6,0.1,2.3,0.1c10.9,1.3,18.9,11,18.9,21.9v6.8
	c0,0.2,0,0.4,0,0.6c-0.1,2.8,0.7,5.6,2.3,7.9l3.8,5.4c2,2.7,1.4,6.5-1.3,8.5C75.4,70.1,74.2,70.5,72.9,70.5z"/>
</svg>
