<?xml version="1.0" encoding="utf-8"?>
<!-- Generator: Adobe Illustrator 21.0.0, SVG Export Plug-In . SVG Version: 6.00 Build 0)  -->
<svg version="1.1" id="圖層_1" xmlns="http://www.w3.org/2000/svg" xmlns:xlink="http://www.w3.org/1999/xlink" x="0px" y="0px"
	 viewBox="0 0 100 100" style="enable-background:new 0 0 100 100;" xml:space="preserve">
<title>traffic-map-icom</title>
<path d="M64.6,24c4.6,0,8.3-3.8,8.3-8.3s-3.7-8.3-8.3-8.3s-8.3,3.8-8.3,8.3S60,24,64.6,24z M20.8,51C9.2,51,0,60.2,0,71.9
	s9.2,20.8,20.8,20.8s20.8-9.2,20.8-20.8S32.5,51,20.8,51z M20.8,86.5c-7.9,0-14.6-6.7-14.6-14.6s6.7-14.6,14.6-14.6
	S35.4,64,35.4,71.9S28.8,86.5,20.8,86.5z M45,44.8l10-10l3.3,3.3c5.4,5.4,12.5,8.7,21.2,8.7v-8.3c-6.2,0-11.3-2.5-15-6.2l-7.9-7.9
	c-2.1-1.7-4.2-2.5-6.7-2.5s-4.6,0.8-5.8,2.5L32.5,36c-1.7,1.7-2.5,3.8-2.5,5.8c0,2.5,0.8,4.6,2.5,5.8l13.3,11.7v20.8h8.3V54.4
	L45,44.8z M79.2,51c-11.7,0-20.8,9.2-20.8,20.8s9.2,20.8,20.8,20.8S100,83.5,100,71.9S90.8,51,79.2,51z M79.2,86.5
	c-7.9,0-14.6-6.7-14.6-14.6s6.7-14.6,14.6-14.6S93.8,64,93.8,71.9S87.1,86.5,79.2,86.5z"/>
</svg>
