<?xml version="1.0" encoding="utf-8"?>
<!-- Generator: Adobe Illustrator 27.0.0, SVG Export Plug-In . SVG Version: 6.00 Build 0)  -->
<svg version="1.1" id="圖層_1" xmlns="http://www.w3.org/2000/svg" xmlns:xlink="http://www.w3.org/1999/xlink" x="0px" y="0px"
	 viewBox="0 0 100 100" style="enable-background:new 0 0 100 100;" xml:space="preserve">
<g>
	<path d="M22,36.9c0,0,1.9,0.6,6.2,0.6h25h18.7c3.7,0,6.3-0.6,6.3-0.6c8.1-2.5,12.5-11.9,12.5-21.3c0-1.9-1.3-3.1-3.1-3.1
		s-3.1,1.3-3.1,3.1c0,6.3-3.1,15.6-11.2,15.6H72c0,0,1.3-13.1-12.5-17.5V3.1c0-1.9-1.3-3.1-3.1-3.1s-3.1,1.3-3.1,3.1v9.4
		c-1.3,0-1.9,0-3.1,0c-1.3,0-1.9,0-3.1,0V3.1C47.1,1.2,45.8,0,44,0c-1.9,0-3.1,1.3-3.1,3.1v10.6c-13.8,4.4-12.5,17.5-12.5,17.5h-1.3
		c-8.1,0-11.2-9.4-11.2-15.6c0-1.9-1.3-3.1-3.1-3.1c-1.9,0-3.1,1.3-3.1,3.1C9.5,24.4,13.9,33.8,22,36.9z M53.2,18.7h6.2V25h-6.2
		V18.7z M40.7,18.7h6.2V25h-6.2V18.7z"/>
	<path d="M22,50C4.5,50.6,3.2,58.8,3.2,71.9c0,1.3,1.3,3.1,3.1,3.1c1.9,0,3.1-1.9,3.1-3.1c0-11.2,0-15,12.5-15.6c0,0,0,10,3.8,19.4
		c-2.5,0.6-4.4,1.3-5.6,3.1c-4.4,3.8-4.4,10.6-4.4,16.9v0.6c0,1.9,1.3,3.7,3.1,3.7c1.9,0,3.1-1.9,3.1-3.1v-0.6c0-5,0-10.6,2.5-13.1
		c0.6-1.3,2.5-1.9,4.4-1.9c3.1,6.3,9.4,11.2,18.1,12.5v-50h-25V50H22z"/>
	<path d="M78.2,50v-6.3h-25v50c8.8-1.3,15-6.2,18.1-11.9c1.9,0,3.1,0.6,4.4,1.3c2.5,2.5,2.5,7.5,2.5,13.1v0.6c0,1.9,1.3,3.1,3.1,3.1
		c1.9,0,3.1-1.3,3.1-3.1v-0.6c0-6.2,0-13.1-4.4-17.5c-1.3-1.2-3.7-2.5-5.6-3.1c3.7-9.4,3.7-18.8,3.7-19.4c12.5,0,12.5,4.4,12.5,15.6
		c0,1.9,1.3,3.1,3.1,3.1s3.1-1.3,3.1-3.1C97,58.8,95.7,50.6,78.2,50z"/>
</g>
</svg>
