<?xml version="1.0" encoding="utf-8"?>
<!-- Generator: Adobe Illustrator 24.0.1, SVG Export Plug-In . SVG Version: 6.00 Build 0)  -->
<svg version="1.1" id="圖層_1" xmlns="http://www.w3.org/2000/svg" xmlns:xlink="http://www.w3.org/1999/xlink" x="0px" y="0px"
	 viewBox="0 0 100 100" style="enable-background:new 0 0 100 100;" xml:space="preserve">
<style type="text/css">
	.st0{fill-rule:evenodd;clip-rule:evenodd;}
</style>
<path class="st0" d="M38.2,24c0-1.9-1.7-2.7-4.1-2.7c-1.1,0-1.8,0.1-2.2,0.2v5.4h2.2C36.7,26.8,38.2,25.6,38.2,24z M20.6,29
	c0,14.8,11.4,26.9,26,28.6v35.8H28.5v6.7h42.9v-6.7H53.4V57.6c14.6-1.7,26-13.8,26-28.6C79.4,13,66.2,0,50,0S20.6,13,20.6,29z
	 M39.1,35.9c-1.2,1.1-3.2,1.6-6.1,1.6c-1.6,0-2.8-0.1-3.6-0.2V20.4c1-0.2,2.6-0.4,4.2-0.4c2.3,0,3.8,0.4,4.9,1.3
	c0.9,0.7,1.5,1.7,1.5,3c0,1.7-1.2,3.1-3,3.8v0.1c1.7,0.4,3.7,1.7,3.7,4.3C40.6,33.9,40,35.1,39.1,35.9z M56.9,30.1
	c0,5.3-3,7.4-7.1,7.4c-3.8,0-6.7-2-6.7-7.4V20h2.4v10.2c0,3.8,1.9,5.5,4.3,5.5c2.7,0,4.5-1.7,4.5-5.5V20h2.4V30.1z M64.1,38.8
	c-1.8,0-3.8-0.5-4.8-1.2l0.6-2c1.1,0.7,2.6,1.2,4.3,1.2c2.5,0,3.9-1.3,3.9-3.1c0-1.7-1-2.7-3.5-3.6c-3-1.1-4.9-2.6-4.9-5.2
	c0-2.8,2.4-4.9,6-4.9c1.9,0,3.3,0.4,4.1,0.9l-0.7,1.9c-0.6-0.4-1.8-0.9-3.5-0.9c-2.5,0-3.5,1.5-3.5,2.7c0,1.7,1.1,2.5,3.7,3.5
	c3.2,1.2,4.7,2.7,4.7,5.3C70.6,36.3,68.5,38.8,64.1,38.8z M33.9,30h-2v6.4c0.5,0.1,1.2,0.1,2.1,0.1c2.5,0,4.9-0.8,4.9-3.2
	C38.8,31,36.6,30,33.9,30z"/>
</svg>
