<?xml version="1.0" encoding="utf-8"?>
<!-- Generator: Adobe Illustrator 21.0.0, SVG Export Plug-In . SVG Version: 6.00 Build 0)  -->
<svg version="1.1" id="圖層_1" xmlns="http://www.w3.org/2000/svg" xmlns:xlink="http://www.w3.org/1999/xlink" x="0px" y="0px"
	 viewBox="0 0 100 100" style="enable-background:new 0 0 100 100;" xml:space="preserve">
<title>traffic-map-icom</title>
<path d="M7.9,73.7c0,4.6,2.1,8.8,5.3,11.7v9.4c0,2.9,2.4,5.3,5.3,5.3h5.3c2.9,0,5.3-2.4,5.3-5.3v-5.3h42.1v5.3
	c0,2.9,2.4,5.3,5.3,5.3h5.3c2.9,0,5.3-2.4,5.3-5.3v-9.4c3.2-2.9,5.3-7.1,5.3-11.7V21.1C92.1,2.6,73.3,0,50,0S7.9,2.6,7.9,21.1V73.7z
	 M26.3,78.9c-4.4,0-7.9-3.5-7.9-7.9c0-4.4,3.5-7.9,7.9-7.9s7.9,3.5,7.9,7.9C34.2,75.4,30.7,78.9,26.3,78.9z M73.7,78.9
	c-4.4,0-7.9-3.5-7.9-7.9c0-4.4,3.5-7.9,7.9-7.9c4.4,0,7.9,3.5,7.9,7.9C81.6,75.4,78.1,78.9,73.7,78.9z M81.6,47.4H18.4V21.1h63.2
	V47.4z"/>
</svg>
