<?xml version="1.0" encoding="utf-8"?>
<!-- Generator: Adobe Illustrator 27.0.0, SVG Export Plug-In . SVG Version: 6.00 Build 0)  -->
<svg version="1.1" id="圖層_1" xmlns="http://www.w3.org/2000/svg" xmlns:xlink="http://www.w3.org/1999/xlink" x="0px" y="0px"
	 viewBox="0 0 100 100" style="enable-background:new 0 0 100 100;" xml:space="preserve">
<style type="text/css">
	.st0{fill-rule:evenodd;clip-rule:evenodd;fill:#6A9C78;}
</style>
<path class="st0" d="M85.2,88.5H14.8c-2.6,0-4.7-2.1-4.7-4.7V41.5h79.9v42.2C89.9,86.3,87.8,88.5,85.2,88.5z M14.8,19.7h9.1v1.6
	c0,2.8,2.3,5,5,5c2.8,0,5-2.3,5-5v-1.6h32v1.6c0,2.8,2.3,5,5,5c2.8,0,5-2.3,5-5v-1.6h9.1c2.6,0,4.7,2.1,4.7,4.7v7H10.1v-7
	C10.1,21.8,12.2,19.7,14.8,19.7z M85.2,9.6h-9.1V6.5c0-2.8-2.3-5-5-5c-2.8,0-5,2.3-5,5v3.1H34V6.5c0-2.8-2.3-5-5-5c-2.8,0-5,2.3-5,5
	v3.1h-9.1C6.6,9.6,0,16.3,0,24.4v59.3c0,8.2,6.6,14.8,14.8,14.8h70.4c8.2,0,14.8-6.6,14.8-14.8V24.4C100,16.3,93.4,9.6,85.2,9.6z
	 M29,48.3c-3.1,0-5.6,2.5-5.6,5.6c0,3.1,2.5,5.6,5.6,5.6s5.6-2.5,5.6-5.6C34.6,50.8,32.1,48.3,29,48.3z M44.4,54
	c0-3.1,2.5-5.6,5.6-5.6s5.6,2.5,5.6,5.6c0,3.1-2.5,5.6-5.6,5.6S44.4,57.1,44.4,54z M71,48.3c-3.1,0-5.6,2.5-5.6,5.6
	c0,3.1,2.5,5.6,5.6,5.6c3.1,0,5.6-2.5,5.6-5.6C76.7,50.8,74.2,48.3,71,48.3z M23.3,73.9c0-3.1,2.5-5.6,5.6-5.6s5.6,2.5,5.6,5.6
	c0,3.1-2.5,5.6-5.6,5.6S23.3,77,23.3,73.9z M50,68.3c-3.1,0-5.6,2.5-5.6,5.6c0,3.1,2.5,5.6,5.6,5.6s5.6-2.5,5.6-5.6
	C55.6,70.8,53.1,68.3,50,68.3z M65.4,73.9c0-3.1,2.5-5.6,5.6-5.6c3.1,0,5.6,2.5,5.6,5.6c0,3.1-2.5,5.6-5.6,5.6
	C67.9,79.6,65.4,77,65.4,73.9z"/>
</svg>
