<?xml version="1.0" encoding="utf-8"?>
<!-- Generator: Adobe Illustrator 24.0.1, SVG Export Plug-In . SVG Version: 6.00 Build 0)  -->
<svg version="1.1" id="圖層_1" xmlns="http://www.w3.org/2000/svg" xmlns:xlink="http://www.w3.org/1999/xlink" x="0px" y="0px"
	 viewBox="0 0 100 100" style="enable-background:new 0 0 100 100;" xml:space="preserve">
<style type="text/css">
	.st0{fill-rule:evenodd;clip-rule:evenodd;}
</style>
<g>
	<path class="st0" d="M87,24.5h-8.1c0-7.2-5.8-13-13-13H34.1c-7.2,0-13,5.8-13,13H13c-7.2,0-13,5.8-13,13v38c0,7.2,5.8,13,13,13h74
		c7.2,0,13-5.8,13-13v-38C100,30.3,94.2,24.5,87,24.5z M50,79.5c-12.7,0-23-10.3-23-23c0-12.7,10.3-23,23-23s23,10.3,23,23
		C73,69.2,62.7,79.5,50,79.5z"/>
	<path class="st0" d="M50,43.5c-7.2,0-13,5.8-13,13c0,7.2,5.8,13,13,13s13-5.8,13-13C63,49.3,57.2,43.5,50,43.5z"/>
</g>
</svg>
