<?xml version="1.0" encoding="utf-8"?>
<!-- Generator: Adobe Illustrator 24.0.1, SVG Export Plug-In . SVG Version: 6.00 Build 0)  -->
<svg version="1.1" id="圖層_1" xmlns="http://www.w3.org/2000/svg" xmlns:xlink="http://www.w3.org/1999/xlink" x="0px" y="0px"
	 viewBox="0 0 100 100" style="enable-background:new 0 0 100 100;" xml:space="preserve">
<style type="text/css">
	.st0{fill-rule:evenodd;clip-rule:evenodd;fill:#231815;}
</style>
<path class="st0" d="M86.6,12.9c-1.1-3.2-4-5.4-7.6-5.4H20.6c-3.5,0-6.4,2.2-7.6,5.4L2,44.6v42.5c0,3,2.4,5.4,5.4,5.4h5.4
	c3,0,5.4-2.4,5.4-5.4v-5.4h63.8v5.4c0,3,2.4,5.4,5.4,5.4h5.4c3,0,5.4-2.4,5.4-5.4V44.6L86.6,12.9z M20.6,66c-4.4,0-7.9-3.5-7.9-7.9
	s3.5-7.9,7.9-7.9s7.9,3.5,7.9,7.9S25.1,66,20.6,66z M79.1,66c-4.4,0-7.9-3.5-7.9-7.9s3.5-7.9,7.9-7.9c4.4,0,7.9,3.5,7.9,7.9
	S83.5,66,79.1,66z M12.6,39.4l7.9-23.9H79L87,39.4H12.6z"/>
</svg>
