<?xml version="1.0" encoding="utf-8"?>
<!-- Generator: Adobe Illustrator 24.0.1, SVG Export Plug-In . SVG Version: 6.00 Build 0)  -->
<svg version="1.1" id="圖層_1" xmlns="http://www.w3.org/2000/svg" xmlns:xlink="http://www.w3.org/1999/xlink" x="0px" y="0px"
	 viewBox="0 0 100 100" style="enable-background:new 0 0 100 100;" xml:space="preserve">
<style type="text/css">
	.st0{fill-rule:evenodd;clip-rule:evenodd;}
</style>
<path class="st0" d="M79.9,8.1l-7.6,13.8l12.9-3.7l-1.7-6C82.9,10.3,81.6,8.8,79.9,8.1z M70.6,9.2l-13.6,3.9l-8.6,15.5L62,24.8
	L70.6,9.2z M46.7,16.1L33.1,20l-8.6,15.5l13.6-3.9L46.7,16.1z M22.8,22.9l-7.5,2.2c-3.1,0.9-5,4-4.5,7.1l0.1,0.6l1.7,6l1.5-0.4
	L22.8,22.9z M76.8,57.9c1.5,0,2.7,1.4,2.7,3.1c0,1.7-1.2,3.1-2.7,3.1H26.7c-1.5,0-2.7-1.4-2.7-3.1c0-1.7,1.2-3.1,2.7-3.1H76.8z
	 M76.8,75.8c1.5,0,2.7,1.4,2.7,3.1c0,1.7-1.2,3.1-2.7,3.1H26.7c-1.5,0-2.7-1.4-2.7-3.1c0-1.7,1.2-3.1,2.7-3.1H76.8z M89.2,47.3H13.9
	v38.9c0,3,2.1,5.6,5,6.2l0.6,0.1l0.6,0H83c3.2,0,5.9-2.4,6.2-5.6l0-0.6L89.2,47.3z M90.4,9.2L90.4,9.2l0.3,0.8l2.8,9.6
	c0.5,1.8-0.4,3.7-2.1,4.5l-0.5,0.2L37,39.8l56,0c1.9,0,3.5,1.4,3.7,3.3l0,0.5v42.7c0,7.3-5.7,13.3-13,13.8l-0.8,0H20.2
	c-7.3,0-13.3-5.7-13.8-13l0-0.8V44.1l-2.6-9.1c-2-7,1.8-14.4,8.7-16.8l0.8-0.3L73.6,0.5C80.6-1.5,87.9,2.3,90.4,9.2z"/>
</svg>
