<?xml version="1.0" encoding="utf-8"?>
<!-- Generator: Adobe Illustrator 21.0.0, SVG Export Plug-In . SVG Version: 6.00 Build 0)  -->
<svg version="1.1" id="图层_1" xmlns="http://www.w3.org/2000/svg" xmlns:xlink="http://www.w3.org/1999/xlink" x="0px" y="0px"
	 viewBox="0 0 100 100" style="enable-background:new 0 0 100 100;" xml:space="preserve">
<path d="M88,0H12C5.4,0,0,5.4,0,12v76c0,6.6,5.4,12,12,12h76c6.6,0,12-5.4,12-12V12C100,5.4,94.6,0,88,0z M76.9,76.9
	c-14.8,14.9-38.9,14.9-53.7,0s-14.9-38.9,0-53.7s38.9-14.9,53.7,0c0,0,0,0,0,0C91.7,38,91.7,62.1,76.9,76.9z"/>
<path d="M69,49.2H52V32.3c0-2.5-2-4.5-4.5-4.5s-4.5,2-4.5,4.5v21.4c0,2.1,1.5,4,3.6,4.4H69c2.5,0,4.5-2,4.5-4.5S71.5,49.1,69,49.2
	L69,49.2z"/>
</svg>
