<?xml version="1.0" encoding="utf-8"?>
<!-- Generator: Adobe Illustrator 24.0.1, SVG Export Plug-In . SVG Version: 6.00 Build 0)  -->
<svg version="1.1" id="圖層_1" xmlns="http://www.w3.org/2000/svg" xmlns:xlink="http://www.w3.org/1999/xlink" x="0px" y="0px"
	 viewBox="0 0 100 100" style="enable-background:new 0 0 100 100;" xml:space="preserve">
<path d="M63.5,50l33.7-33.7c3.7-3.7,3.7-9.8,0-13.5s-9.8-3.7-13.5,0L50,36.5L16.3,2.8c-3.7-3.7-9.8-3.7-13.5,0s-3.7,9.8,0,13.5
	L36.5,50L2.8,83.7c-3.7,3.7-3.7,9.8,0,13.5s9.8,3.7,13.5,0L50,63.5l33.7,33.7c3.7,3.7,9.8,3.7,13.5,0s3.7-9.8,0-13.5L63.5,50z"/>
</svg>
