<?xml version="1.0" encoding="utf-8"?>
<!-- Generator: Adobe Illustrator 27.0.0, SVG Export Plug-In . SVG Version: 6.00 Build 0)  -->
<svg version="1.1" id="圖層_1" xmlns="http://www.w3.org/2000/svg" xmlns:xlink="http://www.w3.org/1999/xlink" x="0px" y="0px"
	 viewBox="0 0 100 100" style="enable-background:new 0 0 100 100;" xml:space="preserve">
<style type="text/css">
	.st0{fill-rule:evenodd;clip-rule:evenodd;fill:#231815;}
</style>
<path class="st0" d="M33.5,37.5c0,2.6,1.2,5.6,2.6,5.6c1.4,0,2.7-2.5,2.7-5.1c0-2.6-1-5-2.4-5C35,33,33.5,34.9,33.5,37.5z M61,64.3
	c0,2.6,1.2,4.8,2.6,4.8c1.4,0,2.9-2.2,2.9-4.8c0-2.6-1.4-4.8-2.8-4.8C62.4,59.5,61,61.6,61,64.3z M50,0l-7.7,11.1L30.9,3.8L28,15.9
	H15.9v11.9l-12.1,3l7.3,11.4L0,50l11.1,7.7L3.8,69.1l12.1,2.7v12.2h12.2l2.7,12.1l11.4-7.3L50,100l7.7-11.1l11.4,7.3L72,84.1H84
	V71.9l12.3-2.7l-7.3-11.4L100,50l-11.1-7.7l7.3-11.4L84.1,28V15.9H72L69.1,3.8l-11.4,7.3L50,0z M68.7,28c1.8,1.3,2,3.8,0.5,5.8
	L37.7,73c-1.6,2-4.5,2.6-6.3,1.3c-1.9-1.4-2.3-4.9-0.6-7l31.5-38.9C63.7,26.5,66.9,26.7,68.7,28z M26.4,37.8c0-5.9,5.1-11.1,10-11.1
	c4.9,0,9.7,5.2,9.7,11.1c0,5.9-5.1,11.4-9.9,11.4C31.2,49.1,26.4,43.7,26.4,37.8z M54.1,64.3c0-5.9,4.9-10.8,9.8-10.8
	c4.9,0,9.4,4.8,9.4,10.7s-4.8,11.2-9.7,11.2C58.8,75.4,54.1,70.3,54.1,64.3z"/>
</svg>
