<?xml version="1.0" encoding="utf-8"?>
<!-- Generator: Adobe Illustrator 24.0.1, SVG Export Plug-In . SVG Version: 6.00 Build 0)  -->
<svg version="1.1" id="圖層_1" xmlns="http://www.w3.org/2000/svg" xmlns:xlink="http://www.w3.org/1999/xlink" x="0px" y="0px"
	 viewBox="0 0 100 100" style="enable-background:new 0 0 100 100;" xml:space="preserve">
<style type="text/css">
	.st0{fill-rule:evenodd;clip-rule:evenodd;}
</style>
<path class="st0" d="M22.1,18.2h-9.7c-1.8,0-3.2,1.5-3.2,3.2v16.2h81.8V21.4c0-1.8-1.5-3.2-3.2-3.2h-9.7v2.9
	c1.6,1.3,2.6,3.3,2.6,5.5c0,3.9-3.2,7.1-7.1,7.1c-3.9,0-7.1-3.2-7.1-7.1c0-2.2,1-4.2,2.6-5.5v-2.9H31.2v2.9c1.6,1.3,2.6,3.3,2.6,5.5
	c0,3.9-3.2,7.1-7.1,7.1s-7.1-3.2-7.1-7.1c0-2.2,1-4.2,2.6-5.5V18.2z M50,49.3c2.5,0,4.5,2,4.5,4.5v8.1h8.1c2.5,0,4.5,2,4.5,4.5
	c0,2.5-2,4.5-4.5,4.5h-8.1v8.1c0,2.5-2,4.5-4.5,4.5c-2.5,0-4.5-2-4.5-4.5V71h-8.1c-2.5,0-4.5-2-4.5-4.5c0-2.5,2-4.5,4.5-4.5h8.1
	v-8.1C45.5,51.3,47.5,49.3,50,49.3z M90.9,46.8H9.1v38.3c0,1.8,1.5,3.2,3.2,3.2h75.3c1.8,0,3.2-1.5,3.2-3.2V46.8z M73.4,2.6
	c2.5,0,4.5,2,4.5,4.5v1.9h9.7c6.8,0,12.3,5.5,12.3,12.3v63.6c0,6.8-5.5,12.3-12.3,12.3H12.3C5.5,97.4,0,91.9,0,85.1V21.4
	C0,14.6,5.5,9.1,12.3,9.1h9.7V7.1c0-2.5,2-4.5,4.5-4.5s4.5,2,4.5,4.5v1.9h37.7V7.1C68.8,4.6,70.9,2.6,73.4,2.6z"/>
</svg>
