<?xml version="1.0" encoding="utf-8"?>
<!-- Generator: Adobe Illustrator 24.0.1, SVG Export Plug-In . SVG Version: 6.00 Build 0)  -->
<svg version="1.1" id="圖層_1" xmlns="http://www.w3.org/2000/svg" xmlns:xlink="http://www.w3.org/1999/xlink" x="0px" y="0px"
	 viewBox="0 0 100 100" style="enable-background:new 0 0 100 100;" xml:space="preserve">
<path d="M36.5,44.8h-8.3v8.3h8.3V44.8z M53.2,44.8h-8.3v8.3h8.3V44.8z M69.8,44.8h-8.3v8.3h8.3V44.8z M78.2,15.7H74V7.3h-8.3v8.3
	H32.3V7.3H24v8.3h-4.2c-4.6,0-8.3,3.8-8.3,8.3l0,58.3c0,4.6,3.7,8.3,8.3,8.3h58.3c4.6,0,8.3-3.7,8.3-8.3V24
	C86.5,19.4,82.8,15.7,78.2,15.7z M78.2,82.3H19.8V36.5h58.3V82.3z"/>
</svg>
