<?xml version="1.0" encoding="utf-8"?>
<!-- Generator: Adobe Illustrator 21.0.0, SVG Export Plug-In . SVG Version: 6.00 Build 0)  -->
<svg version="1.1" id="圖層_1" xmlns="http://www.w3.org/2000/svg" xmlns:xlink="http://www.w3.org/1999/xlink" x="0px" y="0px"
	 viewBox="0 0 100 100" style="enable-background:new 0 0 100 100;" xml:space="preserve">
<path d="M50,10.8c-27.6,0-50,16.9-50,37.8c0,12,7.4,22.7,19,29.6c-1.6,6.9-6.3,10.9-6.3,10.9c8.7,0,14.6-2.6,18.5-5.5
	c5.8,1.8,12.1,2.7,18.7,2.7c27.6,0,50-16.9,50-37.8C100,27.7,77.6,10.8,50,10.8z M26.8,54.7c-3.5,0-6.1-2.8-6.1-6.1
	c0-3.5,2.8-6.1,6.1-6.1s6.1,2.8,6.1,6.1C33.1,51.9,30.3,54.7,26.8,54.7z M50,54.7c-3.5,0-6.1-2.8-6.1-6.1c0-3.5,2.8-6.1,6.1-6.1
	c3.3,0,6.1,2.8,6.1,6.1C56.3,51.9,53.5,54.7,50,54.7z M73.2,54.7c-3.5,0-6.1-2.8-6.1-6.1c0-3.5,2.8-6.1,6.1-6.1
	c3.3,0,6.1,2.8,6.1,6.1C79.5,51.9,76.7,54.7,73.2,54.7z"/>
</svg>
