<?xml version="1.0" encoding="utf-8"?>
<!-- Generator: Adobe Illustrator 24.0.2, SVG Export Plug-In . SVG Version: 6.00 Build 0)  -->
<svg version="1.1" id="圖層_1" xmlns="http://www.w3.org/2000/svg" xmlns:xlink="http://www.w3.org/1999/xlink" x="0px" y="0px"
	 viewBox="0 0 100 100" style="enable-background:new 0 0 100 100;" xml:space="preserve">
<style type="text/css">
	.st0{stroke:#FFFFFF;stroke-miterlimit:10;}
</style>
<title>fast-09</title>
<path class="st0" d="M74.7,25.8c2.5,0,4.6,2,4.6,4.6c0,2.5-2,4.6-4.6,4.6s-4.6-2-4.6-4.6C70.1,27.9,72.2,25.8,74.7,25.8z M74.7,19.2
	C68.2,19.2,63,24.5,63,31c0,4.1,6.1,12.7,11.7,19.1c5.6-6.4,11.7-15,11.7-19.1C86.5,24.5,81.2,19.2,74.7,19.2z M25.3,52.9
	c2.5,0,4.6,2,4.6,4.6c0,2.5-2,4.6-4.6,4.6c-2.5,0-4.6-2-4.6-4.6C20.7,55,22.8,52.9,25.3,52.9z M25.3,46.3c-6.5,0-11.7,5.3-11.7,11.7
	c0,4.1,6.1,12.7,11.7,19.1C30.9,70.8,37,62.2,37,58C37,51.6,31.8,46.3,25.3,46.3z M74.7,10.9c11.1,0,20.1,9,20.1,20.1
	c0,10-14.2,25.2-17.1,28.2c-0.6,0.7-1.5,1.1-2.4,1.2c-0.5,0.2-1.1,0.4-1.7,0.4c-10.3,0-14.2,1.9-15,2.7c0.3,0.7,1.7,2.6,6,4.9
	c9.5,5.1,15,9.3,13.6,14.5c-1.3,5-7.8,6.2-20.5,6.2c-4.3,0-9.3-0.1-15-0.3c-4.8-0.2-9.8-0.3-14.1-0.3c-1,0-2-0.4-2.7-1
	c-0.2,0-0.4,0.1-0.7,0.1c-1.1,0-2.2-0.5-3-1.3C19.4,83.3,5.2,68,5.2,58C5.2,47,14.2,38,25.3,38S45.3,47,45.3,58
	c0,6.8-6.6,16-11.7,22.2c3.1,0.1,6.3,0.2,9.4,0.3c7.7,0.2,19.6,0.6,25.2-0.2c-1.4-1-3.7-2.6-7.5-4.6c-10.6-5.7-11-11.4-10.2-14.2
	c1.2-4.8,6.4-7.7,15.6-8.7C61,46.6,54.7,37.6,54.7,31C54.7,19.9,63.7,10.9,74.7,10.9z"/>
</svg>
