<?xml version="1.0" encoding="utf-8"?>
<!-- Generator: Adobe Illustrator 24.0.1, SVG Export Plug-In . SVG Version: 6.00 Build 0)  -->
<svg version="1.1" id="圖層_1" xmlns="http://www.w3.org/2000/svg" xmlns:xlink="http://www.w3.org/1999/xlink" x="0px" y="0px"
	 viewBox="0 0 100 100" style="enable-background:new 0 0 100 100;" xml:space="preserve">
<style type="text/css">
	.st0{fill-rule:evenodd;clip-rule:evenodd;}
</style>
<path class="st0" d="M85.2,12.2H14.8c-2.6,0-4.7,2.1-4.7,4.7v7.9h79.9V17C89.9,14.4,87.8,12.2,85.2,12.2z M74.7,44.6
	c3.1,0,5.6,2.5,5.6,5.6c0,3.1-2.5,5.6-5.6,5.6H26.4c-3.1,0-5.6-2.5-5.6-5.6c0-3.1,2.5-5.6,5.6-5.6H74.7z M74.7,66.1
	c3.1,0,5.6,2.5,5.6,5.6c0,3.1-2.5,5.6-5.6,5.6H26.4c-3.1,0-5.6-2.5-5.6-5.6c0-3.1,2.5-5.6,5.6-5.6H74.7z M89.9,35H10.1V83
	c0,2.6,2.1,4.7,4.7,4.7h70.4c2.6,0,4.7-2.1,4.7-4.7V35z M85.2,2.2C93.4,2.2,100,8.8,100,17V83c0,8.2-6.6,14.8-14.8,14.8H14.8
	C6.6,97.8,0,91.2,0,83V17C0,8.8,6.6,2.2,14.8,2.2H85.2z"/>
</svg>
