<?xml version="1.0" encoding="utf-8"?>
<!-- Generator: Adobe Illustrator 24.0.1, SVG Export Plug-In . SVG Version: 6.00 Build 0)  -->
<svg version="1.1" id="圖層_1" xmlns="http://www.w3.org/2000/svg" xmlns:xlink="http://www.w3.org/1999/xlink" x="0px" y="0px"
	 viewBox="0 0 100 100" style="enable-background:new 0 0 100 100;" xml:space="preserve">
<style type="text/css">
	.st0{fill-rule:evenodd;clip-rule:evenodd;}
</style>
<path class="st0" d="M60.1,18.5c1.2,0,2.1,1,2.1,2.2V42l7.2-7.2c0.8-0.8,2.2-0.8,3,0c0.8,0.8,0.8,2.2,0,3L61.9,48.5
	c-0.4,0.4-1,0.6-1.5,0.6c-0.5,0-1.1-0.2-1.5-0.6l-11-11.2c-0.8-0.8-0.8-2.2,0-3c0.8-0.8,2.2-0.8,3,0l7.2,7.2V20.7
	C58,19.5,58.9,18.5,60.1,18.5z M80.9,41.5c1.2,0,2.1,1,2.1,2.2l0,13.5c0,0.6-0.2,1.1-0.6,1.5c-0.4,0.4-0.9,0.6-1.5,0.6H39.3
	c-1.2,0-2.1-1-2.1-2.2V43.7c0-1.2,1-2.2,2.1-2.2c1.2,0,2.1,1,2.1,2.2V55h37.4l0-11.3C78.8,42.5,79.7,41.5,80.9,41.5L80.9,41.5z
	 M95.7,4.3H22.7v70.8h49.2c1.2,0,2.1,1,2.1,2.2v7.4c0,0.6,0.1,1.2,0.2,1.8l0.1,0.4c0.6,3.1,2.6,5.8,5.2,7.3c0.1,0,0.1,0.1,0.2,0.1
	c0.2,0.1,0.4,0.2,0.6,0.3c0.1,0,0.2,0.1,0.3,0.2c0.3,0.1,0.5,0.2,0.8,0.3c0.1,0,0.1,0.1,0.2,0.1c0.3,0.1,0.5,0.1,0.8,0.2
	c0.1,0,0.2,0.1,0.3,0.1c0.2,0,0.3,0.1,0.5,0.1c0.2,0,0.4,0.1,0.6,0.1c0.1,0,0.2,0,0.3,0c0.3,0,0.6,0,0.8,0h0.9c5.5,0,10-4.5,10-10.1
	V4.3z M20.5,79.4H4.3v5.3c0,6.1,4.9,11,10.9,11l0.1,0c0.1,0,0.2,0,0.2,0l58.9,0c0,0-0.1-0.1-0.1-0.1c-0.2-0.2-0.4-0.4-0.6-0.6
	c-0.1-0.2-0.3-0.3-0.4-0.5c-0.2-0.2-0.3-0.4-0.5-0.6c-0.1-0.2-0.3-0.4-0.4-0.5c-0.2-0.2-0.3-0.5-0.4-0.7c-0.1-0.2-0.2-0.4-0.3-0.6
	c-0.1-0.2-0.2-0.5-0.4-0.7c-0.1-0.2-0.2-0.4-0.3-0.6c-0.1-0.3-0.2-0.5-0.3-0.8c-0.1-0.2-0.2-0.4-0.2-0.6c-0.1-0.3-0.2-0.6-0.2-0.9
	c0-0.2-0.1-0.4-0.2-0.6c-0.1-0.3-0.1-0.7-0.2-1c0-0.2-0.1-0.3-0.1-0.5c-0.1-0.5-0.1-1-0.1-1.6v-5.3L20.5,79.4L20.5,79.4z M97.9,0
	C99,0,100,1,100,2.2v83.5c0,7.9-6.4,14.4-14.2,14.4H15.3c0,0-0.1,0-0.2,0C6.8,100,0,93.1,0,84.7v-7.4c0-1.2,1-2.2,2.1-2.2h16.3v-73
	c0-1.2,1-2.2,2.1-2.2H97.9z"/>
</svg>
