<?xml version="1.0" encoding="utf-8"?>
<!-- Generator: Adobe Illustrator 24.0.1, SVG Export Plug-In . SVG Version: 6.00 Build 0)  -->
<svg version="1.1" id="圖層_1" xmlns="http://www.w3.org/2000/svg" xmlns:xlink="http://www.w3.org/1999/xlink" x="0px" y="0px"
	 viewBox="0 0 100 100" style="enable-background:new 0 0 100 100;" xml:space="preserve">
<style type="text/css">
	.st0{fill-rule:evenodd;clip-rule:evenodd;}
</style>
<path class="st0" d="M50,0C22.4,0,0,22.4,0,50s22.4,50,50,50s50-22.4,50-50S77.6,0,50,0 M57,80.4V90H43.7v-9.7
	c-8.5-1.8-15.8-7.3-16.3-17h9.8c0.5,5.2,4.1,9.4,13.2,9.4c9.8,0,12-4.9,12-8c0-4.2-2.2-8-13.4-10.7c-12.4-3-20.9-8.1-20.9-18.4
	c0-8.6,7-14.2,15.5-16.1V10H57v9.8c9.3,2.3,14,9.3,14.2,17h-9.8c-0.2-5.6-3.2-9.4-11.1-9.4c-7.5,0-12,3.4-12,8.2
	c0,4.2,3.2,7,13.3,9.5c10.1,2.6,20.9,7,20.9,19.5C72.6,73.8,65.8,78.8,57,80.4"/>
</svg>
