<?xml version="1.0" encoding="utf-8"?>
<!-- Generator: Adobe Illustrator 24.0.1, SVG Export Plug-In . SVG Version: 6.00 Build 0)  -->
<svg version="1.1" id="圖層_1" xmlns="http://www.w3.org/2000/svg" xmlns:xlink="http://www.w3.org/1999/xlink" x="0px" y="0px"
	 viewBox="0 0 100 100" style="enable-background:new 0 0 100 100;" xml:space="preserve">
<path d="M47.5,1.9c2.4-2.5,6.2-2.5,8.6,0l41.6,43.6c1.2,1.2,1.8,2.8,1.8,4.5c0,1.7-0.7,3.3-1.8,4.5L56.2,98.1
	c-2.4,2.5-6.2,2.5-8.6,0c-2.4-2.5-2.4-6.5,0-9l37.4-39.2l-37.4-39C45.1,8.4,45.1,4.4,47.5,1.9z M2.2,1.9c2.4-2.5,6.2-2.5,8.6,0
	l41.6,43.6c1.2,1.2,1.8,2.8,1.8,4.5c0,1.7-0.7,3.3-1.8,4.5L10.8,98.1c-2.4,2.5-6.2,2.5-8.6,0c-2.4-2.5-2.4-6.5,0-9l37.4-39.2
	l-37.4-39C-0.2,8.4-0.2,4.4,2.2,1.9z"/>
</svg>
