<?xml version="1.0" encoding="utf-8"?>
<!-- Generator: Adobe Illustrator 24.0.1, SVG Export Plug-In . SVG Version: 6.00 Build 0)  -->
<svg version="1.1" id="圖層_1" xmlns="http://www.w3.org/2000/svg" xmlns:xlink="http://www.w3.org/1999/xlink" x="0px" y="0px"
	 viewBox="0 0 100 100" style="enable-background:new 0 0 100 100;" xml:space="preserve">
<style type="text/css">
	.st0{fill-rule:evenodd;clip-rule:evenodd;}
</style>
<path class="st0" d="M31.5,11.2c-0.2,1.6-1.7,3.8-5.2,7.5c0,0,0,0.1,0,0.1l0.9,0.7l6.4,4.6C35,19.7,34.2,14.9,31.5,11.2z M68.5,11.2
	c-2.7,3.7-3.5,8.5-2.2,12.9l7.3-5.3c0,0,0-0.1,0-0.1C70.3,15,68.7,12.8,68.5,11.2z M80.2,5.3c-3.1,0-6.1,1-8.6,2.8
	c1.6,0.2,3.8,1.7,7.5,5.2c2.1-0.4,4.2,0.3,5.8,1.8c1.5,1.5,2.2,3.7,1.8,5.8c3.4,3.7,5,5.9,5.2,7.5c4.2-5.7,3.7-13.7-1.4-18.8
	C87.7,6.8,84,5.3,80.2,5.3z M19.8,5.3c-3.7,0-7.4,1.4-10.2,4.2C6.8,12.3,5.3,16,5.3,19.8c0,3.2,1,6.2,2.9,8.6
	c0.1-1.7,1.8-3.9,5.1-7.5c-0.4-2.1,0.3-4.2,1.8-5.8c1.5-1.5,3.7-2.2,5.8-1.8c3.7-3.4,5.9-5,7.5-5.2C25.9,6.3,22.8,5.3,19.8,5.3z
	 M81.3,26.3l-0.1,0l-5.3,7.3c4.4,1.3,9.2,0.5,12.9-2.2C87.2,31.3,85,29.7,81.3,26.3z M18.7,26.3c-3.6,3.3-5.8,5-7.5,5.1
	c3.7,2.7,8.5,3.5,12.9,2.2l-5.3-7.3C18.8,26.3,18.8,26.3,18.7,26.3z M53,47.1h-5.9V53H53V47.1z M55.6,40.1c1.2,0,2.1,0.7,2.5,1.8
	c1,0.4,1.8,1.3,1.8,2.5c0,1.1-0.7,2-1.6,2.4v6.6c0.7,0.5,1.2,1.3,1.2,2.2c0,1-0.5,1.8-1.3,2.3c-0.3,1.1-1.3,2-2.6,2
	c-1.1,0-2-0.7-2.4-1.6h-6.6c-0.5,0.7-1.3,1.2-2.2,1.2c-1.1,0-2-0.6-2.4-1.5c-0.9-0.4-1.5-1.3-1.5-2.4c0-0.9,0.5-1.8,1.2-2.2v-6.6
	c-0.9-0.4-1.6-1.3-1.6-2.4c0-1.2,0.8-2.3,2-2.6c0.5-0.8,1.3-1.3,2.3-1.3c0.9,0,1.8,0.5,2.2,1.2h6.6C53.6,40.8,54.5,40.1,55.6,40.1z
	 M19.8,65.7c-3.1,0-6.1,1-8.6,2.8c1.6,0.2,3.8,1.7,7.5,5.2c0,0,0.1,0,0.1,0l5.3-7.3C22.7,65.9,21.3,65.7,19.8,65.7z M88.8,68.5
	c-3.7-2.7-8.5-3.5-12.9-2.2l5.3,7.3c0,0,0.1,0,0.1,0C85,70.3,87.2,68.7,88.8,68.5z M75.3,24.2l-11,7.9l-5.2,3.7l-1.1,0l-16,0l-1.1,0
	L24.7,24.2c-0.1,0.1-0.1,0.2-0.2,0.3c-0.1,0.1-0.2,0.1-0.3,0.2l7.9,11l3.7,5.2l0,1.1l0,16l0,1.1L24.2,75.3c0.1,0.1,0.2,0.1,0.3,0.2
	l0.2,0.3l16.2-11.6l1.1,0l16,0l1.1,0l5.2,3.7l3.8,2.7l7.2,5.2c0.1-0.1,0.1-0.2,0.2-0.3c0.1-0.1,0.2-0.1,0.3-0.2l-1-1.4L64.2,59.1
	l0-1.1l0-16l0-1.1l11.6-16.2c-0.1-0.1-0.2-0.1-0.3-0.2C75.4,24.4,75.4,24.3,75.3,24.2z M66.4,75.9c-1.3,4.4-0.5,9.2,2.2,12.9
	c0.2-1.6,1.7-3.8,5.2-7.5l0-0.1L66.4,75.9z M33.7,75.9l-7.3,5.3c0,0,0,0.1,0,0.1c3.4,3.7,5,5.9,5.2,7.5C34.2,85.1,35,80.3,33.7,75.9
	z M8.2,71.6C4,77.3,4.5,85.3,9.6,90.4c5.1,5.1,13.2,5.6,18.8,1.4c-1.6-0.2-3.8-1.7-7.5-5.2c-2.1,0.4-4.2-0.3-5.8-1.8
	c-1.5-1.5-2.2-3.7-1.8-5.8C9.9,75.4,8.4,73.2,8.2,71.6z M91.8,71.6c-0.2,1.6-1.7,3.8-5.2,7.5c0.4,2.1-0.3,4.2-1.8,5.8
	c-1.5,1.5-3.7,2.2-5.8,1.8c-3.7,3.4-5.9,5-7.5,5.2c5.7,4.2,13.7,3.7,18.8-1.4C95.6,85.3,96,77.3,91.8,71.6z M80.2,0
	c5.3,0,10.3,2.1,14,5.8c3.7,3.7,5.8,8.7,5.8,14c0,5.3-2.1,10.3-5.8,14c-3.8,3.8-8.9,5.8-14,5.8c-2.5,0-5.1-0.5-7.5-1.5l-3.1,4.4
	v14.9l3.1,4.4c7.3-3,15.8-1.4,21.5,4.3c7.7,7.7,7.7,20.3,0,28c-3.9,3.9-8.9,5.8-14,5.8c-5.1,0-10.2-1.9-14-5.8
	c-5.7-5.7-7.3-14.2-4.3-21.5l-4.4-3.1H42.5l-4.4,3.1c3,7.3,1.4,15.8-4.3,21.5c-3.9,3.9-8.9,5.8-14,5.8c-5.1,0-10.2-1.9-14-5.8
	c-7.7-7.7-7.7-20.3,0-28c5.7-5.7,14.2-7.3,21.5-4.3l3.1-4.4V42.5l-3.1-4.4c-2.4,1-4.9,1.5-7.5,1.5c-5.1,0-10.2-2-14-5.8
	C2.1,30.1,0,25.1,0,19.8c0-5.3,2.1-10.3,5.8-14C9.6,2.1,14.5,0,19.8,0s10.3,2.1,14,5.8c5.7,5.7,7.3,14.2,4.3,21.5l4.4,3.1h14.9
	l4.4-3.1c-3-7.3-1.4-15.8,4.3-21.5C69.9,2.1,74.9,0,80.2,0z"/>
</svg>
