<?xml version="1.0" encoding="utf-8"?>
<!-- Generator: Adobe Illustrator 24.0.1, SVG Export Plug-In . SVG Version: 6.00 Build 0)  -->
<svg version="1.1" id="圖層_1" xmlns="http://www.w3.org/2000/svg" xmlns:xlink="http://www.w3.org/1999/xlink" x="0px" y="0px"
	 viewBox="0 0 100 100" style="enable-background:new 0 0 100 100;" xml:space="preserve">
<title>fast-09</title>
<path d="M87,0c3.4,0,6.2,2.8,6.2,6.2V70c0,3.4-2.8,6.2-6.2,6.2h-5.3c-3.4,0-6.2-2.8-6.2-6.2c0-3.2,2.4-5.8,5.3-6.2V12.6H41.5
	c-0.9,2.2-3.3,3.9-5.9,3.9c-3.4,0-6.2-2.8-6.2-6.2V6.3c0-3.4,2.8-6.2,6.2-6.2H87V0z M58.1,36.3H19.3v51.2h38.8V36.3z M64.3,23.7
	c3.4,0,6.2,2.8,6.2,6.2v63.8c0,3.4-2.8,6.2-6.2,6.2H13c-3.4,0-6.2-2.8-6.2-6.2V30.1c0-3.4,2.8-6.2,6.2-6.2h51.4V23.7z"/>
</svg>
