<?xml version="1.0" encoding="utf-8"?>
<!-- Generator: Adobe Illustrator 24.0.1, SVG Export Plug-In . SVG Version: 6.00 Build 0)  -->
<svg version="1.1" id="圖層_1" xmlns="http://www.w3.org/2000/svg" xmlns:xlink="http://www.w3.org/1999/xlink" x="0px" y="0px"
	 viewBox="0 0 100 100" style="enable-background:new 0 0 100 100;" xml:space="preserve">
<style type="text/css">
	.st0{fill:#231815;}
</style>
<path class="st0" d="M61.9,44.1l-0.9,0l0,0l-0.5-0.3c-1.8-1.2,2.4-2.9,3.7-3.1C64.7,32,69.8,43.9,61.9,44.1z M7.8,52.9
	c0.3,1.5,1.9,1.4,2.7,2.7c-0.1,1.4-0.8,2.7-1.9,3.9c-0.5-2-0.8-4.1-0.9-6.3L7.8,52.9z M50,7.5l0.2,0l0.3,0.1
	c0.9,0.3,1.6,0.2,2.2-0.1c10.5,0.6,20,5.1,27.1,12.1c-0.5,0.4-0.9,1-1.1,1.9c-1.2-1.8-3.9-0.7-4.6,1.3c2.2,1.6,1,3.6,0,5.3
	c-1.5,4.4-3.6-1.5-3.6-3.6c0.3-1.7,5-7.2,1.6-4.2c-3.7-3.8-2.2,2.2-5,2.2c-3.5-1.7-7.6-0.2-9.1,3.8c3.1,2.4,4.3-1.1,4.3,5.8
	c-0.5,2.1-1.6,6.5-4.5,5.9c-1.1,0.7-0.9,2.2-2,3c1.7,1.1,3.6,5.8,0,4.7c0.1-2.2-2.6-3.2-1.6-4.6c-1.5-0.6-2.7,2-3-1
	c-0.9,1-2.6,1.6-0.9,2.7c1.1-0.8,2.7-1.2,2.5,0.7c-3.8,1.5,6.8,12-7.9,13.3c-4.1,2.8,2,3.7,1,7.2c0.1,1.7-4.2,5.2-3.3,1.7
	c-2.3-0.2-0.9-1.5-2.6-2c-1.9,2.8,4.5,6,2.7,8.3c1,1,1.8,1.7,2.3,1.8c-1.2,0.5-0.9,1.5-0.7,2.4c-3.8,1.3-4.5-6.8-8.1-8
	c0.4-1,1.4-0.7,2.6,0.2c-1-2.7-1.3-5.6-2.1-8c-2.7,2.4-1.5-1.9-3.1-2.9c-2.4-4.9-5.1,2.5-8.6,4.3c-0.2,1.9,0.8,5.4-2.2,5.9
	c-1.2-3.7-3.6-6.7-3.5-10.7c-3.3,0.9-2.5-3.3-7.1-3.7c-1.6,0.4-3.9,0.9-4.3-1.1l-0.3,0.2c0-0.7-0.1-1.5-0.1-2.2
	c0-22.6,17.6-41.1,39.8-42.5c0.9,0.3,1.7,0.7,2.2-0.1L50,7.5z M52.6,67.6c1.7,0.5,3.6,1.1,1.5,2.6c0.1,0.4,0.1,0.9,0.1,1.3
	c3.7-0.4,5.3,1.2-0.6,1.2l0.5,0c0,0.2-0.1,0.3-0.1,0.5c0.9,0.7,2.9-0.1,0.8,1.9c1.2,1.5,1.4,4-1.4,1.5c-0.5,1.5-1.7,1-2.1-0.5
	c-0.3-0.2-0.7-0.4-1.2,0c-1.9-0.6-4-4.8-1.3-4.4C50.2,70.3,52,69.5,52.6,67.6z M72.8,73.9c0.5,0.6,1,1.1,1.4,1.7
	c0.2-0.1,0.5-0.2,0.6-0.5c0.4,0.4,0.3,0.9-0.1,1.1c0.9,1.2,1.7,2.4,2.9,3.4c-2.2,1.6-3.6-1-5.1-2c-1.3,2-4,1.5-5.6,0.5
	c2.5-2-1.5-2.8-3-3.5c0.5-0.3,1.1-0.5,1.7-0.7c0.1,0,0.3-0.1,0.5-0.2c0.4-0.2,0.7-0.4,0.8-0.8C68.8,71.9,70.6,74.4,72.8,73.9z
	 M69.3,80.1c1.2,1.5,1.3,4.5,2.2,6.6c-5.7,3.3-12.2,5.4-19.2,5.8L50,92.6l-1.2,0c-0.1-1.7,0.5-3.2,3.9-4.2c3.2,0.4,4.4-8.2,7.3-4.2
	c2.7-5.2,1.7-2.8,5.5-2.9c0.2,3.1-2.6,2,2.1,4.5C69.3,84.1,67.3,81.8,69.3,80.1z M50,5C25.2,5,5,25.2,5,50c0,24.8,20.1,45,45,45
	c24.8,0,45-20.1,45-45C95,25.2,74.8,5,50,5z M50,0c27.6,0,50,22.4,50,50c0,27.6-22.4,50-50,50C22.4,100,0,77.6,0,50
	C0,22.4,22.4,0,50,0z"/>
</svg>
