<?xml version="1.0" encoding="utf-8"?>
<!-- Generator: Adobe Illustrator 24.0.1, SVG Export Plug-In . SVG Version: 6.00 Build 0)  -->
<svg version="1.1" id="圖層_1" xmlns="http://www.w3.org/2000/svg" xmlns:xlink="http://www.w3.org/1999/xlink" x="0px" y="0px"
	 viewBox="0 0 100 100" style="enable-background:new 0 0 100 100;" xml:space="preserve">
<style type="text/css">
	.st0{fill-rule:evenodd;clip-rule:evenodd;}
</style>
<path class="st0" d="M85.9,23c1,0,1.8,0.8,1.8,1.7s-0.8,1.7-1.8,1.7H51.3c-1,0-1.8-0.8-1.8-1.7s0.8-1.7,1.8-1.7H85.9z M85.9,33.4
	c1,0,1.8,0.8,1.8,1.7c0,1-0.8,1.7-1.8,1.7h-28c-1,0-1.8-0.8-1.8-1.7c0-1,0.8-1.7,1.8-1.7H85.9z M85.9,43.9c1,0,1.8,0.8,1.8,1.7
	c0,1-0.8,1.7-1.8,1.7H68.4c-1,0-1.8-0.8-1.8-1.7c0-1,0.8-1.7,1.8-1.7H85.9z M91.8,14.5H44.5c-2.6,0-4.7,2.1-4.7,4.7v16.9
	c0.1,0,0.1,0,0.2,0.1c0.5,0.1,1,0.3,1.4,0.4c0.4,0.1,0.9,0.3,1.3,0.4c0.1,0,0.3,0.1,0.4,0.1c8.3,3,14.6,8.9,17.3,16.2
	c0.1,0.1,0.1,0.3,0.2,0.4c0.1,0.3,0.2,0.6,0.3,0.8c0.1,0.3,0.2,0.6,0.3,1c0,0.1,0.1,0.3,0.1,0.4H75c0.6,0,1.2,0.3,1.5,0.9
	c0,0.1,3.8,6.5,10.6,9.1c-1.8-4.7-0.7-8.5-0.6-8.7c0.2-0.7,0.9-1.2,1.7-1.2h3.6c2.6,0,4.7-2.1,4.7-4.7V19.2
	C96.5,16.6,94.4,14.5,91.8,14.5z M30.3,47.7c4.7,0,8,2.8,8,6.7c0,2.8-1.4,4.7-3.8,6.1c-2.3,1.4-3,2.3-3.1,4.1
	c-0.1,1.2-0.6,1.9-1.8,1.9c-1.3,0-1.9-0.9-1.9-2.1V64c0-2.3,1.1-3.8,3.5-5.2c2.2-1.3,3-2.4,3-4.2c0-2.1-1.7-3.6-4.1-3.6
	c-2.2,0-3.7,1.1-4.2,3c-0.4,1.1-0.9,1.5-1.8,1.5c-1.1,0-1.8-0.7-1.8-1.8c0-0.8,0.2-1.4,0.5-2.1C23.9,49.2,26.7,47.7,30.3,47.7z
	 M29.6,69.5c1.4,0,2.4,1,2.4,2.3s-1,2.3-2.4,2.3c-1.3,0-2.4-1-2.4-2.3S28.3,69.5,29.6,69.5z M31,38.5c-15.2,0-27.5,10.3-27.5,23
	c0,5.3,2.2,10.4,6.2,14.5c0.4,0.4,0.5,0.9,0.5,1.4c-0.3,2.6-1.1,5.1-2.6,7.6c2.7-0.6,5.4-1.8,8.2-3.4c0.5-0.3,1.1-0.3,1.7-0.1
	c4.1,1.9,8.8,3,13.5,3c15.2,0,27.5-10.3,27.5-23c0-1.2-0.1-2.3-0.3-3.4c-0.1-0.5-0.2-1-0.3-1.5c0-0.1-0.1-0.3-0.1-0.4
	c-0.1-0.4-0.2-0.7-0.3-1c-0.1-0.3-0.2-0.6-0.3-0.9c-0.1-0.2-0.2-0.5-0.3-0.7c-0.1-0.3-0.3-0.6-0.4-0.9c0-0.1-0.1-0.1-0.1-0.2
	c-2.4-4.7-6.7-8.7-12.1-11.1c0,0,0,0,0,0c-0.4-0.2-0.7-0.3-1.1-0.5c-0.2-0.1-0.5-0.2-0.7-0.3c-0.4-0.1-0.7-0.3-1.1-0.4
	c-0.4-0.1-0.8-0.3-1.2-0.4l-0.5-0.1c-0.6-0.2-1.2-0.3-1.8-0.4C35.6,38.7,33.3,38.5,31,38.5z M91.8,11c4.5,0,8.2,3.7,8.2,8.2v32.1
	c0,4.5-3.7,8.2-8.2,8.2h-2.2c-0.2,1.7,0,4.8,2.3,8.1c0.4,0.6,0.4,1.3,0.1,1.9c-0.3,0.5-0.9,0.8-1.5,0.8c-0.1,0-0.2,0-0.2,0
	c-9-1.2-14.5-8.3-16.2-10.9H61.9c0.1,0.6,0.1,1.3,0.1,2C62,76,48.1,87.9,31,87.9c-4.9,0-9.8-1-14.2-2.9c-4.3,2.4-8.6,3.8-12.8,4
	c0,0-0.1,0-0.1,0c-0.7,0-1.3-0.4-1.6-0.9c-0.3-0.6-0.2-1.3,0.2-1.9c2.2-2.8,3.5-5.6,4-8.4C2.3,73.1,0,67.4,0,61.5
	C0,46.9,13.9,35,31,35c1.8,0,3.6,0.1,5.3,0.4V19.2c0-4.5,3.7-8.2,8.2-8.2H91.8z"/>
</svg>
