<?xml version="1.0" encoding="utf-8"?>
<!-- Generator: Adobe Illustrator 27.0.0, SVG Export Plug-In . SVG Version: 6.00 Build 0)  -->
<svg version="1.1" id="圖層_1" xmlns="http://www.w3.org/2000/svg" xmlns:xlink="http://www.w3.org/1999/xlink" x="0px" y="0px"
	 viewBox="0 0 100 100" style="enable-background:new 0 0 100 100;" xml:space="preserve">
<style type="text/css">
	.st0{fill-rule:evenodd;clip-rule:evenodd;fill:#6A9C78;}
</style>
<path class="st0" d="M86.7,68.3c2.1,0,3.8-1.7,3.8-3.8V35.9c0-2.1-1.7-3.8-3.8-3.8H13.3c-2.1,0-3.8,1.7-3.8,3.8v28.6
	c0,2.1,1.7,3.8,3.8,3.8h7.1v-5.7c0-0.1,0-0.2,0-0.3c0,0,0-0.1,0-0.1h-0.8c-2.6,0-4.7-2.1-4.7-4.7c0-2.6,2.1-4.7,4.7-4.7h60.7
	c2.6,0,4.7,2.1,4.7,4.7c0,2.6-2.1,4.7-4.7,4.7h-0.8c0,0.2,0.1,0.5,0.1,0.7v5.4H86.7z M70.1,85.2V62.9c0-0.2,0-0.5,0.1-0.7H29.8
	c0,0,0,0.1,0,0.1c0,0.1,0,0.2,0,0.3v22.6c0,2.2,1.4,3.8,2.6,3.8h35.1C68.8,89,70.1,87.4,70.1,85.2z M30.1,11c-1.9,0-3.6,1.7-3.6,3.8
	v7.8h46.8v-7.8c0-2.1-1.6-3.8-3.6-3.8H30.1z M82.9,22.6h3.9c7.3,0,13.3,6,13.3,13.3v28.6c0,7.3-6,13.3-13.3,13.3h-7.1v7.5
	c0,7.3-5.4,13.3-12.1,13.3H32.5c-6.6,0-12.1-6-12.1-13.3v-7.5h-7.1C5.9,77.7,0,71.8,0,64.5V35.9c0-7.3,5.9-13.3,13.3-13.3h3.9v-7.8
	c0-7.3,5.8-13.3,13-13.3h39.7c7.2,0,13,6,13,13.3V22.6z M69.6,42.9c0-2.7,2.2-4.9,4.9-4.9c2.7,0,4.9,2.2,4.9,4.9
	c0,2.7-2.2,4.9-4.9,4.9C71.8,47.8,69.6,45.6,69.6,42.9z"/>
</svg>
