<?xml version="1.0" encoding="utf-8"?>
<!-- Generator: Adobe Illustrator 24.1.3, SVG Export Plug-In . SVG Version: 6.00 Build 0)  -->
<svg version="1.1" id="圖層_1" xmlns="http://www.w3.org/2000/svg" xmlns:xlink="http://www.w3.org/1999/xlink" x="0px" y="0px"
	 viewBox="0 0 100 100" style="enable-background:new 0 0 100 100;" xml:space="preserve">
<style type="text/css">
	.st0{fill-rule:evenodd;clip-rule:evenodd;}
</style>
<path class="st0" d="M80.7,3.6C74.4,14.1,67.1,24.6,59,34.4C48.4,21.3,38.1,11,33.9,8.4C20.7,0.2-9.1,18.1,5.6,25.7
	c13.2,6.8,26.6,15.2,38.8,24.7C33.3,61.5,21.2,70.8,8.9,76.8c-6.2,3-16.3,6.9,6.2,4.3c13.2-1.5,29.3-9.4,43.8-18.5
	c10,9.4,18.5,19.4,24.5,29.9c3.4,6,8,15.8,3.9-6.5C85.5,76,79.8,64.5,72.6,53.4C84.5,44.8,93.5,36.6,96.2,33
	C105.2,20.4,89.3-10.5,80.7,3.6"/>
</svg>
