<?xml version="1.0" encoding="utf-8"?>
<!-- Generator: Adobe Illustrator 24.0.1, SVG Export Plug-In . SVG Version: 6.00 Build 0)  -->
<svg version="1.1" id="圖層_1" xmlns="http://www.w3.org/2000/svg" xmlns:xlink="http://www.w3.org/1999/xlink" x="0px" y="0px"
	 viewBox="0 0 100 100" style="enable-background:new 0 0 100 100;" xml:space="preserve">
<style type="text/css">
	.st0{fill-rule:evenodd;clip-rule:evenodd;}
</style>
<path class="st0" d="M92,23.5L92,23.5L71.3,2.8l-5.9,5.9l11.8,11.7c-5.2,2-9,7-9,12.9c0,7.7,6.2,13.9,13.9,13.9c2,0,3.9-0.4,5.6-1.2
	v40.1c0,3.1-2.5,5.6-5.6,5.6c-3.1,0-5.6-2.5-5.6-5.6v-25c0-6.1-5-11.1-11.2-11.1h-5.6V11.1C59.8,5,54.8,0,48.6,0H15.1
	C9,0,4,5,4,11.1V100h55.8V58.3h8.4v27.8c0,7.7,6.2,13.9,13.9,13.9c7.7,0,13.9-6.2,13.9-13.9V33.3C96,29.5,94.5,26,92,23.5z
	 M48.6,38.9H15.1V11.1h33.5V38.9z M82.1,38.9c-3.1,0-5.6-2.5-5.6-5.6s2.5-5.6,5.6-5.6c3.1,0,5.6,2.5,5.6,5.6S85.1,38.9,82.1,38.9z"
	/>
</svg>
