<?xml version="1.0" encoding="utf-8"?>
<!-- Generator: Adobe Illustrator 21.0.0, SVG Export Plug-In . SVG Version: 6.00 Build 0)  -->
<svg version="1.1" id="圖層_1" xmlns="http://www.w3.org/2000/svg" xmlns:xlink="http://www.w3.org/1999/xlink" x="0px" y="0px"
	 viewBox="0 0 100 100" style="enable-background:new 0 0 100 100;" xml:space="preserve">
<path d="M99.8,64.4c0.2-0.5,0.2-1.1,0.1-1.7l-5.2-32.5c-0.1-1.4-1.4-10.7-8.2-16c-4.1-3.2-9.3-4.4-15.3-3.4
	c-2.1,0.3-3.5,2.3-3.2,4.4c0.3,2.1,2.3,3.5,4.4,3.2c3.9-0.6,6.9,0,9.3,1.8c4.6,3.6,5.3,10.7,5.3,10.8l2.8,17.2
	c-3.5-2.3-7.7-3.7-12.3-3.7c-10,0-18.5,6.6-21.4,15.7c-4.2-1.6-8.1-1.6-12.3,0C41,51.2,32.5,44.6,22.5,44.6c-4.5,0-8.7,1.4-12.3,3.7
	l2.7-16.9l0-0.3c0-0.1,0.7-7.2,5.2-10.7c2.4-1.9,5.4-2.5,9.3-1.8c2.1,0.3,4.1-1.1,4.4-3.2s-1.1-4.1-3.2-4.4
	c-6.1-1-11.2,0.2-15.3,3.4c-6.8,5.3-8,14.6-8.2,16L0,62.7c-0.1,0.6,0,1.2,0.1,1.7C0.1,65.3,0,66.1,0,67c0,12.4,10.1,22.5,22.5,22.5
	c12,0,21.7-9.4,22.4-21.2c3.8-2,6.5-2,10.3,0c0.7,11.8,10.4,21.2,22.4,21.2C89.9,89.5,100,79.4,100,67C100,66.1,99.9,65.3,99.8,64.4
	z M22.5,81.8c-8.1,0-14.7-6.6-14.7-14.7c0-8.1,6.6-14.7,14.7-14.7S37.2,58.9,37.2,67C37.2,75.2,30.6,81.8,22.5,81.8z M77.5,81.8
	c-8.1,0-14.7-6.6-14.7-14.7c0-8.1,6.6-14.7,14.7-14.7c8.1,0,14.7,6.6,14.7,14.7C92.3,75.2,85.7,81.8,77.5,81.8z"/>
</svg>
