<?xml version="1.0" encoding="utf-8"?>
<!-- Generator: Adobe Illustrator 27.0.0, SVG Export Plug-In . SVG Version: 6.00 Build 0)  -->
<svg version="1.1" id="圖層_1" xmlns="http://www.w3.org/2000/svg" xmlns:xlink="http://www.w3.org/1999/xlink" x="0px" y="0px"
	 viewBox="0 0 100 100" style="enable-background:new 0 0 100 100;" xml:space="preserve">
<style type="text/css">
	.st0{fill:#231815;}
</style>
<path class="st0" d="M50,0c0,0-0.2,0-0.3,0c0,0-0.1,0-0.1,0c-0.1,0-0.2,0-0.2,0C22.1,0.4,0,22.6,0,50c0,5.1,0.8,10,2.2,14.6
	c0,0,0,0.1,0,0.2c0,0.7,0.3,1.2,0.7,1.7c6.7,19.4,25,33.3,46.6,33.6c0.1,0,0.2,0,0.2,0c0,0,0.1,0,0.1,0c0.1,0,0.2,0,0.3,0
	c27.6,0,50-22.4,50-50C100,22.4,77.5,0,50,0z M49.7,94.8c0,0-0.1,0-0.2,0C45.4,94.6,37,83.6,33.2,67.3h31.6
	C61.2,83.8,53.5,94.7,49.7,94.8z M32.2,62.2c-0.6-3.8-1-7.9-1-12.2c0-3.1,0.2-6,0.5-8.8h34.4c0.3,2.9,0.5,5.8,0.5,8.8
	c0,4.3-0.4,8.3-0.9,12.2H32.2L32.2,62.2z M5.1,50c0-3,0.3-6,0.9-8.8h20.6C26.3,44,26,47,26,50c0,4.1,0.4,8.2,1,12.2H6.8
	C5.8,58.3,5.1,54.2,5.1,50z M49.5,5.1c0,0,0.1,0,0.2,0C53.8,5.3,62.3,17.6,65.4,36H32.5C36,17.9,45.1,5.3,49.5,5.1L49.5,5.1z
	 M71.2,41.1H94c0.6,2.9,0.9,5.8,0.9,8.8c0,4.2-0.6,8.3-1.7,12.2H70.8c0.6-3.9,0.9-8,0.9-12.2C71.7,46.9,71.5,44,71.2,41.1z M92.6,36
	H70.5c-2-12.7-6.6-23.6-11.7-30C74.7,9.1,87.6,20.8,92.6,36z M39.8,6.3c-5.3,6.3-10.3,17-12.5,29.7h-20C12.2,21.3,24.5,9.9,39.8,6.3
	z M8.6,67.3H28c2.4,10.9,6.8,20.4,11.6,26.4C25.6,90.3,14.1,80.3,8.6,67.3L8.6,67.3z M58.8,94c4.6-5.8,8.9-15.4,11.1-26.7h21.5
	C85.8,80.8,73.6,91,58.8,94z"/>
</svg>
