<?xml version="1.0" encoding="utf-8"?>
<!-- Generator: Adobe Illustrator 21.0.0, SVG Export Plug-In . SVG Version: 6.00 Build 0)  -->
<svg version="1.1" id="图层_1" xmlns="http://www.w3.org/2000/svg" xmlns:xlink="http://www.w3.org/1999/xlink" x="0px" y="0px"
	 viewBox="0 0 100 100" style="enable-background:new 0 0 100 100;" xml:space="preserve">
<path d="M88,0H12C5.4,0,0,5.4,0,12v76c0,6.6,5.4,12,12,12h76c6.6,0,12-5.4,12-12V12C100,5.4,94.6,0,88,0z M77.1,25.8L54.7,82.1
	c-0.9,1.8-3.5,1.5-4-0.4L41,61.4c-0.5-1-1.3-1.9-2.4-2.4l-20.3-9.6c-1.9-0.5-2.2-3.1-0.4-4l56.3-22.4C76,22,78,24,77.1,25.8z"/>
</svg>
