<?xml version="1.0" encoding="utf-8"?>
<!-- Generator: Adobe Illustrator 24.0.1, SVG Export Plug-In . SVG Version: 6.00 Build 0)  -->
<svg version="1.1" id="圖層_1" xmlns="http://www.w3.org/2000/svg" xmlns:xlink="http://www.w3.org/1999/xlink" x="0px" y="0px"
	 viewBox="0 0 100 100" style="enable-background:new 0 0 100 100;" xml:space="preserve">
<style type="text/css">
	.st0{fill-rule:evenodd;clip-rule:evenodd;fill:#231815;}
</style>
<path id="SVGID_9_" class="st0" d="M5.4,83.1h89.2c3,0,5.4-2.4,5.4-5.4c0-3-2.4-5.4-5.4-5.4H5.4c-3,0-5.4,2.4-5.4,5.4
	C0,80.7,2.4,83.1,5.4,83.1z M5.4,55.4h89.2c3,0,5.4-2.4,5.4-5.4c0-3-2.4-5.4-5.4-5.4H5.4C2.4,44.6,0,47,0,50C0,53,2.4,55.4,5.4,55.4
	z M5.4,27.7h89.2c3,0,5.4-2.4,5.4-5.4c0-3-2.4-5.4-5.4-5.4H5.4c-3,0-5.4,2.4-5.4,5.4C0,25.3,2.4,27.7,5.4,27.7z"/>
</svg>
