<?xml version="1.0" encoding="utf-8"?>
<!-- Generator: Adobe Illustrator 24.0.1, SVG Export Plug-In . SVG Version: 6.00 Build 0)  -->
<svg version="1.1" id="圖層_1" xmlns="http://www.w3.org/2000/svg" xmlns:xlink="http://www.w3.org/1999/xlink" x="0px" y="0px"
	 viewBox="0 0 100 100" style="enable-background:new 0 0 100 100;" xml:space="preserve">
<style type="text/css">
	.st0{fill-rule:evenodd;clip-rule:evenodd;fill:none;}
</style>
<path class="st0" d="M70.3,14.8c6.1,0,12.3,2.3,16.9,7c9.3,9.3,9.3,24.5,0,33.9L50.1,85.2c0,0,0,0-0.1,0c0,0-0.1,0-0.1,0L12.8,55.7
	c-9.4-9.3-9.4-24.5,0-33.9c4.7-4.7,10.8-7,16.9-7c6.1,0,12.3,2.3,16.9,7l3.4,3.4l3.4-3.4C58.1,17.1,64.2,14.8,70.3,14.8 M70.3,9
	c-7.6,0-14.8,2.8-20.3,8c-5.5-5.2-12.7-8-20.3-8c-7.9,0-15.4,3.1-21,8.7C3.1,23.4,0,30.8,0,38.7s3.1,15.4,8.7,21
	c0.2,0.2,0.3,0.3,0.5,0.4l37.2,29.5c1,0.8,2.4,1.3,3.7,1.3c1.4,0,2.7-0.5,3.8-1.4l37-29.4c0.2-0.1,0.3-0.3,0.5-0.4
	c11.6-11.6,11.6-30.4,0-42C85.7,12.1,78.2,9,70.3,9"/>
</svg>
