<?xml version="1.0" encoding="utf-8"?>
<!-- Generator: Adobe Illustrator 24.0.1, SVG Export Plug-In . SVG Version: 6.00 Build 0)  -->
<svg version="1.1" id="圖層_1" xmlns="http://www.w3.org/2000/svg" xmlns:xlink="http://www.w3.org/1999/xlink" x="0px" y="0px"
	 viewBox="0 0 100 100" style="enable-background:new 0 0 100 100;" xml:space="preserve">
<style type="text/css">
	.st0{fill:#231815;}
</style>
<title>star</title>
<path id="SVGID_9_" class="st0" d="M56.2,4.6C54.6,3,52.4,2,50,2c-2.4,0-4.6,1-6.2,2.6L4.6,43.8l0,0c-3.5,3.5-3.5,9,0,12.5
	c1.5,1.5,3.6,2.5,5.9,2.6c0.1,0,0.2,0,0.3,0h1.5v28.8c0,5.7,4.6,10.4,10.4,10.4H38c1.5,0,2.8-1.2,2.8-2.8V72.6
	c0-2.6,2.1-4.7,4.7-4.7h9c2.6,0,4.7,2.1,4.7,4.7v22.6c0,1.5,1.2,2.8,2.8,2.8h15.4c5.7,0,10.4-4.6,10.4-10.4V58.7h1.4
	c2.4,0,4.6-1,6.2-2.6c3.5-3.5,3.5-9,0-12.5L56.2,4.6z"/>
</svg>
