<?xml version="1.0" encoding="utf-8"?>
<!-- Generator: Adobe Illustrator 21.0.0, SVG Export Plug-In . SVG Version: 6.00 Build 0)  -->
<svg version="1.1" id="圖層_1" xmlns="http://www.w3.org/2000/svg" xmlns:xlink="http://www.w3.org/1999/xlink" x="0px" y="0px"
	 viewBox="0 0 100 100" style="enable-background:new 0 0 100 100;" xml:space="preserve">
<path d="M98.2,12.8c-2.4-2.4-6.4-2.4-8.9,0L28.1,74L10.7,56.6c-2.4-2.4-6.4-2.4-8.9,0c-2.4,2.4-2.4,6.4,0,8.9l21.8,21.8
	c1.2,1.2,2.8,1.8,4.4,1.8c0,0,0.1,0,0.1,0c0,0,0.1,0,0.1,0c1.6,0,3.2-0.6,4.4-1.8l65.6-65.6C100.6,19.2,100.6,15.2,98.2,12.8z"/>
</svg>
