<?xml version="1.0" encoding="utf-8"?>
<!-- Generator: Adobe Illustrator 27.0.0, SVG Export Plug-In . SVG Version: 6.00 Build 0)  -->
<svg version="1.1" id="圖層_1" xmlns="http://www.w3.org/2000/svg" xmlns:xlink="http://www.w3.org/1999/xlink" x="0px" y="0px"
	 viewBox="0 0 100 100" style="enable-background:new 0 0 100 100;" xml:space="preserve">
<style type="text/css">
	.st0{fill-rule:evenodd;clip-rule:evenodd;fill:#231815;}
</style>
<path class="st0" d="M50,0C22.4,0,0,22.4,0,50s22.4,50,50,50s50-22.4,50-50S77.6,0,50,0z M54,15.2c2.7-1.1,5.4-1.8,8.3-0.9
	c4.4,1.3,5.7,4.1,3.5,8c-2.2,3.8-5.4,6.7-9.5,8.7c-1.8,0.9-3.7,1.6-6.2,2.7c1-2.8,0.9-5.1,2.1-6.9c0.9-1.3-0.1-1.9-0.7-2.8
	C48.8,20.3,49.8,16.9,54,15.2z M68.8,70.1l-1.2,1.4c-1.1,1.4-2.1,2.9-3,4.5l-2.3,2.6l-2.4,2.6c-4.7,4.8-10.9,5.5-17.1,4.7
	c-4.9-0.7-7.6-6.7-6-11.9c0.7-2.1,2.3-3.7,3.2-5.8l0.8-1.1c0.7-1.1,1.2-2.3,1.8-3.5c1.3-2.7,4.1-4.6,4.4-7.9l0.5-1.3l1.1-2.6
	c0.5-1.3,0.9-2.6,0.9-4.1c-1.3-2.1-3.4-1.5-5.1-1c-1.8,0.5-3.4,1.7-5.1,2.5l-0.7,0.3c-2.3,1.2-4.5,3.3-7.5,1.4
	c-1.4-2.9,0.4-4.4,2.7-5.8c2.4-0.1,4.8-0.6,7-1.5c4.4-1.9,8.9-2.8,13.7-2.6l0.9,0c1.4,0.1,2.8,0.4,3.9,1.5c1.3,2.1,3.9,3.6,3.6,6.5
	l-0.3,1l-0.3,1c-4.5,5.9-6.5,12.8-8.9,19.6c-0.4,1.1-0.6,2.3-0.2,3.5c0.8,1.7,2.3,1.8,4,1.5c3.4-0.6,5.8-2.7,8.3-4.8
	c1.5-0.6,2.2-2.4,4-2.5C69.7,69.1,68.9,69.5,68.8,70.1z"/>
</svg>
