<?xml version="1.0" encoding="utf-8"?>
<!-- Generator: Adobe Illustrator 24.0.1, SVG Export Plug-In . SVG Version: 6.00 Build 0)  -->
<svg version="1.1" id="圖層_1" xmlns="http://www.w3.org/2000/svg" xmlns:xlink="http://www.w3.org/1999/xlink" x="0px" y="0px"
	 viewBox="0 0 100 100" style="enable-background:new 0 0 100 100;" xml:space="preserve">
<style type="text/css">
	.st0{fill:#FFFFFF;}
</style>
<g id="註解">
	<g id="_群組_">
		<path id="_複合路徑_" class="st0" d="M71.1,0H28.9C12.9,0,0,12.9,0,28.9v42.3C0,87.1,12.9,100,28.9,100h42.3
			c15.9,0,28.9-12.9,28.9-28.9V28.9C100,12.9,87.1,0,71.1,0z M90.8,71.9c0,10.6-8.6,19.2-19.2,19.2l0,0H28.3
			C17.8,91,9.2,82.5,9.2,71.9V28.6C9.2,18,17.8,9.5,28.4,9.5h43.3c10.6,0,19.1,8.6,19.1,19.1L90.8,71.9z"/>
		<path id="_複合路徑_2" class="st0" d="M50,24.3c-14.3,0-25.9,11.6-25.9,25.9S35.7,76.2,50,76.2c14.3,0,25.9-11.6,25.9-25.9
			C75.9,35.9,64.3,24.3,50,24.3C50,24.3,50,24.3,50,24.3z M50,67.1c-9.3,0-16.8-7.5-16.8-16.8c0-9.3,7.5-16.8,16.8-16.8
			c9.3,0,16.8,7.5,16.8,16.8c0,0,0,0,0,0C66.8,59.5,59.3,67.1,50,67.1L50,67.1L50,67.1z"/>
		<circle id="_路徑_" class="st0" cx="76.8" cy="23.3" r="6"/>
	</g>
</g>
</svg>
