<?xml version="1.0" encoding="utf-8"?>
<!-- Generator: Adobe Illustrator 24.0.1, SVG Export Plug-In . SVG Version: 6.00 Build 0)  -->
<svg version="1.1" id="圖層_1" xmlns="http://www.w3.org/2000/svg" xmlns:xlink="http://www.w3.org/1999/xlink" x="0px" y="0px"
	 viewBox="0 0 100 100" style="enable-background:new 0 0 100 100;" xml:space="preserve">
<style type="text/css">
	.st0{fill-rule:evenodd;clip-rule:evenodd;}
</style>
<path class="st0" d="M7.8,10l0.4,0l3.5,0.6c0.8,0.1,1.4,0.6,1.8,1.3l9.1,19l53.3,8.8c9.8,1.6,11.3,2.5,13.3,4.2
	c0.6,0.5,1.1,0.9,2.3,1.5c3.4,1.7,5.8,3.4,7.1,5.2c1.3,1.7,1.4,3.2,1.3,4.1c-0.2,1.2-1.6,4.9-12,3.3l-27.1-4.4l-28.1,4.7
	c-0.2,0-0.4,0-0.6,0l-7.4-1.2c-0.9-0.1-1.5-0.9-1.6-1.7c-0.1-0.9,0.4-1.7,1.2-2l11.3-4.5L1.7,37.4c-1.2-0.4-1.9-1.7-1.6-2.9
	c0.3-1.2,1.5-2,2.7-1.8l0,0l3.2,0.5L5.4,12.5c0-0.7,0.3-1.4,0.8-1.9c0.5-0.5,1.3-0.7,2-0.6L7.8,10z M95.5,79.5
	c2.5,0,4.5,2.4,4.5,5.3c0,2.9-2,5.3-4.5,5.3H41.4c-2.5,0-4.5-2.4-4.5-5.3c0-2.9,2-5.3,4.5-5.3H95.5z"/>
</svg>
