<?xml version="1.0" encoding="utf-8"?>
<!-- Generator: Adobe Illustrator 27.0.0, SVG Export Plug-In . SVG Version: 6.00 Build 0)  -->
<svg version="1.1" id="圖層_1" xmlns="http://www.w3.org/2000/svg" xmlns:xlink="http://www.w3.org/1999/xlink" x="0px" y="0px"
	 viewBox="0 0 100 100" style="enable-background:new 0 0 100 100;" xml:space="preserve">
<style type="text/css">
	.st0{fill:#231815;}
</style>
<g>
	<rect x="27.8" y="37.5" class="st0" width="16.7" height="15.3"/>
	<polygon class="st0" points="54.2,52.8 70.8,52.8 70.9,52.8 70.9,37.5 54.2,37.5 	"/>
	<path class="st0" d="M90.7,0H9.2C4.1,0,0,4.2,0,9.3v81.5c0,5.1,4.1,9.2,9.2,9.2h81.4c5.1,0,9.3-4.1,9.3-9.2V9.3
		C100,4.2,95.8,0,90.7,0z M79.2,64.7h-8.9v-3.6h-16v22.2v0.1h-9V61.1h-16V65h-8.5V29h24.6V16.7h8.9V29h24.9V64.7z"/>
</g>
</svg>
