<?xml version="1.0" encoding="utf-8"?>
<!-- Generator: Adobe Illustrator 27.0.0, SVG Export Plug-In . SVG Version: 6.00 Build 0)  -->
<svg version="1.1" id="圖層_1" xmlns="http://www.w3.org/2000/svg" xmlns:xlink="http://www.w3.org/1999/xlink" x="0px" y="0px"
	 viewBox="0 0 100 100" style="enable-background:new 0 0 100 100;" xml:space="preserve">
<style type="text/css">
	.st0{fill-rule:evenodd;clip-rule:evenodd;fill:#231815;}
</style>
<path class="st0" d="M90.7,0H9.2C4.1,0,0,4.2,0,9.3v81.5c0,5.1,4.1,9.2,9.2,9.2h81.4c5.1,0,9.3-4.1,9.3-9.2V9.3
	C100,4.2,95.8,0,90.7,0z M47.2,73.6H15.3V26.4h31.6v8.2H24.7v11h20.4v8.2H24.7v11.5h22.5V73.6z M84.7,73.6h-8.2L60.2,45.7h-0.3
	l0.4,5.6v22.3h-8.9V26.4h8.2l16.5,28.9h0.3l-0.6-5.7V26.4h8.9V73.6z"/>
</svg>
