<?xml version="1.0" encoding="utf-8"?>
<!-- Generator: Adobe Illustrator 24.0.1, SVG Export Plug-In . SVG Version: 6.00 Build 0)  -->
<svg version="1.1" id="圖層_1" xmlns="http://www.w3.org/2000/svg" xmlns:xlink="http://www.w3.org/1999/xlink" x="0px" y="0px"
	 viewBox="0 0 100 100" style="enable-background:new 0 0 100 100;" xml:space="preserve">
<title>fast-09</title>
<path d="M100,42.9C100,20.3,77.6,2,50,2S0,20.3,0,42.9C0,63.1,17.8,80,41.8,83.2c1.7,0.3,3.9,1.1,4.4,2.4c0.6,1.2,0.3,3.2,0.1,4.6
	c0,0-0.6,3.6-0.7,4.3c-0.2,1.2-1,5,4.3,2.7C55.3,95,78.8,80.1,89.2,68l0,0C96.4,60,100,51.9,100,42.9z M30.4,56.3h-9.9
	c-1.4,0-2.7-1.2-2.7-2.7v-20c0-1.4,1.2-2.7,2.7-2.7c1.4,0,2.7,1.2,2.7,2.7V51h7.3c1.4,0,2.7,1.2,2.7,2.7
	C33.1,55.1,31.9,56.3,30.4,56.3z M40.7,53.7c0,1.4-1.2,2.7-2.7,2.7c-1.4,0-2.7-1.2-2.7-2.7v-20c0-1.4,1.2-2.7,2.7-2.7
	c1.4,0,2.7,1.2,2.7,2.7V53.7z M64.6,53.7c0,1.1-0.7,2.1-1.8,2.6c-0.2,0.1-0.6,0.1-0.8,0.1c-0.8,0-1.6-0.4-2.1-1l-10.2-14v12.3
	c0,1.4-1.2,2.7-2.7,2.7s-2.7-1.2-2.7-2.7v-20c0-1.1,0.7-2.1,1.8-2.6C46.3,31,46.7,31,47,31c0.8,0,1.6,0.3,2.1,1l10.2,14V33.7
	c0-1.4,1.2-2.7,2.7-2.7c1.4,0,2.7,1.2,2.7,2.7v20H64.6z M80.7,41c1.4,0,2.7,1.2,2.7,2.7c0,1.4-1.2,2.7-2.7,2.7h-7.3v4.8h7.3
	c1.4,0,2.7,1.2,2.7,2.7s-1.2,2.7-2.7,2.7h-9.9c-1.4,0-2.7-1.2-2.7-2.7v-10v-10c0-1.4,1.2-2.7,2.7-2.7h9.9c1.4,0,2.7,1.2,2.7,2.7
	s-1.2,2.7-2.7,2.7h-7.3v4.8h7.3V41z"/>
</svg>
