<?xml version="1.0" encoding="utf-8"?>
<!-- Generator: Adobe Illustrator 27.0.0, SVG Export Plug-In . SVG Version: 6.00 Build 0)  -->
<svg version="1.1" id="圖層_1" xmlns="http://www.w3.org/2000/svg" xmlns:xlink="http://www.w3.org/1999/xlink" x="0px" y="0px"
	 viewBox="0 0 100 100" style="enable-background:new 0 0 100 100;" xml:space="preserve">
<style type="text/css">
	.st0{fill-rule:evenodd;clip-rule:evenodd;fill:#4A4A4A;}
</style>
<path class="st0" d="M95.3,0c2.6,0,4.7,2.1,4.7,4.7v0.1v39.3c0,2.6-2.1,4.7-4.8,4.7c-2.6,0-4.7-2.1-4.7-4.7V16.2L45.3,61.4
	c-1.9,1.9-4.9,1.8-6.7,0c-1.8-1.9-1.9-4.8,0-6.7L83.8,9.5H55.9c-2.6,0.1-4.8-2.1-4.8-4.7c0-2.7,2.1-4.8,4.7-4.8H95.3z M89.1,65.5
	c0.6-2.6,3.2-4.2,5.8-3.6c2.6,0.6,4.2,3.2,3.7,5.8C93.3,90.9,63.3,100,50.4,100C22.6,100,0,77.4,0,49.5C0,37.1,6.6,13.8,29.9,4.1
	c2.4-1,5.1,1.2,5.6,3.8c0.5,2.6-1.4,4.5-3.8,5.6c-17.6,8-22.2,28.8-22.2,35.9c0,22.5,18.3,40.9,40.8,40.9
	C60.6,90.3,84.9,84.3,89.1,65.5z"/>
</svg>
