<?xml version="1.0" encoding="utf-8"?>
<!-- Generator: Adobe Illustrator 27.0.0, SVG Export Plug-In . SVG Version: 6.00 Build 0)  -->
<svg version="1.1" id="圖層_1" xmlns="http://www.w3.org/2000/svg" xmlns:xlink="http://www.w3.org/1999/xlink" x="0px" y="0px"
	 viewBox="0 0 100 100" style="enable-background:new 0 0 100 100;" xml:space="preserve">
<style type="text/css">
	.st0{fill-rule:evenodd;clip-rule:evenodd;}
</style>
<path class="st0" d="M92.7,7.3c-9.7-9.7-25.5-9.7-35.2,0L46,18.7c-5.5,5.5-7.9,12.9-7.1,20.1c-7.2-0.7-14.6,1.7-20.1,7.2L7.3,57.5
	C2.6,62.2,0,68.4,0,75.1C0,81.8,2.6,88,7.3,92.7c4.9,4.9,11.2,7.3,17.6,7.3c6.4,0,12.8-2.4,17.6-7.3L54,81.3
	c5.5-5.5,7.9-12.9,7.1-20.1c0.8,0.1,1.7,0.1,2.5,0.1c6.4,0,12.8-2.4,17.6-7.3l11.5-11.5C102.4,32.8,102.4,17,92.7,7.3 M46,73.3
	L34.6,84.8c-5.3,5.3-14,5.3-19.3,0v0c-2.6-2.6-4-6-4-9.7c0-3.7,1.4-7.1,4-9.7L26.7,54c2.7-2.7,6.2-4,9.7-4c1.6,0,3.2,0.3,4.7,0.9
	l-11,10.7c-2.2,2.2-2.3,5.7-0.1,7.9c1.1,1.1,2.6,1.7,4,1.7c1.4,0,2.8-0.5,3.9-1.6l11.2-10.9C51,63.6,50,69.4,46,73.3 M84.8,34.6
	L73.3,46c-3.9,3.9-9.6,4.9-14.4,3.1l11-10.7c2.2-2.2,2.3-5.7,0.1-7.9c-2.2-2.2-5.7-2.3-7.9-0.1L50.9,41.3C49,36.4,50,30.6,54,26.7
	l11.5-11.5c2.7-2.7,6.2-4,9.7-4c3.5,0,7,1.3,9.7,4C90.1,20.6,90.1,29.2,84.8,34.6"/>
</svg>
