<?xml version="1.0" encoding="utf-8"?>
<!-- Generator: Adobe Illustrator 24.0.1, SVG Export Plug-In . SVG Version: 6.00 Build 0)  -->
<svg version="1.1" id="圖層_1" xmlns="http://www.w3.org/2000/svg" xmlns:xlink="http://www.w3.org/1999/xlink" x="0px" y="0px"
	 viewBox="0 0 100 100" style="enable-background:new 0 0 100 100;" xml:space="preserve">
<style type="text/css">
	.st0{fill-rule:evenodd;clip-rule:evenodd;}
</style>
<path class="st0" d="M50,36.3c7.5,0,13.6,6.1,13.6,13.7c0,7.5-6.1,13.7-13.6,13.7c-7.5,0-13.6-6.1-13.6-13.7
	C36.4,42.5,42.5,36.3,50,36.3z M27.5,26.8l6.4,6.6c-4.1,4.2-6.6,10.1-6.6,16.6c0,6.5,2.5,12.3,6.6,16.6l-6.4,6.6
	c-5.8-5.9-9.3-14.1-9.3-23.2C18.2,40.9,21.8,32.8,27.5,26.8z M72.5,26.8c5.8,5.9,9.3,14.2,9.3,23.2c0,9-3.5,17.2-9.3,23.2L66,66.6
	c4.1-4.2,6.6-10.1,6.6-16.6c0-6.5-2.5-12.3-6.6-16.6L72.5,26.8z M14.7,13.6l6.4,6.6c-7.4,7.6-12,18.1-12,29.8
	c0,11.7,4.6,22.2,12,29.8l-6.4,6.6C5.6,77.1,0,64.2,0,50C0,35.8,5.6,22.9,14.7,13.6z M85.3,13.6C94.4,22.9,100,35.8,100,50
	c0,14.2-5.6,27.1-14.7,36.4l-6.4-6.6c7.4-7.6,12-18.1,12-29.8c0-11.7-4.6-22.2-12-29.8L85.3,13.6z"/>
</svg>
