<?xml version="1.0" encoding="utf-8"?>
<!-- Generator: Adobe Illustrator 27.0.0, SVG Export Plug-In . SVG Version: 6.00 Build 0)  -->
<svg version="1.1" id="圖層_1" xmlns="http://www.w3.org/2000/svg" xmlns:xlink="http://www.w3.org/1999/xlink" x="0px" y="0px"
	 viewBox="0 0 100 100" style="enable-background:new 0 0 100 100;" xml:space="preserve">
<style type="text/css">
	.st0{fill-rule:evenodd;clip-rule:evenodd;}
</style>
<path class="st0" d="M50,28c6.1,0,11,4.9,11,11c0,6.1-4.9,11-11,11c-6.1,0-11-4.9-11-11C39,32.9,43.9,28,50,28z M50,13.4
	c-14.7,0-26.7,12-26.7,26.7c0,10,14.8,30,26.7,43.3c11.9-13.3,26.7-33.3,26.7-43.3C76.7,25.4,64.7,13.4,50,13.4z M50,0
	c22.1,0,40.1,18,40.1,40.1c0,20.6-31.7,54.1-35.3,57.8c-1.3,1.3-3,2.1-4.8,2.1c-1.8,0-3.6-0.7-4.8-2.1C41.6,94.2,9.9,60.7,9.9,40.1
	C9.9,18,27.9,0,50,0z"/>
</svg>
