<?xml version="1.0" encoding="utf-8"?>
<!-- Generator: Adobe Illustrator 24.0.1, SVG Export Plug-In . SVG Version: 6.00 Build 0)  -->
<svg version="1.1" id="圖層_1" xmlns="http://www.w3.org/2000/svg" xmlns:xlink="http://www.w3.org/1999/xlink" x="0px" y="0px"
	 viewBox="0 0 100 100" style="enable-background:new 0 0 100 100;" xml:space="preserve">
<style type="text/css">
	.st0{fill-rule:evenodd;clip-rule:evenodd;fill:#231815;}
</style>
<path class="st0" d="M47,23.1c-12.5,1.2-22.5,11.1-23.8,23.6l0.1-0.8l15.1,0V53l-15.1,0c1.6,12.2,11.5,21.7,23.8,22.8l-0.1,0l0-14.2
	H54l0,14c11.3-2,20.2-11.1,21.7-22.6l-14.1,0V46l14.1,0C74.2,34.5,65.3,25.4,54,23.4l0,14H47L47,23.1z M49.5,15.1
	c18.9,0,34.4,15.4,34.4,34.4c0,18.9-15.4,34.4-34.4,34.4c-18.9,0-34.4-15.4-34.4-34.4C15.1,30.6,30.6,15.1,49.5,15.1z M50,6.1
	C25.8,6.1,6.1,25.8,6.1,50S25.8,93.9,50,93.9S93.9,74.2,93.9,50S74.2,6.1,50,6.1z M50,0c27.6,0,50,22.4,50,50s-22.4,50-50,50
	S0,77.6,0,50S22.4,0,50,0z"/>
</svg>
