<?xml version="1.0" encoding="utf-8"?>
<!-- Generator: Adobe Illustrator 27.0.0, SVG Export Plug-In . SVG Version: 6.00 Build 0)  -->
<svg version="1.1" id="圖層_1" xmlns="http://www.w3.org/2000/svg" xmlns:xlink="http://www.w3.org/1999/xlink" x="0px" y="0px"
	 viewBox="0 0 100 100" style="enable-background:new 0 0 100 100;" xml:space="preserve">
<style type="text/css">
	.st0{fill-rule:evenodd;clip-rule:evenodd;fill:#6A9C78;}
</style>
<path class="st0" d="M23.3,40.1c0,10,14.8,30,26.7,43.3c11.9-13.3,26.7-33.3,26.7-43.3c0-14.7-12-26.7-26.7-26.7
	S23.3,25.4,23.3,40.1z M9.9,40.1C9.9,18,27.9,0,50,0s40.1,18,40.1,40.1c0,20.6-31.7,54.1-35.3,57.8c-1.3,1.3-3,2.1-4.8,2.1
	c-1.8,0-3.6-0.7-4.8-2.1C41.6,94.2,9.9,60.7,9.9,40.1z M39,38.9c0-6.1,4.9-11,11-11c6.1,0,11,4.9,11,11c0,6.1-4.9,11-11,11
	C43.9,49.9,39,45,39,38.9z"/>
</svg>
