<?xml version="1.0" encoding="utf-8"?>
<!-- Generator: Adobe Illustrator 24.0.1, SVG Export Plug-In . SVG Version: 6.00 Build 0)  -->
<svg version="1.1" id="圖層_1" xmlns="http://www.w3.org/2000/svg" xmlns:xlink="http://www.w3.org/1999/xlink" x="0px" y="0px"
	 viewBox="0 0 100 100" style="enable-background:new 0 0 100 100;" xml:space="preserve">
<path d="M78.1,37.5H75V25C75,11.2,63.8,0,50,0S25,11.2,25,25v12.5h-3.1c-5.2,0-9.4,4.2-9.4,9.4v43.8c0,5.2,4.2,9.4,9.4,9.4h56.2
	c5.2,0,9.4-4.2,9.4-9.4V46.9C87.5,41.7,83.3,37.5,78.1,37.5z M33.3,25c0-9.2,7.5-16.7,16.7-16.7S66.7,15.8,66.7,25v12.5H33.3V25z
	 M54.2,69.7v9.5c0,2.3-1.9,4.2-4.2,4.2s-4.2-1.9-4.2-4.2v-9.5c-2.5-1.4-4.2-4.1-4.2-7.2c0-4.6,3.7-8.3,8.3-8.3s8.3,3.7,8.3,8.3
	C58.3,65.6,56.6,68.2,54.2,69.7z"/>
</svg>
