<?xml version="1.0" encoding="utf-8"?>
<!-- Generator: Adobe Illustrator 24.0.1, SVG Export Plug-In . SVG Version: 6.00 Build 0)  -->
<svg version="1.1" id="圖層_1" xmlns="http://www.w3.org/2000/svg" xmlns:xlink="http://www.w3.org/1999/xlink" x="0px" y="0px"
	 viewBox="0 0 100 100" style="enable-background:new 0 0 100 100;" xml:space="preserve">
<path d="M22.4,62.2c-1.6,0.6-3.4,0.3-4.5-0.9L1.2,44.6c-1.6-1.6-1.6-4.3,0-5.9l16.7-16.7c1.2-1.2,3-1.5,4.5-0.9
	C24,21.8,25,23.3,25,25v12.5h16.7c2.3,0,4.2,1.9,4.2,4.2c0,2.3-1.9,4.2-4.2,4.2H25v12.5C25,60,24,61.5,22.4,62.2z"/>
<path d="M90.6,0c0.1,0,0.2,0.1,0.3,0.1c4.9-0.4,9.1,3.4,9.1,8.3v75c0,3.6-2.3,6.7-5.6,7.9l-25,8.3c-0.9,0.3-1.8,0.4-2.7,0.4
	c-4.6,0-8.3-3.7-8.3-8.3v-4.2H45.8c-6.9,0-12.5-5.6-12.5-12.5v-8.3c0-2.3,1.9-4.2,4.2-4.2s4.2,1.9,4.2,4.2V75c0,2.3,1.9,4.2,4.2,4.2
	h12.5V16.7c0-3.6,2.3-6.7,5.6-7.9l1.3-0.4H45.8c-2.3,0-4.2,1.9-4.2,4.2v4.2c0,2.3-1.9,4.2-4.2,4.2s-4.2-1.9-4.2-4.2v-4.2
	C33.3,5.6,38.9,0,45.8,0H90.6z"/>
</svg>
