<?xml version="1.0" encoding="utf-8"?>
<!-- Generator: Adobe Illustrator 27.0.0, SVG Export Plug-In . SVG Version: 6.00 Build 0)  -->
<svg version="1.1" id="圖層_1" xmlns="http://www.w3.org/2000/svg" xmlns:xlink="http://www.w3.org/1999/xlink" x="0px" y="0px"
	 viewBox="0 0 100 100" style="enable-background:new 0 0 100 100;" xml:space="preserve">
<style type="text/css">
	.st0{fill:#231815;}
</style>
<path class="st0" d="M99.1,95L76.9,73.3c7.5-7.8,12.2-18.3,12.2-29.8c0-24-20-43.5-44.5-43.5C20,0,0,19.5,0,43.5
	c0,24,20,43.5,44.5,43.5c10.6,0,20.3-3.7,27.9-9.7l22.4,21.9c0.6,0.6,1.4,0.9,2.1,0.9c0.7,0,1.5-0.3,2.1-0.9
	C100.3,98,100.3,96.2,99.1,95L99.1,95z M6,43.5C6,22.7,23.3,5.8,44.6,5.8c21.3,0,38.6,16.9,38.6,37.7c0,20.7-17.3,37.7-38.6,37.7
	C23.3,81.1,6,64.2,6,43.5z"/>
</svg>
