<?xml version="1.0" encoding="utf-8"?>
<!-- Generator: Adobe Illustrator 24.0.1, SVG Export Plug-In . SVG Version: 6.00 Build 0)  -->
<svg version="1.1" id="圖層_1" xmlns="http://www.w3.org/2000/svg" xmlns:xlink="http://www.w3.org/1999/xlink" x="0px" y="0px"
	 viewBox="0 0 100 100" style="enable-background:new 0 0 100 100;" xml:space="preserve">
<style type="text/css">
	.st0{fill-rule:evenodd;clip-rule:evenodd;fill:#202020;}
</style>
<title>map</title>
<desc>Created with Sketch.</desc>
<g id="map">
	<g id="Combined-Shape">
		<path id="path-1_1_" class="st0" d="M49.2,46.4c6.6-7.4,15-18.7,15-24.4c0-8.3-6.8-15-15-15s-15,6.8-15,15
			C34.2,27.7,42.6,39,49.2,46.4z M49.2,0c12.2,0,22.1,9.9,22.1,22.1c0,11.3-17.5,29.9-19.5,32c-0.7,0.7-1.6,1.1-2.5,1.1
			c-1,0-1.9-0.4-2.5-1.1c-2-2.1-19.5-20.6-19.5-32C27.2,9.9,37.1,0,49.2,0z M49.2,16.1c2.9,0,5.3,2.4,5.3,5.3c0,2.9-2.4,5.3-5.3,5.3
			c-2.9,0-5.3-2.4-5.3-5.3C43.9,18.5,46.3,16.1,49.2,16.1z M91.3,84.4V28.9l-14.7,5.7v55.5L91.3,84.4z M97.5,19.8
			c1.1,0.7,1.7,2,1.7,3.3v64.1c0,1.6-1,3.1-2.5,3.7l-22.3,8.7c-0.5,0.3-1.1,0.4-1.7,0.4c0,0,0,0,0,0c0,0,0,0,0,0
			c-0.6,0-1.2-0.1-1.7-0.4L50,91.5l-20.7,8.1c-0.6,0.3-1.2,0.5-1.8,0.5c0,0,0,0,0,0c0,0,0,0,0,0c-0.6,0-1.3-0.2-1.8-0.5L3.3,90.9
			c-1.5-0.6-2.5-2.1-2.5-3.7V23.1c0-1.3,0.7-2.6,1.7-3.3C3.6,19,5,18.9,6.2,19.4l14.3,5.6c0.1,3,1.1,6.2,2.5,9.5L8.7,28.9v55.5
			l14.6,5.7V35.2c2.1,4.5,5,9.1,8.1,13.3v41.6l14.5-5.7V64c1,0.4,2.2,0.6,3.3,0.6c1.7,0,3.4-0.5,4.8-1.4v21.3l14.6,5.7V46.4
			c4.7-6.7,8.8-14.3,9.3-20.8l15.9-6.2C95,18.9,96.4,19,97.5,19.8z"/>
	</g>
</g>
</svg>
