<?xml version="1.0" encoding="utf-8"?>
<!-- Generator: Adobe Illustrator 24.0.1, SVG Export Plug-In . SVG Version: 6.00 Build 0)  -->
<svg version="1.1" id="圖層_1" xmlns="http://www.w3.org/2000/svg" xmlns:xlink="http://www.w3.org/1999/xlink" x="0px" y="0px"
	 viewBox="0 0 100 100" style="enable-background:new 0 0 100 100;" xml:space="preserve">
<style type="text/css">
	.st0{fill-rule:evenodd;clip-rule:evenodd;fill:#231815;}
</style>
<path class="st0" d="M99.6,22.5c-2.2-7-8.7-11.8-16.1-11.8c-0.2,0-0.4,0-0.7,0c-3.6-4-8.8-6.3-14.4-6.3c-6.4,0-12.1,3.1-15.7,7.9
	c-1.2-0.1-2.4-0.2-3.6-0.2c-20.8,0-37.7,16.9-37.7,37.7c0,4.4,0.8,8.6,2.1,12.5C5.8,63.8,0,70.6,0,78.8C0,88,7.5,95.6,16.8,95.6
	h26.6c0.1,0,0.1,0,0.2,0c0.1,0,0.1,0,0.2,0h0c0.2,0,0.4,0,0.7,0c6.3-0.3,11.8-4,14.7-9.3c16-4.4,27.7-19,27.7-36.4
	c0-6.1-1.5-11.9-4.1-17h9.3c2.5,0,4.9-1.2,6.4-3.2C100,27.5,100.4,24.9,99.6,22.5z M43.8,87.6L43.8,87.6l-0.2,0c0,0,0,0,0,0s0,0,0,0
	H16.8c-4.9,0-8.9-4-8.9-8.9c0-4.9,4-8.9,8.9-8.9c0.1,0,0.3,0,0.4,0c0.5,0,0.9,0.1,1.4,0.2c0,0,0,0,0.1,0c0.4,0.1,0.9,0.2,1.3,0.4
	c0-0.4,0-0.7,0.1-1.1c0-0.1,0-0.2,0.1-0.4c0-0.2,0.1-0.5,0.1-0.7c0-0.1,0.1-0.3,0.1-0.4c0.1-0.2,0.1-0.4,0.2-0.6
	c0-0.1,0.1-0.3,0.1-0.4c0.1-0.2,0.1-0.4,0.2-0.6c0.1-0.1,0.1-0.3,0.2-0.4c0.1-0.2,0.2-0.3,0.3-0.5c0.1-0.1,0.1-0.3,0.2-0.4
	c0.1-0.2,0.2-0.3,0.3-0.5c0.1-0.1,0.1-0.2,0.2-0.3c2.1-2.9,5.5-4.8,9.3-4.8c5.4,0,9.9,3.8,11.1,8.8c0.4,0,0.7-0.1,1.1-0.1
	c5.4,0,9.8,4.4,9.8,9.8c0,0.5-0.1,1-0.1,1.5c-0.4,2.5-1.7,4.7-3.6,6.1c0,0-0.1,0-0.1,0.1c-0.7,0.6-1.5,1-2.4,1.4
	C47.1,87,47,87,47,87c-0.4,0.2-0.9,0.3-1.4,0.4C45,87.5,44.4,87.6,43.8,87.6z M61.2,77.1c-0.3-7.9-5.9-14.5-13.4-16.4
	c-3.4-5.7-9.6-9.3-16.5-9.3c-4.3,0-8.3,1.4-11.5,3.8c-0.3-1.7-0.5-3.5-0.5-5.4C19.3,33.4,32.7,20,49.1,20s29.8,13.4,29.8,29.8
	C78.9,62,71.7,72.5,61.2,77.1z M77.4,24.9c-4.2-4.7-9.5-8.4-15.5-10.5c1.9-1.3,4.1-2,6.5-2c4.9,0,9.1,3,10.9,7.3
	c1.3-0.7,2.7-1,4.2-1c4,0,7.4,2.6,8.6,6.3H77.4z"/>
</svg>
