<?xml version="1.0" encoding="utf-8"?>
<!-- Generator: Adobe Illustrator 24.0.1, SVG Export Plug-In . SVG Version: 6.00 Build 0)  -->
<svg version="1.1" id="圖層_1" xmlns="http://www.w3.org/2000/svg" xmlns:xlink="http://www.w3.org/1999/xlink" x="0px" y="0px"
	 viewBox="0 0 100 100" style="enable-background:new 0 0 100 100;" xml:space="preserve">
<path d="M50,37.5c6.9,0,12.5,5.6,12.5,12.5S56.9,62.5,50,62.5S37.5,56.9,37.5,50S43.1,37.5,50,37.5z M87.5,37.5
	c6.9,0,12.5,5.6,12.5,12.5s-5.6,12.5-12.5,12.5C80.6,62.5,75,56.9,75,50S80.6,37.5,87.5,37.5z M12.5,37.5C19.4,37.5,25,43.1,25,50
	s-5.6,12.5-12.5,12.5S0,56.9,0,50S5.6,37.5,12.5,37.5z"/>
</svg>
