<?xml version="1.0" encoding="utf-8"?>
<!-- Generator: Adobe Illustrator 24.0.1, SVG Export Plug-In . SVG Version: 6.00 Build 0)  -->
<svg version="1.1" id="圖層_1" xmlns="http://www.w3.org/2000/svg" xmlns:xlink="http://www.w3.org/1999/xlink" x="0px" y="0px"
	 viewBox="0 0 100 100" style="enable-background:new 0 0 100 100;" xml:space="preserve">
<style type="text/css">
	.st0{fill-rule:evenodd;clip-rule:evenodd;}
</style>
<path class="st0" d="M66,37.3l5.3,6.3c2.4,2.9,2.4,7.2,0,10.1L66,60l-3.5,4.1c-1.5,1.8-3.7,2.8-6.1,2.8c-4.4,0-8.1-3.7-8.1-8.3v-4.8
	h-9.2v5.7c0,2.9-2.4,5.3-5.3,5.3c-2.9,0-5.3-2.4-5.3-5.3V48.7c0-2.9,2.4-5.3,5.3-5.3h14.3v-4.8c0-4.6,3.6-8.3,8.1-8.3
	c2.3,0,4.5,1,6.1,2.8L66,37.3z M95.3,38.7c6.2,6.2,6.2,16.4,0,22.6l-34,34c-3,3-7,4.7-11.3,4.7c-4.3,0-8.3-1.7-11.3-4.7l-34-34
	c-6.2-6.2-6.2-16.4,0-22.6l34-34c3-3,7-4.7,11.3-4.7c4.3,0,8.3,1.7,11.3,4.7L95.3,38.7z M87.9,53.9c2.1-2.1,2.1-5.6,0-7.7l-34-34
	c-1.1-1.1-2.5-1.6-3.9-1.6c-1.4,0-2.8,0.5-3.9,1.6l-34,34c-2.1,2.1-2.1,5.6,0,7.7l34,34c1.1,1.1,2.5,1.6,3.9,1.6
	c1.4,0,2.8-0.5,3.9-1.6L87.9,53.9z"/>
</svg>
