<svg enable-background="new 0 0 100 100" viewBox="0 0 100 100" xmlns="http://www.w3.org/2000/svg"><path clip-rule="evenodd" d="m18.1 62.4h7.4l10-20.1v-4.2h-18.4v5.6h11.1v.1zm22.3-7-3.4 3v4.1h18.5v-5.6h-8.7v-.1l2.5-1.9c3-2.3 5.8-5.6 5.8-9.4 0-4.8-3.5-7.8-9.2-7.8-3.1 0-6.1.9-8.6 2.6l1.9 4.8c1.5-1.2 3.4-1.9 5.4-2 2.5 0 3.7 1.3 3.7 3-.2 2.5-2.8 5-7.9 9.3zm16.3-5.1c0 6.4 2.7 12.5 9.8 12.5 6.7 0 9.8-5.4 9.8-12.6 0-6.2-2.5-12.5-9.8-12.5-7 0-9.8 6-9.8 12.6zm9.8-7.5c1.8 0 2.9 2.3 2.9 7.5s-1.1 7.5-2.8 7.5-3-2.2-3-7.5 1.1-7.5 2.9-7.5zm8.1-12.6c.1-2.9-2.2-5.2-5-5.3s-5.2 2.2-5.3 5c-.1 2.9 2.2 5.2 5 5.3h.1c2.8.1 5.2-2.1 5.2-5zm-7.4 0c0-1.2.9-2.3 2.2-2.3 1.2 0 2.3.9 2.3 2.2 0 1.2-.9 2.3-2.2 2.3h-.1c-1.2 0-2.1-1-2.2-2.2zm30.9.4-12.4-4.6c-.7-.3-1.5-.3-2.2 0-.5.2-.9.6-1.2 1.1-.3.3-.5.7-.6 1.1l-4.6 11.5c-.6 1.5.2 3.1 1.6 3.7h.1c.3.1.7.2 1.1.2 1.2 0 2.3-.7 2.8-1.8l2.1-5.4c3.2 8.4 3.4 17.7.5 26.2-3.5 10.1-10.8 18.3-20.4 22.9-9.7 4.7-20.8 5.5-31.1 2.1-10.2-3.2-18.6-10.3-23.5-19.8-4.9-9.4-5.7-20.4-2.3-30.3 3.5-10.1 10.8-18.3 20.4-22.9 9.7-4.7 20.8-5.5 31-2.1 6.6 2.1 12.5 5.8 17.2 10.8 1.1 1.2 3 1.3 4.2.2 1.2-1 1.3-2.7.4-3.9 0-.1-.1-.1-.2-.2-5.4-5.7-12.1-9.9-19.6-12.4-11.7-3.8-24.5-3-35.6 2.5-11 5.2-19.4 14.7-23.4 26.2-3.9 11.4-3 23.9 2.5 34.6 5.6 10.9 15.3 19.1 27 22.7 11.7 3.8 24.5 3 35.6-2.5 11-5.3 19.4-14.7 23.3-26.2 3.4-9.9 3.2-20.8-.7-30.5l5.9 2.2c1.5.6 3.2-.2 3.8-1.6s-.1-3-1.5-3.6c-.1-.1-.2-.1-.2-.2z" fill="#231815" fill-rule="evenodd"/></svg>