<?xml version="1.0" encoding="utf-8"?>
<!-- Generator: Adobe Illustrator 27.0.0, SVG Export Plug-In . SVG Version: 6.00 Build 0)  -->
<svg version="1.1" id="圖層_1" xmlns="http://www.w3.org/2000/svg" xmlns:xlink="http://www.w3.org/1999/xlink" x="0px" y="0px"
	 viewBox="0 0 100 100" style="enable-background:new 0 0 100 100;" xml:space="preserve">
<style type="text/css">
	.st0{fill-rule:evenodd;clip-rule:evenodd;}
</style>
<path class="st0" d="M76.1,0c4.9-0.1,9,3.8,9,8.5c0.1,5.3-3.7,9.2-9,9.3c-4.9,0.1-8.8-3.9-8.9-9C67.2,4.1,71.2,0.1,76.1,0z M22,29.8
	c3.2,0,6,2.5,6,5.7c0,3.6-2.5,6.2-6,6.2c-3.3,0-5.9-2.6-5.9-6C16,32.5,18.7,29.8,22,29.8z M66.6,20.2c3.9,0.2,7.8,0.5,11.7,1
	c2.8,0.4,4.7,2.8,4.6,5.6c0,2.1-0.3,4.2-0.5,6.3c0,0.5,0.1,1.1,0.3,1.5c1.3,2.5,3.2,4.5,5.4,6.2c3.2,2.5,6.4,5.2,9.5,7.9
	c1.3,1.1,1.9,2.5,1.4,4.2c-0.4,1.5-1.5,2.5-3,2.8c-1.4,0.3-2.5-0.2-3.6-1.1c-3.4-2.8-6.8-5.7-10.3-8.5c-0.2-0.2-0.5-0.4-0.9-0.7
	c-0.1,1.4-0.3,2.6-0.4,3.8c-0.1,1.6-0.3,3.3-0.4,4.9c0,0.7,0.1,1.6,0.4,2.2c1.5,3.5,3,7,4.7,10.4c1.6,3.2,2.2,6.6,2.9,9.9
	c1.3,5.6,2.6,11.3,3.8,16.9c0.6,2.6-0.5,4.9-2.7,5.8c-2.7,1.1-5.6-0.3-6.3-3.2c-0.7-2.8-1.3-5.6-2-8.4c-1.1-4.7-2.1-9.4-3.2-14
	c-0.1-0.5-0.3-1-0.5-1.5c-2.1-4.7-4.3-9.5-6.4-14.2c-0.9-1.9-0.9-1.9-3.2-1.8c0.2,1.6,0.5,3.3,0.7,4.9c0.6,3.9,1.3,7.7,1.8,11.6
	c0.1,1.1,0,2.3-0.4,3.3c-2.5,6.8-5,13.5-7.6,20.2c-0.8,2-2.1,3.3-4.4,3.5c-2,0.1-3.5-0.8-4.4-2.6c-0.7-1.4-0.6-2.8,0-4.2
	c2.2-5.9,4.4-11.8,6.7-17.6c0.5-1.3,0.6-2.4,0.4-3.8c-0.9-5.1-1.7-10.3-2.5-15.5c-0.1-0.6-0.1-1.3,0-1.9c0.4-5.4,0.7-10.7,1.2-16.1
	c0-0.4,0.4-0.8,0.7-1c2.6-1.9,5.2-3.8,7.9-5.7c0.3-0.2,0.6-0.4,0.8-0.6l-0.1-0.1c-3.2,1.3-6.5,2.5-9.7,3.8c-1.2,0.5-2.7,0.7-3.4,1.5
	c-0.7,0.8-0.7,2.3-0.9,3.5c-0.7,3.1-1.3,6.2-2,9.3c-0.4,2-1.8,3.3-3.7,3.3c-0.5,0-1,0-1.5-0.2c-0.3,0.4-0.7,0.7-1.2,0.8l-9.4,3.4
	c-0.2,0.1-0.4,0.1-0.5,0.1c-0.5,0.1-1,0.1-1.5-0.1l-9-2.8c-0.1,0.6-0.1,1.3-0.2,2L26,58.5c-0.3,3.1-0.5,5.9-0.5,6.2
	c-0.1,1.1-0.2,2.3-0.3,3.4c0,0.5,0.1,1.1,0.3,1.6c1.1,2.4,2.1,4.9,3.3,7.3c0.7,1.3,1.1,2.7,1.4,4.1l0.6,2.8
	c0.9,3.9,1.8,7.8,2.7,11.7c0.4,1.8-0.3,3.4-1.9,4c-1.9,0.8-3.9-0.2-4.4-2.2c-0.5-1.9-0.9-3.9-1.4-5.9c-0.7-3.3-1.5-6.5-2.2-9.8
	c-0.1-0.3-0.2-0.7-0.4-1c-1.5-3.3-3-6.6-4.5-9.9c-0.6-1.4-0.6-1.4-2.2-1.3c0.2,1.1,0.3,2.3,0.5,3.4c0.4,2.7,0.9,5.4,1.3,8.1
	c0.1,0.8,0,1.6-0.2,2.3c-1.7,4.7-3.5,9.4-5.3,14.1c-0.5,1.4-1.5,2.3-3,2.4c-1.4,0.1-2.4-0.6-3.1-1.8c-0.5-1-0.4-1.9,0-2.9
	C8.2,91.1,9.7,87,11.3,83c0.3-0.9,0.4-1.7,0.3-2.6c-0.6-3.6-1.2-7.2-1.7-10.8c-0.1-0.4-0.1-0.9,0-1.4c0.3-3.7,0.5-7.5,0.8-11.2
	c0-0.3,0.3-0.6,0.5-0.7c1.8-1.3,3.6-2.7,5.5-4c0.2-0.1,0.4-0.3,0.6-0.4c0,0,0-0.1-0.1-0.1c-2.2,0.9-4.5,1.7-6.7,2.6
	c-0.8,0.3-1.8,0.5-2.4,1.1C7.5,56,7.6,57,7.4,57.9C6.9,60,6.5,62.2,6,64.3c-0.3,1.4-1.3,2.3-2.5,2.3C2.2,66.7,1,66,0.7,64.8
	c-0.1-0.5-0.2-1.1-0.1-1.7c0.7-3.4,1.5-6.8,2.2-10.2c0.2-1.2,0.9-1.9,2-2.3c3.1-1.2,6.2-2.4,9.3-3.6c0.2-0.1,0.5-0.2,0.7-0.4
	c-1,0.1-2.1,0.3-3.1,0.4c0.4-1.5,2-2.6,3.6-2.5c2.7,0.1,5.4,0.4,8.2,0.7c1.3,0.2,2.3,1,2.8,2.1c0.2,0,0.5,0.1,0.7,0.1l9.2,2.9
	l8.6-3.1c0.2-0.1,0.4-0.1,0.7-0.2c0,0,0,0,0,0c1-4.9,2.1-9.8,3.2-14.6c0.4-1.7,1.3-2.8,2.9-3.4c4.4-1.7,8.9-3.5,13.3-5.2
	c0.4-0.1,0.7-0.3,1-0.5c-1.5,0.2-3,0.4-4.5,0.6C62.1,21.8,64.3,20.1,66.6,20.2z"/>
</svg>
