<?xml version="1.0" encoding="utf-8"?>
<!-- Generator: Adobe Illustrator 24.0.1, SVG Export Plug-In . SVG Version: 6.00 Build 0)  -->
<svg version="1.1" id="圖層_1" xmlns="http://www.w3.org/2000/svg" xmlns:xlink="http://www.w3.org/1999/xlink" x="0px" y="0px"
	 viewBox="0 0 100 100" style="enable-background:new 0 0 100 100;" xml:space="preserve">
<g>
	<path d="M20,47.9c-0.1,0-0.3,0-0.4,0h-4.9l2.5-4.3c0.6-1,0.2-2.4-0.8-3c-1-0.6-2.3-0.2-2.9,0.7c0,0,0,0,0,0.1l-2.5,4.3l-2.5-4.3
		c-0.6-1-1.9-1.4-3-0.8c-1,0.6-1.4,1.9-0.8,2.9l2.5,4.3H2.2C1,47.8,0,48.8,0,50c0,0.1,0,0.1,0,0.2c0.1,1.1,1,2,2.2,2h4.9l-2.5,4.3
		c0,0.1-0.1,0.2-0.1,0.2c0,0,0,0,0,0.1c0,0.1,0,0.1-0.1,0.2c0,0,0,0,0,0.1c0,0.1,0,0.2,0,0.2c0,0,0,0,0,0c0,0.1,0,0.2,0,0.3
		c0,0,0,0,0,0c0,0,0,0,0,0.1c0,0,0,0.1,0,0.1c0,0,0,0.1,0,0.1c0,0,0,0.1,0,0.1c0,0,0,0.1,0,0.1c0,0,0,0.1,0,0.1c0,0,0,0.1,0,0.1
		c0,0,0,0.1,0,0.1c0,0,0,0.1,0,0.1c0,0,0,0.1,0,0.1c0,0,0,0.1,0.1,0.1c0,0,0,0.1,0.1,0.1c0,0,0,0.1,0.1,0.1c0,0,0,0.1,0.1,0.1
		c0,0,0,0,0.1,0.1C4.9,59,4.9,59,5,59c0,0,0,0,0.1,0.1c0,0,0.1,0.1,0.1,0.1c0,0,0.1,0,0.1,0.1c0,0,0.1,0,0.1,0.1c0,0,0.1,0,0.1,0.1
		c0,0,0,0,0,0c0,0,0,0,0,0c0.1,0,0.2,0.1,0.2,0.1c0,0,0,0,0,0c0.1,0,0.1,0,0.2,0.1c0,0,0.1,0,0.1,0c0.1,0,0.1,0,0.2,0
		c0,0,0.1,0,0.1,0c0.1,0,0.2,0,0.3,0c0.8,0,1.5-0.4,1.9-1.1l2.5-4.3l2.5,4.3c0,0.1,0.1,0.2,0.2,0.2c0,0,0.1,0.1,0.1,0.1
		c0,0,0.1,0.1,0.1,0.1c0,0,0.1,0.1,0.1,0.1c0,0,0.1,0.1,0.1,0.1c0,0,0.1,0.1,0.1,0.1c0,0,0.1,0.1,0.1,0.1c0,0,0.1,0,0.1,0.1
		c0,0,0.1,0,0.1,0.1c0,0,0.1,0,0.1,0c0,0,0.1,0,0.1,0c0,0,0.1,0,0.1,0c0,0,0.1,0,0.1,0c0,0,0.1,0,0.1,0c0,0,0.1,0,0.1,0c0,0,0,0,0,0
		c0,0,0,0,0,0c0.4,0,0.8-0.1,1.1-0.3c1-0.6,1.4-1.9,0.8-3l-2.5-4.3h4.9c0.1,0,0.1,0,0.2,0c1.1-0.1,2-1,2-2.2c0,0,0,0,0,0s0,0,0,0
		C21.7,48.9,21,48.1,20,47.9z"/>
	<polygon points="15.2,59.7 15.2,59.7 15.2,59.7 	"/>
	<path d="M45.7,47.8h-4.9l2.5-4.3c0.6-1,0.2-2.4-0.8-3c-1-0.6-2.3-0.2-2.9,0.7c0,0,0,0,0,0.1L37,45.6l-2.5-4.3c-0.6-1-1.9-1.4-3-0.8
		c-1,0.6-1.4,1.9-0.8,2.9l2.5,4.3h-4.9h0c-1.2,0-2.2,1-2.2,2.2c0,1.2,1,2.2,2.2,2.2h0h4.9l-2.5,4.3c0,0,0,0,0,0
		c0,0.1-0.1,0.2-0.1,0.2c0,0,0,0,0,0.1c0,0.1,0,0.1-0.1,0.2c0,0,0,0,0,0.1c0,0.1,0,0.2,0,0.2c0,0,0,0,0,0c0,0.1,0,0.2,0,0.3
		c0,0,0,0,0,0c0,0,0,0,0,0.1c0,0,0,0.1,0,0.1c0,0,0,0.1,0,0.1c0,0,0,0.1,0,0.1c0,0,0,0.1,0,0.1c0,0,0,0,0,0.1c0,0,0,0.1,0,0.1
		c0,0,0,0,0,0.1c0,0,0,0.1,0.1,0.1c0,0,0,0,0,0.1c0,0,0,0.1,0.1,0.1c0,0,0,0.1,0,0.1c0,0,0,0.1,0.1,0.1c0,0,0,0.1,0.1,0.1
		c0,0,0,0.1,0.1,0.1c0,0,0,0.1,0.1,0.1c0,0,0,0,0.1,0.1c0,0,0.1,0,0.1,0.1c0,0,0.1,0.1,0.1,0.1c0,0,0,0,0.1,0.1c0,0,0.1,0.1,0.1,0.1
		c0,0,0,0,0,0c0,0,0,0,0,0c0.1,0,0.2,0.1,0.2,0.1c0,0,0,0,0,0c0.1,0,0.1,0,0.2,0.1c0,0,0.1,0,0.1,0c0.1,0,0.1,0,0.2,0
		c0,0,0.1,0,0.1,0c0.1,0,0.2,0,0.3,0c0,0,0,0,0,0c0.8,0,1.5-0.4,1.8-1.1l2.5-4.3l1.5,2.6l1,1.7c0.3,0.6,0.9,1,1.6,1.1c0,0,0,0,0,0
		c0.1,0,0.2,0,0.3,0c0,0,0,0,0,0c0,0,0,0,0,0c0.4,0,0.8-0.1,1.1-0.3c1-0.6,1.4-1.9,0.8-3l-2.5-4.3h4.9c0.1,0,0.1,0,0.2,0
		c1.1-0.1,2-1,2-2.2C47.8,48.8,46.9,47.8,45.7,47.8z"/>
	<polygon points="41.3,59.7 41.3,59.7 41.3,59.7 	"/>
	<path d="M71.7,47.8h-4.9l2.5-4.3c0.6-1,0.2-2.4-0.8-3c-1-0.6-2.3-0.2-2.9,0.7c0,0,0,0,0,0.1L63,45.6l-2.5-4.3c-0.6-1-1.9-1.4-3-0.8
		c-1,0.6-1.4,1.9-0.8,2.9l2.5,4.3h-4.9h0c-1.2,0-2.2,1-2.2,2.2c0,1.2,1,2.2,2.2,2.2h0h4.9l-2.5,4.3c0,0,0,0,0,0
		c0,0.1-0.1,0.2-0.1,0.2c0,0,0,0,0,0.1c0,0.1,0,0.1-0.1,0.2c0,0,0,0,0,0.1c0,0.1,0,0.2,0,0.2c0,0,0,0,0,0c0,0.1,0,0.2,0,0.3
		c0,0,0,0,0,0c0,0,0,0,0,0.1c0,0,0,0.1,0,0.1c0,0,0,0.1,0,0.1c0,0,0,0.1,0,0.1c0,0,0,0.1,0,0.1c0,0,0,0,0,0.1c0,0,0,0.1,0,0.1
		c0,0,0,0,0,0.1c0,0,0,0.1,0.1,0.1c0,0,0,0,0,0.1c0,0,0,0.1,0.1,0.1c0,0,0,0.1,0,0.1c0,0,0,0.1,0.1,0.1c0,0,0,0.1,0.1,0.1
		c0,0,0,0.1,0.1,0.1c0,0,0,0.1,0.1,0.1c0,0,0,0,0.1,0.1c0,0,0.1,0,0.1,0.1c0,0,0.1,0.1,0.1,0.1c0,0,0,0,0.1,0.1c0,0,0.1,0.1,0.1,0.1
		c0,0,0,0,0,0c0,0,0,0,0,0c0.1,0,0.2,0.1,0.2,0.1c0,0,0,0,0,0c0.1,0,0.1,0,0.2,0.1c0,0,0.1,0,0.1,0c0.1,0,0.1,0,0.2,0
		c0,0,0.1,0,0.1,0c0.1,0,0.2,0,0.3,0c0,0,0,0,0,0c0.8,0,1.5-0.4,1.8-1.1l2.5-4.3l1.5,2.6l1,1.7c0.3,0.6,0.9,1,1.6,1.1c0,0,0,0,0,0
		c0.1,0,0.2,0,0.3,0c0,0,0,0,0,0c0,0,0,0,0,0c0.4,0,0.8-0.1,1.1-0.3c1-0.6,1.4-1.9,0.8-3l-2.5-4.3h4.9c0.1,0,0.1,0,0.2,0
		c1.1-0.1,2-1,2-2.2C73.9,48.8,72.9,47.8,71.7,47.8z"/>
	<polygon points="67.4,59.7 67.4,59.7 67.4,59.7 	"/>
	<path d="M100,50c0-1.2-1-2.2-2.2-2.2h-4.9l2.5-4.3c0.6-1,0.2-2.4-0.8-3c-1-0.6-2.3-0.2-2.9,0.7c0,0,0,0,0,0.1l-2.5,4.3l-2.5-4.3
		c-0.6-1-1.9-1.4-3-0.8c-1,0.6-1.4,1.9-0.8,2.9l2.5,4.3h-4.9c-0.9,0-1.7,0.5-2,1.3c-0.1,0.3-0.2,0.5-0.2,0.8c0,1.2,1,2.2,2.2,2.2
		h4.9L83.1,56l-0.2,0.4c0,0.1-0.1,0.2-0.1,0.2c0,0,0,0,0,0.1c0,0.1,0,0.1-0.1,0.2c0,0,0,0,0,0.1c0,0.1,0,0.2-0.1,0.3c0,0,0,0,0,0
		c0,0.1,0,0.2,0,0.3c0,0,0,0,0,0c0,0,0,0,0,0.1c0,0,0,0.1,0,0.1c0,0,0,0.1,0,0.1c0,0,0,0.1,0,0.1c0,0,0,0.1,0,0.1c0,0,0,0.1,0,0.1
		c0,0,0,0.1,0,0.1c0,0,0,0.1,0,0.1c0,0,0,0.1,0,0.1c0,0,0,0.1,0,0.1c0,0,0,0.1,0,0.1c0,0,0,0.1,0.1,0.1c0,0,0,0,0,0.1
		c0,0,0.1,0.1,0.1,0.1c0,0,0,0,0,0.1c0,0,0.1,0.1,0.1,0.1c0,0,0,0,0.1,0.1c0,0,0.1,0.1,0.1,0.1c0,0,0,0,0.1,0.1c0,0,0.1,0,0.1,0.1
		c0,0,0.1,0,0.1,0.1c0,0,0,0,0.1,0c0,0,0,0,0,0c0.1,0,0.1,0.1,0.2,0.1c0,0,0,0,0.1,0c0.1,0,0.1,0,0.2,0.1c0,0,0.1,0,0.1,0
		c0,0,0.1,0,0.2,0c0,0,0.1,0,0.1,0c0.1,0,0.2,0,0.2,0c0,0,0,0,0,0c0.8,0,1.5-0.4,1.9-1.1l2.5-4.3l2.5,4.3c0.3,0.6,0.9,1,1.6,1.1
		c0,0,0,0,0,0c0.1,0,0.2,0,0.2,0c0,0,0,0,0,0c0,0,0,0,0,0c0,0,0,0,0,0c0.4,0,0.8-0.1,1.1-0.3c1-0.6,1.4-1.9,0.8-3l-2.5-4.3h4.9
		C99,52.2,100,51.2,100,50C100,50,100,50,100,50C100,50,100,50,100,50z"/>
	<polygon points="93.5,59.7 93.5,59.7 93.5,59.7 	"/>
</g>
</svg>
