<?xml version="1.0" encoding="utf-8"?>
<!-- Generator: Adobe Illustrator 27.0.0, SVG Export Plug-In . SVG Version: 6.00 Build 0)  -->
<svg version="1.1" id="圖層_1" xmlns="http://www.w3.org/2000/svg" xmlns:xlink="http://www.w3.org/1999/xlink" x="0px" y="0px"
	 viewBox="0 0 100 100" style="enable-background:new 0 0 100 100;" xml:space="preserve">
<style type="text/css">
	.st0{fill-rule:evenodd;clip-rule:evenodd;fill:#6A9C78;}
</style>
<path class="st0" d="M75,59.5L50.8,80.8h40v-8.4c0,0-0.1-0.1-0.1-0.1c-0.1-0.1-0.2-0.1-0.2-0.2L75,59.5z M9.3,61.5
	C9.3,61.5,9.2,61.5,9.3,61.5L9.2,80.8h27.7l16.6-14.6L29.3,44.5l-20,16.9C9.4,61.5,9.3,61.5,9.3,61.5z M90.8,60.5V19.2H9.2v30.3
	l17.2-14.6c1.8-1.5,4.3-1.5,6.1,0.1l28,25.1l11.4-10c1.7-1.5,4.2-1.5,6-0.1L90.8,60.5z M4.6,10h90.8c2.5,0,4.6,2.1,4.6,4.6v70.7
	c0,2.5-2.1,4.6-4.6,4.6H4.6C2.1,90,0,87.9,0,85.4V14.6C0,12.1,2.1,10,4.6,10z M69.8,36.3c0,4-3.3,7.3-7.3,7.3s-7.3-3.3-7.3-7.3
	c0-4,3.3-7.3,7.3-7.3S69.8,32.3,69.8,36.3z"/>
</svg>
