<?xml version="1.0" encoding="utf-8"?>
<!-- Generator: Adobe Illustrator 21.0.0, SVG Export Plug-In . SVG Version: 6.00 Build 0)  -->
<svg version="1.1" id="圖層_1" xmlns="http://www.w3.org/2000/svg" xmlns:xlink="http://www.w3.org/1999/xlink" x="0px" y="0px"
	 viewBox="0 0 100 100" style="enable-background:new 0 0 100 100;" xml:space="preserve">
<style type="text/css">
	.st0{fill:#444444;}
</style>
<g>
	<path class="st0" d="M82,20C77,8.1,64.5,0,50.1,0C26.3,0,17,20,15.7,30.6l18.8,2.5c0-2.5,2.5-14.4,15.6-14.4
		c8.1,0,12.5,4.4,14.4,8.8c0.6,1.3,1.9,5.6-1.3,8.8c-1.3,1.3-3.1,2.5-5.6,3.8c-6.9,3.8-16.9,10-16.9,28.8h18.8
		c0-6.3,1.9-9.4,7.5-12.5c3.1-1.9,6.9-3.8,10-6.9C84.5,41.9,86.3,30.6,82,20z"/>
	<circle class="st0" cx="50.1" cy="87.5" r="12.5"/>
</g>
</svg>
