<?xml version="1.0" encoding="utf-8"?>
<!-- Generator: Adobe Illustrator 21.0.0, SVG Export Plug-In . SVG Version: 6.00 Build 0)  -->
<svg version="1.1" id="圖層_1" xmlns="http://www.w3.org/2000/svg" xmlns:xlink="http://www.w3.org/1999/xlink" x="0px" y="0px"
	 viewBox="0 0 100 100" style="enable-background:new 0 0 100 100;" xml:space="preserve">
<path d="M50,10c-22.1,0-40,17.9-40,40s17.9,40,40,40s40-17.9,40-40S72.1,10,50,10z M54,75.5h-8v-8h8V75.5z M62.3,47l-3.6,3.7
	C55.8,53.6,54,56,54,62h-8v-2c0-4.4,1.8-8.4,4.7-11.3l5-5c1.5-1.4,2.4-3.4,2.4-5.6c0-4.4-3.6-8-8-8c-4.4,0-8,3.6-8,8h-8
	c0-8.8,7.2-16,16-16c8.8,0,16,7.2,16,16C66,41.5,64.6,44.7,62.3,47z"/>
</svg>
