<?xml version="1.0" encoding="utf-8"?>
<!-- Generator: Adobe Illustrator 24.0.2, SVG Export Plug-In . SVG Version: 6.00 Build 0)  -->
<svg version="1.1" id="圖層_1" xmlns="http://www.w3.org/2000/svg" xmlns:xlink="http://www.w3.org/1999/xlink" x="0px" y="0px"
	 viewBox="0 0 100 100" style="enable-background:new 0 0 100 100;" xml:space="preserve">
<style type="text/css">
	.st0{stroke:#FFFFFF;stroke-miterlimit:10;}
</style>
<title>fast-09</title>
<path class="st0" d="M50,10.4c9.5,0,18.2,3.7,25.2,9.9c7,6.2,12.2,15,14.3,25.2c0.4,1.7-0.7,3.4-2.3,3.8c-0.2,0-0.3,0.1-0.5,0.1
	c-2.9,0.2-5.6,0.8-8.2,1.8c-2.7,1.1-5.2,2.6-7.5,4.5c-1.1,0.9-2.7,0.8-3.8,0c-2.5-2-5.2-3.7-8.2-4.7c-1.9-0.7-4-1.2-6-1.4v31.5
	c0,4.8-3.8,8.7-8.4,8.7c-4.7,0-8.5-4-8.5-8.7c0-1.7,1.4-3.1,3-3.1c1.7,0,3.1,1.4,3.1,3.1c0,1.3,1.1,2.4,2.4,2.4
	c1.3,0,2.3-1.1,2.3-2.4V49.4c-2.1,0.3-4.1,0.8-6,1.4c-3,1.1-5.7,2.7-8.2,4.7c-1.2,1-2.8,0.8-3.9-0.1c-2.3-1.8-4.7-3.3-7.4-4.3
	c-2.6-1-5.3-1.7-8.2-1.8c-1.7-0.1-2.9-1.6-2.9-3.3c0-0.3,0-0.5,0.1-0.7c2.2-10.1,7.3-18.8,14.3-25C31.8,14.1,40.5,10.4,50,10.4
	 M56.8,17.4L56.8,17.4c3.6,4,6.4,8.5,8.6,13.2c2.5,5.5,4.1,11.5,5,17.7c1.9-1.2,3.8-2.3,5.9-3c2.1-0.8,4.2-1.5,6.4-1.8
	c-2.2-7.3-6.2-13.7-11.5-18.4C67.1,21.3,62.1,18.7,56.8,17.4 M66.5,47.5L66.5,47.5c-0.9-5.4-2.3-10.5-4.5-15.3
	c-2.6-5.7-6.2-10.9-11.2-15.5l-0.8,0l-0.8,0c-5,4.6-8.7,9.8-11.3,15.5c-2.1,4.8-3.6,9.9-4.5,15.3c1.8-1,3.6-1.9,5.5-2.6
	c7.1-2.6,15-2.6,22.2,0C63,45.6,64.8,46.4,66.5,47.5 M29.6,48.3L29.6,48.3c1-6.2,2.6-12.1,5.1-17.7c2.1-4.7,4.9-9.1,8.5-13.2
	c-5.3,1.2-10.3,3.9-14.5,7.5c-5.2,4.7-9.3,11-11.5,18.4c2.2,0.4,4.3,1,6.4,1.9C25.8,46,27.7,47.1,29.6,48.3"/>
</svg>
