<?xml version="1.0" encoding="utf-8"?>
<!-- Generator: Adobe Illustrator 24.0.1, SVG Export Plug-In . SVG Version: 6.00 Build 0)  -->
<svg version="1.1" id="圖層_1" xmlns="http://www.w3.org/2000/svg" xmlns:xlink="http://www.w3.org/1999/xlink" x="0px" y="0px"
	 viewBox="0 0 100 100" style="enable-background:new 0 0 100 100;" xml:space="preserve">
<style type="text/css">
	.st0{fill-rule:evenodd;clip-rule:evenodd;fill:#231815;}
</style>
<path class="st0" d="M58.6,88.1V100H42.3V87.9c-10.5-2.2-19.4-9.1-20.1-21.2h12c0.6,6.6,5,11.7,16.2,11.7c12,0,14.7-6.1,14.7-9.9
	c0-5.2-2.7-10.1-16.4-13.4c-15.2-3.8-25.6-10.1-25.6-22.9c0-10.8,8.5-17.7,19.1-20.1V0h16.4v12.2C70.1,15,75.8,23.8,76.1,33.4h-12
	c-0.3-6.9-3.9-11.7-13.6-11.7c-9.2,0-14.7,4.2-14.7,10.2c0,5.3,4,8.7,16.4,11.9c12.4,3.2,25.6,8.7,25.6,24.4
	C77.7,79.8,69.3,86,58.6,88.1"/>
</svg>
