<svg id="圖層_1" data-name="圖層 1" xmlns="http://www.w3.org/2000/svg" viewBox="0 0 100 100"><defs><style>.cls-1{fill:#231815;}</style></defs><circle class="cls-1" cx="33.9" cy="32" r="8.7" transform="translate(-4.7 5.8) rotate(-9.2)"/><path class="cls-1" d="M33.9,20.5A1.5,1.5,0,0,0,35.4,19V15.6a1.5,1.5,0,0,0-1.5-1.5,1.5,1.5,0,0,0-1.5,1.5V19A1.5,1.5,0,0,0,33.9,20.5Z"/><path class="cls-1" d="M32.4,45.1v3.3a1.5,1.5,0,0,0,1.5,1.5,1.4,1.4,0,0,0,1.5-1.5V45.1a1.5,1.5,0,0,0-1.5-1.5A1.5,1.5,0,0,0,32.4,45.1Z"/><path class="cls-1" d="M45.5,32A1.5,1.5,0,0,0,47,33.5h3.3A1.4,1.4,0,0,0,51.8,32a1.5,1.5,0,0,0-1.5-1.5H47A1.5,1.5,0,0,0,45.5,32Z"/><path class="cls-1" d="M17.5,33.5h3.4A1.5,1.5,0,0,0,22.4,32a1.5,1.5,0,0,0-1.5-1.5H17.5A1.5,1.5,0,0,0,16,32,1.5,1.5,0,0,0,17.5,33.5Z"/><path class="cls-1" d="M43.2,24.3a1.2,1.2,0,0,0,1-.5l2.4-2.3a1.5,1.5,0,0,0-2.1-2.1l-2.4,2.3a1.4,1.4,0,0,0,0,2.1A1.6,1.6,0,0,0,43.2,24.3Z"/><path class="cls-1" d="M23.6,40.2l-2.3,2.4a1.5,1.5,0,0,0,0,2.1,1.4,1.4,0,0,0,1,.4,1.5,1.5,0,0,0,1.1-.4l2.3-2.4a1.5,1.5,0,0,0-2.1-2.1Z"/><path class="cls-1" d="M44.2,40.2a1.5,1.5,0,0,0-2.1,2.1l2.4,2.4a1.4,1.4,0,0,0,1,.4,1.5,1.5,0,0,0,1.1-.4,1.5,1.5,0,0,0,0-2.1Z"/><path class="cls-1" d="M23.6,23.8a1.6,1.6,0,0,0,1.1.5,1.2,1.2,0,0,0,1-.5,1.4,1.4,0,0,0,0-2.1l-2.3-2.3a1.5,1.5,0,0,0-2.1,2.1Z"/><path class="cls-1" d="M12.7,60.9a4.3,4.3,0,0,1,3.5,1.6,7.6,7.6,0,0,0,11.1,0,4.8,4.8,0,0,1,7.2,0,7.5,7.5,0,0,0,11,0,4.8,4.8,0,0,1,7.2,0,7.6,7.6,0,0,0,11.1,0,4.3,4.3,0,0,1,3.5-1.6,4.5,4.5,0,0,1,3.6,1.6,7.6,7.6,0,0,0,11.1,0,4.7,4.7,0,0,1,3.6-1.6,1.5,1.5,0,0,0,1.5-1.5,1.5,1.5,0,0,0-1.5-1.5A7.9,7.9,0,0,0,80,60.2c-1.1,1-1.8,1.7-3.5,1.7s-2.5-.7-3.6-1.7a7.8,7.8,0,0,0-11.1,0,4.8,4.8,0,0,1-3.6,1.7,4.4,4.4,0,0,1-3.5-1.7,7.8,7.8,0,0,0-11.1,0,4.7,4.7,0,0,1-7.2,0,7.8,7.8,0,0,0-11.1,0,4.4,4.4,0,0,1-3.5,1.7,4.8,4.8,0,0,1-3.6-1.7,7.8,7.8,0,0,0-5.5-2.3,1.4,1.4,0,0,0-1.5,1.5A1.5,1.5,0,0,0,12.7,60.9Z"/><path class="cls-1" d="M85.6,67.5A7.5,7.5,0,0,0,80,69.9c-1.1.9-1.8,1.6-3.5,1.6s-2.5-.7-3.6-1.6a7.6,7.6,0,0,0-11.1,0,5,5,0,0,1-3.6,1.6,4.6,4.6,0,0,1-3.5-1.6,7.6,7.6,0,0,0-11.1,0,4.8,4.8,0,0,1-7.2,0,7.6,7.6,0,0,0-11.1,0,4.6,4.6,0,0,1-3.5,1.6,5,5,0,0,1-3.6-1.6,7.5,7.5,0,0,0-5.5-2.4,1.5,1.5,0,0,0,0,3,4.6,4.6,0,0,1,3.5,1.6,7.6,7.6,0,0,0,11.1,0,4.9,4.9,0,0,1,7.2,0,7.5,7.5,0,0,0,11,0,4.9,4.9,0,0,1,7.2,0,7.6,7.6,0,0,0,11.1,0,4.6,4.6,0,0,1,3.5-1.6c1.8,0,2.5.7,3.6,1.6a7.6,7.6,0,0,0,11.1,0,5,5,0,0,1,3.6-1.6,1.5,1.5,0,0,0,0-3Z"/><path class="cls-1" d="M85.6,77.2A7.9,7.9,0,0,0,80,79.5c-1.1,1-1.8,1.7-3.5,1.7s-2.5-.7-3.6-1.7a7.8,7.8,0,0,0-11.1,0,4.8,4.8,0,0,1-3.6,1.7,4.4,4.4,0,0,1-3.5-1.7,7.8,7.8,0,0,0-11.1,0,4.7,4.7,0,0,1-7.2,0,7.8,7.8,0,0,0-11.1,0,4.4,4.4,0,0,1-3.5,1.7,4.8,4.8,0,0,1-3.6-1.7,7.8,7.8,0,0,0-5.5-2.3,1.4,1.4,0,0,0-1.5,1.5,1.5,1.5,0,0,0,1.5,1.5,4.3,4.3,0,0,1,3.5,1.6,7.9,7.9,0,0,0,5.6,2.4,7.9,7.9,0,0,0,5.5-2.4,4.9,4.9,0,0,1,7.2,0,7.5,7.5,0,0,0,11,0,4.9,4.9,0,0,1,7.2,0,7.6,7.6,0,0,0,11.1,0,4.3,4.3,0,0,1,3.5-1.6,4.5,4.5,0,0,1,3.6,1.6,7.6,7.6,0,0,0,11.1,0,4.7,4.7,0,0,1,3.6-1.6,1.5,1.5,0,0,0,1.5-1.5A1.5,1.5,0,0,0,85.6,77.2Z"/><path class="cls-1" d="M50.7,48.9a1.4,1.4,0,0,0,1.9.9c.1,0,8-2.6,10.6,2.3a1.3,1.3,0,0,0,1.3.7h.7a1.6,1.6,0,0,0,.6-2.1c-2.6-4.8,3.9-9.9,4-10A1.5,1.5,0,1,0,68,38.3c-.3.2-5.1,3.9-5.8,8.9C57.8,45,52,46.9,51.6,47A1.5,1.5,0,0,0,50.7,48.9Z"/><path class="cls-1" d="M72.9,45.3c0-.1,3.6-1.2,4.7.8a1.3,1.3,0,0,0,1.3.8l.7-.2a1.5,1.5,0,0,0,.6-2c-1.1-2,1.8-4.3,1.9-4.4a1.5,1.5,0,1,0-1.8-2.4,8.7,8.7,0,0,0-3.1,4.3,9.4,9.4,0,0,0-5.3.2,1.4,1.4,0,0,0-.9,1.9A1.6,1.6,0,0,0,72.9,45.3Z"/></svg>