<svg id="圖層_1" data-name="圖層 1" xmlns="http://www.w3.org/2000/svg" viewBox="0 0 100 100"><path d="M62.8,29.4H76.5a4,4,0,0,0,4-4,4.4,4.4,0,0,0-1.1-2.9,4.8,4.8,0,0,0-4.8-4.6,5.7,5.7,0,0,0-5-2.9,5.8,5.8,0,0,0-5.3,3.5h-.4a4.2,4.2,0,0,0-4.1,4.1h0a4.4,4.4,0,0,0-1.1,2.9A4,4,0,0,0,62.8,29.4Zm-.6-5a1.5,1.5,0,0,0,.7-1.6.4.4,0,0,1-.1-.3,1.1,1.1,0,0,1,1.1-1.1l.6.2a1.4,1.4,0,0,0,1.5.1,1.3,1.3,0,0,0,.8-1.2A2.9,2.9,0,0,1,69.6,18a2.9,2.9,0,0,1,2.7,1.9,1.4,1.4,0,0,0,1.7,1h.5a1.9,1.9,0,0,1,1.9,1.9V23a1.6,1.6,0,0,0,.7,1.5,1,1,0,0,1,.4.9,1,1,0,0,1-1,1H62.8a1.1,1.1,0,0,1-1.1-1A1.2,1.2,0,0,1,62.2,24.4Z"/><path d="M20.8,35.6H34.9A4.1,4.1,0,0,0,39,31.5a4.2,4.2,0,0,0-1.6-3.3v-.3a6.9,6.9,0,0,0-6.9-7A6.9,6.9,0,0,0,24.7,24l-1.4-.2a5.6,5.6,0,0,0-5.5,4.7,4.7,4.7,0,0,0-1.2,3A4.1,4.1,0,0,0,20.8,35.6Zm-.7-5.1a1.4,1.4,0,0,0,.7-1.2,2.5,2.5,0,0,1,2.5-2.5,2.2,2.2,0,0,1,1.3.4,1.3,1.3,0,0,0,1.2.1,1.3,1.3,0,0,0,1-.9,3.9,3.9,0,0,1,3.7-2.5,4,4,0,0,1,3.9,4,2.2,2.2,0,0,1-.1.8,1.6,1.6,0,0,0,1,1.7,1.2,1.2,0,0,1,.7,1.1,1.1,1.1,0,0,1-1.1,1.1H20.8a1.1,1.1,0,0,1-1.2-1.1A1.4,1.4,0,0,1,20.1,30.5Z"/><path d="M80.6,51.7,68.9,34.9a2.6,2.6,0,0,0-2-1,2.4,2.4,0,0,0-1.9,1l-3.3,4.7L52.5,26.3a2.5,2.5,0,0,0-2-1h0a2.4,2.4,0,0,0-1.9,1L34,47.2l-3.6-4.9a2.6,2.6,0,0,0-1.9-1,2.3,2.3,0,0,0-1.9,1l-6.9,9.4a6.5,6.5,0,0,0-2.1.6h-.1a6.9,6.9,0,0,0-4,6.3V85h73V58.4A6.8,6.8,0,0,0,80.6,51.7ZM49.4,58c-2.2-1.6-3.1-2.8-3.1-3.7s.9-2.5,4.8-5.1a25.2,25.2,0,0,1,4.7-2.6c-1.2,1.6-1.6,3-1.3,4.3.5,2.8,3.6,4.3,6.6,5.4s8.4,3.6,13.3,10.5c-8.4,1.9-15.5,5.4-18.5,7.5a56.4,56.4,0,0,0-11.5-5.8c4.2-1,6.7-2.6,7.4-4.9S51.5,59.6,49.4,58Zm34.1.4v7.1a56.1,56.1,0,0,0-5.9.6,35.3,35.3,0,0,0-7.9-8.6,9.2,9.2,0,0,1,3.9-.3,1.4,1.4,0,0,0,1.3-.4,8.1,8.1,0,0,1,4.9-2.1A3.7,3.7,0,0,1,83.5,58.4Zm-16.6-21L77.2,52.1a10.6,10.6,0,0,0-3.9,2.1c-1.3-.1-4.3-.2-6.4,1.5a26.2,26.2,0,0,0-4.8-2.2c-2.9-1.1-4.5-2.2-4.7-3.1s.5-2.4,4.3-5.7h0ZM18.7,55.1a3.5,3.5,0,0,1,3.9,2.7A1.8,1.8,0,0,0,23.8,59a1.4,1.4,0,0,0,1.5-.6s2.1-2.7,4.6-2.1,3.2,4.1,3.2,4.1a1.5,1.5,0,0,0,2.7.6,3,3,0,0,1,2.6-1A3.3,3.3,0,0,1,41,62.4a1.6,1.6,0,0,0,1.4,1H43a1.5,1.5,0,0,0,.8-2,6.1,6.1,0,0,0-4.9-4.2,5.6,5.6,0,0,0-3.6.6,7.8,7.8,0,0,0-4.7-4.3,7.3,7.3,0,0,0-6,1.5,8.1,8.1,0,0,0-2.1-2l6-8.2,5.6,7.7L50.5,28.7l9.4,13.5a26.2,26.2,0,0,0-10.5,4.5c-4.2,2.8-6,5.1-6.1,7.5s2,4.5,4.3,6.2c.8.6,1.5,1.5,1.3,2.3s-1.4,3.1-11.3,3.7a78.1,78.1,0,0,0-20.2-1.7h-.9V58.6A3.9,3.9,0,0,1,18.7,55.1Z"/><path d="M48.5,37.1a1.5,1.5,0,0,0-2.1.4l-6.1,8.7a1.6,1.6,0,0,0,.4,2.1,1.5,1.5,0,0,0,.9.2,1.6,1.6,0,0,0,1.2-.6l6.1-8.7A1.5,1.5,0,0,0,48.5,37.1Z"/><path d="M54.9,62.7a1.4,1.4,0,0,0,1.5,1.5,1.5,1.5,0,0,0,1.5-1.5,7.8,7.8,0,0,0-4.3-7.4,1.5,1.5,0,0,0-2.1.7,1.6,1.6,0,0,0,.7,2A4.8,4.8,0,0,1,54.9,62.7Z"/><path d="M61,66.2a1.4,1.4,0,0,0,1.5,1.5A1.5,1.5,0,0,0,64,66.2c0-2.8-1-5.9-2.2-7.1a1.5,1.5,0,0,0-2.1,2.1A9.5,9.5,0,0,1,61,66.2Z"/><path d="M68.1,66.9a1.6,1.6,0,0,0,1.3.8h.7a1.5,1.5,0,0,0,.7-2.1,21.4,21.4,0,0,0-2.9-4.7,1.5,1.5,0,1,0-2.1,2.1A22.5,22.5,0,0,1,68.1,66.9Z"/><path d="M55.8,66.6a4.4,4.4,0,0,1-2.5,2.6,1.5,1.5,0,0,0,.5,2.9h.4a7.1,7.1,0,0,0,4.5-4.4,1.5,1.5,0,0,0-1-1.9A1.4,1.4,0,0,0,55.8,66.6Z"/></svg>