<svg id="圖層_1" data-name="圖層 1" xmlns="http://www.w3.org/2000/svg" viewBox="0 0 100 100"><defs><style>.cls-1{fill:#231815;}</style></defs><path class="cls-1" d="M64.6,66.4c1,1.2,1,1.5,1,1.5s-4.8,3.8-7.3,4.6-6.2.2-6.2-5.1V42.3H63.4v.4a1.5,1.5,0,0,0,1.5,1.5,1.5,1.5,0,0,0,1.5-1.5v-.4h.7a1.5,1.5,0,0,0,1.5-1.5,1.5,1.5,0,0,0-1.5-1.5h-.7v-.5a1.5,1.5,0,0,0-1.5-1.5,1.5,1.5,0,0,0-1.5,1.5v.5H51.1V39a4.1,4.1,0,0,0,0-7.7v-.9a6.8,6.8,0,1,0-3,0v.9a4.2,4.2,0,0,0,0,7.7v.3H35.9v-.5a1.5,1.5,0,0,0-3,0v.5h-.7a1.5,1.5,0,0,0-1.5,1.5,1.5,1.5,0,0,0,1.5,1.5h.7v.4a1.5,1.5,0,0,0,3,0v-.4H47.2V67.4c0,5.3-3.7,5.8-6.2,5.1s-7.3-4.6-7.3-4.6,0-.3,1-1.5c-5.1-1.5-8.9-6.8-8.9-6.8-.2,11.2,12.7,17.3,16.7,18.6a30,30,0,0,1,7.1,3.6,32,32,0,0,1,7.2-3.6c4-1.3,16.9-7.4,16.7-18.6C73.5,59.6,69.7,64.9,64.6,66.4ZM49.6,34a1.2,1.2,0,0,1,1.2,1.2,1.1,1.1,0,0,1-1.2,1.1,1.1,1.1,0,0,1-1.1-1.1A1.1,1.1,0,0,1,49.6,34ZM45.8,23.7a3.9,3.9,0,0,1,7.7,0,4,4,0,0,1-2.4,3.6V26.2a1.5,1.5,0,0,0-1.5-1.5,1.5,1.5,0,0,0-1.5,1.5v1.1A4,4,0,0,1,45.8,23.7Z"/></svg>