<svg id="圖層_1" data-name="圖層 1" xmlns="http://www.w3.org/2000/svg" viewBox="0 0 100 100"><defs><style>.cls-1{fill:#231815;}</style></defs><path d="M32.8,43a1.5,1.5,0,0,1,1.5,1.5V54.6a1.5,1.5,0,0,1-1.5,1.5H29.2V43Z"/><path d="M73.7,40a6.5,6.5,0,0,0-6.4-6.1H32.7A6.6,6.6,0,0,0,26.2,40h0V59.1h0a6.5,6.5,0,0,0,6.5,6.5H67.3a6.5,6.5,0,0,0,6.5-6.5h0V40ZM51.5,43.1a6.6,6.6,0,0,1,0,12.8Zm-3,12.8a6.6,6.6,0,0,1,0-12.8Zm0-15.8a9.6,9.6,0,0,0,0,18.9v3.7H32.7a3.5,3.5,0,0,1-3.5-3.5h3.6a4.5,4.5,0,0,0,4.5-4.5V44.5A4.5,4.5,0,0,0,32.8,40H29.3a3.4,3.4,0,0,1,3.4-3.1H48.5ZM70.8,59.2a3.5,3.5,0,0,1-3.5,3.5H51.5V59a9.6,9.6,0,0,0,0-18.9V36.9H67.3A3.4,3.4,0,0,1,70.7,40H67.2a4.5,4.5,0,0,0-4.5,4.5V54.6a4.5,4.5,0,0,0,4.5,4.5h3.6Z"/><path d="M70.8,43V56.1H67.2a1.5,1.5,0,0,1-1.5-1.5V44.5A1.5,1.5,0,0,1,67.2,43Z"/><path class="cls-1" d="M60.5,26.5h-21a23.5,23.5,0,0,0,0,47h21a23.5,23.5,0,0,0,0-47Zm0,44h-21a20.5,20.5,0,0,1,0-41h21a20.5,20.5,0,0,1,0,41Z"/><path class="cls-1" d="M61.2,19.2H38.8a30.8,30.8,0,0,0,0,61.6H61.2a30.8,30.8,0,0,0,0-61.6Zm0,58.6H38.8a27.8,27.8,0,0,1,0-55.6H61.2a27.8,27.8,0,0,1,0,55.6Z"/></svg>