<svg id="圖層_1" data-name="圖層 1" xmlns="http://www.w3.org/2000/svg" viewBox="0 0 100 100"><defs><style>.cls-1{fill:#231815;}</style></defs><path class="cls-1" d="M93.8,27.9h0v-.2h0c-.1-.1-.1-.1-.1-.2h0a.1.1,0,0,1-.1-.1c0-.1-.1-.1-.1-.2h-.8a.1.1,0,0,0-.1-.1H6.5c0,.1-.1.1-.1.2a.1.1,0,0,1-.1.1h0c0,.1,0,.1-.1.2h0v.2h0V82.1a.6.6,0,0,0,.1.4h0a.8.8,0,0,0,.2.4h0l.3.3h0l.4.2H92.8l.4-.2h0l.3-.3h0a.8.8,0,0,0,.2-.4h0a.6.6,0,0,0,.1-.4ZM9.2,30.8l6.9,5.1V74.1L9.2,79.2Zm29.5,5.8v5.8h-5V36.6Zm5,0v5.8h-2V36.6Zm-13,5.8h-2V36.6h2Zm-3.5,3h18a1.5,1.5,0,0,0,1.5-1.5V36.6H56.9v7.3a1.5,1.5,0,0,0,1.5,1.5H72.8a1.5,1.5,0,0,0,1.5-1.5V36.6h6.6V73.4H55V60.1a1.5,1.5,0,0,0-1.5-1.5H31.6a1.5,1.5,0,0,0-1.5,1.5V73.4h-11V36.6h6.6v7.3A1.5,1.5,0,0,0,27.2,45.4Zm44.1-8.8v5.8H68.4V36.6Zm-5.9,5.8H59.9V36.6h5.5ZM41,61.6V73.4H38.6V61.6Zm5.5,0V73.4H44V61.6Zm5.5,0V73.4H49.5V61.6ZM35.6,73.4H33.1V61.6h2.5ZM81.9,33.6H18.1l-5.8-4.2H87.7Zm2,40.5V35.9l6.9-5.1V79.2Z"/></svg>