<svg id="圖層_1" data-name="圖層 1" xmlns="http://www.w3.org/2000/svg" viewBox="0 0 100 100"><path d="M86,79H83.2V73.2a1.5,1.5,0,0,0-1.5-1.5H77.5V67.8A12.4,12.4,0,0,0,76,43.1a12.4,12.4,0,0,0-1.5,24.7v3.9h-6L54.3,48.9a1.7,1.7,0,0,0-1.3-.7H50.5V43.4h1.3a1.5,1.5,0,0,0,1.5-1.5,1.5,1.5,0,0,0-1.5-1.5H39.6v-5a1.4,1.4,0,0,0,1.6-.4,1.4,1.4,0,0,0,0-2.1L30.6,22.5h-.2l-.3-.2h-.6a1.3,1.3,0,0,0-1,.4l-11.2,11a1.5,1.5,0,0,0-.1,2.1,1.6,1.6,0,0,0,1.1.5,1.2,1.2,0,0,0,1-.5h.1V54.6h0V79H14a2.9,2.9,0,0,0-3,3v3.9H89V82A2.9,2.9,0,0,0,86,79ZM66.7,55.5a9.4,9.4,0,1,1,10.8,9.2V58.4L81,55a1.4,1.4,0,0,0,0-2.1,1.6,1.6,0,0,0-2.2,0l-1.3,1.3V52.6A1.5,1.5,0,0,0,76,51.1a1.5,1.5,0,0,0-1.5,1.5v4.3l-1.3-1.3a1.5,1.5,0,0,0-2.1,2.1l3.4,3.4v3.6A9.4,9.4,0,0,1,66.7,55.5ZM80.2,74.7v2.8H77.5V74.7ZM66.4,74a1.5,1.5,0,0,0,1.3.7h6.8v2.8H65.3L51.1,54.7a1.7,1.7,0,0,0-1.3-.7H39.6V51.2H52.2Zm-39-7.6h4.3v2.3H27.4Zm0,5.3h4.3V74H27.4Zm4.3-8.3H27.4V61h4.3ZM27.4,77h4.3v2H27.4Zm4.3-19H27.4V56.1h4.3Zm-9.3-4.9V34.5H36.6V53.1ZM35.5,31.5H23.6l5.9-5.8Zm12,16.7H45.4V43.4h2.1Zm-5.1-4.8v4.8H39.6V43.4Zm-20,12.7h2V79h-2ZM34.7,79V75.5h0V70.2h0V64.9h0V59.5h0V56.1h1.9V79Zm4.9-22H49L62.7,79H39.6Z"/><path d="M32.4,38.1H26.1a1.5,1.5,0,0,0-1.5,1.5V48a1.5,1.5,0,0,0,1.5,1.5h6.3A1.5,1.5,0,0,0,33.9,48V39.6A1.5,1.5,0,0,0,32.4,38.1Zm-1.5,8.4H27.6V41.1h3.3Z"/><path d="M58.3,36.3H72a4.1,4.1,0,0,0,4.1-4.1,3.6,3.6,0,0,0-1.2-2.8,4.9,4.9,0,0,0-4.7-4.7,5.9,5.9,0,0,0-5-2.8,5.8,5.8,0,0,0-5.3,3.4h-.4a4.1,4.1,0,0,0-4.1,4.1h0a4,4,0,0,0-1.2,2.8A4.1,4.1,0,0,0,58.3,36.3Zm-.5-5a1.5,1.5,0,0,0,.6-1.7v-.2a1.1,1.1,0,0,1,1.1-1.1.7.7,0,0,1,.6.2,1.4,1.4,0,0,0,1.4.1,1.6,1.6,0,0,0,.9-1.2,2.8,2.8,0,0,1,5.4-.6,1.7,1.7,0,0,0,1.8,1H70a1.9,1.9,0,0,1,1.9,1.9v.3a1.6,1.6,0,0,0,.7,1.4,1.2,1.2,0,0,1,.5.9A1.1,1.1,0,0,1,72,33.3H58.3a1.1,1.1,0,0,1-1.1-1.1A1,1,0,0,1,57.8,31.3Z"/></svg>