<svg id="圖層_1" data-name="圖層 1" xmlns="http://www.w3.org/2000/svg" viewBox="0 0 100 100"><defs><style>.cls-1{fill:#231815;}</style></defs><path class="cls-1" d="M76.9,57.8a4.7,4.7,0,0,0-3.6-3.4c-2.3-5.1-9.4-7.9-12.4-8.9a4.4,4.4,0,0,0-3.7-2.1A5.1,5.1,0,0,0,55,44h-.9l-1.4.2h-.4l-.3.2a5.5,5.5,0,0,0-2.5,7.1c.4,1,1.3,1.7,2.9,3.2l2.1,2,.9,1.1H33.6c.4-9.4,2.6-14.6,9.3-21.6l4.2-4.5-5.8,2A38,38,0,0,0,32.5,38c1.8-7.8,4.7-11,9-14.8l4.4-4.1-5.8,1.5A31.1,31.1,0,0,0,22.6,32.2a79.9,79.9,0,0,0-3.2-11.7L18.2,17l-1.5,3.4c-6.5,14.3-4.4,37.4-4.4,37.4h0V85.3H88.1V57.8Zm8.2,13.3H83.3a5.2,5.2,0,0,0-4.4-3.9l-.5-.5a6,6,0,0,0-2.5-2.1h0l.3-.6.3-.4a1.4,1.4,0,0,1,.2-.7l.2-.5c0-.2.1-.4.1-.7a.9.9,0,0,0,.1-.5c0-.1.1-.2.1-.3h7.9ZM52.3,50.3c-.3-.7-.8-2,1.3-3.3h.5l1.6.2a2.5,2.5,0,0,1,1.5-.7c.6,0,1.2.4,1.6,1.6s12,3.9,12.2,9.6a3,3,0,0,1,1.2-.3,1.7,1.7,0,0,1,1.3.5h-.1a1.6,1.6,0,0,1,.6.8h0a1.3,1.3,0,0,1,.1.6h0a1.5,1.5,0,0,1,.1.7,2.8,2.8,0,0,1-.1.9,5,5,0,0,1-.9,2.3,6.4,6.4,0,0,1-2.1,2.2l-.3.2a12.9,12.9,0,0,1-3.5.8c-.4,0-.7-.2-1.3-.8a1.8,1.8,0,0,1,.3-1.1l-.7-.2-.8-.3c2.3-3.3,2-5.4,2-5.8A1.6,1.6,0,0,0,65,57a1.5,1.5,0,0,0-1.2,1.7s.1,1.3-1.5,3.6h-.1c-1.4,1.8-2.4,3.2-4.4,3.2h-.6a1.9,1.9,0,0,1-1-.5c-.1-.1-.1-.2-.1-.4a2,2,0,0,1,.3-.8h0l.3-.2a1.5,1.5,0,0,1,1.1-.4h.3a24.5,24.5,0,0,0,2.2-2.9l.2-.5h0l-.3-.5h-.1l-.7-.9h0l-2.6-3.4C55.5,53.3,52.6,51.1,52.3,50.3ZM30.6,57.2,24.8,57v-.6c.1-1.1.2-2.2.4-3.3h.1a19.2,19.2,0,0,1,5.9-10.3l.4-.2h0a26.2,26.2,0,0,1,4.9-3.3C32.6,44.4,31,49.6,30.6,57.2Zm4.2-31.4c-2.7,3.4-4.7,7.6-6,15.1a21.8,21.8,0,0,0-4.2,5.4c-.3-3.3-.6-6.6-1.2-9.8A28.2,28.2,0,0,1,34.8,25.8Zm-16.9-.3a101.2,101.2,0,0,1,2.5,11.2l.3,1.7.3,2.4a4.5,4.5,0,0,1,.1,1.1c.2,1,.3,2,.4,3V46a28.3,28.3,0,0,1,.2,2.9,19.3,19.3,0,0,1,.1,2.4V57c-2.8-.1-5.2-.4-6.5-.5C15,52.3,14.1,37.3,17.9,25.5ZM51.1,82.3C49,76.4,41,74.4,38.6,74.4h-.1c-4.2,0-9.1-1.1-9.1-6.3s4.7-7.1,6-7.3H55.3a.1.1,0,0,0-.1.1l-.4.3h-.2l-.3.3-.2.2-.3.5h-.1l-.3.5V63l-.2.5h0a.9.9,0,0,0-.1.5,3.2,3.2,0,0,0-1.7.2,5.2,5.2,0,0,0-2.3,2.8l-.8.5a9.2,9.2,0,0,0-3.2,3.5h-2a1.5,1.5,0,1,0,0,3H61.5a1.5,1.5,0,0,0,0-3H48.7l1.4-1a4.6,4.6,0,0,0,1.8-1.9c.1-.3.3-.9.7-1.1a3,3,0,0,1,1.5.2l.4.3c1.4.8,4,2.2,8.8-.3h.2v.2a4.1,4.1,0,0,0,3.8,1.9h1.5l1.5-.4,1.5-.6L73,68a3.5,3.5,0,0,1,1.8-.5h0c.4,0,.9.6,1.3,1.1a3.3,3.3,0,0,0,2.2,1.6,2.3,2.3,0,0,1,1.7.9H67.8a1.5,1.5,0,1,0,0,3H85.1v8.2Z"/><path class="cls-1" d="M57.1,51.4a1.2,1.2,0,0,0,1.3-1.2,1.3,1.3,0,0,0-1.3-1.3,1.2,1.2,0,0,0-1.2,1.3A1.2,1.2,0,0,0,57.1,51.4Z"/><path class="cls-1" d="M74.2,77.4H60.8a1.5,1.5,0,0,0-1.5,1.5,1.5,1.5,0,0,0,1.5,1.5H74.2a1.5,1.5,0,0,0,1.5-1.5A1.5,1.5,0,0,0,74.2,77.4Z"/></svg>