<?xml version="1.0" encoding="utf-8"?>
<!-- Generator: Adobe Illustrator 24.0.1, SVG Export Plug-In . SVG Version: 6.00 Build 0)  -->
<svg version="1.1" id="圖層_1" xmlns="http://www.w3.org/2000/svg" xmlns:xlink="http://www.w3.org/1999/xlink" x="0px" y="0px"
	 viewBox="0 0 100 100" style="enable-background:new 0 0 100 100;" xml:space="preserve">
<style type="text/css">
	.st0{fill-rule:evenodd;clip-rule:evenodd;fill:#231815;}
</style>
<path class="st0" d="M50,2C23.5,2,2,23.5,2,50s21.5,48,48,48s48-21.5,48-48S76.5,2,50,2 M50,18.5c8,0,14.4,6.4,14.4,14.4
	S58,47.3,50,47.3s-14.4-6.4-14.4-14.4S42,18.5,50,18.5 M50,86.7c-12,0-22.6-6.1-28.8-15.5c0.1-9.6,19.2-14.8,28.8-14.8
	s28.7,5.3,28.8,14.8C72.6,80.5,62,86.7,50,86.7"/>
</svg>
