<svg enable-background="new 0 0 100 100" viewBox="0 0 100 100" xmlns="http://www.w3.org/2000/svg"><path clip-rule="evenodd" d="m79.4 65.1c4.8 0 9.1 1.9 12.3 5.1 3.1 3.1 5.1 7.5 5.1 12.3 0 9.5-7.8 17.4-17.4 17.4-9.5 0-17.4-7.8-17.4-17.4 0-2 .3-3.9 1-5.7l-18.5-11c-.3.3-.6.6-.9.9l-.2.2c-4.3 4.2-10.1 6.7-16.5 6.7-13 .1-23.7-10.6-23.7-23.6s10.7-23.7 23.7-23.7c6.5 0 12.4 2.7 16.7 6.9l.9.9 18.5-11c-.6-1.8-1-3.7-1-5.6 0-9.6 7.8-17.4 17.4-17.4s17.4 7.8 17.4 17.4-7.8 17.4-17.4 17.4c-4.8 0-9.1-2-12.3-5.1l-.1-.2-18.4 11c1.2 2.9 1.9 6 1.9 9.4 0 3.3-.7 6.5-1.9 9.4l18.4 11 .1-.1.1-.1c3.1-3.1 7.5-5.1 12.2-5.1" fill-rule="evenodd"/></svg>