<?xml version="1.0" encoding="utf-8"?>
<!-- Generator: Adobe Illustrator 24.0.1, SVG Export Plug-In . SVG Version: 6.00 Build 0)  -->
<svg version="1.1" id="圖層_1" xmlns="http://www.w3.org/2000/svg" xmlns:xlink="http://www.w3.org/1999/xlink" x="0px" y="0px"
	 viewBox="0 0 100 100" style="enable-background:new 0 0 100 100;" xml:space="preserve">
<g>
	<path d="M44.9,50h-8.3l0,0l0,0H20.9c-4.6,0-7,5.6-3.7,8.9l5.2,5.2L2.8,83.7c-3.7,3.7-3.7,9.8,0,13.5c3.7,3.7,9.8,3.7,13.5,0
		l19.6-19.6l5.2,5.2c3.3,3.3,8.9,0.9,8.9-3.7V55.2C50.1,52.4,47.7,50,44.9,50z"/>
	<path d="M97.2,2.8c-3.7-3.7-9.8-3.7-13.5,0L64.1,22.4l-5.2-5.2c-3.3-3.3-8.9-0.9-8.9,3.7v15.6l0,0l0,0v8.3c0,2.9,2.3,5.2,5.2,5.2
		h23.9c4.6,0,7-5.6,3.7-8.9l-5.2-5.2l19.6-19.6C100.9,12.6,100.9,6.5,97.2,2.8z"/>
</g>
</svg>
