<?xml version="1.0" encoding="utf-8"?>
<!-- Generator: Adobe Illustrator 21.0.0, SVG Export Plug-In . SVG Version: 6.00 Build 0)  -->
<svg version="1.1" id="图层_1" xmlns="http://www.w3.org/2000/svg" xmlns:xlink="http://www.w3.org/1999/xlink" x="0px" y="0px"
	 viewBox="0 0 100 100" style="enable-background:new 0 0 100 100;" xml:space="preserve">
<path d="M88,0H12C5.4,0,0,5.4,0,12v76c0,6.6,5.4,12,12,12h76c6.6,0,12-5.4,12-12V12C100,5.4,94.6,0,88,0z M54.8,80.5
	c-2,2.7-5.7,3.3-8.4,1.3c-0.5-0.4-0.9-0.8-1.3-1.3C37.9,70.6,25,51.7,25,41.9C25,28.1,36.2,17,49.9,17c13.7,0,24.9,11.1,24.9,24.9
	C74.9,51.8,62.1,70.7,54.8,80.5z"/>
<circle cx="50" cy="41.4" r="10.4"/>
</svg>
