<?xml version="1.0" encoding="utf-8"?>
<!-- Generator: Adobe Illustrator 27.0.0, SVG Export Plug-In . SVG Version: 6.00 Build 0)  -->
<svg version="1.1" id="圖層_1" xmlns="http://www.w3.org/2000/svg" xmlns:xlink="http://www.w3.org/1999/xlink" x="0px" y="0px"
	 viewBox="0 0 100 100" style="enable-background:new 0 0 100 100;" xml:space="preserve">
<style type="text/css">
	.st0{fill-rule:evenodd;clip-rule:evenodd;fill:#6A9C78;}
</style>
<path class="st0" d="M34,28.5L45.7,4.9c1.8-3.6,6.9-3.6,8.7,0l11.6,23.7c0.7,1.4,2.1,2.4,3.6,2.7l26.1,3.9c4,0.6,5.6,5.5,2.7,8.3
	l-19,18.4c-1.1,1.1-1.7,2.7-1.4,4.3l4.4,26c0.7,4-3.5,7-7.1,5.1L52.1,84.9c-1.4-0.7-3.1-0.8-4.5,0L24.2,97.1c-3.6,1.9-7.7-1.2-7-5.1
	l4.5-26c0.3-1.6-0.2-3.2-1.4-4.3L1.5,43.2c-2.9-2.8-1.3-7.7,2.7-8.3l26.1-3.7C31.9,30.9,33.3,30,34,28.5"/>
</svg>
