<svg xmlns="http://www.w3.org/2000/svg" viewBox="0 0 100 100"><defs><style>.cls-1{fill:#231815;}</style></defs><title>star</title><g id="註解"><path class="cls-1" d="M50.21,15.73a3.43,3.43,0,0,1,3,1.95l8.3,17a3.48,3.48,0,0,0,2.61,1.91l18.71,2.8a3.48,3.48,0,0,1,1.9,5.94L71.15,58.48a3.48,3.48,0,0,0-1,3.07l3.12,18.66a3.47,3.47,0,0,1-5.06,3.64L51.49,75a3.48,3.48,0,0,0-3.24,0L31.47,83.71a3.47,3.47,0,0,1-5-3.69l3.27-18.63a3.48,3.48,0,0,0-1-3.08L15.23,45a3.48,3.48,0,0,1,2-5.92l18.73-2.64a3.48,3.48,0,0,0,2.63-1.89L47,17.66a3.44,3.44,0,0,1,3.23-1.92"/></g></svg>