<?xml version="1.0" encoding="utf-8"?>
<!-- Generator: Adobe Illustrator 24.0.1, SVG Export Plug-In . SVG Version: 6.00 Build 0)  -->
<svg version="1.1" id="圖層_1" xmlns="http://www.w3.org/2000/svg" xmlns:xlink="http://www.w3.org/1999/xlink" x="0px" y="0px"
	 viewBox="0 0 100 100" style="enable-background:new 0 0 100 100;" xml:space="preserve">
<style type="text/css">
	.st0{fill-rule:evenodd;clip-rule:evenodd;}
</style>
<rect x="31.9" class="st0" width="36.3" height="9.7"/>
<g>
	<path class="st0" d="M84.1,32.6l7.3-7.3l-6.8-6.8l-7.1,7.1c-7.4-6.3-17-10.2-27.5-10.2c-23.4,0-42.3,19-42.3,42.3S26.6,100,50,100
		s42.3-19,42.3-42.3C92.3,48.3,89.3,39.6,84.1,32.6z M50,89.7c-17.7,0-32.1-14.3-32.1-32.1S32.3,25.6,50,25.6s32.1,14.3,32.1,32.1
		S67.7,89.7,50,89.7z"/>
	<rect x="45.2" y="31.5" class="st0" width="9.7" height="25.4"/>
</g>
</svg>
