<?xml version="1.0" encoding="utf-8"?>
<!-- Generator: Adobe Illustrator 24.0.1, SVG Export Plug-In . SVG Version: 6.00 Build 0)  -->
<svg version="1.1" id="圖層_1" xmlns="http://www.w3.org/2000/svg" xmlns:xlink="http://www.w3.org/1999/xlink" x="0px" y="0px"
	 viewBox="0 0 100 100" style="enable-background:new 0 0 100 100;" xml:space="preserve">
<style type="text/css">
	.st0{fill-rule:evenodd;clip-rule:evenodd;fill:#202020;}
</style>
<g>
	<path class="st0" d="M11,18h78l0.6,0c2.5-0.3,4.4-2.4,4.4-5v-1l0-0.6c-0.3-3-2.9-5.4-6-5.4H12l-0.6,0C8.4,6.3,6,8.9,6,12v1l0,0.6
		C6.3,16.1,8.4,18,11,18z"/>
	<path class="st0" d="M95.3,26l-0.1-0.6c-0.7-2-2.6-3.4-4.8-3.4H9.7l-0.6,0c-2.1,0.3-3.9,1.8-4.3,4L0,49.7v6.1l0,0.6
		c0.3,2.5,2.4,4.4,5,4.4h0.6V89l0,0.6c0.3,2.5,2.4,4.4,5,4.4h45.6l0.6,0c2.5-0.3,4.4-2.4,4.4-5V60.8h22.2V89l0,0.6
		c0.3,2.5,2.4,4.4,5,4.4h1.1l0.6,0c2.5-0.3,4.4-2.4,4.4-5V60.8H95l0.6,0c2.5-0.3,4.4-2.4,4.4-5v-6.1L95.3,26z M46,73
		c0,2.8-2.2,5-5,5H25c-2.8,0-5-2.2-5-5v-6c0-2.8,2.2-5,5-5h16c2.8,0,5,2.2,5,5V73z"/>
</g>
</svg>
