<?xml version="1.0" encoding="utf-8"?>
<!-- Generator: Adobe Illustrator 24.0.1, SVG Export Plug-In . SVG Version: 6.00 Build 0)  -->
<svg version="1.1" id="圖層_1" xmlns="http://www.w3.org/2000/svg" xmlns:xlink="http://www.w3.org/1999/xlink" x="0px" y="0px"
	 viewBox="0 0 100 100" style="enable-background:new 0 0 100 100;" xml:space="preserve">
<style type="text/css">
	.st0{fill:#231815;}
</style>
<title>street</title>
<g id="註解">
	<path class="st0" d="M81.8,68l-8.7-24.4c-1.4-3.8-5.3-6.3-10-6.3c0.5-0.4,1.1-0.9,1.6-1.4c8.2-8.2,8.2-21.5,0-29.7S43.2-2.1,35,6.1
		s-8.2,21.5,0,29.7c0.5,0.5,1,1,1.6,1.4c-4.2-0.1-8.1,2.4-9.7,6.3L18.2,68c-0.7,2-0.5,4.1,0.5,5.9c1.1,2,3,3.4,5.2,3.9l2.2,0.5
		c0.6,0.1,1.3,0.2,1.9,0.2c1.2,0,2.3-0.2,3.4-0.7V100h37.4V77.8c1.1,0.5,2.2,0.7,3.4,0.7c0.6,0,1.3-0.1,1.9-0.2l2.2-0.5
		c2.2-0.5,4.1-1.9,5.2-3.8C82.3,72.1,82.5,70,81.8,68z M39,10.1c6-6,15.7-6,21.7,0c6,6,6,15.7,0,21.7c-6,6-15.7,6-21.7,0
		c0,0,0,0,0,0C33,25.9,32.9,16.2,39,10.1C38.9,10.2,38.9,10.1,39,10.1z M74.8,72.3l-2.2,0.5c-0.2,0-0.4,0.1-0.7,0.1
		c-1,0-1.9-0.5-2.3-1.4L63,56.3v38H52.9l-1.5-20.2l0,0v-0.3c0-0.8-0.6-1.4-1.4-1.4c-0.8,0-1.4,0.6-1.4,1.4v0.2l0,0l-1.5,20.2H37v-38
		l-6.7,15.1c-0.4,0.9-1.3,1.5-2.3,1.4c-0.2,0-0.4,0-0.7-0.1l-2.2-0.5c-1.1-0.1-1.8-1.1-1.7-2.1c0-0.1,0-0.2,0.1-0.3l8.7-24.4
		c0.9-1.8,2.8-2.8,4.7-2.6h2.3l10.9,19l10.9-18.9H63c2-0.2,3.8,0.8,4.7,2.6l8.7,24.4c0.3,1-0.3,2.1-1.4,2.4
		C75,72.3,74.9,72.3,74.8,72.3z"/>
</g>
</svg>
