<?xml version="1.0" encoding="utf-8"?>
<!-- Generator: Adobe Illustrator 24.0.1, SVG Export Plug-In . SVG Version: 6.00 Build 0)  -->
<svg version="1.1" id="圖層_1" xmlns="http://www.w3.org/2000/svg" xmlns:xlink="http://www.w3.org/1999/xlink" x="0px" y="0px"
	 viewBox="0 0 100 100" style="enable-background:new 0 0 100 100;" xml:space="preserve">
<style type="text/css">
	.st0{fill-rule:evenodd;clip-rule:evenodd;fill:#231815;}
</style>
<path class="st0" d="M50.5,4.1c2,0,3.6,1.6,3.6,3.6l0,9.8c0,2-1.6,3.6-3.6,3.6c-2,0-3.6-1.6-3.6-3.6l0-9.8
	C46.9,5.7,48.5,4.1,50.5,4.1L50.5,4.1z M77.5,15.1c1.4-1.4,3.7-1.4,5.1,0c1.4,1.4,1.4,3.7,0,5.1l-7.6,7.6c-0.7,0.7-1.6,1-2.5,1
	c-0.9,0-1.8-0.4-2.5-1.1c-1.4-1.4-1.4-3.7,0-5.1L77.5,15.1z M18.6,15.4c1.4-1.4,3.7-1.4,5.1,0l7.6,7.6c1.4,1.4,1.4,3.7,0,5.1
	c-0.7,0.7-1.6,1-2.5,1c-0.9,0-1.8-0.3-2.5-1l-7.6-7.6C17.2,19.1,17.2,16.8,18.6,15.4z M81.6,39.3l10.8,0c2,0,3.6,1.6,3.6,3.6
	c0,2-1.6,3.6-3.6,3.6h0l-10.8,0c-2,0-3.6-1.6-3.6-3.6C78,40.9,79.6,39.3,81.6,39.3L81.6,39.3z M19.9,39.8c2,0,3.6,1.6,3.6,3.6
	S21.9,47,19.9,47H9.1c-2,0-3.6-1.6-3.6-3.6s1.6-3.6,3.6-3.6H19.9z M49.9,34.3c-9,0-16.4,7.3-16.4,16.4c0,1.5,0.2,3,0.6,4.4h31.5
	c0.4-1.4,0.6-2.9,0.6-4.4C66.3,41.7,58.9,34.3,49.9,34.3z M49.9,27.2c13,0,23.5,10.5,23.5,23.5c0,1.5-0.1,3-0.4,4.4h23.4
	c2,0,3.6,1.6,3.6,3.6c0,2-1.6,3.6-3.6,3.6H3.6c-2,0-3.6-1.6-3.6-3.6c0-2,1.6-3.6,3.6-3.6h23.3c-0.3-1.5-0.4-2.9-0.4-4.4
	C26.4,37.7,36.9,27.2,49.9,27.2z M47.1,67c1.4-1.4,3.7-1.4,5.1,0l9.1,9.1c1.4,1.4,1.4,3.7,0,5.1c-0.7,0.7-1.6,1-2.5,1
	c-0.9,0-1.8-0.3-2.5-1l-2.6-2.6v13.8c0,2-1.6,3.6-3.6,3.6c-2,0-3.6-1.6-3.6-3.6V77.8l-2.6,2.6c-1.4,1.4-3.7,1.4-5.1,0
	c-1.4-1.4-1.4-3.7,0-5.1L47.1,67z"/>
</svg>
