<?xml version="1.0" encoding="utf-8"?>
<!-- Generator: Adobe Illustrator 21.0.0, SVG Export Plug-In . SVG Version: 6.00 Build 0)  -->
<svg version="1.1" id="圖層_1" xmlns="http://www.w3.org/2000/svg" xmlns:xlink="http://www.w3.org/1999/xlink" x="0px" y="0px"
	 viewBox="0 0 100 100" style="enable-background:new 0 0 100 100;" xml:space="preserve">
<g>
	<path d="M49.8,83.7c-2.4,0-4.3,0.8-5.7,2.4c-1.6,1.4-2.4,3.3-2.4,5.7c0,2.3,0.8,4.2,2.4,5.6c1.4,1.6,3.3,2.4,5.7,2.4
		c2.3,0,4.1-0.9,5.5-2.6c1.7-1.4,2.6-3.3,2.6-5.5c0-2.3-0.9-4.2-2.6-5.6C53.8,84.6,52,83.7,49.8,83.7z"/>
	<path d="M49.6,73h1.2c1.3,0,2.3-0.9,2.5-2.1c6.6-38.1,9.3-56.3,9.3-57.7C62.7,4.4,59.2,0,49.8,0c-9.1,0-12.4,4.4-12.4,13.2
		l9.8,57.8C47.3,72.1,48.4,73,49.6,73z"/>
</g>
</svg>
