<?xml version="1.0" encoding="utf-8"?>
<!-- Generator: Adobe Illustrator 24.0.1, SVG Export Plug-In . SVG Version: 6.00 Build 0)  -->
<svg version="1.1" id="圖層_1" xmlns="http://www.w3.org/2000/svg" xmlns:xlink="http://www.w3.org/1999/xlink" x="0px" y="0px"
	 viewBox="0 0 100 100" style="enable-background:new 0 0 100 100;" xml:space="preserve">
<style type="text/css">
	.st0{fill-rule:evenodd;clip-rule:evenodd;}
</style>
<path class="st0" d="M73.9,17c8.8-3.2,10.4-3.1,12.8-2.6c0.7,0.1,1.3,0.3,2.5,0.2c3.6-0.1,6.2,0.3,8,1.3c1.8,0.9,2.5,2.2,2.7,3.1
	c0.3,1.1,0.6,5.2-8.6,8.7l-24.4,8.9L45.3,54.1c-0.2,0.1-0.3,0.2-0.5,0.3l-6.7,2.4c-0.8,0.3-1.6,0-2.1-0.8c-0.4-0.7-0.3-1.7,0.2-2.4
	l7.6-9.4L11,50.1c-1.2,0.2-2.2-0.6-2.5-1.9C8.3,47,9,45.7,10.1,45.3c0,0,0,0,0,0l2.9-1L4.2,26c-0.3-0.6-0.3-1.4-0.1-2.1
	c0.3-0.7,0.8-1.2,1.4-1.5l3.1-1.1c0.7-0.3,1.5-0.1,2,0.4l15.2,12.7L73.9,17z M58.1,75.4c2.5,0,4.5,2.3,4.5,5.2c0,2.9-2,5.2-4.5,5.2
	H4.5C2,85.8,0,83.5,0,80.6c0-2.9,2-5.2,4.5-5.2H58.1z"/>
</svg>
