<?xml version="1.0" encoding="utf-8"?>
<!-- Generator: Adobe Illustrator 24.0.1, SVG Export Plug-In . SVG Version: 6.00 Build 0)  -->
<svg version="1.1" id="圖層_1" xmlns="http://www.w3.org/2000/svg" xmlns:xlink="http://www.w3.org/1999/xlink" x="0px" y="0px"
	 viewBox="0 0 100 100" style="enable-background:new 0 0 100 100;" xml:space="preserve">
<g>
	<g>
		<path d="M95.5,44.5h-0.2L85.1,20.8c-0.7-1.6-2.3-2.7-4.1-2.7H68.6v-6.8c0-2.5-2-4.5-4.5-4.5H35.8c-2.5,0-4.5,2-4.5,4.5v6.8H19
			c-1.8,0-3.4,1.1-4.1,2.7L4.7,44.5H4.5c-2.5,0-4.5,2-4.5,4.5v7.4V76c0,2.5,2,4.5,4.5,4.5h1.7v8.3c0,2.5,2,4.5,4.5,4.5h10.8
			c2.5,0,4.5-2,4.5-4.5v-8.3h48.3v8.3c0,2.5,2,4.5,4.5,4.5h10.8c2.5,0,4.5-2,4.5-4.5v-8.3h1.7c2.5,0,4.5-2,4.5-4.5V56.3v-7.4
			C100,46.5,98,44.5,95.5,44.5z M22,27h56l7.5,17.5H14.5L22,27z M19.4,71.2c-4.8,0-8.8-3.9-8.8-8.8c0-4.8,3.9-8.8,8.8-8.8
			c4.8,0,8.8,3.9,8.8,8.8C28.1,67.3,24.2,71.2,19.4,71.2z M80.4,71.2c-4.8,0-8.8-3.9-8.8-8.8c0-4.8,3.9-8.8,8.8-8.8
			c4.8,0,8.8,3.9,8.8,8.8C89.1,67.3,85.2,71.2,80.4,71.2z"/>
	</g>
</g>
</svg>
