<?xml version="1.0" encoding="utf-8"?>
<!-- Generator: Adobe Illustrator 21.0.0, SVG Export Plug-In . SVG Version: 6.00 Build 0)  -->
<svg version="1.1" id="图层_1" xmlns="http://www.w3.org/2000/svg" xmlns:xlink="http://www.w3.org/1999/xlink" x="0px" y="0px"
	 viewBox="0 0 100 100" style="enable-background:new 0 0 100 100;" xml:space="preserve">
<path d="M88,0H12C5.4,0,0,5.4,0,12v76c0,6.6,5.4,12,12,12h76c6.6,0,12-5.4,12-12V12C100,5.4,94.6,0,88,0z M79.1,73.3l-1.8,1.8
	l-0.2,0.2c-0.8,0.8-1.6,1.6-2.4,2.5h-0.1c-1.9,2.1-4.6,3.3-7.4,3.2h-0.9c-4.3-0.4-8.4-1.6-12.2-3.6c-8.6-4.2-16.2-10.1-22.3-17.5
	c-4.6-5.4-8.3-11.5-10.8-18.1c-1.3-3.2-1.9-6.7-1.8-10.2c0.1-2.2,1.1-4.3,2.7-5.9l5-5.1c1.1-1,2.5-1.6,4-1.6c1.4,0,2.8,0.6,3.8,1.7
	h0.1l2.7,2.7l1.2,1.2l4.1,4.1c2.5,2.5,2.5,5.5,0,8.1l-1.5,1.6l-2,2l-1.8,1.7l1.2,2.2c0.9,1.8,2,3.5,3.3,5.1
	c3.5,4.4,7.6,8.2,12.3,11.2l1.5,0.8l2.1,1.1l5.3-5.3c1-1.1,2.5-1.8,4-1.8c1.5,0.1,2.8,0.7,3.8,1.8l8,8c1.1,1,1.8,2.5,1.8,4
	C80.8,70.7,80.2,72.2,79.1,73.3z"/>
</svg>
