<?xml version="1.0" encoding="utf-8"?>
<!-- Generator: Adobe Illustrator 24.0.1, SVG Export Plug-In . SVG Version: 6.00 Build 0)  -->
<svg version="1.1" id="圖層_1" xmlns="http://www.w3.org/2000/svg" xmlns:xlink="http://www.w3.org/1999/xlink" x="0px" y="0px"
	 viewBox="0 0 100 100" style="enable-background:new 0 0 100 100;" xml:space="preserve">
<style type="text/css">
	.st0{fill-rule:evenodd;clip-rule:evenodd;}
</style>
<path class="st0" d="M55,0c0.3,0,0.6,0,0.9,0.1c11,1.9,21,7.1,28.9,15C92.8,23,98,33,99.8,44c0.3,1.4-0.1,2.8-0.9,4
	c-0.8,1.2-2.1,1.9-3.6,2.1c-0.3,0-0.5,0.1-0.8,0.1c-2.6,0-4.8-1.9-5.2-4.4c-1.5-8.8-5.6-16.8-12-23.2C71,16.2,63,12.1,54.2,10.6
	c-2.9-0.5-4.8-3.2-4.4-6.2C50.3,1.9,52.5,0,55,0z M54.3,17.2c0.3,0,0.6,0,0.9,0.1c6.9,1.2,13.1,4.4,18.1,9.4c5,5,8.2,11.2,9.4,18.1
	c0.2,1.4-0.1,2.8-0.9,4c-0.8,1.2-2.1,1.9-3.6,2.2c-0.3,0-0.5,0.1-0.8,0.1c-2.6,0-4.8-1.9-5.2-4.4c-0.8-4.7-3-9-6.4-12.4
	c-3.4-3.4-7.7-5.6-12.4-6.4c-1.4-0.2-2.6-1-3.4-2.1c-0.8-1.2-1.2-2.6-0.9-4C49.5,19,51.7,17.2,54.3,17.2z M20.8,16.1
	c-0.1,0-0.5,0-1.2,0.7l-6.8,6.8c-1.2,1.2-1.9,2.6-2,4.3c-0.3,3.3,0.4,6.8,2.1,11.4c2.9,7.9,7.3,15.3,14,23.2
	c8,9.6,17.7,17.1,28.6,22.4c3.9,1.9,9.1,4.1,14.6,4.4c0.2,0,0.5,0,0.7,0c2.4,0,4.1-0.7,5.6-2.3c1.3-1.6,2.7-2.9,4-4.2l0.5-0.4
	c0.6-0.6,1.2-1.1,1.7-1.7l0.4-0.4c0.8-0.9,0.9-1.4-0.1-2.4L71.7,66.8c-0.3-0.4-0.7-0.6-0.9-0.6c-0.2,0-0.6,0.2-1.2,0.7l-6.8,6.8
	c-1.4,1.4-3.1,2.2-4.9,2.2c-1.1,0-2.1-0.3-3.2-0.8c-0.1-0.1-0.2-0.1-0.3-0.2l-0.1-0.1c-0.5-0.3-1.1-0.6-1.8-1
	c-0.9-0.4-1.7-0.9-2.7-1.4c-6.7-4.2-12.7-9.7-18.3-16.7l-0.1-0.1c-3.2-4.1-5.3-7.5-6.8-11.2l0,0l0,0l-0.1-0.2
	c-0.3-1-1.3-4.1,1.6-7.1c0.1-0.1,0.2-0.2,0.3-0.3c1.6-1.5,3.1-3,4.9-4.8l1.7-1.7c0.5-0.5,0.8-1,0.8-1.2c0-0.3-0.3-0.7-0.8-1.2
	l-6.4-6.4c-0.3-0.3-0.6-0.7-1-1c-1.3-1.3-2.4-2.4-3.6-3.5C21.5,16.4,21.1,16.1,20.8,16.1z M20.8,5.5c3.1,0,6.1,1.3,8.5,3.6
	c1.4,1.3,2.7,2.6,3.9,3.8c0.6,0.6,1.2,1.2,1.8,1.8l5.5,5.5c5.2,5.2,5.2,12.3,0,17.5c-0.3,0.3-0.5,0.6-0.8,0.8l-1.3,1.3
	c-0.9,0.9-1.8,1.9-2.9,2.9c1,2,2.4,4,4.2,6.3c5,6.1,10.1,10.8,15.8,14.4c0.4,0.3,1,0.6,1.6,0.9l5-4.9c2.5-2.5,5.5-3.8,8.7-3.8
	c3.2,0,6.2,1.3,8.6,3.9l11,11c2.5,2.5,3.9,5.5,3.9,8.7c0,3.2-1.3,6.2-3.7,8.7c-0.8,0.8-1.6,1.6-2.7,2.7l-0.3,0.3
	c-1.1,1.1-2.1,2.1-3,3.1l-0.1,0.2l0,0c-3.6,3.9-8.1,5.8-13.5,5.8c-0.4,0-0.9,0-1.4,0c-7.2-0.5-13.7-3.2-18.6-5.5
	c-12.4-6-23.2-14.5-32.2-25.2C11.2,60.4,6.2,52.1,2.9,43c-1.4-3.8-3.2-9.6-2.7-16c0.4-4.2,2.1-7.9,5.1-10.9l6.9-7
	C14.6,6.7,17.6,5.5,20.8,5.5z"/>
</svg>
