<?xml version="1.0" encoding="utf-8"?>
<!-- Generator: Adobe Illustrator 27.0.0, SVG Export Plug-In . SVG Version: 6.00 Build 0)  -->
<svg version="1.1" id="圖層_1" xmlns="http://www.w3.org/2000/svg" xmlns:xlink="http://www.w3.org/1999/xlink" x="0px" y="0px"
	 viewBox="0 0 100 100" style="enable-background:new 0 0 100 100;" xml:space="preserve">
<path d="M50,100c-6.9,0-12.8-2.4-17.7-7.3S25,81.9,25,75c0-4.2,1-8.2,2.9-12s4.8-6.5,8.5-8.4v-41c0-3.8,1.3-7,4-9.7
	C43,1.3,46.2,0,50,0s7,1.3,9.7,4c2.6,2.6,4,5.9,4,9.7v41c3.8,1.8,6.6,4.6,8.5,8.4S75,70.8,75,75c0,6.9-2.4,12.8-7.3,17.7
	S56.9,100,50,100z M43.9,45.6h12.2V39H50v-4.9h6.1V23.2H50v-4.8h6.1v-4.8c0-1.7-0.6-3.2-1.8-4.4c-1.2-1.2-2.6-1.8-4.4-1.8
	c-1.7,0-3.2,0.6-4.4,1.8c-1.2,1.2-1.8,2.6-1.8,4.4V45.6z"/>
</svg>
