<?xml version="1.0" encoding="utf-8"?>
<!-- Generator: Adobe Illustrator 24.0.1, SVG Export Plug-In . SVG Version: 6.00 Build 0)  -->
<svg version="1.1" id="圖層_1" xmlns="http://www.w3.org/2000/svg" xmlns:xlink="http://www.w3.org/1999/xlink" x="0px" y="0px"
	 viewBox="0 0 100 100" style="enable-background:new 0 0 100 100;" xml:space="preserve">
<style type="text/css">
	.st0{fill-rule:evenodd;clip-rule:evenodd;}
</style>
<path class="st0" d="M0,100h18.4V43.6H0V100z M100,55.6c0-3.4-1.9-6.3-4.7-7.9c-0.1,0-0.1-0.1,0-0.2c2.2-1.7,3.6-4.3,3.6-7.2
	c0-5.1-4.2-9.2-9.5-9.2H60.6c5.3-27-8.1-32.3-13.4-31c-3.2,0.8-3.5-0.1-2.9,6l0.3,10.1c0,1-0.1,2-0.4,3.1c-0.3,1-0.8,2-1.3,2.8
	L29,42.4v49.9l50.5,0c5-0.3,8.9-4.3,8.9-9.2c0-1.5-0.4-2.9-1-4.1c0-0.1,0-0.1,0-0.1c4.4-0.8,7.8-4.5,7.8-9c0-2-0.7-3.9-1.9-5.4
	c0,0,0-0.1,0-0.1C97.2,63.2,100,59.7,100,55.6z"/>
</svg>
