<?xml version="1.0" encoding="utf-8"?>
<!-- Generator: Adobe Illustrator 24.0.2, SVG Export Plug-In . SVG Version: 6.00 Build 0)  -->
<svg version="1.1" id="圖層_1" xmlns="http://www.w3.org/2000/svg" xmlns:xlink="http://www.w3.org/1999/xlink" x="0px" y="0px"
	 viewBox="0 0 100 100" style="enable-background:new 0 0 100 100;" xml:space="preserve">
<path d="M47,23.1c2.9,0,5.3,2.4,5.3,5.3V49H73c2.9,0,5.3,2.4,5.3,5.3c0,2.9-2.4,5.3-5.3,5.3H47.1c-0.4,0-0.8-0.1-1.2-0.1
	c-2.4-0.5-4.2-2.6-4.2-5.2V28.4C41.7,25.5,44.1,23.1,47,23.1z M50,13.1c-9.5,0-18.9,3.6-26.1,10.8c-14.4,14.4-14.4,37.8,0,52.2
	c7,7,16.2,10.8,26.1,10.8s19.1-3.8,26.1-10.8c14.4-14.4,14.4-37.8,0-52.2C68.9,16.7,59.5,13.1,50,13.1z M16.4,16.4
	c18.5-18.5,48.6-18.5,67.2,0c18.5,18.5,18.5,48.6,0,67.2c-9,9-20.9,13.9-33.6,13.9c-12.7,0-24.6-4.9-33.6-13.9
	C-2.1,65.1-2.1,34.9,16.4,16.4z"/>
</svg>
