<?xml version="1.0" encoding="utf-8"?>
<!-- Generator: Adobe Illustrator 27.0.0, SVG Export Plug-In . SVG Version: 6.00 Build 0)  -->
<svg version="1.1" id="圖層_1" xmlns="http://www.w3.org/2000/svg" xmlns:xlink="http://www.w3.org/1999/xlink" x="0px" y="0px"
	 viewBox="0 0 100 100" style="enable-background:new 0 0 100 100;" xml:space="preserve">
<style type="text/css">
	.st0{fill-rule:evenodd;clip-rule:evenodd;}
</style>
<path class="st0" d="M75.3,0c6.4,0,11.5,5.2,11.5,11.5c0,6.4-5.2,11.5-11.5,11.5c-6.4,0-11.5-5.2-11.5-11.5C63.8,5.2,68.9,0,75.3,0z
	 M25.3,0c6.4,0,11.5,5.2,11.5,11.5c0,6.4-5.2,11.5-11.5,11.5c-6.4,0-11.5-5.2-11.5-11.5C13.8,5.2,18.9,0,25.3,0z M76.6,28.2
	c11.3,0,20.5,9.2,20.5,20.5V71c0,3.5-2.9,6.4-6.4,6.4h-4.3v16.2c0,3.5-2.9,6.4-6.4,6.4h-6.8c-3.5,0-6.4-2.9-6.4-6.4V77.4l-4.3-0.1
	c-3.5,0-6.3-2.9-6.3-6.4l0-22.2C56.1,37.4,65.3,28.2,76.6,28.2z M34.1,28.2c2.9,0,5.4,2,6.2,4.8l9.7,36.3c0.1,0.5,0.2,1.1,0.2,1.7
	c0,3.5-2.9,6.4-6.4,6.4h-9.3v16.2c0,3.5-2.9,6.4-6.4,6.4h-2.7c-3.5,0-6.4-2.9-6.4-6.4V77.4l-9.7,0c-0.6,0-1.1-0.1-1.7-0.2
	c-3.4-0.9-5.4-4.5-4.5-7.9L13,32.9c0.8-2.8,3.3-4.7,6.2-4.7H34.1z"/>
</svg>
