<?xml version="1.0" encoding="utf-8"?>
<!-- Generator: Adobe Illustrator 27.0.0, SVG Export Plug-In . SVG Version: 6.00 Build 0)  -->
<svg version="1.1" id="圖層_1" xmlns="http://www.w3.org/2000/svg" xmlns:xlink="http://www.w3.org/1999/xlink" x="0px" y="0px"
	 viewBox="0 0 100 100" style="enable-background:new 0 0 100 100;" xml:space="preserve">
<style type="text/css">
	.st0{fill-rule:evenodd;clip-rule:evenodd;}
</style>
<path class="st0" d="M50,0c12,0,23,4.6,31.8,12.5c8.8,7.9,15.3,19,18.1,31.8c0.5,2.1-0.8,4.3-2.9,4.7C96.8,49,96.6,49,96.4,49
	c-3.6,0.2-7.1,1-10.4,2.3c-3.4,1.4-6.6,3.3-9.4,5.6c-1.4,1.1-3.4,1.1-4.8,0c-3.1-2.6-6.6-4.6-10.3-6c-2.5-0.8-5-1.5-7.6-1.8V89
	c0,6-4.9,11-10.6,11c-5.9,0-10.7-5-10.7-11c0-2.2,1.7-4,3.8-4c2.1,0,3.9,1.8,3.9,4c0,1.7,1.3,3.1,3,3.1c1.6,0,2.9-1.4,2.9-3.1V49.2
	c-2.6,0.3-5.1,1-7.6,1.8c-3.7,1.4-7.2,3.4-10.3,6c-1.5,1.2-3.6,1.1-4.9-0.2c-2.8-2.3-6-4.2-9.3-5.5C10.7,50,7.2,49.3,3.6,49
	c-2.1-0.1-3.7-2-3.6-4.2c0-0.3,0.1-0.6,0.1-0.8c2.8-12.7,9.3-23.7,18-31.6C27,4.6,38,0,50,0 M58.6,8.9L58.6,8.9
	c4.6,5.1,8.1,10.7,10.9,16.6c3.2,7,5.1,14.5,6.3,22.3c2.3-1.5,4.9-2.8,7.5-3.8c2.6-1.1,5.3-1.9,8.1-2.3c-2.8-9.3-7.9-17.3-14.5-23.3
	C71.6,13.8,65.3,10.4,58.6,8.9 M70.9,46.8L70.9,46.8c-1.1-6.8-2.9-13.3-5.7-19.3C62,20.3,57.4,13.8,51,7.9l-1,0l-1,0
	c-6.4,5.8-11,12.4-14.2,19.6c-2.7,6-4.5,12.5-5.7,19.3c2.2-1.3,4.5-2.4,7-3.3c9-3.3,18.9-3.3,28,0C66.4,44.4,68.7,45.5,70.9,46.8
	 M24.3,47.9L24.3,47.9c1.2-7.8,3.2-15.3,6.4-22.3c2.7-5.9,6.2-11.6,10.8-16.6c-6.7,1.5-13,4.9-18.2,9.5
	c-6.6,5.9-11.7,13.9-14.5,23.2c2.8,0.5,5.5,1.3,8.1,2.4C19.4,45,21.9,46.3,24.3,47.9"/>
</svg>
