<?xml version="1.0" encoding="utf-8"?>
<!-- Generator: Adobe Illustrator 27.0.0, SVG Export Plug-In . SVG Version: 6.00 Build 0)  -->
<svg version="1.1" id="圖層_1" xmlns="http://www.w3.org/2000/svg" xmlns:xlink="http://www.w3.org/1999/xlink" x="0px" y="0px"
	 viewBox="0 0 100 100" style="enable-background:new 0 0 100 100;" xml:space="preserve">
<style type="text/css">
	.st0{fill-rule:evenodd;clip-rule:evenodd;}
</style>
<path class="st0" d="M66.8,19.5c-2-1.1-2.6-3.8-1.5-5.8l3.4-5.9c1.1-2,3.8-2.6,5.8-1.5l1.2,0.8c2,1.1,2.6,3.8,1.5,5.7l-3.4,5.8
	c-1.1,2-3.8,2.6-5.8,1.5L66.8,19.5z M33.2,80.5c2,1.1,2.6,3.8,1.5,5.7l-3.4,5.9c-1.1,2-3.8,2.6-5.8,1.5l-1.2-0.7
	c-2-1.1-2.6-3.8-1.5-5.8l3.4-5.9c1.1-2,3.8-2.6,5.8-1.5L33.2,80.5z M80.5,33.2L79.8,32c-1.1-2-0.5-4.5,1.5-5.8l5.9-3.4
	c2-1.1,4.5-0.5,5.8,1.5l0.8,1.2c1.1,2,0.5,4.5-1.5,5.8l-5.9,3.4C84.2,35.9,81.6,35.2,80.5,33.2z M19.5,66.8l0.8,1.2
	c1.1,2,0.5,4.5-1.5,5.7l-5.9,3.4c-2,1.1-4.5,0.5-5.8-1.5l-0.8-1.2c-1.1-2-0.5-4.5,1.5-5.7l5.9-3.4C15.7,64.1,18.4,64.7,19.5,66.8z
	 M95.9,45.1c2.3,0,4.1,1.9,4.1,4.1v1.5c0,2.2-1.9,4.1-4.1,4.1H89c-2.2,0-4.1-1.9-4.1-4.1v-1.5c0-2.2,1.9-4.1,4.1-4.1H95.9z
	 M15.1,50.7c0,2.2-1.9,4.1-4.1,4.1H4.1C1.9,54.9,0,53,0,50.7v-1.5c0-2.2,1.9-4.1,4.1-4.1H11c2.2,0,4.1,1.9,4.1,4.1V50.7z M92.1,68.6
	c2,1.1,2.6,3.8,1.5,5.7l-0.8,1.2c-1.1,2-3.8,2.6-5.8,1.5l-5.7-3.4c-2-1.1-2.6-3.8-1.5-5.7l0.8-1.2c1.1-2,3.8-2.6,5.8-1.5L92.1,68.6z
	 M18.6,26.2c2,1.1,2.6,3.8,1.5,5.7l-0.8,1.2c-1.1,2-3.7,2.6-5.8,1.5l-5.9-3.4c-2-1.1-2.6-3.8-1.5-5.8L7,24.4c1.1-2,3.8-2.6,5.7-1.5
	L18.6,26.2z M73.8,81.4l3.4,5.9c1.1,2,0.5,4.5-1.5,5.7l-1.2,0.8c-2,1.1-4.5,0.5-5.8-1.5l-3.4-6c-1.1-2-0.5-4.5,1.5-5.7l1.2-0.8
	C70,78.6,72.6,79.4,73.8,81.4z M26.2,18.6l-3.4-5.9c-1.1-2-0.5-4.5,1.5-5.8l1.2-0.8c2-1.1,4.5-0.5,5.7,1.5l3.4,5.9
	c1.1,2,0.5,4.5-1.5,5.8L32,20.1C30,21.4,27.4,20.6,26.2,18.6z M50.7,84.9c2.2,0,4.1,1.9,4.1,4.1v6.9c0,2.3-1.9,4.1-4.1,4.1h-1.5
	c-2.2,0-4.1-1.9-4.1-4.1V89c0-2.2,1.9-4.1,4.1-4.1H50.7z M49.2,15.1c-2.2,0-4.1-1.9-4.1-4.1V4.1C45.1,1.9,47,0,49.2,0h1.5
	c2.2,0,4.1,1.9,4.1,4.1V11c0,2.2-1.9,4.1-4.1,4.1H49.2z M50,21c16,0,29,13,29,29S66,79,50,79S21,66,21,50S34,21,50,21z"/>
</svg>
