<?xml version="1.0" encoding="utf-8"?>
<!-- Generator: Adobe Illustrator 27.0.0, SVG Export Plug-In . SVG Version: 6.00 Build 0)  -->
<svg version="1.1" id="圖層_1" xmlns="http://www.w3.org/2000/svg" xmlns:xlink="http://www.w3.org/1999/xlink" x="0px" y="0px"
	 viewBox="0 0 100 100" style="enable-background:new 0 0 100 100;" xml:space="preserve">
<style type="text/css">
	.st0{fill:#6A9C78;}
</style>
<g>
	<path class="st0" d="M43.5,61.2l17.3-9.5c1.3-0.7,1.3-2.6,0-3.3l-17.3-9.5c-1.3-0.7-3,0.2-3,1.7v19C40.5,61,42.1,61.9,43.5,61.2z"
		/>
	<path class="st0" d="M95.4,12H4.6c-2.5,0-4.6,2-4.6,4.4v67.3C0,86.1,2.1,88,4.6,88h90.8c2.5,0,4.6-2,4.6-4.4V16.3
		C100,13.9,97.9,12,95.4,12z M17.8,79.3H9.2v-7.8h8.6V79.3z M17.8,62.7H9.2v-7.9h8.6V62.7z M17.8,46H9.2v-7.9h8.6V46z M17.8,29.4
		H9.2v-8.7h8.6V29.4z M73,79.3H27V20.7h46V79.3z M90.8,79.3h-8.6v-7.8h8.6V79.3z M90.8,62.7h-8.6v-7.9h8.6V62.7z M90.8,46h-8.6v-7.9
		h8.6V46z M90.8,29.4h-8.6v-8.7h8.6V29.4z"/>
</g>
</svg>
