<?xml version="1.0" encoding="utf-8"?>
<!-- Generator: Adobe Illustrator 27.0.0, SVG Export Plug-In . SVG Version: 6.00 Build 0)  -->
<svg version="1.1" id="圖層_1" xmlns="http://www.w3.org/2000/svg" xmlns:xlink="http://www.w3.org/1999/xlink" x="0px" y="0px"
	 viewBox="0 0 100 100" style="enable-background:new 0 0 100 100;" xml:space="preserve">
<path id="Shape" d="M50,20.1c-19.2,0-36.5,10.2-49.1,27.5c-1.2,1.2-1.2,3.6,0,4.8C13.5,69.2,30.8,79.9,50,79.9s36.5-10.2,49.1-27.5
	c1.2-1.2,1.2-3.6,0-4.8C86.5,30.2,69.2,20.1,50,20.1z M51.8,71c-12.6,0.6-23.4-9.6-22.2-22.2c0.6-10.2,9-19.2,19.8-19.8
	c12.6-0.6,23.4,9.6,22.2,22.2C70.4,61.4,62,69.8,51.8,71z M50.6,60.8c-6.6,0.6-12.6-5.4-12-12c0.6-5.4,4.8-10.2,10.8-10.8
	c6.6-0.6,12.6,5.4,12,12C60.8,56,56.6,60.8,50.6,60.8z"/>
</svg>
