<?xml version="1.0" encoding="utf-8"?>
<!-- Generator: Adobe Illustrator 24.0.1, SVG Export Plug-In . SVG Version: 6.00 Build 0)  -->
<svg version="1.1" id="圖層_1" xmlns="http://www.w3.org/2000/svg" xmlns:xlink="http://www.w3.org/1999/xlink" x="0px" y="0px"
	 viewBox="0 0 100 100" style="enable-background:new 0 0 100 100;" xml:space="preserve">
<style type="text/css">
	.st0{fill-rule:evenodd;clip-rule:evenodd;}
</style>
<path class="st0" d="M50,33.6c3.3,0,5,1.1,5,3.4c0,0.6,0,1.3-0.1,2l-1.6,16.1c-0.2,1.7-1,2.5-2.4,2.5h-2c-1.4,0-2.2-0.8-2.4-2.5
	L45.1,39c-0.1-1-0.2-1.7-0.2-2C45,34.7,46.7,33.6,50,33.6z M50,60.9c1.3,0,2.4,0.5,3.4,1.4c0.9,0.9,1.4,2.1,1.4,3.4S54.2,68,53.3,69
	c-0.9,0.9-2.1,1.4-3.4,1.4c-1.3,0-2.4-0.5-3.3-1.4c-0.9-0.9-1.4-2.1-1.4-3.4s0.5-2.4,1.4-3.4C47.6,61.3,48.7,60.9,50,60.9z
	 M54.6,19.9c-2.1-3.4-7.1-3.4-9.2,0L13.8,70.4c-2.3,3.6,0.3,8.3,4.6,8.3h63.2c4.3,0,6.8-4.7,4.6-8.3L54.6,19.9z M88,0
	c6.6,0,12,5.4,12,12v76c0,6.6-5.4,12-12,12H12c-6.6,0-12-5.4-12-12V12C0,5.4,5.4,0,12,0H88z"/>
</svg>
