<?xml version="1.0" encoding="utf-8"?>
<!-- Generator: Adobe Illustrator 24.0.2, SVG Export Plug-In . SVG Version: 6.00 Build 0)  -->
<svg version="1.1" id="圖層_1" xmlns="http://www.w3.org/2000/svg" xmlns:xlink="http://www.w3.org/1999/xlink" x="0px" y="0px"
	 viewBox="0 0 100 100" style="enable-background:new 0 0 100 100;" xml:space="preserve">
<style type="text/css">
	.st0{fill-rule:evenodd;clip-rule:evenodd;stroke:#FFFFFF;stroke-miterlimit:10;}
</style>
<title>fast-09</title>
<path class="st0" d="M50,32.3c3.6,0,5.4,1.3,5.4,4c0,0.8,0,1.5-0.1,2.4l-1.7,19c-0.2,2-1,3-2.6,3l-2.1,0c-1.5,0-2.4-1-2.6-3l-1.7-19
	c-0.1-1.2-0.2-2-0.2-2.4C44.6,33.7,46.4,32.3,50,32.3z M49.9,64.6c1.4,0,2.6,0.6,3.6,1.7c1,1.1,1.5,2.4,1.5,4c0,1.5-0.5,2.9-1.5,4
	c-1,1.1-2.2,1.7-3.6,1.7c-1.4,0-2.6-0.6-3.6-1.7c-1-1.1-1.5-2.4-1.5-4c0-1.5,0.5-2.9,1.5-4C47.4,65.1,48.6,64.6,49.9,64.6z M50,16.2
	c-0.5,0-1.8,0.1-2.6,1.5L9.7,79.1c-0.9,1.4-0.3,2.7-0.1,3.2c0.3,0.5,1,1.6,2.7,1.6l75.4,0c1.6,0,2.4-1.1,2.7-1.6
	c0.3-0.5,0.8-1.8-0.1-3.2L52.6,17.6C51.8,16.3,50.5,16.2,50,16.2z M50,9.2c3.4,0,6.5,1.8,8.4,4.7L96,75.4c1.9,3.1,2,7,0.3,10.2
	c-1.8,3.2-5,5.2-8.6,5.2l-75.4,0c-3.6,0-6.9-1.9-8.6-5.2C1.9,82.3,2,78.5,4,75.4L41.6,14C43.5,11,46.6,9.2,50,9.2z"/>
</svg>
