<?xml version="1.0" encoding="utf-8"?>
<!-- Generator: Adobe Illustrator 24.0.1, SVG Export Plug-In . SVG Version: 6.00 Build 0)  -->
<svg version="1.1" id="圖層_1" xmlns="http://www.w3.org/2000/svg" xmlns:xlink="http://www.w3.org/1999/xlink" x="0px" y="0px"
	 viewBox="0 0 100 100" style="enable-background:new 0 0 100 100;" xml:space="preserve">
<title>fast-09</title>
<path d="M73.6,50.3c-1.3-0.4-2.4-0.7-1.6-2.6c1.6-4,1.7-7.5,0-10c-3.3-4.6-11.9-4.4-21.9-0.1c0,0-3.1,1.3-2.4-1.1
	c1.6-5.1,1.3-9.3-1.1-11.7c-5.4-5.5-19.8,0.2-32.1,12.8C5.4,47,0,57.1,0,65.8c0,16.6,20.8,27.7,41.1,27.7
	c26.6,0,44.3-16.8,44.3-29.4C85.4,56.3,79.2,52.1,73.6,50.3z M41.2,86C25,87.7,11,80.2,10,69.5S21.2,48.7,37.4,47
	c16.2-1.6,30.2,5.8,31.2,16.5C69.7,74.3,57.4,84.4,41.2,86z M100,36.8c0-16.7-13.5-30.3-30.1-30.3c-1.9,0-3.5,1.6-3.5,3.6
	c0,1.9,1.6,3.6,3.5,3.6C82.7,13.7,93,24.1,93,36.9c0,1.9,1.6,3.6,3.5,3.6C98.4,40.5,100,38.7,100,36.8L100,36.8z M86.1,36.3
	c-1.6-7.9-7.7-14.1-15.6-15.7c-1.9-0.3-3.8,0.9-4.2,2.8s0.8,3.8,2.7,4.2c5.1,1,9.1,5.1,10.2,10.2c0.3,1.9,2.2,3.1,4.2,2.8
	C85.2,40.1,86.4,38.2,86.1,36.3z M32.9,57.6C26.4,58.9,22,64.4,23,69.9c1.1,5.5,7.3,8.9,13.8,7.5s10.9-6.8,9.9-12.3
	C45.6,59.6,39.4,56.2,32.9,57.6z"/>
</svg>
