<?xml version="1.0" encoding="utf-8"?>
<!-- Generator: Adobe Illustrator 21.0.0, SVG Export Plug-In . SVG Version: 6.00 Build 0)  -->
<svg version="1.1" id="圖層_1" xmlns="http://www.w3.org/2000/svg" xmlns:xlink="http://www.w3.org/1999/xlink" x="0px" y="0px"
	 viewBox="0 0 100 100" style="enable-background:new 0 0 100 100;" xml:space="preserve">
<style type="text/css">
	.st0{fill:#231815;}
</style>
<title>traffic-map-icom</title>
<g>
	<path class="st0" d="M92,91.8H75.9c0.1-18-7-35.4-19.8-48C43.4,31,26,23.8,8,24V7.8h5c6.7,0.4,13.4,1.6,19.8,3.7
		c16,5,30.2,14.7,40.7,27.9c6.9,8.4,12,18.1,15.1,28.6c1.7,5.6,2.9,11.3,3.4,17.1v7.1V91.8z"/>
	<path class="st0" d="M63.4,91.8H47.3c0-21.7-17.6-39.3-39.3-39.3c0,0,0,0,0,0V36.4c30.4-0.2,55.3,24.3,55.4,54.8
		C63.4,91.4,63.4,91.6,63.4,91.8z"/>
	<path class="st0" d="M30.5,80.7c0,6.1-5,11.1-11.1,11.1s-11.1-5-11.1-11.1c0-6,4.8-10.9,10.8-11.1c6.1-0.2,11.2,4.6,11.4,10.7
		C30.5,80.5,30.5,80.6,30.5,80.7z"/>
</g>
</svg>
