<svg xmlns="http://www.w3.org/2000/svg" viewBox="0 0 100 100"><title>05</title><g id="note"><path d="M91.12,34.11a13.25,13.25,0,0,0-9.38-3.91h-.48a18.51,18.51,0,0,0-6.07-6.57A18,18,0,0,0,52.69,26a17.84,17.84,0,0,0-4.48,7.54,27.22,27.22,0,0,0-3-2.3,26.07,26.07,0,1,0-14.16,48H54.7A19.12,19.12,0,0,0,73.61,56.76h8.12a13.27,13.27,0,0,0,9.38-22.65ZM64.27,69.59a13.5,13.5,0,0,1-9.57,4H31.06a20.38,20.38,0,0,1,0-40.77A20.48,20.48,0,0,1,42.12,36,21.12,21.12,0,0,1,49,43.51a5.69,5.69,0,0,0,5,3h.16l.61,0a13.56,13.56,0,0,1,9.5,23.12Z"/></g></svg>