<svg xmlns="http://www.w3.org/2000/svg" viewBox="0 0 100 100"><title>06</title><g id="note"><path d="M89.12,34.11a13.25,13.25,0,0,0-9.38-3.91h-.48a18.51,18.51,0,0,0-6.07-6.57A18,18,0,0,0,50.69,26a17.84,17.84,0,0,0-4.48,7.54,27.22,27.22,0,0,0-3-2.3,26.07,26.07,0,1,0-14.16,48H52.7A19.12,19.12,0,0,0,71.61,56.76h8.12a13.27,13.27,0,0,0,9.38-22.65Zm-3.77,15a7.91,7.91,0,0,1-5.61,2.33H69.86A19.2,19.2,0,0,0,52.7,40.77l-.7,0c-.38-.69-.8-1.36-1.24-2h0A12.65,12.65,0,0,1,63.41,26.1a12.72,12.72,0,0,1,6.86,2,13.16,13.16,0,0,1,4.29,4.65,5.35,5.35,0,0,0,4.7,2.79h.55a7.94,7.94,0,0,1,5.54,13.54Z"/></g></svg>