<svg xmlns="http://www.w3.org/2000/svg" viewBox="0 0 100 100"><title>03</title><g id="note"><path d="M41.4,26.69a2.86,2.86,0,0,1,0,4,2.8,2.8,0,0,1-4,0l-5.94-5.92a2.83,2.83,0,0,1,0-4,2.87,2.87,0,0,1,4,0l5.94,5.92Zm-8.22,7.14h0a28.17,28.17,0,1,0,0,56.35H58.72a20.8,20.8,0,0,0,17-32.7,18.09,18.09,0,0,0,1.77-3.95,20.36,20.36,0,0,0,1-6.4,20.72,20.72,0,0,0-6.06-14.68h0A20.65,20.65,0,0,0,47.3,29.17l-.2.12A21.07,21.07,0,0,0,41,34.92a27.25,27.25,0,0,0-7.77-1.1Zm13.28,3.29h0A16.63,16.63,0,0,1,50,34.19l.16-.08a15,15,0,0,1,18.2,2.36h0A15,15,0,0,1,72.8,47.12a14.54,14.54,0,0,1-.73,4.64c-.12.45-.3.87-.45,1.3a20.93,20.93,0,0,0-12.89-4.45H58a28.64,28.64,0,0,0-9.52-10.27c-.65-.43-1.3-.83-2-1.22ZM83.77,50h0a2.87,2.87,0,1,1,0-5.73h8.38a2.87,2.87,0,0,1,0,5.73ZM78.16,30.75h0a2.87,2.87,0,1,1-4-4.07l5.94-5.92a2.89,2.89,0,0,1,4,0,2.82,2.82,0,0,1,0,4l-5.94,5.94ZM60.61,21.14h0a2.86,2.86,0,0,1-5.71,0V12.72a2.86,2.86,0,1,1,5.71,0v8.42Zm-15.27,22h0a22.11,22.11,0,0,1,8.32,9.64,2.91,2.91,0,0,0,3,1.69c.3,0,.67-.06,1-.1s.63,0,1,0a15.06,15.06,0,1,1,0,30.12H33.18a22.45,22.45,0,0,1,0-44.9,22.08,22.08,0,0,1,12.16,3.6Z"/></g></svg>