<svg xmlns="http://www.w3.org/2000/svg" viewBox="0 0 100 100"><title>01</title><g id="note"><path d="M50,24.92a25.08,25.08,0,1,1-17.74,7.34A25,25,0,0,1,50,24.92Zm-19.78.44h0l-7.12-7.15a3.46,3.46,0,0,0-4.91,4.86l7.17,7.17a3.45,3.45,0,0,0,4.86-4.89ZM18.56,46.54h0a3.47,3.47,0,1,1,0,6.95H8.44a3.48,3.48,0,0,1,0-6.95Zm6.78,23.24h0l-7.17,7.15a3.48,3.48,0,0,0,0,4.91,3.53,3.53,0,0,0,4.91,0l7.12-7.17a3.45,3.45,0,0,0-4.86-4.89ZM46.51,81.42h0a3.46,3.46,0,0,1,6.93,0V91.54a3.46,3.46,0,0,1-6.93,0V81.42Zm23.24-6.76h0l7.17,7.17a3.46,3.46,0,1,0,4.89-4.91l-7.17-7.15a3.45,3.45,0,0,0-4.89,0,3.5,3.5,0,0,0,0,4.89ZM81.39,53.49h0a3.48,3.48,0,0,1,0-6.95H91.51a3.47,3.47,0,1,1,0,6.95ZM74.64,30.25h0l7.17-7.17a3.45,3.45,0,1,0-4.89-4.86l-7.17,7.15a3.5,3.5,0,0,0,0,4.89,3.41,3.41,0,0,0,4.89,0ZM53.44,18.61h0a3.46,3.46,0,0,1-6.93,0V8.46a3.46,3.46,0,0,1,6.93,0V18.61Zm9.38,18.55h0A18.18,18.18,0,1,0,68.15,50a18.07,18.07,0,0,0-5.33-12.9Z"/></g></svg>