<svg xmlns="http://www.w3.org/2000/svg" viewBox="0 0 100 100"><title>09</title><g id="note"><path d="M91.12,29.87A13.25,13.25,0,0,0,81.74,26h-.48a18.51,18.51,0,0,0-6.07-6.57,18,18,0,0,0-22.5,2.39,17.84,17.84,0,0,0-4.48,7.54,27.22,27.22,0,0,0-3-2.3A26.07,26.07,0,0,0,12.64,67.37c.33.33,2.77,1.62,4.14,0a2.92,2.92,0,0,0-.12-4,20.38,20.38,0,0,1,14.4-34.8A20.48,20.48,0,0,1,42.12,31.8,21.12,21.12,0,0,1,49,39.27a5.69,5.69,0,0,0,5,3h.16l.61,0A13.63,13.63,0,0,1,66,48.34a12.21,12.21,0,0,1,1.67,3.58,13.55,13.55,0,0,1-13,17.39A2.57,2.57,0,0,0,52,72.23,2.62,2.62,0,0,0,54.7,75,19.12,19.12,0,0,0,73.61,52.52h8.12a13.27,13.27,0,0,0,9.38-22.65Z"/><path d="M28,59.33a2.6,2.6,0,0,0-3.56.95L13.31,79.56a2.59,2.59,0,0,0,.93,3.56,2.64,2.64,0,0,0,3.6-.93L29,62.89A2.63,2.63,0,0,0,28,59.33Z"/><path d="M39.74,59.33a2.6,2.6,0,0,0-3.56.95L25,79.56a2.61,2.61,0,0,0,1,3.56,2.58,2.58,0,0,0,3.56-.93l11.14-19.3A2.61,2.61,0,0,0,39.74,59.33Z"/><path d="M51.44,59.33a2.62,2.62,0,0,0-3.56.95L36.74,79.56a2.62,2.62,0,0,0,.95,3.56,2.59,2.59,0,0,0,3.56-.93L52.4,62.89A2.63,2.63,0,0,0,51.44,59.33Z"/></g></svg>