<svg xmlns="http://www.w3.org/2000/svg" viewBox="0 0 100 100"><title>02</title><g id="note"><path d="M66,50a22,22,0,1,1-6.45-15.57A21.94,21.94,0,0,1,66,50Zm-.39-17.36h0l6.27-6.25a3,3,0,1,0-4.27-4.31l-6.29,6.3a3,3,0,0,0,4.29,4.27ZM47,22.4h0a3.05,3.05,0,1,1-6.1,0V13.52a3.05,3.05,0,0,1,6.1,0V22.4Zm-20.4,6h0l-6.27-6.3a3.06,3.06,0,0,0-4.31,0,3.1,3.1,0,0,0,0,4.31l6.3,6.25a3,3,0,0,0,4.29-4.27ZM16.42,46.94h0a3,3,0,0,1,0,6.08H7.54a3,3,0,0,1,0-6.08Zm5.93,20.4h0l-6.3,6.3a3,3,0,1,0,4.31,4.29l6.27-6.3a3,3,0,0,0,0-4.29,3.07,3.07,0,0,0-4.29,0ZM40.94,77.56h0a3.05,3.05,0,0,1,6.1,0v8.88a3.05,3.05,0,1,1-6.1,0V77.56Zm14.34-16.3h0A16,16,0,1,0,44,65.93a15.86,15.86,0,0,0,11.32-4.68Z"/><path d="M91.38,56.15A14,14,0,0,0,81.44,52h-.51a19.62,19.62,0,0,0-6.43-7,18.91,18.91,0,0,0-13.78-2.74c.21,1.84.51,3.7.72,5.54a13.51,13.51,0,0,1,10.73,1.75,13.74,13.74,0,0,1,5.06,5.89,1.77,1.77,0,0,0,1.84,1l.59-.06.64,0a9.16,9.16,0,0,1,0,18.31H64.76a13.6,13.6,0,0,1-9.63-4,13.78,13.78,0,0,1-3-4.53,48.36,48.36,0,0,1-5.45,2.54A19.07,19.07,0,0,0,64.13,80.17H81.44a14.07,14.07,0,0,0,9.94-24Z"/></g></svg>