<svg xmlns="http://www.w3.org/2000/svg" viewBox="0 0 100 100"><title>08</title><g id="note"><path d="M42.36,25.09a2.59,2.59,0,0,1,0,3.61,2.62,2.62,0,0,1-3.63,0l-5.26-5.31a2.54,2.54,0,1,1,3.61-3.58l5.28,5.28ZM21,70.57h0A20.1,20.1,0,0,1,16.6,64.1v0a20.36,20.36,0,0,1,0-15.25l.05-.11A20.13,20.13,0,0,1,27.42,38l.13-.05a19.88,19.88,0,0,1,7.52-1.45,20.15,20.15,0,0,1,5.73.83A20.72,20.72,0,0,1,46,39.78a21.06,21.06,0,0,1,4.25,3.74v0a20.8,20.8,0,0,1,3,4.75,2.5,2.5,0,0,0,2.6,1.48l.47-.06.51,0,.09,0,.36,0h.41a13.6,13.6,0,0,1,5.13,1,13.06,13.06,0,0,1,4.34,2.91,13.31,13.31,0,0,1,2.93,4.34,13.59,13.59,0,0,1,1,5.13,13.74,13.74,0,0,1-1,5.13,13.92,13.92,0,0,1-2.93,4.34,14.07,14.07,0,0,1-3.58,2.57h0a13.42,13.42,0,0,1-4.17,1.23,2.54,2.54,0,0,0,.63,5,18.92,18.92,0,0,0,5.82-1.73,18.51,18.51,0,0,0,4.9-3.53,18.81,18.81,0,0,0,4-6,18.32,18.32,0,0,0,0-14.09,19.71,19.71,0,0,0-2-3.54,18,18,0,0,0,2.49-9.22A18.48,18.48,0,0,0,56.88,24.76a18.65,18.65,0,0,0-9.27,2.49l-.2.14a18.39,18.39,0,0,0-5.44,5,25.82,25.82,0,0,0-6.9-1,24.68,24.68,0,0,0-9.47,1.86l-.11,0a25.58,25.58,0,0,0-8.13,5.44,24.81,24.81,0,0,0-5.38,8l-.07.16A25.11,25.11,0,0,0,11.9,66h0a25,25,0,0,0,5.46,8.13,2.51,2.51,0,0,0,3.6,0,2.54,2.54,0,0,0,0-3.6Zm25.89-36.2h0A12.13,12.13,0,0,1,50,31.77l.18-.11a13.15,13.15,0,0,1,6.7-1.81,13.44,13.44,0,0,1,9.45,3.9,13.41,13.41,0,0,1,3.29,13.62,10.47,10.47,0,0,1-.43,1.12,19.74,19.74,0,0,0-4.39-2.57,18.47,18.47,0,0,0-7.07-1.39v0h-.47l-.14,0a25.58,25.58,0,0,0-3-4.36h0a25.56,25.56,0,0,0-5.28-4.7,22.16,22.16,0,0,0-2-1.16ZM80,45.76h0a2.54,2.54,0,0,1,0-5.08h7.45a2.54,2.54,0,1,1,0,5.08ZM75,28.7h0a2.6,2.6,0,0,1-3.61,0,2.56,2.56,0,0,1,0-3.61l5.28-5.28a2.54,2.54,0,1,1,3.6,3.58L75,28.7ZM59.42,20.12h0a2.55,2.55,0,1,1-5.1,0V12.65a2.55,2.55,0,0,1,5.1,0v7.46ZM46.56,76.33h0A2.52,2.52,0,0,1,50,75.39a2.56,2.56,0,0,1,1,3.45l-.43.78a2.55,2.55,0,0,1-4.43-2.53l.45-.76Zm5.19-9h0a2.53,2.53,0,0,1,4.39,2.53l-.45.76a2.51,2.51,0,0,1-3.45.94,2.56,2.56,0,0,1-1-3.43l.47-.79Zm-10.37,18h0a2.53,2.53,0,0,1,3.45-.94,2.57,2.57,0,0,1,.94,3.47l-.43.8a2.55,2.55,0,0,1-4.41-2.55l.45-.78Zm-6.23-9h0a2.55,2.55,0,0,1,3.47-.94,2.5,2.5,0,0,1,.92,3.45l-.43.78a2.53,2.53,0,0,1-4.39-2.53l.43-.76Zm5.21-9h0a2.53,2.53,0,0,1,4.37,2.53l-.43.76a2.52,2.52,0,0,1-3.47.94,2.46,2.46,0,0,1-.9-3.43l.43-.79Zm-10.39,18h0a2.53,2.53,0,1,1,4.39,2.53l-.43.8a2.54,2.54,0,0,1-4.39-2.55l.43-.78Zm-6.2-9h0a2.52,2.52,0,1,1,4.37,2.51l-.43.78a2.54,2.54,0,0,1-4.41-2.53l.47-.76Zm5.17-9h0a2.53,2.53,0,0,1,4.37,2.53l-.43.76a2.52,2.52,0,0,1-3.47.94,2.49,2.49,0,0,1-.9-3.43l.43-.79Zm-10.37,18h0A2.54,2.54,0,1,1,23,87.83l-.47.8a2.53,2.53,0,0,1-4.37-2.55l.43-.78Z"/></g></svg>