<svg xmlns="http://www.w3.org/2000/svg" viewBox="0 0 100 100"><title>18</title><g id="note"><path d="M41.65,39.52a1.43,1.43,0,0,1-.37-2l8.43-12.35H39.78L31.43,41.44h8.42a2,2,0,0,1,.34,0,1.43,1.43,0,0,1,1,1.75l-3,11.95L51,39.77H42.44A1.43,1.43,0,0,1,41.65,39.52Z"/><path d="M80.12,34a20.05,20.05,0,0,0-14.19-5.92l-.73,0A28,28,0,0,0,56,18.18,27.24,27.24,0,1,0,41.22,68.3H65.93A20.08,20.08,0,0,0,80.12,34Zm-25,5.28L36.45,61.8A1.43,1.43,0,0,1,34,60.52L38,44.28H29.11a1.41,1.41,0,0,1-1.41-1.43,1.48,1.48,0,0,1,.22-.74l9.71-19a1.46,1.46,0,0,1,1.26-.77H52.4a1.42,1.42,0,0,1,1.43,1.4,1.61,1.61,0,0,1-.29.91L45.16,36.93H54a1.4,1.4,0,0,1,1.41,1.41A1.54,1.54,0,0,1,55.13,39.3Z"/><path d="M58.44,72.64h0a2.52,2.52,0,0,1,3.45-.94,2.56,2.56,0,0,1,1,3.45l-.43.78A2.55,2.55,0,0,1,58,73.4l.45-.76Z"/><path d="M63.63,63.64h0A2.53,2.53,0,0,1,68,66.17l-.45.76a2.51,2.51,0,0,1-3.45.94,2.56,2.56,0,0,1-1-3.43l.47-.79Z"/><path d="M53.25,81.6h0a2.53,2.53,0,0,1,3.45-.94,2.57,2.57,0,0,1,.94,3.47l-.43.8a2.55,2.55,0,0,1-4.41-2.55l.45-.78Z"/><path d="M47,72.64h0a2.55,2.55,0,0,1,3.47-.94,2.5,2.5,0,0,1,.92,3.45l-.43.78a2.53,2.53,0,0,1-4.39-2.53l.43-.76Z"/><path d="M52.22,63.64h0a2.53,2.53,0,0,1,4.37,2.53l-.43.76a2.52,2.52,0,0,1-3.47.94,2.46,2.46,0,0,1-.9-3.43l.43-.79Z"/><path d="M41.83,81.6h0a2.53,2.53,0,1,1,4.39,2.53l-.43.8a2.54,2.54,0,0,1-4.39-2.55l.43-.78Z"/><path d="M35.63,72.64h0A2.52,2.52,0,1,1,40,75.15l-.43.78a2.54,2.54,0,0,1-4.41-2.53l.47-.76Z"/><path d="M40.8,63.64h0a2.53,2.53,0,0,1,4.37,2.53l-.43.76a2.52,2.52,0,0,1-3.47.94,2.49,2.49,0,0,1-.9-3.43l.43-.79Z"/><path d="M30.43,81.6h0a2.54,2.54,0,1,1,4.41,2.53l-.47.8A2.53,2.53,0,0,1,30,82.38l.43-.78Z"/></g></svg>