<svg xmlns="http://www.w3.org/2000/svg" viewBox="0 0 100 100"><title>11</title><g id="note"><path d="M32.88,58a3.06,3.06,0,0,1,4.19-1.11,3.1,3.1,0,0,1,1.14,4.19L25.11,83.8a3.1,3.1,0,0,1-4.24,1.09,3.05,3.05,0,0,1-1.09-4.19L32.88,58Zm-9.69,4h0a25.1,25.1,0,0,1-5.24-7.82h0A24.15,24.15,0,0,1,16.16,45a23.9,23.9,0,0,1,1.79-9.24l.06-.15A24.24,24.24,0,0,1,31,22.67l.15-.09a24.46,24.46,0,0,1,9.08-1.75,25.33,25.33,0,0,1,6.94,1,24.07,24.07,0,0,1,6.29,2.95,23.51,23.51,0,0,1,5.11,4.52h0a22.87,22.87,0,0,1,3.62,5.76,3.1,3.1,0,0,0,3.19,1.77l.61,0,.57-.09h.59l.48,0v0a16.13,16.13,0,0,1,11.42,4.72,15.94,15.94,0,0,1,4.76,11.44,16.77,16.77,0,0,1-1.22,6.2,16.09,16.09,0,0,1-3.54,5.24,16.49,16.49,0,0,1-4.28,3.1h0a16.81,16.81,0,0,1-5,1.51A3.07,3.07,0,0,0,70.48,75a23.21,23.21,0,0,0,7-2.1v0a21.21,21.21,0,0,0,5.92-4.23,22.1,22.1,0,0,0,4.85-24.28,22.36,22.36,0,0,0-20.61-13.8H67.6l-.53,0H66.9a29.32,29.32,0,0,0-3.62-5.28v0A29.6,29.6,0,0,0,56.9,19.7a29.19,29.19,0,0,0-8-3.71,29.44,29.44,0,0,0-8.67-1.31,29.85,29.85,0,0,0-11.44,2.27l-.13,0a29.94,29.94,0,0,0-9.82,6.55,30.25,30.25,0,0,0-6.51,9.69l-.07.13a30.42,30.42,0,0,0,0,23.17v0a29.43,29.43,0,0,0,6.57,9.82,3,3,0,0,0,4.32,0,3,3,0,0,0,0-4.32Zm23.49-4h0L33.54,80.7a3.07,3.07,0,0,0,1.14,4.19,3,3,0,0,0,4.19-1.09L52,61.1A3.06,3.06,0,1,0,46.68,58Zm13.76,0h0a3.08,3.08,0,0,1,5.33,3.08L52.64,83.8a3,3,0,0,1-4.19,1.09,3.08,3.08,0,0,1-1.11-4.19L60.44,58Z"/></g></svg>