<svg xmlns="http://www.w3.org/2000/svg" viewBox="0 0 100 100"><title>14</title><g id="note"><path d="M40.25,9.73a30.31,30.31,0,0,1,16.44,4.85,31.12,31.12,0,0,1,10.2,11.05l.81,0a22.33,22.33,0,0,1,0,44.66H40.25a30.27,30.27,0,0,1,0-60.54Z"/><path d="M58.44,74h0a2.52,2.52,0,0,1,3.45-.94,2.56,2.56,0,0,1,1,3.45l-.43.78A2.55,2.55,0,0,1,58,74.78l.45-.76Z"/><path d="M63.63,65h0A2.53,2.53,0,0,1,68,67.55l-.45.76a2.51,2.51,0,0,1-3.45.94,2.56,2.56,0,0,1-1-3.43l.47-.79Z"/><path d="M53.25,83h0A2.53,2.53,0,0,1,56.7,82a2.57,2.57,0,0,1,.94,3.47l-.43.8a2.55,2.55,0,0,1-4.41-2.55l.45-.78Z"/><path d="M47,74h0a2.55,2.55,0,0,1,3.47-.94,2.5,2.5,0,0,1,.92,3.45l-.43.78a2.53,2.53,0,0,1-4.39-2.53L47,74Z"/><path d="M52.22,65h0a2.53,2.53,0,0,1,4.37,2.53l-.43.76a2.52,2.52,0,0,1-3.47.94,2.46,2.46,0,0,1-.9-3.43l.43-.79Z"/><path d="M41.83,83h0a2.53,2.53,0,1,1,4.39,2.53l-.43.8a2.54,2.54,0,0,1-4.39-2.55l.43-.78Z"/><path d="M35.63,74h0A2.52,2.52,0,1,1,40,76.53l-.43.78a2.54,2.54,0,0,1-4.41-2.53l.47-.76Z"/><path d="M40.8,65h0a2.53,2.53,0,0,1,4.37,2.53l-.43.76a2.52,2.52,0,0,1-3.47.94,2.49,2.49,0,0,1-.9-3.43L40.8,65Z"/><path d="M30.43,83h0a2.54,2.54,0,1,1,4.41,2.53l-.47.8A2.53,2.53,0,0,1,30,83.76l.43-.78Z"/></g></svg>