<svg xmlns="http://www.w3.org/2000/svg" viewBox="0 0 100 100"><title>12</title><g id="note"><path d="M57.58,84.49a2.77,2.77,0,1,1,4.82,2.73l-.49.85a2.73,2.73,0,0,1-3.78,1,2.79,2.79,0,0,1-1-3.79l.47-.79ZM35.26,68.37h0a2.77,2.77,0,1,1-3.91,3.93A27.43,27.43,0,0,1,25.4,42.45l.06-.12a27.35,27.35,0,0,1,14.76-14.7l.14,0a26.92,26.92,0,0,1,18.22-.87,27.31,27.31,0,0,1,13,8.5h0A25.23,25.23,0,0,1,74.79,40h.69v0a20.41,20.41,0,0,1,14.3,5.93,19.57,19.57,0,0,1,4.37,6.56,20.38,20.38,0,0,1,0,15.45,20.1,20.1,0,0,1-9.74,10.35v0A21,21,0,0,1,78,80.15a2.78,2.78,0,0,1-.67-5.51,15.55,15.55,0,0,0,4.54-1.36h0a15.08,15.08,0,0,0,3.89-2.81A14.82,14.82,0,0,0,89,65.72a14.61,14.61,0,0,0-3.18-16,14.61,14.61,0,0,0-10.35-4.27v0l-.4,0h-.55l-.51.08-.55.08v0A2.79,2.79,0,0,1,70.6,44a22.61,22.61,0,0,0-3.26-5.2v0h0a22.52,22.52,0,0,0-4.66-4.09A21.17,21.17,0,0,0,56.95,32a22.22,22.22,0,0,0-6.26-.93,22,22,0,0,0-8.2,1.58l-.12.08a21.48,21.48,0,0,0-7.11,4.74,21.84,21.84,0,0,0-4.66,6.94l-.08.14a22.13,22.13,0,0,0,0,16.72h0a22.38,22.38,0,0,0,4.74,7.07ZM44,64.78h0L32.15,85.28a2.79,2.79,0,0,0,1,3.79,2.72,2.72,0,0,0,3.75-1L48.85,67.54a2.83,2.83,0,0,0-1-3.79,2.8,2.8,0,0,0-3.79,1Zm12.47.06h0l-.51.85a2.78,2.78,0,0,0,4.82,2.77l.47-.85a2.78,2.78,0,0,0-1-3.79,2.73,2.73,0,0,0-3.75,1Zm-5.69,9.82h0l-.48.87a2.76,2.76,0,0,0,4.78,2.77l.51-.87a2.78,2.78,0,1,0-4.82-2.77Zm-5.65,9.84h0a2.75,2.75,0,1,1,4.78,2.73l-.47.85a2.77,2.77,0,1,1-4.78-2.79l.48-.79ZM68.92,64.84h0l-.47.85a2.74,2.74,0,0,0,1,3.77,2.79,2.79,0,0,0,3.79-1l.47-.85a2.78,2.78,0,0,0-4.82-2.77Zm-5.65,9.82h0l-.51.87a2.78,2.78,0,0,0,4.82,2.77l.5-.87a2.77,2.77,0,1,0-4.8-2.77Z"/><path d="M64.89,28.14l.07.13a21.34,21.34,0,0,1,1.34,5.19,37.82,37.82,0,0,1,5.32,3.86q0-.63,0-1.27a25.56,25.56,0,0,0-1.93-9.76l-.05-.11A25.45,25.45,0,0,0,55.94,12.49l-.13,0a25.05,25.05,0,0,0-17-.81A25.41,25.41,0,0,0,26.8,19.55a23.49,23.49,0,0,0-3,4.41h-.64v0A19,19,0,0,0,9.81,29.44a18.22,18.22,0,0,0-4.06,6.1,19,19,0,0,0,0,14.38A17.9,17.9,0,0,0,9.81,56a18,18,0,0,0,5,3.57v0a19.58,19.58,0,0,0,5.92,1.76,2.58,2.58,0,0,0,.63-5.13A14.47,14.47,0,0,1,17.12,55h0a14,14,0,0,1-3.62-2.61,13.79,13.79,0,0,1-3-4.41,13.59,13.59,0,0,1,3-14.86,13.6,13.6,0,0,1,9.63-4v0l.37,0H24l.48.07.51.07v0a2.6,2.6,0,0,0,2.67-1.49,21,21,0,0,1,3-4.84v0A21,21,0,0,1,35,19.07a19.7,19.7,0,0,1,5.33-2.48,20.67,20.67,0,0,1,5.83-.86,20.43,20.43,0,0,1,7.63,1.47l.11.07a20,20,0,0,1,6.62,4.41A20.32,20.32,0,0,1,64.89,28.14Z"/></g></svg>