<svg xmlns="http://www.w3.org/2000/svg" viewBox="0 0 100 100"><title>10</title><g id="分離模式"><path d="M91.12,25.79a13.25,13.25,0,0,0-9.38-3.91h-.48a18.51,18.51,0,0,0-6.07-6.57,18,18,0,0,0-22.5,2.39,17.84,17.84,0,0,0-4.48,7.54,27.22,27.22,0,0,0-3-2.3,26.07,26.07,0,1,0-14.16,48H54.7A19.12,19.12,0,0,0,73.61,48.45h8.12a13.27,13.27,0,0,0,9.38-22.65Zm-3.77,15a7.91,7.91,0,0,1-5.61,2.33H71.86A19.2,19.2,0,0,0,54.7,32.46l-.7,0c-.38-.69-.8-1.36-1.24-2h0A12.65,12.65,0,0,1,65.41,17.79a12.72,12.72,0,0,1,6.86,2,13.16,13.16,0,0,1,4.29,4.65,5.35,5.35,0,0,0,4.7,2.79h.55a7.94,7.94,0,0,1,5.54,13.54Z"/><path d="M51.44,74h0a2.52,2.52,0,0,1,3.45-.94,2.56,2.56,0,0,1,1,3.45l-.43.78A2.55,2.55,0,0,1,51,74.78l.45-.76Z"/><path d="M56.63,65h0A2.53,2.53,0,0,1,61,67.55l-.45.76a2.51,2.51,0,0,1-3.45.94,2.56,2.56,0,0,1-1-3.43l.47-.79Z"/><path d="M46.25,83h0A2.53,2.53,0,0,1,49.7,82a2.57,2.57,0,0,1,.94,3.47l-.43.8a2.55,2.55,0,0,1-4.41-2.55l.45-.78Z"/><path d="M40,74h0a2.55,2.55,0,0,1,3.47-.94,2.5,2.5,0,0,1,.92,3.45l-.43.78a2.53,2.53,0,0,1-4.39-2.53L40,74Z"/><path d="M45.22,65h0a2.53,2.53,0,0,1,4.37,2.53l-.43.76a2.52,2.52,0,0,1-3.47.94,2.46,2.46,0,0,1-.9-3.43l.43-.79Z"/><path d="M34.83,83h0a2.53,2.53,0,1,1,4.39,2.53l-.43.8a2.54,2.54,0,0,1-4.39-2.55l.43-.78Z"/><path d="M28.63,74h0A2.52,2.52,0,1,1,33,76.53l-.43.78a2.54,2.54,0,0,1-4.41-2.53l.47-.76Z"/><path d="M33.8,65h0a2.53,2.53,0,0,1,4.37,2.53l-.43.76a2.52,2.52,0,0,1-3.47.94,2.49,2.49,0,0,1-.9-3.43L33.8,65Z"/><path d="M23.43,83h0a2.54,2.54,0,1,1,4.41,2.53l-.47.8A2.53,2.53,0,0,1,23,83.76l.43-.78Z"/></g></svg>