<svg xmlns="http://www.w3.org/2000/svg" viewBox="0 0 100 100"><title>19</title><g id="分離模式"><path d="M34,20.41a15.6,15.6,0,1,1-11,4.57,15.55,15.55,0,0,1,11-4.57Zm-12.3.28h0l-4.43-4.45a2.15,2.15,0,0,0-3.06,3l4.46,4.46a2.14,2.14,0,0,0,3-3ZM14.44,33.86h0a2.16,2.16,0,1,1,0,4.32H8.14a2.16,2.16,0,0,1,0-4.32Zm4.22,14.46h0l-4.46,4.45a2.17,2.17,0,0,0,0,3.06,2.2,2.2,0,0,0,3.06,0l4.43-4.46a2.14,2.14,0,0,0-3-3Zm13.17,7.24h0a2.16,2.16,0,0,1,4.31,0v6.3a2.16,2.16,0,0,1-4.31,0v-6.3Zm21.7-17.38h0a2.16,2.16,0,0,1,0-4.32h6.3a2.16,2.16,0,1,1,0,4.32Zm-4.2-14.46h0l4.46-4.46a2.15,2.15,0,1,0-3-3l-4.46,4.45a2.18,2.18,0,0,0,0,3,2.12,2.12,0,0,0,3,0ZM36.14,16.49h0a2.16,2.16,0,0,1-4.31,0V10.17a2.16,2.16,0,0,1,4.31,0v6.31ZM42,28h0a11.31,11.31,0,1,0,3.32,8A11.24,11.24,0,0,0,42,28Z"/><path d="M65.74,88.3a2.05,2.05,0,1,1,3.58,2l-.37.63a2,2,0,0,1-2.8.75,2.07,2.07,0,0,1-.76-2.81l.35-.59Zm-16.56-12h0a2.06,2.06,0,0,1-2.9,2.92A20.35,20.35,0,0,1,41.86,57.1l0-.09A20.29,20.29,0,0,1,52.86,46.11l.1,0a20,20,0,0,1,13.51-.65,20.26,20.26,0,0,1,9.62,6.3h0a18.72,18.72,0,0,1,2.42,3.52H79v0a15.14,15.14,0,0,1,10.61,4.4,14.52,14.52,0,0,1,3.24,4.87,15.12,15.12,0,0,1,0,11.46,14.92,14.92,0,0,1-7.23,7.68v0a15.6,15.6,0,0,1-4.72,1.41,2.06,2.06,0,0,1-.5-4.09,11.54,11.54,0,0,0,3.37-1h0a11.19,11.19,0,0,0,2.89-2.08,11,11,0,0,0,2.36-3.52A10.84,10.84,0,0,0,86.7,62.53,10.84,10.84,0,0,0,79,59.36v0l-.29,0h-.41l-.38.06-.41.06v0a2.07,2.07,0,0,1-2.13-1.19A16.77,16.77,0,0,0,73,54.41h0a16.71,16.71,0,0,0-3.46-3,15.71,15.71,0,0,0-4.25-2,16.48,16.48,0,0,0-4.65-.69,16.29,16.29,0,0,0-6.08,1.17l-.09.06a15.93,15.93,0,0,0-5.28,3.52,16.2,16.2,0,0,0-3.46,5.15l-.06.1a16.42,16.42,0,0,0,0,12.4h0a16.6,16.6,0,0,0,3.52,5.25Zm6.49-2.67h0L46.88,88.88a2.07,2.07,0,0,0,.78,2.81,2,2,0,0,0,2.79-.75l8.82-15.23a2.1,2.1,0,0,0-.78-2.81,2.08,2.08,0,0,0-2.81.76Zm9.25,0h0l-.38.63a2.06,2.06,0,0,0,3.58,2.05l.35-.63a2.06,2.06,0,0,0-.76-2.81,2,2,0,0,0-2.79.76ZM60.7,81h0l-.35.65a2,2,0,0,0,3.55,2.05l.38-.65A2.06,2.06,0,1,0,60.7,81Zm-4.19,7.3h0a2,2,0,1,1,3.55,2l-.35.63a2.05,2.05,0,1,1-3.55-2.07l.35-.59ZM74.15,73.71h0l-.35.63a2,2,0,0,0,.76,2.8,2.07,2.07,0,0,0,2.81-.75l.35-.63a2.06,2.06,0,0,0-3.58-2.05ZM70,81h0l-.38.65a2.06,2.06,0,0,0,3.58,2.05l.37-.65A2.06,2.06,0,1,0,70,81Z"/></g></svg>