<svg xmlns="http://www.w3.org/2000/svg" viewBox="0 0 100 100"><title>13</title><g id="note"><path d="M54.58,73.63a2.81,2.81,0,0,0-3.79,1l-.48.87a2.76,2.76,0,0,0,4.78,2.77l.51-.87A2.81,2.81,0,0,0,54.58,73.63Z"/><path d="M48.93,83.43a2.79,2.79,0,0,0-3.79,1.07l-.48.79a2.77,2.77,0,1,0,4.78,2.79l.47-.85A2.79,2.79,0,0,0,48.93,83.43Z"/><path d="M60.78,68.45l.47-.85a2.78,2.78,0,0,0-1-3.79,2.73,2.73,0,0,0-3.75,1l-.51.85a2.78,2.78,0,0,0,4.82,2.77Z"/><path d="M47.8,63.75a2.8,2.8,0,0,0-3.79,1L32.15,85.28a2.79,2.79,0,0,0,1,3.79,2.72,2.72,0,0,0,3.75-1L48.85,67.54A2.83,2.83,0,0,0,47.8,63.75Z"/><path d="M72.71,63.81a2.78,2.78,0,0,0-3.79,1l-.47.85a2.74,2.74,0,0,0,1,3.77,2.79,2.79,0,0,0,3.79-1l.47-.85A2.78,2.78,0,0,0,72.71,63.81Z"/><path d="M61.38,83.43a2.8,2.8,0,0,0-3.79,1.07l-.47.79a2.79,2.79,0,0,0,1,3.79,2.73,2.73,0,0,0,3.78-1l.49-.85A2.79,2.79,0,0,0,61.38,83.43Z"/><path d="M94.15,52.41a19.57,19.57,0,0,0-4.37-6.56,20.41,20.41,0,0,0-14.3-5.93v0h-.69a25.16,25.16,0,0,0-3.15-4.6,25.55,25.55,0,0,0-1.91-9.08l-.05-.11A25.45,25.45,0,0,0,55.94,12.49l-.13,0a25.05,25.05,0,0,0-17-.81A25.41,25.41,0,0,0,26.8,19.55a23.49,23.49,0,0,0-3,4.41h-.64v0A19,19,0,0,0,9.81,29.44a18.22,18.22,0,0,0-4.06,6.1,19,19,0,0,0,0,14.38A17.9,17.9,0,0,0,9.81,56a18,18,0,0,0,5,3.57v0a19.58,19.58,0,0,0,5.92,1.76,28.17,28.17,0,0,0,4,.24c.2.61.42,1.22.67,1.81a27.32,27.32,0,0,0,5.95,8.89,2.77,2.77,0,0,0,3.91-3.93,22.38,22.38,0,0,1-4.74-7.07,22.13,22.13,0,0,1,0-16.72l.08-.14a21.84,21.84,0,0,1,4.66-6.94,21.48,21.48,0,0,1,7.11-4.74l.12-.08a22,22,0,0,1,8.2-1.58,22.22,22.22,0,0,1,6.26.93,21.17,21.17,0,0,1,5.73,2.67,22.52,22.52,0,0,1,4.66,4.09v0A22.61,22.61,0,0,1,70.6,44a2.79,2.79,0,0,0,2.86,1.6v0l.55-.08.51-.08h.55l.4,0v0a14.61,14.61,0,0,1,10.35,4.27A15.25,15.25,0,0,1,89,54.5a15,15,0,0,1,0,11.22,14.82,14.82,0,0,1-3.18,4.74,15.08,15.08,0,0,1-3.89,2.81h0a15.55,15.55,0,0,1-4.54,1.36A2.78,2.78,0,0,0,78,80.15a21,21,0,0,0,6.36-1.9v0a20.11,20.11,0,0,0,9.74-10.35,20.38,20.38,0,0,0,0-15.45Z"/><path d="M67.06,73.63a2.79,2.79,0,0,0-3.79,1l-.51.87a2.78,2.78,0,0,0,4.82,2.77l.5-.87A2.79,2.79,0,0,0,67.06,73.63Z"/></g></svg>