<svg xmlns="http://www.w3.org/2000/svg" viewBox="0 0 100 100"><title>15</title><g id="note"><path d="M26.67,21.17a2.24,2.24,0,1,0,3.56-2.72l-4-5.22a2.24,2.24,0,1,0-3.59,2.7Z"/><path d="M13.76,34.64l6.51.89a2.26,2.26,0,1,0,.61-4.47l-6.51-.89a2.26,2.26,0,0,0-.61,4.47Z"/><path d="M43.23,18.05a2.22,2.22,0,0,0,2.53-1.91l.89-6.52A2.25,2.25,0,0,0,42.2,9l-.89,6.52A2.24,2.24,0,0,0,43.23,18.05Z"/><path d="M58.38,25.49l5.24-4A2.24,2.24,0,1,0,60.9,18l-5.24,4a2.27,2.27,0,0,0-.43,3.14A2.21,2.21,0,0,0,58.38,25.49Z"/><path d="M89.54,42.7a12.74,12.74,0,0,0-9-3.76h-.46a17.8,17.8,0,0,0-5.83-6.32A17.34,17.34,0,0,0,56.54,32a16.28,16.28,0,0,0-31.9,1.91,16,16,0,0,0-.1,3c-.64.21-1.28.43-1.9.69l-.11,0a24.85,24.85,0,0,0-8.16,5.44,25.12,25.12,0,0,0-5.4,8l-.06.11a25.26,25.26,0,0,0,0,19.23v0a24.43,24.43,0,0,0,5.46,8.16,2.52,2.52,0,0,0,3.59,0A2.49,2.49,0,0,0,18,75a20.84,20.84,0,0,1-4.35-6.49,20,20,0,0,1-1.49-7.67,19.84,19.84,0,0,1,1.49-7.67l.05-.13a20.12,20.12,0,0,1,10.8-10.71l.13-.07a20.31,20.31,0,0,1,7.54-1.45,21,21,0,0,1,5.77.85,20,20,0,0,1,5.22,2.45,19.52,19.52,0,0,1,4.24,3.75,19,19,0,0,1,3,4.79A2.58,2.58,0,0,0,53,54.14l.51,0L54,54h.49l.4,0v0a13.39,13.39,0,0,1,9.48,3.92,13.23,13.23,0,0,1,4,9.5,13.92,13.92,0,0,1-1,5.15,13.35,13.35,0,0,1-2.94,4.35,13.69,13.69,0,0,1-3.55,2.57h0a14,14,0,0,1-4.17,1.25,2.55,2.55,0,0,0,.62,5.06,19.27,19.27,0,0,0,5.84-1.74v0A17.61,17.61,0,0,0,68,80.53a18.12,18.12,0,0,0,5.19-16h7.35a12.76,12.76,0,0,0,9-21.78Zm-50.2-5.89a24.44,24.44,0,0,0-7.2-1.09,24.9,24.9,0,0,0-3.14.21,11.69,11.69,0,0,1,.1-1.45A11.78,11.78,0,0,1,52.51,35a17.13,17.13,0,0,0-4.09,6.75,24.38,24.38,0,0,0-9.08-5ZM85.91,57.1a7.6,7.6,0,0,1-5.39,2.24h-9a18.53,18.53,0,0,0-3.53-5,18.73,18.73,0,0,0-6-4,18.51,18.51,0,0,0-7.07-1.41h-.05l-.44,0h-.14a22.76,22.76,0,0,0-1.56-2.51A12.14,12.14,0,0,1,64.82,35a12.24,12.24,0,0,1,6.6,1.94,12.65,12.65,0,0,1,4.12,4.47,5.14,5.14,0,0,0,4.52,2.69h.52a7.64,7.64,0,0,1,5.33,13Z"/><path d="M45.58,62.74H36.7L45.08,50.5a1.61,1.61,0,0,0,.29-.91,1.42,1.42,0,0,0-1.43-1.4H30.43a1.46,1.46,0,0,0-1.26.77l-9.71,19a1.48,1.48,0,0,0-.22.74,1.41,1.41,0,0,0,1.41,1.43h8.91L25.51,86.32A1.43,1.43,0,0,0,28,87.6L46.66,65.12a1.54,1.54,0,0,0,.34-1A1.4,1.4,0,0,0,45.58,62.74ZM29.8,81l3-11.94a1.43,1.43,0,0,0-1-1.75,2,2,0,0,0-.34,0H23L31.32,51h9.92L32.81,63.38A1.42,1.42,0,0,0,34,65.59h8.58Z"/><path d="M69.45,81.58h0a2.52,2.52,0,0,1,3.45-.94,2.56,2.56,0,0,1,1,3.45l-.43.78A2.55,2.55,0,0,1,69,82.34l.45-.76Z"/><path d="M74.63,72.59h0A2.53,2.53,0,0,1,79,75.12l-.45.76a2.51,2.51,0,0,1-3.45.94,2.56,2.56,0,0,1-1-3.43l.47-.79Z"/><path d="M64.26,90.55h0a2.53,2.53,0,0,1,3.45-.94,2.57,2.57,0,0,1,.94,3.47l-.43.8a2.55,2.55,0,0,1-4.41-2.55l.45-.78Z"/><path d="M51,90.55h0a2.53,2.53,0,1,1,4.39,2.53l-.43.8a2.54,2.54,0,0,1-4.39-2.55l.43-.78Z"/><path d="M43.89,81.58h0a2.52,2.52,0,1,1,4.37,2.51l-.43.78a2.54,2.54,0,0,1-4.41-2.53l.47-.76Z"/><path d="M38.68,90.55h0a2.54,2.54,0,1,1,4.41,2.53l-.47.8a2.53,2.53,0,0,1-4.37-2.55l.43-.78Z"/></g></svg>