<svg xmlns="http://www.w3.org/2000/svg" viewBox="0 0 100 100"><title>17</title><g id="分離模式"><path d="M68.89,72.58a2.52,2.52,0,0,0-3.45.94l-.45.76a2.55,2.55,0,0,0,4.43,2.53l.43-.78A2.56,2.56,0,0,0,68.89,72.58Z"/><path d="M74.08,63.61a2.5,2.5,0,0,0-3.45.9l-.47.79a2.56,2.56,0,0,0,1,3.43,2.51,2.51,0,0,0,3.45-.94L75,67A2.52,2.52,0,0,0,74.08,63.61Z"/><path d="M63.7,81.54a2.53,2.53,0,0,0-3.45.94l-.45.78a2.55,2.55,0,0,0,4.41,2.55l.43-.8A2.57,2.57,0,0,0,63.7,81.54Z"/><path d="M57.49,72.58a2.55,2.55,0,0,0-3.47.94l-.43.76A2.53,2.53,0,0,0,58,76.81l.43-.78A2.5,2.5,0,0,0,57.49,72.58Z"/><path d="M52.3,81.54a2.54,2.54,0,0,0-3.47.94l-.43.78a2.54,2.54,0,0,0,4.39,2.55l.43-.8A2.53,2.53,0,0,0,52.3,81.54Z"/><path d="M46.07,72.58a2.5,2.5,0,0,0-3.43.94l-.47.76a2.54,2.54,0,0,0,4.41,2.53L47,76A2.49,2.49,0,0,0,46.07,72.58Z"/><path d="M40.9,81.54a2.54,2.54,0,0,0-3.47.94l-.43.78a2.53,2.53,0,0,0,4.37,2.55l.47-.8A2.55,2.55,0,0,0,40.9,81.54Z"/><path d="M30.26,68.05,43,52.65H34.44a1.42,1.42,0,0,1-1.16-2.2L41.71,38.1H31.78L23.43,54.32h8.41a2,2,0,0,1,.34,0,1.43,1.43,0,0,1,1,1.75Z"/><path d="M91.12,26.29a13.25,13.25,0,0,0-9.38-3.91h-.48a18.51,18.51,0,0,0-6.07-6.57,18,18,0,0,0-22.5,2.39,17.84,17.84,0,0,0-4.48,7.54,27.22,27.22,0,0,0-3-2.3A26.07,26.07,0,1,0,26.57,71L30,57.16H21.11a1.41,1.41,0,0,1-1.41-1.43,1.48,1.48,0,0,1,.22-.74l9.71-19a1.46,1.46,0,0,1,1.26-.77H44.4a1.42,1.42,0,0,1,1.43,1.4,1.61,1.61,0,0,1-.29.91L37.16,49.81H46a1.4,1.4,0,0,1,1.41,1.41,1.54,1.54,0,0,1-.34,1l-16,19.24H54.7A19.12,19.12,0,0,0,73.61,48.95h8.12a13.27,13.27,0,0,0,9.38-22.65Zm-3.77,15a7.91,7.91,0,0,1-5.61,2.33H71.86A19.2,19.2,0,0,0,54.7,33L54,33c-.38-.69-.8-1.36-1.24-2h0A12.65,12.65,0,0,1,65.41,18.29a12.72,12.72,0,0,1,6.86,2A13.16,13.16,0,0,1,76.56,25a5.35,5.35,0,0,0,4.7,2.79h.55a7.94,7.94,0,0,1,5.54,13.54Z"/></g></svg>