<svg xmlns="http://www.w3.org/2000/svg" viewBox="0 0 100 100"><title>29</title><g id="分離模式"><path d="M91.59,31.24a13.25,13.25,0,0,0-9.38-3.91h-.48a18.51,18.51,0,0,0-6.07-6.57,18,18,0,0,0-22.5,2.39,17.84,17.84,0,0,0-4.48,7.54,27.22,27.22,0,0,0-3-2.3,26.07,26.07,0,1,0-14.16,48H55.17A19.12,19.12,0,0,0,74.08,53.89h8.12a13.27,13.27,0,0,0,9.38-22.65ZM64.74,66.72a13.5,13.5,0,0,1-9.57,4H31.53a20.38,20.38,0,0,1,0-40.77,20.48,20.48,0,0,1,11.06,3.25,21.12,21.12,0,0,1,6.89,7.47,5.69,5.69,0,0,0,5,3h.16l.61,0a13.56,13.56,0,0,1,9.5,23.12Zm23.07-20.5a7.91,7.91,0,0,1-5.61,2.33H72.33A19.2,19.2,0,0,0,55.17,37.91l-.7,0c-.38-.69-.8-1.36-1.24-2h0A12.65,12.65,0,0,1,65.88,23.24a12.72,12.72,0,0,1,6.86,2A13.16,13.16,0,0,1,77,29.9a5.35,5.35,0,0,0,4.7,2.79h.55a7.94,7.94,0,0,1,5.54,13.54Z"/><path d="M74.49,69.8h0a2.52,2.52,0,0,1,3.45-.94,2.56,2.56,0,0,1,1,3.45l-.43.78A2.55,2.55,0,0,1,74,70.55l.45-.76Z"/><path d="M79.68,60.8h0a2.53,2.53,0,0,1,4.39,2.53l-.45.76a2.51,2.51,0,0,1-3.45.94,2.56,2.56,0,0,1-1-3.43l.47-.79Z"/><path d="M69.31,78.76h0a2.53,2.53,0,0,1,3.45-.94,2.57,2.57,0,0,1,.94,3.47l-.43.8a2.55,2.55,0,0,1-4.41-2.55l.45-.78Z"/><path d="M57.88,78.76h0a2.53,2.53,0,1,1,4.39,2.53l-.43.8a2.54,2.54,0,0,1-4.39-2.55l.43-.78Z"/><path d="M46.48,78.76h0a2.54,2.54,0,1,1,4.41,2.53l-.47.8A2.53,2.53,0,0,1,46,79.54l.43-.78Z"/></g></svg>