<svg xmlns="http://www.w3.org/2000/svg" viewBox="0 0 100 100"><title>21</title><g id="note"><path d="M44.86,23.92a2.36,2.36,0,1,1-3.33,3.35l-4.91-4.91a2.4,2.4,0,0,1,0-3.35A2.37,2.37,0,0,1,40,19l4.9,4.91Zm-2,26.15H56.4a1.42,1.42,0,0,1,1.43,1.4,1.61,1.61,0,0,1-.29.91L49.16,64.63H58A1.4,1.4,0,0,1,59.46,66a1.54,1.54,0,0,1-.34,1L40.45,89.5A1.43,1.43,0,0,1,38,88.22L42,72H33.11a1.41,1.41,0,0,1-1.41-1.43,1.48,1.48,0,0,1,.22-.74l9.71-19a1.46,1.46,0,0,1,1.26-.77Zm10.82,2.84H43.78L35.43,69.14h8.41a2,2,0,0,1,.34,0,1.43,1.43,0,0,1,1,1.75l-3,11.95L55,67.47H46.44a1.42,1.42,0,0,1-1.16-2.2l8.43-12.35ZM28.46,69h0a19.65,19.65,0,0,1-1.85-1.24l0,0A18.66,18.66,0,0,1,25,66.28a17.79,17.79,0,0,1-4-6,18.46,18.46,0,0,1-1.41-7.1A19.17,19.17,0,0,1,20.89,46,18.28,18.28,0,0,1,25,40a17.9,17.9,0,0,1,6-4,18.54,18.54,0,0,1,7.1-1.4,19.32,19.32,0,0,1,5.35.74,18.63,18.63,0,0,1,4.85,2.31l.13.07a17.83,17.83,0,0,1,3.8,3.42l0,0a18.69,18.69,0,0,1,2.79,4.41,2.37,2.37,0,0,0,2.42,1.36h0l.44-.05.47,0,.1,0,.34,0h.4a12.32,12.32,0,0,1,4.75.94l.1,0A12.18,12.18,0,0,1,68,50.44h0l0,.05a12.79,12.79,0,0,1,2.64,4v0a12.07,12.07,0,0,1,1,4.78A12.32,12.32,0,0,1,70.74,64h0A13,13,0,0,1,68,68.09a13.16,13.16,0,0,1-5.69,3.26A2.35,2.35,0,1,0,63.5,75.9a16.91,16.91,0,0,0,4.24-1.72,18.15,18.15,0,0,0,3.64-2.76,17,17,0,0,0,3.72-5.59h0v0a17.1,17.1,0,0,0,0-13.14,18.86,18.86,0,0,0-1.8-3.28,17.29,17.29,0,0,0,1.46-3.27,16.85,16.85,0,0,0,.84-5.32,17,17,0,0,0-5-12.15v0l0,0A17.14,17.14,0,0,0,49.75,26l-.15.14a16.55,16.55,0,0,0-5.1,4.63,23.06,23.06,0,0,0-6.41-.89A23.27,23.27,0,0,0,21.6,36.66a22.5,22.5,0,0,0-5.06,7.57,23.38,23.38,0,0,0,0,17.84,22.67,22.67,0,0,0,5.06,7.54,18.19,18.19,0,0,0,2.12,1.87A22.13,22.13,0,0,0,26,73.07a2.34,2.34,0,0,0,3.23-.79A2.38,2.38,0,0,0,28.46,69Zm20.6-36.45h0A12,12,0,0,1,52,30.13l.15-.07a12.33,12.33,0,0,1,6.28-1.7A12.41,12.41,0,0,1,70.87,40.81a13.1,13.1,0,0,1-.61,3.86,9.26,9.26,0,0,1-.42,1.08,17.39,17.39,0,0,0-3.94-2.32l-.12-.07A17.12,17.12,0,0,0,59.23,42v0h-.07l-.4,0h-.15a23,23,0,0,0-2.74-4v0A23.9,23.9,0,0,0,51,33.76l-.1-.1a14.83,14.83,0,0,0-1.85-1.08ZM79.93,43.17h0a2.37,2.37,0,1,1,0-4.73h6.93a2.37,2.37,0,1,1,0,4.73Zm-4.61-15.9h0A2.37,2.37,0,1,1,72,23.92L76.86,19a2.37,2.37,0,0,1,3.37,3.35l-4.91,4.91Zm-14.54-8h0a2.37,2.37,0,1,1-4.75,0V12.36a2.37,2.37,0,0,1,4.75,0v6.93Z"/></g></svg>