<svg xmlns="http://www.w3.org/2000/svg" viewBox="0 0 100 100"><title>28</title><g id="分離模式"><path d="M8.83,25.24a3.46,3.46,0,1,1,0-6.93H22.24a3.46,3.46,0,1,1,0,6.93Zm27.29,0h0a3.46,3.46,0,1,1,0-6.93H49.56a3.46,3.46,0,0,1,0,6.93Zm27.29,0h0a3.46,3.46,0,0,1,0-6.93H76.85a3.46,3.46,0,0,1,0,6.93ZM8.83,62.87h0a3.46,3.46,0,1,1,0-6.93H22.24a3.46,3.46,0,1,1,0,6.93Zm27.29,0h0a3.46,3.46,0,1,1,0-6.93H49.56a3.46,3.46,0,0,1,0,6.93Zm27.29,0h0a3.46,3.46,0,0,1,0-6.93H76.85a3.46,3.46,0,1,1,0,6.93ZM23.2,44.06h0a3.46,3.46,0,1,1,0-6.92H36.64a3.46,3.46,0,0,1,0,6.92Zm27.29,0h0a3.46,3.46,0,0,1,0-6.92H63.9a3.46,3.46,0,1,1,0,6.92Zm27.32,0h0a3.46,3.46,0,1,1,0-6.92H91.22a3.46,3.46,0,0,1,0,6.92ZM23.2,81.69h0a3.44,3.44,0,1,1,0-6.88H36.64a3.44,3.44,0,1,1,0,6.88Zm27.29,0h0a3.44,3.44,0,1,1,0-6.88H63.9a3.44,3.44,0,1,1,0,6.88Zm27.32,0h0a3.44,3.44,0,1,1,0-6.88H91.22a3.44,3.44,0,0,1,0,6.88Z"/></g></svg>