<svg xmlns="http://www.w3.org/2000/svg" viewBox="0 0 100 100"><title>26</title><g id="分離模式"><path d="M58.23,20a2.65,2.65,0,0,0,2.68-2.62V9.53a2.67,2.67,0,1,0-5.33,0v7.86A2.64,2.64,0,0,0,58.23,20Z"/><path d="M77.29,26.36l5.54-5.54a2.63,2.63,0,0,0,0-3.78,2.7,2.7,0,0,0-3.78,0l-5.54,5.52a2.68,2.68,0,0,0,3.78,3.8Z"/><path d="M90.34,38.94H82.52a2.68,2.68,0,1,0,0,5.35h7.82a2.68,2.68,0,0,0,0-5.35Z"/><path d="M39.21,26.34a2.61,2.61,0,0,0,3.76,0,2.67,2.67,0,0,0,0-3.78L37.43,17a2.68,2.68,0,0,0-3.76,0,2.64,2.64,0,0,0,0,3.78Z"/><path d="M20.5,70.33A21,21,0,0,1,35.3,34.56,21.05,21.05,0,0,1,54.42,46.91a2.72,2.72,0,0,0,2.81,1.57c.28,0,.63-.06.95-.09s.59,0,1,0a14.06,14.06,0,0,1,11,22.85c-.46.56-1.65,1.32-1.1,1.79.72.62-1.27,1.27-2,2-1,1,5,2,7.43-.68A17.63,17.63,0,0,0,78.52,62.4a19.27,19.27,0,0,0-3-10.43,1.35,1.35,0,0,1,0-1.38,17.28,17.28,0,0,0,1.25-3,19,19,0,0,0,1-6A19.34,19.34,0,0,0,72,27.93h0a19.27,19.27,0,0,0-23.46-3.06l-.19.11a19.59,19.59,0,0,0-5.19,4.55A1.34,1.34,0,0,1,41.7,30a25.71,25.71,0,0,0-6.4-.79A26.29,26.29,0,0,0,15.51,72.83a1.33,1.33,0,0,0,1.11.44l2.17-.19a1.39,1.39,0,0,0,.45-.12q.5-.23,1-.5a1.33,1.33,0,0,0,.28-2.12ZM51,29.57l.15-.08a14,14,0,0,1,17,2.2h0a14,14,0,0,1,4.1,9.94A13.58,13.58,0,0,1,71.59,46c-.11.42-.28.81-.42,1.21a19.53,19.53,0,0,0-12-4.16h-.68a26.73,26.73,0,0,0-8.88-9.58l-.42-.27A1.34,1.34,0,0,1,49,31,15,15,0,0,1,51,29.57Z"/><path d="M7,75.63H7A3.16,3.16,0,1,1,7,69.3H19.2a3.16,3.16,0,1,1,0,6.33Z"/><path d="M31.57,75.63h0a3.16,3.16,0,1,1,0-6.33H43.84a3.16,3.16,0,0,1,0,6.33Z"/><path d="M56.17,75.63h0a3.16,3.16,0,0,1,0-6.33H68.44a3.16,3.16,0,1,1,0,6.33Z"/><path d="M80.8,75.63h0a3.16,3.16,0,0,1,0-6.33H93.07a3.16,3.16,0,1,1,0,6.33Z"/><path d="M19.26,90.81h0a3.14,3.14,0,1,1,0-6.28H31.52a3.14,3.14,0,1,1,0,6.28Z"/><path d="M43.87,90.81h0a3.14,3.14,0,1,1,0-6.28H56.12a3.14,3.14,0,1,1,0,6.28Z"/><path d="M68.53,90.81h0a3.14,3.14,0,1,1,0-6.28H80.78a3.14,3.14,0,0,1,0,6.28Z"/></g></svg>