<svg xmlns="http://www.w3.org/2000/svg" viewBox="0 0 100 100"><title>27</title><g id="分離模式"><path d="M75.09,45.49l.4,0v0a14.61,14.61,0,0,1,10.35,4.27A15.25,15.25,0,0,1,89,54.5a15,15,0,0,1,0,11.22,14.82,14.82,0,0,1-3.18,4.74,15.08,15.08,0,0,1-3.89,2.81h0l8.81.09a19.21,19.21,0,0,0,3.44-5.52,20.38,20.38,0,0,0,0-15.45,19.57,19.57,0,0,0-4.37-6.56,20.41,20.41,0,0,0-14.3-5.93v0h-.69a25.23,25.23,0,0,0-3.26-4.74,27.31,27.31,0,0,0-13-8.5,26.92,26.92,0,0,0-18.22.87l-.14,0a27.35,27.35,0,0,0-14.76,14.7l-.06.12A27.38,27.38,0,0,0,31.34,72.3a2.77,2.77,0,0,0,3.91-3.93,22.38,22.38,0,0,1-4.74-7.07,22.13,22.13,0,0,1,0-16.72l.08-.14a21.84,21.84,0,0,1,4.66-6.94,21.48,21.48,0,0,1,7.11-4.74l.12-.08a22,22,0,0,1,8.2-1.58,22.22,22.22,0,0,1,6.26.93,21.17,21.17,0,0,1,5.73,2.67,22.52,22.52,0,0,1,4.66,4.09v0A22.61,22.61,0,0,1,70.6,44a2.79,2.79,0,0,0,2.86,1.6v0l.55-.08.51-.08Z"/><path d="M64.89,28.14l.07.13a21.34,21.34,0,0,1,1.34,5.19,37.82,37.82,0,0,1,5.32,3.86q0-.63,0-1.27a25.56,25.56,0,0,0-1.93-9.76l-.05-.11A25.45,25.45,0,0,0,55.94,12.49l-.13,0a25.05,25.05,0,0,0-17-.81A25.41,25.41,0,0,0,26.8,19.55a23.49,23.49,0,0,0-3,4.41h-.64v0A19,19,0,0,0,9.81,29.44a18.22,18.22,0,0,0-4.06,6.1,19,19,0,0,0,0,14.38A17.9,17.9,0,0,0,9.81,56a18,18,0,0,0,5,3.57v0a19.58,19.58,0,0,0,5.92,1.76,2.58,2.58,0,0,0,.63-5.13A14.47,14.47,0,0,1,17.12,55h0a14,14,0,0,1-3.62-2.61,13.79,13.79,0,0,1-3-4.41,13.59,13.59,0,0,1,3-14.86,13.6,13.6,0,0,1,9.63-4v0l.37,0H24l.48.07.51.07v0a2.6,2.6,0,0,0,2.67-1.49,21,21,0,0,1,3-4.84v0A21,21,0,0,1,35,19.07a19.7,19.7,0,0,1,5.33-2.48,20.67,20.67,0,0,1,5.83-.86,20.43,20.43,0,0,1,7.63,1.47l.11.07a20,20,0,0,1,6.62,4.41A20.32,20.32,0,0,1,64.89,28.14Z"/><path d="M7,75.63H7A3.16,3.16,0,1,1,7,69.3H19.2a3.16,3.16,0,1,1,0,6.33Z"/><path d="M31.57,75.63h0a3.16,3.16,0,1,1,0-6.33H43.84a3.16,3.16,0,0,1,0,6.33Z"/><path d="M56.17,75.63h0a3.16,3.16,0,0,1,0-6.33H68.44a3.16,3.16,0,1,1,0,6.33Z"/><path d="M80.8,75.63h0a3.16,3.16,0,0,1,0-6.33H93.07a3.16,3.16,0,1,1,0,6.33Z"/><path d="M19.26,90.81h0a3.14,3.14,0,1,1,0-6.28H31.52a3.14,3.14,0,1,1,0,6.28Z"/><path d="M43.87,90.81h0a3.14,3.14,0,1,1,0-6.28H56.12a3.14,3.14,0,1,1,0,6.28Z"/><path d="M68.53,90.81h0a3.14,3.14,0,1,1,0-6.28H80.78a3.14,3.14,0,0,1,0,6.28Z"/></g></svg>