<svg xmlns="http://www.w3.org/2000/svg" viewBox="0 0 100 100"><title>23</title><g id="note"><path d="M23.19,59.74h0a25.1,25.1,0,0,1-5.24-7.82h0a24.15,24.15,0,0,1-1.79-9.24,23.9,23.9,0,0,1,1.79-9.24L18,33.3A24.24,24.24,0,0,1,31,20.4l.15-.09a24.46,24.46,0,0,1,9.08-1.75,25.33,25.33,0,0,1,6.94,1,24.07,24.07,0,0,1,6.29,2.95,23.51,23.51,0,0,1,5.11,4.52h0a22.87,22.87,0,0,1,3.62,5.76,3.1,3.1,0,0,0,3.19,1.77l.61,0,.57-.09h.59l.48,0v0a16.13,16.13,0,0,1,11.42,4.72,15.94,15.94,0,0,1,4.76,11.44,16.77,16.77,0,0,1-1.22,6.2,16.09,16.09,0,0,1-3.54,5.24,16.49,16.49,0,0,1-4.28,3.1h0a16.81,16.81,0,0,1-5,1.51,3.07,3.07,0,0,0,.74,6.09,23.21,23.21,0,0,0,7-2.1v0a21.21,21.21,0,0,0,5.92-4.23A22.1,22.1,0,0,0,88.28,42.1,22.36,22.36,0,0,0,67.66,28.3H67.6l-.53,0H66.9a29.32,29.32,0,0,0-3.62-5.28v0a29.6,29.6,0,0,0-6.37-5.68,29.19,29.19,0,0,0-8-3.71,29.44,29.44,0,0,0-8.67-1.31,29.85,29.85,0,0,0-11.44,2.27l-.13,0a29.94,29.94,0,0,0-9.82,6.55A30.25,30.25,0,0,0,12.36,31l-.07.13a30.42,30.42,0,0,0,0,23.17v0a29.43,29.43,0,0,0,6.57,9.82,3,3,0,0,0,4.32,0,3,3,0,0,0,0-4.32Z"/><path d="M64.32,76.67l-3.4-2,2.57-1.48a1.79,1.79,0,0,0-1.79-3.09l-4.28,2.52-1.91-1.17V64.67l1.91-1.17L61.75,66a1.77,1.77,0,0,0,2.41-.66,1.79,1.79,0,0,0-.66-2.44l-2.57-1.48,3.4-2A1.79,1.79,0,0,0,65,57a1.85,1.85,0,0,0-2.5-.65l-3.45,2v-3a1.74,1.74,0,1,0-3.48,0v5l-2.21,1.22-5.85-3.33V55.84l4.44-2.51a1.76,1.76,0,0,0-.42-3.27,1.83,1.83,0,0,0-1.39.18L47.49,51.7V47.79a1.74,1.74,0,1,0-3.48,0v3.93l-2.54-1.5a1.76,1.76,0,0,0-2.42.66,1.79,1.79,0,0,0,.63,2.44L44,55.84v2.77l-5.34,3.11-2.22-1.31v-5a1.74,1.74,0,1,0-3.48,0v3l-3.45-2a1.8,1.8,0,0,0-1.83,3.09l3.39,2-2.57,1.48a1.79,1.79,0,0,0-.66,2.44,1.84,1.84,0,0,0,2.44.65l4.39-2.51,2.3,1.3v6.53l-2.3,1.3-4.37-2.51a1.79,1.79,0,0,0-1.8,3.09l2.57,1.48-3.4,2A1.79,1.79,0,0,0,28.57,80a2,2,0,0,0,.94-.24l3.45-2v3a1.75,1.75,0,1,0,3.49,0l0-5,2.35-1.3,5.72,3.25V80.3l-4.44,2.52a1.86,1.86,0,0,0-.86,1.12,1.72,1.72,0,0,0,.17,1.32,1.75,1.75,0,0,0,1.53.89,2.06,2.06,0,0,0,1-.24l2.64-1.47v3.91a1.74,1.74,0,1,0,3.48,0V84.42l2.54,1.5a1.79,1.79,0,0,0,1.79-3.09L48,80.3V77.69l5.48-3.19,2.09,1.24v5a1.74,1.74,0,1,0,3.48,0v-3l3.45,1.95A1.9,1.9,0,0,0,65,79.1,1.79,1.79,0,0,0,64.32,76.67ZM51.54,71.33,46,74.6l-5.54-3.27V64.81L46,61.55l5.54,3.27Z"/></g></svg>