<svg xmlns="http://www.w3.org/2000/svg" viewBox="0 0 100 100"><title>22</title><g id="note"><path d="M26.67,21.17a2.24,2.24,0,1,0,3.56-2.72l-4-5.22a2.24,2.24,0,1,0-3.59,2.7Z"/><path d="M22.82,33.59a2.26,2.26,0,0,0-1.94-2.53l-6.51-.89a2.26,2.26,0,0,0-.61,4.47l6.51.89A2.27,2.27,0,0,0,22.82,33.59Z"/><path d="M43.23,18.05a2.22,2.22,0,0,0,2.53-1.91l.89-6.52A2.25,2.25,0,0,0,42.2,9l-.89,6.52A2.24,2.24,0,0,0,43.23,18.05Z"/><path d="M64,18.38A2.21,2.21,0,0,0,60.9,18l-5.24,4a2.27,2.27,0,0,0-.43,3.14,2.21,2.21,0,0,0,3.14.43l5.24-4A2.22,2.22,0,0,0,64,18.38Z"/><path d="M29.1,34.47A11.78,11.78,0,0,1,52.52,37a10.65,10.65,0,0,1,4.54-1.66,16.29,16.29,0,0,0-32.41-1.48,16.16,16.16,0,0,0,.61,7.06q2.35-.08,4.68-.27A11.72,11.72,0,0,1,29.1,34.47Z"/><path d="M29.21,80.13l14.08-17H33.81a1.56,1.56,0,0,1-1.28-2.43l9.31-13.64h-11L21.66,65H31a2.19,2.19,0,0,1,.37,0,1.58,1.58,0,0,1,1.15,1.93Z"/><path d="M89.54,42.7a12.74,12.74,0,0,0-9-3.76h-.46a17.8,17.8,0,0,0-5.83-6.32,17.31,17.31,0,0,0-21.63,2.3,17.16,17.16,0,0,0-4.31,7.25A26.18,26.18,0,0,0,45.4,40a25.07,25.07,0,1,0-20.7,45.11l4.24-17H19.1a1.56,1.56,0,0,1-1.56-1.58,1.63,1.63,0,0,1,.24-.82L28.5,44.78a1.61,1.61,0,0,1,1.39-.85H44.81a1.57,1.57,0,0,1,1.58,1.54,1.78,1.78,0,0,1-.32,1L36.82,60h9.81a1.55,1.55,0,0,1,1.56,1.56,1.7,1.7,0,0,1-.37,1.06L28.5,85.88a25.14,25.14,0,0,0,3.28.22H54.52A18.39,18.39,0,0,0,72.71,64.48h7.81a12.76,12.76,0,0,0,9-21.78ZM85.91,57.1a7.6,7.6,0,0,1-5.39,2.24H71A18.46,18.46,0,0,0,54.52,49.1l-.67,0c-.36-.67-.77-1.31-1.19-1.94h0A12.17,12.17,0,0,1,64.82,35a12.24,12.24,0,0,1,6.6,1.94,12.65,12.65,0,0,1,4.12,4.47,5.14,5.14,0,0,0,4.52,2.69h.52a7.64,7.64,0,0,1,5.33,13Z"/><path d="M72.17,81.19h0a2.52,2.52,0,0,1,3.45-.94,2.56,2.56,0,0,1,1,3.45l-.43.78a2.55,2.55,0,0,1-4.43-2.53l.45-.76Z"/><path d="M77.35,72.19h0a2.53,2.53,0,0,1,4.39,2.53l-.45.76a2.51,2.51,0,0,1-3.45.94,2.56,2.56,0,0,1-1-3.43l.47-.79Z"/><path d="M67,90.15h0a2.53,2.53,0,0,1,3.45-.94,2.57,2.57,0,0,1,.94,3.47l-.43.8a2.55,2.55,0,0,1-4.41-2.55l.45-.78Z"/><path d="M66,72.19h0a2.53,2.53,0,0,1,4.37,2.53l-.43.76a2.52,2.52,0,0,1-3.47.94,2.46,2.46,0,0,1-.9-3.43l.43-.79Z"/><path d="M55.56,90.15h0a2.53,2.53,0,1,1,4.39,2.53l-.43.8a2.54,2.54,0,0,1-4.39-2.55l.43-.78Z"/><path d="M49.36,81.19h0a2.52,2.52,0,1,1,4.37,2.51l-.43.78a2.54,2.54,0,0,1-4.41-2.53l.47-.76Z"/><path d="M54.53,72.19h0a2.53,2.53,0,0,1,4.37,2.53l-.43.76a2.52,2.52,0,0,1-3.47.94,2.49,2.49,0,0,1-.9-3.43l.43-.79Z"/><path d="M44.16,90.15h0a2.54,2.54,0,1,1,4.41,2.53l-.47.8a2.53,2.53,0,0,1-4.37-2.55l.43-.78Z"/></g></svg>