<svg xmlns="http://www.w3.org/2000/svg" viewBox="0 0 100 100"><title>24</title><g id="note"><path d="M30.2,29.55h0L23.08,22.4a3.46,3.46,0,0,0-4.91,4.86l7.17,7.17a3.45,3.45,0,0,0,4.86-4.89ZM18.56,50.73h0a3.47,3.47,0,1,1,0,6.95H8.44a3.48,3.48,0,0,1,0-6.95Zm62.83,6.95h0a3.48,3.48,0,0,1,0-6.95H91.51a3.47,3.47,0,1,1,0,6.95ZM74.64,34.44h0l7.17-7.17a3.45,3.45,0,0,0-4.89-4.86l-7.17,7.15a3.5,3.5,0,0,0,0,4.89,3.41,3.41,0,0,0,4.89,0ZM53.44,22.8h0a3.46,3.46,0,0,1-6.93,0V12.65a3.46,3.46,0,0,1,6.93,0V22.8Z"/><path d="M7,75.63H7A3.16,3.16,0,1,1,7,69.3H19.2a3.16,3.16,0,1,1,0,6.33Z"/><path d="M31.57,75.63h0a3.16,3.16,0,1,1,0-6.33H43.84a3.16,3.16,0,0,1,0,6.33Z"/><path d="M56.17,75.63h0a3.16,3.16,0,0,1,0-6.33H68.44a3.16,3.16,0,1,1,0,6.33Z"/><path d="M80.8,75.63h0a3.16,3.16,0,0,1,0-6.33H93.07a3.16,3.16,0,1,1,0,6.33Z"/><path d="M19.26,90.81h0a3.14,3.14,0,1,1,0-6.28H31.52a3.14,3.14,0,1,1,0,6.28Z"/><path d="M43.87,90.81h0a3.14,3.14,0,1,1,0-6.28H56.12a3.14,3.14,0,1,1,0,6.28Z"/><path d="M68.53,90.81h0a3.14,3.14,0,1,1,0-6.28H80.78a3.14,3.14,0,0,1,0,6.28Z"/><path d="M50,36.44A17.15,17.15,0,0,1,67.13,53.25H32.87A17.11,17.11,0,0,1,50,36.44m0-6A23.07,23.07,0,0,0,27.6,59.24H72.39a22.76,22.76,0,0,0,.73-5.64A23.13,23.13,0,0,0,50,30.46Z"/></g></svg>