<svg xmlns="http://www.w3.org/2000/svg" viewBox="0 0 100 100"><title>33</title><g id="分離模式"><path d="M91.59,31.24a13.25,13.25,0,0,0-9.38-3.91h-.48a18.51,18.51,0,0,0-6.07-6.57,18,18,0,0,0-22.5,2.39,17.84,17.84,0,0,0-4.48,7.54,27.23,27.23,0,0,0-3-2.3A26.07,26.07,0,1,0,25.2,75.6a2.84,2.84,0,0,0,3.4-1.83l0-.06a2.82,2.82,0,0,0-2-3.63,20.39,20.39,0,0,1-9.45-34.21,20.1,20.1,0,0,1,14.38-6,20.48,20.48,0,0,1,11.06,3.25,21.14,21.14,0,0,1,6.8,7.29,6,6,0,0,0,4.56,3.12,5.87,5.87,0,0,0,.69,0l.61,0a13.63,13.63,0,0,1,11.24,6.12,12.21,12.21,0,0,1,1.67,3.58,13.55,13.55,0,0,1-13,17.39H44.72a2.84,2.84,0,0,0-2.84,2.84h0a2.84,2.84,0,0,0,2.84,2.84H55.17A19.12,19.12,0,0,0,74.08,53.89h8.12a13.27,13.27,0,0,0,9.38-22.65Zm-3.77,15a7.91,7.91,0,0,1-5.61,2.33H72.33A19.2,19.2,0,0,0,55.17,37.91l-.7,0c-.38-.69-.8-1.36-1.24-2h0A12.65,12.65,0,0,1,65.88,23.24a12.72,12.72,0,0,1,6.86,2A13.16,13.16,0,0,1,77,29.9a5.35,5.35,0,0,0,4.7,2.79h.55a7.94,7.94,0,0,1,5.54,13.54Z"/><path d="M74.49,69.8h0a2.52,2.52,0,0,1,3.45-.94,2.56,2.56,0,0,1,1,3.45l-.43.78A2.55,2.55,0,0,1,74,70.55l.45-.76Z"/><path d="M79.68,60.8h0a2.53,2.53,0,0,1,4.39,2.53l-.45.76a2.51,2.51,0,0,1-3.45.94,2.56,2.56,0,0,1-1-3.43l.47-.79Z"/><path d="M69.31,78.76h0a2.53,2.53,0,0,1,3.45-.94,2.57,2.57,0,0,1,.94,3.47l-.43.8a2.55,2.55,0,0,1-4.41-2.55l.45-.78Z"/><path d="M57.88,78.76h0a2.53,2.53,0,1,1,4.39,2.53l-.43.8a2.54,2.54,0,0,1-4.39-2.55l.43-.78Z"/><path d="M46.48,78.76h0a2.54,2.54,0,1,1,4.41,2.53l-.47.8A2.53,2.53,0,0,1,46,79.54l.43-.78Z"/><path d="M36.13,39.09H49.65a1.42,1.42,0,0,1,1.43,1.4,1.61,1.61,0,0,1-.29.91L42.41,53.65h8.89a1.4,1.4,0,0,1,1.41,1.41,1.54,1.54,0,0,1-.34,1L33.69,78.52a1.43,1.43,0,0,1-2.47-1.28L35.27,61H26.35a1.41,1.41,0,0,1-1.41-1.43,1.48,1.48,0,0,1,.22-.74l9.71-19a1.46,1.46,0,0,1,1.26-.77ZM47,41.93H37L28.68,58.16h8.41a2,2,0,0,1,.34,0,1.43,1.43,0,0,1,1,1.75l-3,11.95,12.76-15.4H39.68a1.42,1.42,0,0,1-1.16-2.2L47,41.93Z"/></g></svg>