<svg xmlns="http://www.w3.org/2000/svg" viewBox="0 0 100 100"><title>38</title><g id="分離模式"><path d="M37.65,58.85A2.5,2.5,0,1,1,42,61.31l-.45.77a2.46,2.46,0,0,1-3.4.91,2.51,2.51,0,0,1-.92-3.42l.43-.71ZM17.52,44.32h0A2.5,2.5,0,1,1,14,47.86,24.73,24.73,0,0,1,8.63,20.95l.05-.11A24.65,24.65,0,0,1,22,7.59l.12,0a24.26,24.26,0,0,1,16.42-.78,24.61,24.61,0,0,1,11.68,7.66h0a22.74,22.74,0,0,1,2.94,4.27h.62v0A18.4,18.4,0,0,1,66.68,24a17.64,17.64,0,0,1,3.94,5.91,18.37,18.37,0,0,1,0,13.93,18.12,18.12,0,0,1-8.78,9.33v0a19,19,0,0,1-5.74,1.71,2.5,2.5,0,0,1-.61-5,14,14,0,0,0,4.1-1.23h0a13.6,13.6,0,0,0,3.51-2.53A13.36,13.36,0,0,0,66,41.93a13.17,13.17,0,0,0-2.87-14.39,13.17,13.17,0,0,0-9.33-3.85v0l-.36,0h-.5l-.46.07-.5.07v0a2.52,2.52,0,0,1-2.58-1.44,20.38,20.38,0,0,0-2.94-4.69v0h0A20.3,20.3,0,0,0,42.24,14a19.09,19.09,0,0,0-5.17-2.4,20,20,0,0,0-5.64-.84A19.79,19.79,0,0,0,24,12.15l-.11.07a19.36,19.36,0,0,0-6.41,4.27,19.68,19.68,0,0,0-4.2,6.25l-.07.12a19.95,19.95,0,0,0,0,15.07h0a20.17,20.17,0,0,0,4.27,6.38Zm19.13-3.19h0l-.46.77a2.51,2.51,0,0,0,4.35,2.49l.43-.77A2.51,2.51,0,0,0,40,40.2a2.46,2.46,0,0,0-3.38.93ZM31.52,50h0l-.43.78a2.49,2.49,0,0,0,4.31,2.49l.46-.78A2.5,2.5,0,1,0,31.52,50Zm-5.09,8.87h0a2.48,2.48,0,1,1,4.31,2.46l-.43.77A2.49,2.49,0,1,1,26,59.56l.43-.71Zm-.48-17.72h0l-.46.77a2.51,2.51,0,0,0,4.35,2.49l.43-.77a2.51,2.51,0,0,0-.92-3.42,2.46,2.46,0,0,0-3.38.93ZM20.82,50h0l-.43.78a2.49,2.49,0,0,0,4.31,2.49l.46-.78A2.5,2.5,0,1,0,20.82,50Zm-5.09,8.87h0A2.48,2.48,0,1,1,20,61.31l-.43.77a2.49,2.49,0,1,1-4.31-2.51l.43-.71ZM47.87,41.13h0l-.43.77a2.47,2.47,0,0,0,.93,3.4,2.52,2.52,0,0,0,3.42-.91l.43-.77a2.51,2.51,0,0,0-4.35-2.49ZM42.77,50h0l-.46.78a2.5,2.5,0,0,0,4.34,2.49l.45-.78A2.5,2.5,0,1,0,42.77,50Z"/><path d="M80.85,47.3h0a3,3,0,1,1,0-6.07H92.61a3,3,0,1,1,0,6.07Z"/><path d="M56.48,74.92h0a3,3,0,0,1,0-6.07H68.26a3,3,0,1,1,0,6.07Z"/><path d="M80.12,74.92h0a3,3,0,0,1,0-6.07H91.9a3,3,0,1,1,0,6.07Z"/><path d="M69.85,61.55h0a3,3,0,1,1,0-6H81.63a3,3,0,1,1,0,6Z"/><path d="M44.67,89.49h0a3,3,0,1,1,0-6H56.43a3,3,0,1,1,0,6Z"/><path d="M68.34,89.49h0a3,3,0,1,1,0-6H80.1a3,3,0,0,1,0,6Z"/></g></svg>