<svg xmlns="http://www.w3.org/2000/svg" viewBox="0 0 100 100"><title>32</title><g id="分離模式"><path d="M91.12,21.75a13.25,13.25,0,0,0-9.38-3.91h-.48a18.51,18.51,0,0,0-6.07-6.57,18,18,0,0,0-22.5,2.39,17.84,17.84,0,0,0-4.48,7.54,27.22,27.22,0,0,0-3-2.3,26.07,26.07,0,1,0-14.16,48H54.7A19.12,19.12,0,0,0,73.61,44.4h8.12a13.27,13.27,0,0,0,9.38-22.65ZM64.27,57.22a13.5,13.5,0,0,1-9.57,4H31.06A20.38,20.38,0,0,1,16.68,26.38a20.1,20.1,0,0,1,14.38-6,20.48,20.48,0,0,1,11.06,3.25A21.12,21.12,0,0,1,49,31.15a5.69,5.69,0,0,0,5,3h.16l.61,0a13.56,13.56,0,0,1,9.5,23.12Z"/><path d="M36,77.58h0a2.52,2.52,0,0,1,3.45-.94,2.56,2.56,0,0,1,1,3.45l-.43.78a2.55,2.55,0,0,1-4.43-2.53l.45-.76Z"/><path d="M41.22,68.58h0a2.53,2.53,0,0,1,4.39,2.53l-.45.76a2.51,2.51,0,0,1-3.45.94,2.56,2.56,0,0,1-1-3.43l.47-.79Z"/><path d="M30.85,86.55h0a2.53,2.53,0,0,1,3.45-.94,2.57,2.57,0,0,1,.94,3.47l-.43.8a2.55,2.55,0,0,1-4.41-2.55l.45-.78Z"/><path d="M24.61,77.58h0a2.55,2.55,0,0,1,3.47-.94A2.5,2.5,0,0,1,29,80.09l-.43.78a2.53,2.53,0,0,1-4.39-2.53l.43-.76Z"/><path d="M29.82,68.58h0a2.53,2.53,0,0,1,4.37,2.53l-.43.76a2.52,2.52,0,0,1-3.47.94,2.46,2.46,0,0,1-.9-3.43l.43-.79Z"/><path d="M19.43,86.55h0a2.53,2.53,0,1,1,4.39,2.53l-.43.8A2.54,2.54,0,0,1,19,87.32l.43-.78Z"/><path d="M13.23,77.58h0a2.52,2.52,0,1,1,4.37,2.51l-.43.78a2.54,2.54,0,0,1-4.41-2.53l.47-.76Z"/><path d="M18.4,68.58h0a2.53,2.53,0,0,1,4.37,2.53l-.43.76a2.52,2.52,0,0,1-3.47.94,2.49,2.49,0,0,1-.9-3.43l.43-.79Z"/><path d="M8,86.55H8a2.54,2.54,0,1,1,4.41,2.53l-.47.8a2.53,2.53,0,0,1-4.37-2.55L8,86.55Z"/><path d="M80.81,56.15h0a2.49,2.49,0,1,1,0-5h9.66a2.49,2.49,0,1,1,0,5Z"/><path d="M60.8,78.84h0a2.49,2.49,0,0,1,0-5h9.68a2.49,2.49,0,1,1,0,5Z"/><path d="M80.22,78.84h0a2.49,2.49,0,0,1,0-5h9.68a2.49,2.49,0,1,1,0,5Z"/><path d="M71.78,67.86h0a2.48,2.48,0,1,1,0-5h9.67a2.48,2.48,0,1,1,0,5Z"/><path d="M51.1,90.81h0a2.48,2.48,0,1,1,0-5h9.66a2.48,2.48,0,1,1,0,5Z"/><path d="M70.54,90.81h0a2.48,2.48,0,1,1,0-5H80.2a2.48,2.48,0,0,1,0,5Z"/></g></svg>