<svg xmlns="http://www.w3.org/2000/svg" viewBox="0 0 100 100"><title>36</title><g id="分離模式"><path d="M91.12,19.11a13.25,13.25,0,0,0-9.38-3.91h-.48a18.51,18.51,0,0,0-6.07-6.57A18,18,0,0,0,52.69,11a17.84,17.84,0,0,0-4.48,7.54,27.22,27.22,0,0,0-3-2.3,26.07,26.07,0,1,0-14.16,48H54.7A19.12,19.12,0,0,0,73.61,41.76h8.12a13.27,13.27,0,0,0,9.38-22.65ZM64.27,54.59a13.5,13.5,0,0,1-9.57,4H31.06A20.38,20.38,0,0,1,16.68,23.74a20.1,20.1,0,0,1,14.38-6A20.48,20.48,0,0,1,42.12,21,21.12,21.12,0,0,1,49,28.51a5.69,5.69,0,0,0,5,3h.16l.61,0a13.56,13.56,0,0,1,9.5,23.12Z"/><path d="M7,75.63H7A3.16,3.16,0,1,1,7,69.3H19.2a3.16,3.16,0,1,1,0,6.33Z"/><path d="M31.57,75.63h0a3.16,3.16,0,1,1,0-6.33H43.84a3.16,3.16,0,0,1,0,6.33Z"/><path d="M56.17,75.63h0a3.16,3.16,0,0,1,0-6.33H68.44a3.16,3.16,0,1,1,0,6.33Z"/><path d="M80.8,75.63h0a3.16,3.16,0,0,1,0-6.33H93.07a3.16,3.16,0,1,1,0,6.33Z"/><path d="M19.26,90.81h0a3.14,3.14,0,1,1,0-6.28H31.52a3.14,3.14,0,1,1,0,6.28Z"/><path d="M43.87,90.81h0a3.14,3.14,0,1,1,0-6.28H56.12a3.14,3.14,0,1,1,0,6.28Z"/><path d="M68.53,90.81h0a3.14,3.14,0,1,1,0-6.28H80.78a3.14,3.14,0,0,1,0,6.28Z"/><path d="M47,41.63H38.16l8.38-12.25a1.61,1.61,0,0,0,.29-.91,1.42,1.42,0,0,0-1.43-1.4H31.89a1.46,1.46,0,0,0-1.26.77l-9.71,19a1.48,1.48,0,0,0-.22.74A1.41,1.41,0,0,0,22.11,49H31L27,65.22a1.43,1.43,0,0,0,2.47,1.28L48.13,44a1.54,1.54,0,0,0,.34-1A1.4,1.4,0,0,0,47,41.63ZM31.26,59.87l3-11.95a1.43,1.43,0,0,0-1-1.75,2,2,0,0,0-.34,0H24.43l8.35-16.22h9.93L34.28,42.27a1.42,1.42,0,0,0,1.16,2.2H44Z"/></g></svg>