<svg xmlns="http://www.w3.org/2000/svg" viewBox="0 0 100 100"><title>34</title><g id="分離模式"><path d="M30.77,40.71H44.28a1.42,1.42,0,0,1,1.43,1.4,1.61,1.61,0,0,1-.29.91L37,55.27h8.89a1.4,1.4,0,0,1,1.41,1.41,1.54,1.54,0,0,1-.34,1L28.33,80.14a1.43,1.43,0,0,1-2.47-1.28l4.06-16.24H21a1.41,1.41,0,0,1-1.41-1.43,1.48,1.48,0,0,1,.22-.74l9.71-19a1.46,1.46,0,0,1,1.26-.77Zm10.82,2.84H31.66L23.31,59.78h8.41a2,2,0,0,1,.34,0,1.43,1.43,0,0,1,1,1.75l-3,11.95L42.9,58.11H34.32a1.42,1.42,0,0,1-1.16-2.2l8.43-12.35Z"/><path d="M73.56,69.25h0A2.52,2.52,0,0,1,77,68.31a2.56,2.56,0,0,1,1,3.45l-.43.78A2.55,2.55,0,0,1,73.11,70l.45-.76Z"/><path d="M78.75,60.25h0a2.53,2.53,0,0,1,4.39,2.53l-.45.76a2.51,2.51,0,0,1-3.45.94,2.56,2.56,0,0,1-1-3.43l.47-.79Z"/><path d="M68.37,78.21h0a2.53,2.53,0,0,1,3.45-.94,2.57,2.57,0,0,1,.94,3.47l-.43.8A2.55,2.55,0,0,1,67.92,79l.45-.78Z"/><path d="M57,78.21h0a2.53,2.53,0,1,1,4.39,2.53l-.43.8A2.54,2.54,0,0,1,56.52,79l.43-.78Z"/><path d="M45.55,78.21h0A2.54,2.54,0,1,1,50,80.74l-.47.8A2.53,2.53,0,0,1,45.12,79l.43-.78Z"/><path d="M91.12,30.56a13.25,13.25,0,0,0-9.38-3.91h-.48a18.51,18.51,0,0,0-6.07-6.57,18,18,0,0,0-22.5,2.39A17.84,17.84,0,0,0,48.21,30a27.22,27.22,0,0,0-3-2.3A26.07,26.07,0,0,0,12.64,68.06c.33.33,2.77,1.62,4.14,0a2.92,2.92,0,0,0-.12-4,20.38,20.38,0,0,1,14.4-34.8,20.48,20.48,0,0,1,11.06,3.25A21.12,21.12,0,0,1,49,40a5.69,5.69,0,0,0,5,3h.16l.61,0A13.63,13.63,0,0,1,66,49a12.21,12.21,0,0,1,1.67,3.58A13.55,13.55,0,0,1,54.7,70,2.57,2.57,0,0,0,52,72.92a2.62,2.62,0,0,0,2.7,2.78A19.12,19.12,0,0,0,73.61,53.21h8.12a13.27,13.27,0,0,0,9.38-22.65Z"/></g></svg>