<svg xmlns="http://www.w3.org/2000/svg" viewBox="0 0 100 100"><title>37</title><g id="note"><path d="M50.74,53l-2.6-1.5,2-1.13A1.37,1.37,0,0,0,48.74,48l-3.27,1.93L44,49V43.78l1.46-.89,3.31,1.93a1.35,1.35,0,0,0,1.84-.5,1.37,1.37,0,0,0-.51-1.86l-2-1.13,2.6-1.5a1.37,1.37,0,0,0,.5-1.87,1.41,1.41,0,0,0-1.91-.5l-2.64,1.49V36.68a1.33,1.33,0,1,0-2.66,0v3.85l-1.69.93-4.48-2.55V37l3.4-1.92a1.35,1.35,0,0,0-.32-2.5,1.4,1.4,0,0,0-1.06.14l-2,1.12v-3a1.33,1.33,0,1,0-2.66,0v3l-1.94-1.14a1.35,1.35,0,0,0-1.85.5,1.37,1.37,0,0,0,.48,1.87L35.21,37v2.11l-4.09,2.38-1.7-1V36.68a1.33,1.33,0,1,0-2.66,0v2.26l-2.64-1.49a1.37,1.37,0,0,0-1.4,2.36l2.59,1.5-2,1.13a1.37,1.37,0,0,0-.5,1.87,1.4,1.4,0,0,0,1.87.5l3.36-1.92,1.76,1v5l-1.76,1L24.73,48a1.37,1.37,0,0,0-1.38,2.37l2,1.14L22.72,53a1.37,1.37,0,0,0,.68,2.55,1.51,1.51,0,0,0,.72-.18l2.64-1.49v2.26a1.34,1.34,0,1,0,2.67,0V52.24l1.79-1,4.38,2.49v2l-3.4,1.92a1.42,1.42,0,0,0-.66.86,1.32,1.32,0,0,0,.13,1,1.34,1.34,0,0,0,1.17.68,1.58,1.58,0,0,0,.74-.18l2-1.12v3a1.33,1.33,0,1,0,2.66,0v-3L40.19,60a1.37,1.37,0,0,0,1.37-2.37l-3.31-1.92v-2l4.19-2.44,1.6.95v3.84a1.33,1.33,0,1,0,2.66,0V53.83l2.64,1.49a1.45,1.45,0,0,0,1.9-.5A1.37,1.37,0,0,0,50.74,53ZM41,48.88l-4.24,2.5-4.23-2.5v-5l4.23-2.5L41,43.9Z"/></g><g id="分離模式"><path d="M7,75.63H7A3.16,3.16,0,1,1,7,69.3H19.2a3.16,3.16,0,1,1,0,6.33Z"/><path d="M31.57,75.63h0a3.16,3.16,0,1,1,0-6.33H43.84a3.16,3.16,0,0,1,0,6.33Z"/><path d="M56.17,75.63h0a3.16,3.16,0,0,1,0-6.33H68.44a3.16,3.16,0,1,1,0,6.33Z"/><path d="M80.8,75.63h0a3.16,3.16,0,0,1,0-6.33H93.07a3.16,3.16,0,1,1,0,6.33Z"/><path d="M19.26,90.81h0a3.14,3.14,0,1,1,0-6.28H31.52a3.14,3.14,0,1,1,0,6.28Z"/><path d="M43.87,90.81h0a3.14,3.14,0,1,1,0-6.28H56.12a3.14,3.14,0,1,1,0,6.28Z"/><path d="M68.53,90.81h0a3.14,3.14,0,1,1,0-6.28H80.78a3.14,3.14,0,0,1,0,6.28Z"/><path d="M91.12,20.12a13.25,13.25,0,0,0-9.38-3.91h-.48a18.51,18.51,0,0,0-6.07-6.57A18,18,0,0,0,52.69,12a17.84,17.84,0,0,0-4.48,7.54,27.22,27.22,0,0,0-3-2.3A26.07,26.07,0,0,0,12.64,57.62c.33.33,2.77,1.62,4.14,0a2.92,2.92,0,0,0-.12-4,20.38,20.38,0,0,1,14.4-34.8,20.48,20.48,0,0,1,11.06,3.25A21.12,21.12,0,0,1,49,29.53a5.69,5.69,0,0,0,5,3h.16l.61,0A13.63,13.63,0,0,1,66,38.6a12.21,12.21,0,0,1,1.67,3.58,13.55,13.55,0,0,1-13,17.39A2.57,2.57,0,0,0,52,62.48a2.62,2.62,0,0,0,2.7,2.78A19.12,19.12,0,0,0,73.61,42.78h8.12a13.27,13.27,0,0,0,9.38-22.65Z"/></g></svg>