<svg xmlns="http://www.w3.org/2000/svg" viewBox="0 0 100 100"><title>42</title><g id="note"><path d="M83.22,65.58,77.05,62l4.66-2.69a3.24,3.24,0,0,0-3.24-5.61l-7.75,4.57-3.47-2.12V43.83l3.47-2.12,7.84,4.57a3.21,3.21,0,0,0,4.37-1.19,3.24,3.24,0,0,0-1.2-4.42L77.06,38l6.16-3.56A3.24,3.24,0,0,0,84.4,30a3.35,3.35,0,0,0-4.53-1.18l-6.26,3.54V27a3.15,3.15,0,1,0-6.3,0v9.13l-4,2.21-10.61-6V27.82l8.06-4.56A3.2,3.2,0,0,0,60,17.34a3.31,3.31,0,0,0-2.52.32L52.7,20.33V13.24a3.15,3.15,0,1,0-6.31,0v7.13l-4.6-2.71a3.19,3.19,0,0,0-4.39,1.19,3.24,3.24,0,0,0,1.14,4.42l7.85,4.56v5L36.7,38.49l-4-2.38V27a3.15,3.15,0,1,0-6.31,0v5.36l-6.25-3.54a3.26,3.26,0,0,0-3.32,5.6L23,38l-4.66,2.69a3.24,3.24,0,0,0-1.19,4.42,3.33,3.33,0,0,0,4.42,1.19l8-4.56,4.17,2.36V55.92l-4.17,2.36-7.92-4.56a3.24,3.24,0,0,0-3.27,5.61L22.95,62l-6.16,3.56a3.24,3.24,0,0,0,1.62,6,3.57,3.57,0,0,0,1.71-.43l6.26-3.54V73a3.17,3.17,0,1,0,6.33,0l0-9.13,4.25-2.35,10.37,5.9v4.75l-8.05,4.56a3.37,3.37,0,0,0-1.56,2A3.12,3.12,0,0,0,38,81.15a3.17,3.17,0,0,0,2.77,1.62,3.74,3.74,0,0,0,1.75-.44l4.79-2.66v7.08a3.15,3.15,0,1,0,6.3,0V79.63l4.6,2.71a3.24,3.24,0,0,0,3.24-5.61l-7.84-4.56V67.43l9.93-5.78,3.78,2.24V73a3.15,3.15,0,1,0,6.3,0V67.65l6.25,3.53A3.44,3.44,0,0,0,84.38,70,3.24,3.24,0,0,0,83.22,65.58ZM60,55.9,50,61.83,40,55.9V44.09l10-5.92,10,5.92Z"/></g></svg>