<?xml version="1.0" encoding="utf-8"?>
<!-- Generator: Adobe Illustrator 24.0.2, SVG Export Plug-In . SVG Version: 6.00 Build 0)  -->
<svg version="1.1" id="圖層_1" xmlns="http://www.w3.org/2000/svg" xmlns:xlink="http://www.w3.org/1999/xlink" x="0px" y="0px"
	 viewBox="0 0 100 100" style="enable-background:new 0 0 100 100;" xml:space="preserve">
<path d="M40,35.4v29.1L66,50L40,35.4z M51.8,16c3.1,0,9.8,0.1,16.8,0.3l3.8,0.1c7,0.3,13.7,0.8,16.7,1.6c4.3,1.1,7.7,4.4,8.8,8.6
	c1.8,6.4,2,18.8,2.1,22.4v2c0,3.6-0.3,15.9-2.1,22.4c-1.2,4.2-4.5,7.5-8.8,8.6c-6.7,1.7-30.6,2-37.3,2h-3.5c-6.7,0-30.6-0.3-37.3-2
	c-4.3-1.1-7.7-4.4-8.8-8.6C0.3,66.9,0,54.6,0,51v-2c0-3.6,0.3-15.9,2.1-22.4c1.2-4.2,4.5-7.5,8.8-8.6c3.1-0.8,9.8-1.3,16.7-1.6
	l3.8-0.1c7-0.2,13.7-0.3,16.8-0.3H51.8z"/>
</svg>
